<svg width="248" height="264" viewBox="0 0 248 264" fill="none" xmlns="http://www.w3.org/2000/svg">
<path d="M97.2589 117.871V180.949C97.2589 184.565 98.2128 187.974 99.8807 190.931C103.394 197.162 110.08 201.389 117.703 201.389H176.438C183.782 201.389 190.256 197.465 193.861 191.61C195.777 188.5 196.882 184.848 196.882 180.949V117.871C196.882 116.486 196.743 115.137 196.475 113.828C195.745 110.207 194.048 106.931 191.665 104.272C187.917 100.081 182.473 97.4312 176.438 97.4312H117.703C108.934 97.4312 101.406 103.023 98.5198 110.818C97.7057 113.022 97.2589 115.397 97.2589 117.871Z" fill="white"/>
<path d="M117.702 98.9562C107.272 98.9562 98.7858 107.441 98.7858 117.871V180.948C98.7858 191.378 107.272 199.864 117.702 199.864H176.439C186.869 199.864 195.355 191.378 195.355 180.948V117.871C195.355 107.441 186.869 98.9562 176.439 98.9562H117.702ZM176.439 202.915H117.702C105.589 202.915 95.735 193.061 95.735 180.948V117.871C95.735 105.758 105.589 95.9043 117.702 95.9043H176.439C188.552 95.9043 198.406 105.758 198.406 117.871V180.948C198.406 193.061 188.552 202.915 176.439 202.915Z" fill="#1A1D63"/>
<path d="M110.379 103.4C110.379 103.4 84.9409 132.327 84.9409 156.486C84.9409 177.163 110.379 184.276 110.379 184.276L145.635 124.566L110.379 103.4Z" fill="white"/>
<path d="M84.9409 156.484C84.9409 177.165 110.379 184.276 110.379 184.276L111.249 182.805L145.636 124.566L119.056 108.607L110.379 103.398C110.379 103.398 84.9409 132.328 84.9409 156.484Z" fill="white"/>
<path d="M98.619 170.823C98.0979 169.905 97.6319 168.941 97.2287 167.932C97.6108 168.032 98.0018 168.106 98.3998 168.154C98.5299 168.17 98.6608 168.185 98.792 168.201C98.7287 169.075 98.6709 169.948 98.619 170.823ZM96.4268 151.366C97.753 144.655 100.54 137.862 103.779 131.654C102.916 135.656 102.189 139.657 101.567 143.7C101.194 146.085 100.864 148.478 100.562 150.874C100.321 150.863 100.083 150.853 99.8479 150.842C99.7069 150.835 99.567 150.832 99.4268 150.832C98.378 150.832 97.3659 151.019 96.4268 151.366Z" fill="#B9AFBE"/>
<path d="M110.704 105.375C106.38 110.567 86.467 135.613 86.467 156.486C86.467 173.382 104.928 180.817 109.684 182.451L143.551 125.095L110.704 105.375ZM111.096 186.061L109.968 185.746C109.698 185.67 103.29 183.848 96.7967 179.393C88.042 173.388 83.4147 165.467 83.4147 156.486C83.4147 132.032 108.179 103.591 109.233 102.392L110.073 101.437L147.719 124.038L111.096 186.061Z" fill="#1A1D63"/>
<path d="M186.173 138.462C186.173 138.462 196.951 151.959 214.215 148.98C232.118 145.891 228.949 116.096 228.949 116.096L201.747 105.622C201.747 105.622 203.437 114.929 199.498 114.927C195.086 114.925 187.211 104.545 180.333 101.43L186.173 138.462Z" fill="white"/>
<path d="M209.327 147.877C201.608 147.877 195.551 144.506 191.77 141.608L191.593 140.556C191.36 139.264 191.099 137.976 190.851 136.687C190.35 134.109 189.784 131.543 189.184 128.987C189.143 128.815 189.102 128.642 189.061 128.469C193.347 135.018 199.938 142.112 208.38 142.112C209.237 142.112 210.116 142.039 211.012 141.884C223.811 139.674 224.879 124.34 216.457 122.812C217.149 122.867 217.822 122.892 218.466 122.892C220.735 122.892 222.651 122.591 223.771 122.318C225.209 121.968 226.491 121.45 227.628 120.831C227.662 128.983 226.182 145.367 213.956 147.477C212.355 147.753 210.811 147.877 209.327 147.877Z" fill="#B9AFBE"/>
<path d="M209.198 150.943C194.375 150.943 185.397 139.935 184.981 139.414C184.455 138.756 184.562 137.795 185.221 137.269C185.879 136.744 186.838 136.851 187.364 137.508C187.467 137.636 197.818 150.26 213.956 147.477C228.559 144.957 227.831 122.073 227.504 117.175L203.577 107.962C203.752 110.282 203.671 113.461 202.241 115.173C201.542 116.011 200.593 116.454 199.499 116.454H199.497C196.564 116.452 193.122 113.405 189.137 109.877C185.972 107.074 182.699 104.177 179.703 102.82C178.936 102.472 178.595 101.568 178.943 100.801C179.291 100.033 180.196 99.6922 180.962 100.04C184.378 101.587 187.826 104.64 191.16 107.592C194.236 110.315 197.721 113.401 199.499 113.402C199.685 113.402 199.782 113.357 199.899 113.217C200.835 112.097 200.659 108.185 200.246 105.894L199.764 103.225L230.367 115.007L230.466 115.934C230.601 117.209 233.567 147.189 214.475 150.484C212.643 150.8 210.882 150.943 209.198 150.943Z" fill="#1A1D63"/>
<path d="M93.1639 252.025C93.1877 252.284 93.2241 252.544 93.2717 252.791C94.5647 260.451 103.538 263.189 119.687 261.074C126.999 260.124 137.11 258.994 139.776 253.17C145.101 241.547 139.668 218.029 140.299 202.958V202.934C140.299 202.934 143.237 203.293 146.881 203.293C150.529 203.293 153.467 202.934 153.467 202.934C153.471 203.057 153.475 203.177 153.479 203.301C154.018 218.381 148.709 241.635 153.99 253.17C156.656 258.994 166.763 260.124 174.079 261.074C190.248 263.189 199.221 260.447 200.503 252.767C200.542 252.52 200.578 252.276 200.606 252.025C201.536 242.665 188.48 238.318 188.48 238.318C188.48 238.318 191.326 218.456 193.206 200.535C193.997 192.999 194.176 185.203 193.929 177.448C193.869 175.44 193.777 173.433 193.661 171.433C193.494 168.587 193.278 165.761 193.019 162.963C192.791 160.536 192.536 158.137 192.248 155.77C191.186 146.873 189.758 138.455 188.285 131.051C186.967 124.409 185.614 118.578 184.453 113.948C184.193 112.926 183.95 111.964 183.714 111.062C182.297 105.605 181.316 102.428 181.316 102.428H112.451C112.451 102.428 111.461 105.629 110.04 111.114C109.202 114.327 108.216 118.33 107.19 122.936C106.791 124.736 106.383 126.629 105.976 128.604C104.328 136.599 102.695 145.919 101.514 155.838C101.239 158.153 100.987 160.5 100.763 162.871C100.492 165.769 100.269 168.703 100.101 171.652C99.9768 173.744 99.885 175.843 99.8248 177.947C99.7858 179.34 99.758 180.733 99.7459 182.13C99.6897 188.329 99.933 194.52 100.564 200.535C102.44 218.456 105.286 238.318 105.286 238.318C105.286 238.318 92.2338 242.665 93.1639 252.025Z" fill="white"/>
<path d="M183.586 260.236C181.941 260.236 180.284 260.157 178.629 260.028C177.367 259.919 176.105 259.799 174.843 259.635L171.024 259.136C168.495 258.784 165.995 258.376 163.604 257.736C161.233 257.093 158.906 256.219 157.194 254.817C156.775 254.465 156.398 254.084 156.076 253.676L155.845 253.364L155.643 253.039C155.57 252.933 155.525 252.815 155.463 252.703L155.376 252.535L155.291 252.33C154.802 251.262 154.466 250.095 154.17 248.917C153.603 246.543 153.342 244.047 153.229 241.531C153.11 239.014 153.146 236.469 153.25 233.918C153.458 228.814 153.939 223.688 154.36 218.529C154.735 213.805 155.115 209.052 155.028 204.21C156.225 203.962 157.353 203.625 158.497 203.24C160.03 202.71 161.523 202.075 162.965 201.339C163.689 200.979 164.391 200.572 165.093 200.176C165.779 199.745 166.464 199.32 167.104 198.82C168.408 197.867 169.603 196.751 170.623 195.486C170.622 195.486 170.621 195.486 170.621 195.487C170.622 195.486 170.623 195.485 170.624 195.484C170.624 195.484 170.002 209.539 161.97 220.302C153.934 231.069 154.771 239.706 159.938 248.348C162.52 252.667 173.204 255.449 184.01 255.448C189.209 255.448 194.438 254.804 198.805 253.377C198.671 253.857 198.497 254.318 198.285 254.752C197.343 256.657 195.494 258.026 193.291 258.831C191.092 259.654 188.632 260.015 186.158 260.167C185.305 260.214 184.447 260.236 183.586 260.236Z" fill="#B9AFBE"/>
<path d="M110.179 260.236C109.317 260.236 108.459 260.214 107.606 260.167C105.132 260.015 102.673 259.654 100.474 258.831C98.2698 258.026 96.4209 256.657 95.4788 254.752C95.2409 254.265 95.0498 253.742 94.912 253.199C99.285 254.197 104.187 254.661 109.001 254.661C120.142 254.661 130.802 252.172 133.266 248.05C138.433 239.413 137.883 230.546 130.332 219.401C120.973 205.589 123.172 195.484 123.172 195.484C123.174 195.485 123.175 195.486 123.176 195.487C123.175 195.486 123.175 195.486 123.174 195.486C124.194 196.751 125.389 197.867 126.693 198.82C127.333 199.32 128.018 199.745 128.704 200.176C129.406 200.572 130.108 200.979 130.832 201.339C132.273 202.075 133.767 202.71 135.3 203.24C136.433 203.621 137.551 203.956 138.737 204.203C138.649 209.047 139.029 213.802 139.404 218.529C139.825 223.688 140.306 228.814 140.515 233.918C140.619 236.469 140.654 239.014 140.535 241.531C140.423 244.047 140.161 246.543 139.595 248.917C139.299 250.095 138.962 251.262 138.473 252.33L138.389 252.535L138.301 252.703C138.24 252.815 138.195 252.933 138.121 253.039L137.919 253.364L137.689 253.676C137.367 254.084 136.99 254.465 136.571 254.817C134.859 256.219 132.531 257.093 130.161 257.736C127.77 258.376 125.27 258.784 122.74 259.136L118.921 259.635C117.66 259.799 116.397 259.919 115.136 260.028C113.48 260.157 111.824 260.236 110.179 260.236Z" fill="#B9AFBE"/>
<path d="M184.942 113.823C186.608 118.805 187.972 123.879 189.184 128.987C189.784 131.543 190.35 134.109 190.851 136.687C191.099 137.976 191.36 139.264 191.593 140.556L192.248 144.442C192.474 145.736 192.672 147.036 192.863 148.336L193.44 152.236C193.614 153.539 193.776 154.844 193.931 156.15C194.1 157.454 194.229 158.763 194.356 160.072C194.937 165.301 195.231 170.563 195.454 175.824C195.572 181.091 195.663 186.364 195.364 191.638L195.272 193.615L195.227 194.604L195.145 195.591L194.816 199.541C194.59 202.171 194.273 204.759 193.988 207.367C192.794 217.779 191.451 228.156 189.99 238.534L188.962 236.87C189.671 237.117 190.267 237.367 190.899 237.647C191.52 237.925 192.13 238.224 192.732 238.541C193.932 239.182 195.099 239.902 196.205 240.737C197.314 241.562 198.355 242.519 199.282 243.612C200.207 244.705 200.986 245.978 201.512 247.38C202.037 248.783 202.242 250.324 202.142 251.813C202.054 253.28 201.686 254.746 201.015 256.116C200.331 257.473 199.332 258.686 198.157 259.595C196.99 260.523 195.689 261.194 194.369 261.686C191.72 262.672 189.005 263.045 186.335 263.213C183.661 263.362 181.011 263.274 178.386 263.07C177.075 262.957 175.766 262.832 174.467 262.664L170.605 262.159C168.022 261.798 165.413 261.378 162.812 260.683C161.512 260.337 160.214 259.909 158.937 259.36C157.662 258.803 156.402 258.111 155.251 257.171C154.681 256.694 154.143 256.156 153.666 255.549C153.191 254.958 152.783 254.226 152.5 253.563C151.916 252.279 151.534 250.952 151.202 249.629C150.571 246.975 150.301 244.311 150.18 241.671C150.056 239.028 150.094 236.404 150.2 233.796C150.414 228.578 150.9 223.416 151.319 218.281C151.728 213.152 152.128 208.023 151.942 202.999L153.653 204.449C152.492 204.581 151.393 204.664 150.262 204.727C149.138 204.788 148.012 204.819 146.882 204.821C145.752 204.819 144.626 204.788 143.502 204.727C142.372 204.664 141.273 204.581 140.112 204.449L141.823 202.999C141.636 208.023 142.036 213.152 142.446 218.281C142.864 223.416 143.351 228.578 143.564 233.796C143.67 236.404 143.708 239.028 143.584 241.671C143.464 244.311 143.194 246.975 142.562 249.629C142.23 250.952 141.849 252.279 141.265 253.563C140.981 254.226 140.573 254.958 140.098 255.549C139.622 256.156 139.083 256.694 138.513 257.171C137.362 258.111 136.102 258.803 134.828 259.36C133.55 259.909 132.252 260.337 130.953 260.683C128.352 261.378 125.743 261.798 123.16 262.159L119.297 262.664C117.998 262.832 116.689 262.957 115.378 263.07C112.753 263.274 110.104 263.362 107.43 263.213C104.76 263.045 102.045 262.672 99.3948 261.686C98.0748 261.194 96.7741 260.523 95.6069 259.595C94.4319 258.686 93.433 257.473 92.7491 256.116C92.078 254.746 91.71 253.28 91.6229 251.813C91.5229 250.324 91.728 248.783 92.2518 247.38C92.7787 245.978 93.558 244.705 94.4819 243.612C95.4088 242.519 96.4498 241.562 97.56 240.737C98.6659 239.902 99.8319 239.182 101.033 238.541C101.635 238.224 102.245 237.925 102.866 237.647C103.497 237.367 104.093 237.117 104.803 236.87L103.774 238.534C102.303 228.075 100.948 217.616 99.7491 207.122C99.4619 204.493 99.144 201.888 98.9159 199.231C98.8088 197.905 98.66 196.579 98.5889 195.251L98.3639 191.266C98.1557 185.95 98.185 180.635 98.3959 175.332C98.5979 170.028 99.019 164.738 99.569 159.467C99.6897 158.148 99.8448 156.832 99.9979 155.516C100.144 154.199 100.303 152.884 100.475 151.571C100.801 148.942 101.158 146.317 101.567 143.7C102.375 138.454 103.357 133.28 104.586 128.082C104.908 126.793 105.249 125.515 105.616 124.242C105.972 122.965 106.355 121.697 106.756 120.432C107.567 117.906 108.433 115.389 109.542 112.951C109.659 112.694 109.962 112.58 110.219 112.697C110.441 112.798 110.556 113.037 110.509 113.265L110.507 113.272C109.45 118.413 108.479 123.582 107.456 128.724C106.54 133.846 105.626 139.045 104.778 144.211C103.056 154.555 101.846 164.994 101.445 175.456C101.237 180.685 101.209 185.918 101.413 191.138C101.628 196.354 102.185 201.533 102.781 206.778C103.975 217.231 105.329 227.683 106.795 238.101L106.97 239.346L105.767 239.765C105.257 239.943 104.659 240.188 104.112 240.433C103.554 240.683 103.004 240.952 102.464 241.237C101.387 241.812 100.351 242.453 99.3948 243.175C97.4838 244.606 95.8698 246.389 95.117 248.433C94.7377 249.45 94.5979 250.525 94.6678 251.609C94.7299 252.719 95.0159 253.803 95.4787 254.752C96.4209 256.657 98.2698 258.026 100.474 258.831C102.673 259.654 105.132 260.015 107.606 260.167C110.09 260.305 112.613 260.224 115.136 260.028C116.397 259.919 117.66 259.799 118.921 259.635L122.74 259.136C125.27 258.784 127.77 258.376 130.161 257.736C132.531 257.093 134.859 256.219 136.571 254.817C136.99 254.465 137.367 254.084 137.689 253.676L137.919 253.364L138.121 253.039C138.195 252.933 138.24 252.815 138.301 252.703L138.389 252.535L138.473 252.33C138.962 251.262 139.299 250.095 139.595 248.917C140.161 246.543 140.423 244.047 140.535 241.531C140.654 239.014 140.619 236.469 140.515 233.918C140.306 228.814 139.825 223.688 139.404 218.529C138.995 213.369 138.579 208.176 138.773 202.87L138.834 201.231L140.484 201.42C141.508 201.537 142.603 201.621 143.668 201.679C144.74 201.738 145.813 201.768 146.882 201.769C147.951 201.768 149.024 201.738 150.096 201.679C151.161 201.621 152.256 201.537 153.28 201.42L154.931 201.231L154.991 202.87C155.186 208.176 154.77 213.369 154.36 218.529C153.939 223.688 153.458 228.814 153.25 233.918C153.146 236.469 153.11 239.014 153.229 241.531C153.342 244.047 153.603 246.543 154.17 248.917C154.466 250.095 154.802 251.262 155.291 252.33L155.376 252.535L155.463 252.703C155.525 252.815 155.57 252.933 155.643 253.039L155.845 253.364L156.076 253.676C156.398 254.084 156.775 254.465 157.194 254.817C158.906 256.219 161.233 257.093 163.604 257.736C165.995 258.376 168.495 258.784 171.024 259.136L174.843 259.635C176.105 259.799 177.367 259.919 178.629 260.028C181.151 260.224 183.675 260.305 186.158 260.167C188.632 260.015 191.092 259.654 193.291 258.831C195.494 258.026 197.343 256.657 198.285 254.752C198.749 253.803 199.034 252.719 199.097 251.609C199.166 250.525 199.027 249.45 198.648 248.433C197.894 246.389 196.28 244.606 194.37 243.175C193.414 242.453 192.377 241.812 191.3 241.237C190.76 240.952 190.21 240.683 189.653 240.433C189.106 240.188 188.508 239.943 187.998 239.765L186.794 239.346L186.969 238.101C188.425 227.764 189.767 217.394 190.956 207.022C191.239 204.432 191.557 201.828 191.778 199.247L192.1 195.379L192.181 194.412L192.221 193.442L192.301 191.5C192.559 186.326 192.468 181.132 192.289 175.946C191.785 165.573 190.671 155.225 189.154 144.927C187.609 134.631 185.74 124.386 183.956 114.07C183.908 113.792 184.094 113.528 184.371 113.48C184.623 113.437 184.864 113.587 184.942 113.823Z" fill="#1A1D63"/>
<path d="M118.716 227.001C106.208 227.001 101.906 221.554 101.654 221.22C101.148 220.546 101.283 219.59 101.957 219.083C102.626 218.579 103.575 218.71 104.084 219.373C104.218 219.54 112.409 229.27 140.205 219.764C141.005 219.492 141.87 219.917 142.142 220.714C142.415 221.512 141.99 222.379 141.192 222.652C131.753 225.88 124.39 227.001 118.716 227.001Z" fill="#1A1D63"/>
<path d="M176.3 227.715C165.104 227.715 153.105 223.765 152.342 223.509C151.543 223.242 151.112 222.378 151.38 221.579C151.646 220.779 152.514 220.348 153.31 220.615C153.58 220.705 180.351 229.519 189.631 220.942C190.25 220.37 191.216 220.408 191.787 221.027C192.359 221.645 192.322 222.611 191.702 223.183C188.015 226.591 182.272 227.715 176.3 227.715Z" fill="#1A1D63"/>
<path d="M89.3897 84.9441C90.035 84.8562 90.4858 84.2621 90.3967 83.6171L85.7807 50.0023C85.6928 49.3582 85.0979 48.907 84.4538 48.9953C77.692 49.9242 72.9627 56.1582 73.892 62.9203L75.4659 74.382C76.394 81.1441 82.6288 85.873 89.3897 84.9441Z" fill="white"/>
<path d="M84.6159 49.2581C84.5748 49.2581 84.5331 49.2612 84.4909 49.2671C81.2928 49.7062 78.458 51.364 76.508 53.9362C74.5569 56.5069 73.7241 59.6843 74.1627 62.8819L75.7377 74.3452C76.1768 77.5433 77.835 80.378 80.4069 82.3292C82.978 84.28 86.1549 85.1113 89.353 84.673C89.8467 84.605 90.1928 84.148 90.126 83.6542L85.51 50.039C85.4768 49.8003 85.353 49.5882 85.16 49.4421C85.0018 49.3222 84.812 49.2581 84.6159 49.2581ZM87.6831 85.3363C84.9448 85.3363 82.294 84.4491 80.0748 82.7659C77.3858 80.7261 75.6537 77.7632 75.1948 74.4202L73.6198 62.9569C73.1608 59.614 74.0307 56.2933 76.0709 53.6042C78.11 50.9159 81.0729 49.1831 84.417 48.7241C84.7967 48.671 85.1819 48.771 85.4909 49.005C85.801 49.2401 85.9999 49.58 86.053 49.9651L90.669 83.58C90.778 84.373 90.2209 85.107 89.4268 85.2159C88.8448 85.296 88.262 85.3363 87.6831 85.3363Z" fill="#1A1D63"/>
<path d="M87.6877 83.5351C85.3377 83.5351 83.0659 82.7754 81.1627 81.332C78.858 79.5832 77.3709 77.041 76.978 74.1754L76.6459 71.7601C78.851 74.1504 81.967 75.6383 85.3491 75.7371C85.5428 76.414 85.7479 77.0883 85.9639 77.7551C86.5397 79.7242 87.228 81.6512 88.0229 83.5301C87.9108 83.5332 87.7998 83.5351 87.6877 83.5351Z" fill="#B9AFBE"/>
<path d="M84.317 50.5601C81.592 51.0211 79.183 52.4801 77.5049 54.6922C75.7557 56.9973 75.01 59.8461 75.4037 62.7121L76.978 74.1754C77.3709 77.041 78.858 79.5832 81.1627 81.332C83.3748 83.0102 86.0858 83.7641 88.8377 83.4754L84.317 50.5601ZM87.6799 86.5883C84.6709 86.5883 81.758 85.6133 79.319 83.7633C76.3639 81.5223 74.4588 78.2641 73.9537 74.5902L72.3799 63.1273C71.876 59.4531 72.8319 55.8031 75.0729 52.848C77.3147 49.8933 80.5717 47.9883 84.2459 47.4844C84.96 47.3844 85.6717 47.5711 86.2479 48.0082C86.8229 48.4453 87.1948 49.0793 87.2928 49.7953L91.9088 83.4102C92.1119 84.8871 91.0748 86.2531 89.5979 86.4562C88.9569 86.5441 88.3159 86.5883 87.6799 86.5883Z" fill="#1A1D63"/>
<path d="M195.41 33.7594C194.765 33.8473 194.314 34.441 194.403 35.0863L199.019 68.7012C199.107 69.3461 199.702 69.7961 200.346 69.7082C207.108 68.7793 211.837 62.5453 210.908 55.7832L209.334 44.3211C208.405 37.5594 202.171 32.8301 195.41 33.7594Z" fill="white"/>
<path d="M195.447 34.03C194.953 34.098 194.607 34.555 194.674 35.0491L199.29 68.664C199.323 68.9031 199.447 69.1152 199.639 69.2613C199.832 69.407 200.069 69.4691 200.309 69.4363C203.507 68.9972 206.342 67.339 208.292 64.7671C210.243 62.196 211.075 59.0191 210.636 55.821L209.062 44.3581C208.623 41.1601 206.965 38.3253 204.393 36.3741C201.822 34.4241 198.646 33.5933 195.447 34.03ZM200.183 69.9933C199.868 69.9933 199.563 69.8909 199.308 69.698C198.999 69.4632 198.8 69.123 198.747 68.7382L194.131 35.123C194.022 34.33 194.579 33.596 195.372 33.487C198.714 33.0281 202.037 33.898 204.725 35.937C207.413 37.9773 209.146 40.9409 209.605 44.2831L211.179 55.746C211.638 59.089 210.768 62.4113 208.729 65.0991C206.69 67.787 203.726 69.5202 200.383 69.9792C200.316 69.989 200.249 69.9933 200.183 69.9933Z" fill="#1A1D63"/>
<path d="M201.106 68.0191C201.53 65.1672 201.748 62.2652 201.746 59.332C204.906 58.4453 207.497 56.3594 209.075 53.6543L209.396 55.991C209.79 58.8582 209.044 61.7063 207.295 64.0113C205.746 66.0531 203.574 67.4531 201.106 68.0191Z" fill="#B9AFBE"/>
<path d="M195.962 35.2281L200.483 68.1434C203.208 67.682 205.617 66.2242 207.295 64.0113C209.044 61.7063 209.79 58.8582 209.396 55.991L207.822 44.5281C207.428 41.6621 205.942 39.1203 203.637 37.3711C201.425 35.6941 198.713 34.9383 195.962 35.2281ZM200.184 71.2453C198.855 71.2453 197.693 70.2613 197.507 68.9082L192.891 35.2934C192.688 33.8172 193.725 32.4504 195.201 32.2473H195.202C198.874 31.7422 202.526 32.6992 205.481 34.9402C208.436 37.1813 210.341 40.4391 210.845 44.1133L212.42 55.5762C212.924 59.2504 211.968 62.9012 209.727 65.8551C207.485 68.8102 204.228 70.7152 200.554 71.2203C200.429 71.2371 200.306 71.2453 200.184 71.2453Z" fill="#1A1D63"/>
<path d="M100.892 113.17C100.493 112.796 100.098 112.416 99.7088 112.03C100.611 109.259 102.137 106.766 104.119 104.719C104.746 105.246 105.386 105.762 106.037 106.265C104.619 108.058 102.833 110.406 100.892 113.17ZM189.969 106.54C187.979 104.79 185.955 103.072 183.928 101.719C184.208 101.444 184.484 101.166 184.759 100.885C187.058 102.016 189.096 103.6 190.754 105.52C190.497 105.862 190.235 106.203 189.969 106.54Z" fill="#B9AFBE"/>
<path d="M99.7088 112.03C99.3081 111.632 98.912 111.228 98.5198 110.818C99.5069 108.153 101.036 105.746 102.972 103.731C103.349 104.064 103.732 104.395 104.119 104.719C102.137 106.766 100.611 109.259 99.7088 112.03ZM190.754 105.52C189.096 103.6 187.058 102.016 184.759 100.885C185.127 100.509 185.491 100.127 185.849 99.741C188.052 100.892 190.022 102.434 191.665 104.272C191.368 104.692 191.064 105.108 190.754 105.52Z" fill="#1A1D63"/>
<path d="M107.399 118.477C105.962 117.463 104.568 116.384 103.222 115.245C105.234 112.355 107.08 109.913 108.518 108.082C108.997 108.415 109.482 108.741 109.972 109.06C110.144 109.173 110.317 109.284 110.49 109.395C110.346 109.94 110.195 110.513 110.04 111.114C109.893 111.676 109.742 112.262 109.587 112.872C109.57 112.897 109.555 112.923 109.542 112.951C108.72 114.759 108.031 116.611 107.399 118.477Z" fill="#B9AFBE"/>
<path d="M103.222 115.245C102.704 114.807 102.193 114.36 101.69 113.904C101.421 113.662 101.155 113.417 100.892 113.17C102.833 110.406 104.619 108.058 106.037 106.265C106.846 106.89 107.673 107.496 108.518 108.082C107.08 109.913 105.234 112.355 103.222 115.245Z" fill="#1A1D63"/>
<path d="M184.185 112.894C184.023 112.258 183.867 111.647 183.714 111.062C182.876 107.832 182.189 105.401 181.769 103.955C183.807 105.248 185.926 107.047 188.019 108.888C186.806 110.28 185.527 111.617 184.185 112.894Z" fill="#B9AFBE"/>
<path d="M188.019 108.888C185.926 107.047 183.807 105.248 181.769 103.955C181.752 103.896 181.735 103.839 181.719 103.784C182.473 103.114 183.211 102.425 183.928 101.719C185.955 103.072 187.979 104.79 189.969 106.54C189.654 106.939 189.334 107.334 189.007 107.725C188.683 108.117 188.353 108.505 188.019 108.888Z" fill="#1A1D63"/>
<path d="M142.38 129.614C142.059 129.614 141.737 129.611 141.417 129.606C129.764 129.433 118.638 125.88 109.219 119.715C109.64 117.566 110.066 115.416 110.507 113.272L110.509 113.265C110.556 113.037 110.441 112.798 110.219 112.697C110.151 112.666 110.079 112.651 110.008 112.651C109.843 112.651 109.683 112.732 109.587 112.872C109.742 112.262 109.893 111.676 110.04 111.114C110.195 110.513 110.346 109.94 110.49 109.395C120.127 115.542 131.087 118.719 142.273 118.719C146.375 118.718 150.509 118.291 154.617 117.426C165.05 115.23 174.266 110.403 181.719 103.784C181.735 103.839 181.752 103.896 181.769 103.955C182.189 105.401 182.876 107.832 183.714 111.062C183.867 111.647 184.023 112.258 184.185 112.894C183.603 113.453 183.008 113.999 182.401 114.534C174.821 121.208 165.461 126.078 154.872 128.305C150.68 129.186 146.5 129.614 142.38 129.614Z" fill="#B9AFBE"/>
<path d="M109.219 119.715C108.843 119.469 108.47 119.219 108.1 118.965C107.865 118.804 107.631 118.642 107.399 118.477C108.031 116.611 108.72 114.759 109.542 112.951C109.555 112.923 109.57 112.897 109.587 112.872C109.683 112.732 109.843 112.651 110.008 112.651C110.079 112.651 110.151 112.666 110.219 112.697C110.441 112.798 110.556 113.037 110.509 113.265L110.507 113.272C110.066 115.416 109.64 117.566 109.219 119.715Z" fill="#1A1D63"/>
<path d="M85.812 71.262C92.3897 102.511 123.054 122.511 154.302 115.933C185.551 109.356 205.551 78.6921 198.974 47.4433C192.396 16.1941 161.732 -3.80594 130.484 2.77218C99.235 9.34914 79.235 40.0132 85.812 71.262Z" fill="white"/>
<path d="M142.407 1.79916C138.492 1.79916 134.52 2.20229 130.54 3.04018C115.498 6.20619 102.59 15.0402 94.1928 27.9152C85.7948 40.7902 82.9139 56.164 86.0799 71.205C89.2459 86.2472 98.0799 99.155 110.955 107.553C123.831 115.95 139.205 118.831 154.246 115.665C185.297 109.129 205.241 78.5503 198.706 47.4992C193.008 20.4292 169.034 1.79916 142.407 1.79916ZM142.276 117.467C131.129 117.467 120.211 114.244 110.655 108.012C97.658 99.5351 88.7397 86.5031 85.544 71.3183C82.3479 56.1331 85.2557 40.6132 93.733 27.6152C102.211 14.6183 115.242 5.70033 130.427 2.50307C161.773 -4.09498 192.643 16.0402 199.242 47.387C205.84 78.7331 185.705 109.603 154.359 116.202C150.338 117.048 146.291 117.466 142.276 117.467Z" fill="#1A1D63"/>
<path d="M142.281 115.665C133.258 115.665 124.386 113.486 116.312 109.247C122.383 110.986 129.763 112.21 137.926 112.21C142.636 112.21 147.606 111.802 152.736 110.851C165.952 108.4 177.486 101.976 185.493 95.532C177.676 104.864 166.797 111.744 153.988 114.44C150.091 115.26 146.173 115.666 142.281 115.665Z" fill="#B9AFBE"/>
<path d="M142.407 3.05112C138.577 3.05112 134.691 3.44526 130.798 4.26519C116.083 7.36206 103.456 16.0042 95.2409 28.598C87.0268 41.1933 84.2081 56.2332 87.3049 70.948C90.403 85.6621 99.044 98.2902 111.639 106.504C124.234 114.719 139.275 117.537 153.988 114.44C184.364 108.047 203.874 78.1332 197.481 47.757C191.906 21.2761 168.455 3.05112 142.407 3.05112ZM142.273 118.719C130.886 118.719 119.733 115.427 109.972 109.06C96.6948 100.401 87.5838 87.0882 84.319 71.5761C81.0538 56.064 84.0249 40.2093 92.685 26.932C101.345 13.6542 114.657 4.54409 130.169 1.27925C162.189 -5.46099 193.726 15.107 200.467 47.1292C207.207 79.1511 186.638 110.686 154.617 117.426C150.509 118.291 146.375 118.718 142.273 118.719Z" fill="#1A1D63"/>
<path d="M86.2991 72.6773C88.462 83.7832 94.0749 93.3922 101.902 100.722C107.77 106.217 128.952 113.71 152.457 109.351C174.251 105.309 191.787 89.8543 195.164 82.5582C199.668 72.8273 201.265 61.814 199.102 50.7082C193.378 21.3184 165.755 14.0523 134.604 20.1191C103.453 26.1863 80.5749 43.2883 86.2991 72.6773Z" fill="#1A1D63"/>
<path d="M87.7967 72.3851C89.828 82.8171 95.067 92.23 102.945 99.6081C108.176 104.507 128.622 112.22 152.179 107.851C173.435 103.909 190.56 88.8722 193.779 81.9183C198.313 72.121 199.635 61.43 197.604 51.0003C195.003 37.646 187.67 28.4031 175.808 23.5292C165.136 19.1433 150.989 18.482 134.895 21.6171C118.802 24.7511 105.936 30.673 97.6909 38.7433C88.5248 47.712 85.1959 59.0312 87.7967 72.3851ZM137.926 112.21C119.753 112.21 105.459 106.143 100.859 101.836C92.5088 94.016 86.9557 84.0343 84.8018 72.9691C81.992 58.5441 85.61 46.2953 95.5557 36.5613C104.229 28.0742 117.631 21.8703 134.312 18.621C150.993 15.373 165.743 16.0933 176.968 20.7062C189.84 25.9953 197.79 35.991 200.599 50.416C202.755 61.4812 201.354 72.8171 196.549 83.1992C193 90.866 175.325 106.662 152.736 110.851C147.606 111.802 142.636 112.21 137.926 112.21Z" fill="#1A1D63"/>
<path d="M105.547 75.0242C103.341 75.0242 101.04 73.7812 99.2409 71.6812C98.0819 69.4582 97.0448 67.1562 96.1389 64.7832C95.528 60.5883 97.053 56.782 100.137 55.5801C100.789 55.3262 101.469 55.2051 102.158 55.2051C105.499 55.2051 109.059 58.0562 110.761 62.4223C112.813 67.6883 111.383 73.1621 107.568 74.6492C106.916 74.9031 106.236 75.0242 105.547 75.0242Z" fill="#C3BAC7"/>
<path d="M117.19 87.821C115.64 87.821 114.037 86.871 113.125 85.2421C111.859 82.9792 112.406 80.262 114.349 79.1753C114.893 78.8702 115.49 78.7261 116.094 78.7261C117.645 78.7261 119.248 79.6772 120.16 81.305C121.426 83.569 120.879 86.2851 118.936 87.3722C118.391 87.6772 117.795 87.821 117.19 87.821Z" fill="#C3BAC7"/>
<path d="M138.038 109.143C120.801 109.142 107.091 103.491 102.945 99.6081C95.067 92.23 89.828 82.8171 87.7967 72.3851C85.833 62.3003 87.2498 53.3753 92.0108 45.7472C92.1557 48.3933 92.4948 51.1273 93.0467 53.9503C93.7768 57.7023 94.8178 61.3191 96.1389 64.7831C96.285 65.7792 96.5498 66.7972 96.944 67.807C97.5217 69.2909 98.3147 70.6003 99.2408 71.6812C102.747 78.403 107.37 84.4132 112.848 89.5433C118.736 95.057 136.757 102.15 158.787 102.15C162.639 102.15 166.617 101.933 170.671 101.453C165.116 104.283 158.851 106.613 152.179 107.851C147.295 108.757 142.547 109.143 138.038 109.143Z" fill="#2A1A3B"/>
<path d="M138.112 110.658C120.752 110.658 106.54 105.066 101.901 100.722C94.078 93.391 88.4627 83.7832 86.2991 72.6754C84.0018 60.8711 86.3147 51.0453 91.9287 43.123C91.935 43.9883 91.9619 44.8621 92.0108 45.7473C87.2498 53.3754 85.833 62.3004 87.7967 72.3852C89.828 82.8172 95.067 92.2301 102.945 99.6082C107.091 103.491 120.801 109.142 138.038 109.143C142.547 109.143 147.295 108.757 152.179 107.851C158.851 106.613 165.116 104.283 170.671 101.453C172.09 101.284 173.519 101.084 174.955 100.849C168.437 104.622 160.758 107.816 152.459 109.353C147.534 110.265 142.714 110.658 138.112 110.658Z" fill="#2A1A3B"/>
<path d="M99.2409 71.6813C98.3147 70.6004 97.5217 69.291 96.944 67.807C96.5499 66.7973 96.285 65.7793 96.1389 64.7832C97.0448 67.1563 98.0819 69.4582 99.2409 71.6813Z" fill="#858290"/>
<path d="M86.1288 47.4863C85.7877 47.4863 85.444 47.3722 85.16 47.1382C84.5897 46.6683 84.4479 45.8722 84.7819 45.2441C92.1588 29.121 109.902 17.246 133.479 12.6543C157.245 8.02535 178.224 12.666 191.038 25.3851L189.972 26.4742L189.01 27.6593L189.972 26.4742L189.009 27.6582L188.889 27.5511C176.803 15.5562 156.821 11.216 134.062 15.6492C111.43 20.057 94.4678 31.332 87.5248 46.5843L87.4569 46.7351L87.308 46.93C87.0057 47.296 86.5698 47.4863 86.1288 47.4863Z" fill="#1A1D63"/>
<path d="M189.84 70.6581C189.84 70.6581 185.975 61.3023 175.511 47.5921C161.941 29.814 135.881 28.6363 135.881 28.6363C135.445 27.9132 141.796 26.2902 150.548 26.2902C158.002 26.2902 167.199 27.4683 175.421 31.382C193.296 39.8933 189.84 70.6581 189.84 70.6581Z" fill="#C3BAC7"/>
<path d="M153.211 201.43L155.359 200.878C156.087 200.673 156.821 200.483 157.548 200.261C159.009 199.843 160.461 199.376 161.9 198.864C163.348 198.366 164.761 197.781 166.205 197.217C167.66 196.667 169.075 196.026 170.623 195.486C169.603 196.751 168.408 197.867 167.104 198.82C166.464 199.32 165.779 199.745 165.093 200.176C164.391 200.572 163.689 200.979 162.965 201.339C161.523 202.075 160.03 202.71 158.497 203.24C156.947 203.761 155.426 204.196 153.722 204.439C152.888 204.558 152.116 203.978 151.997 203.144C151.886 202.369 152.379 201.647 153.119 201.453L153.211 201.43Z" fill="#1A1D63"/>
<path d="M140.075 204.439C138.371 204.196 136.85 203.761 135.3 203.24C133.767 202.71 132.273 202.075 130.832 201.339C130.108 200.979 129.406 200.572 128.704 200.176C128.018 199.745 127.333 199.32 126.693 198.82C125.389 197.867 124.194 196.751 123.174 195.486C124.722 196.026 126.136 196.667 127.592 197.217C129.035 197.781 130.449 198.366 131.897 198.864C133.336 199.376 134.788 199.843 136.249 200.261C136.976 200.483 137.71 200.673 138.438 200.878L140.586 201.43L140.67 201.452C141.486 201.661 141.977 202.493 141.767 203.308C141.572 204.067 140.832 204.544 140.075 204.439Z" fill="#1A1D63"/>
<path d="M188.206 239.819C187.318 239.711 186.334 239.611 185.389 239.529C184.435 239.452 183.478 239.373 182.519 239.335C180.603 239.235 178.686 239.223 176.771 239.301C174.857 239.398 172.967 239.645 171.065 239.953C169.172 240.308 167.32 240.82 165.386 241.464C166.845 240.055 168.646 238.987 170.546 238.19C172.459 237.428 174.471 236.949 176.497 236.621C178.526 236.324 180.573 236.191 182.616 236.21C183.637 236.23 184.658 236.267 185.676 236.372C186.704 236.463 187.688 236.598 188.753 236.816C189.578 236.985 190.111 237.791 189.942 238.617C189.782 239.399 189.049 239.918 188.27 239.826L188.206 239.819Z" fill="#1A1D63"/>
<path d="M105.007 236.816C106.073 236.598 107.056 236.463 108.084 236.372C109.102 236.267 110.123 236.23 111.144 236.21C113.187 236.191 115.234 236.324 117.263 236.621C119.289 236.949 121.302 237.428 123.215 238.19C125.115 238.987 126.915 240.055 128.375 241.464C126.44 240.82 124.588 240.308 122.696 239.953C120.793 239.645 118.903 239.398 116.99 239.301C115.075 239.223 113.157 239.235 111.241 239.335C110.283 239.373 109.325 239.452 108.371 239.529C107.426 239.611 106.442 239.711 105.554 239.819L105.496 239.826C104.66 239.927 103.9 239.331 103.798 238.494C103.702 237.701 104.239 236.975 105.007 236.816Z" fill="#1A1D63"/>
<path d="M146.882 201.769C145.813 201.768 144.74 201.738 143.668 201.679C142.641 201.623 141.587 201.543 140.594 201.432L140.586 201.43L138.438 200.878C137.71 200.673 136.976 200.483 136.249 200.261C134.788 199.843 133.336 199.376 131.897 198.864C130.449 198.366 129.035 197.781 127.592 197.217C126.684 196.874 125.791 196.495 124.872 196.127C128.353 196.577 140.355 198.048 148.309 198.048C156.073 198.048 165.73 196.647 168.84 196.161C167.951 196.518 167.085 196.885 166.205 197.217C164.761 197.781 163.348 198.366 161.9 198.864C160.461 199.376 159.009 199.843 157.548 200.261C156.821 200.483 156.087 200.673 155.359 200.878L153.228 201.426C152.219 201.54 151.143 201.622 150.096 201.679C149.024 201.738 147.951 201.768 146.882 201.769Z" fill="#B9AFBE"/>
<path d="M146.397 202.944C144.792 202.944 143.256 202.851 141.796 202.686C141.703 202.106 141.276 201.607 140.67 201.452L140.594 201.432C141.587 201.543 142.641 201.623 143.668 201.679C144.74 201.738 145.813 201.768 146.882 201.769C147.951 201.768 149.024 201.738 150.096 201.679C151.143 201.622 152.219 201.54 153.228 201.426L153.211 201.43L153.119 201.453C152.556 201.601 152.135 202.055 152.016 202.605C150.533 202.782 148.961 202.898 147.3 202.934C146.996 202.941 146.696 202.944 146.397 202.944Z" fill="#1A1D63"/>
<path d="M152.016 202.605C152.135 202.055 152.556 201.601 153.119 201.453L153.211 201.43L153.228 201.426L155.359 200.878C156.087 200.673 156.821 200.483 157.548 200.261C159.009 199.843 160.461 199.376 161.9 198.864C163.348 198.366 164.761 197.781 166.205 197.217C167.085 196.885 167.951 196.518 168.84 196.161C169.491 196.06 169.855 195.999 169.855 195.999C169.855 195.999 163.704 201.208 152.016 202.605Z" fill="#1A1D63"/>
<path d="M141.796 202.686C130.653 201.428 123.893 195.999 123.893 195.999C123.893 195.999 124.244 196.046 124.872 196.127C125.791 196.495 126.684 196.874 127.592 197.217C129.035 197.781 130.449 198.366 131.897 198.864C133.336 199.376 134.788 199.843 136.249 200.261C136.976 200.483 137.71 200.673 138.438 200.878L140.586 201.43L140.594 201.432L140.67 201.452C141.276 201.607 141.703 202.106 141.796 202.686Z" fill="#1A1D63"/>
<path d="M169.465 182.098H124.848C120.354 182.098 116.674 178.418 116.674 173.928V170.674C116.586 170.702 116.502 170.722 116.414 170.746H116.41C116.25 170.79 116.091 170.826 115.927 170.862C115.787 170.898 115.64 170.926 115.492 170.962C115.472 170.966 115.448 170.97 115.428 170.974C115.169 171.03 114.901 171.082 114.634 171.13C114.37 171.181 114.103 171.229 113.832 171.269C113.788 171.281 113.74 171.285 113.692 171.289C113.46 171.329 113.229 171.365 112.989 171.397C112.742 171.433 112.486 171.469 112.231 171.497C112.071 171.517 111.908 171.537 111.744 171.549C111.552 171.573 111.357 171.592 111.165 171.612C110.87 171.64 110.571 171.668 110.275 171.688H110.255C109.96 171.712 109.661 171.732 109.365 171.748C109.13 171.764 108.894 171.776 108.659 171.788C108.463 171.796 108.263 171.804 108.06 171.808C107.761 171.824 107.461 171.832 107.162 171.836C106.874 171.844 106.595 171.848 106.308 171.848C106.093 171.85 105.878 171.851 105.663 171.851C104.302 171.851 102.946 171.811 101.621 171.743C101.682 170.666 101.75 169.588 101.827 168.511C104.049 168.704 106.417 168.832 108.794 168.832C111.736 168.832 114.69 168.636 117.392 168.125V169.219C117.392 174.215 121.456 178.28 126.452 178.28H167.602C172.598 178.28 176.662 174.215 176.662 169.219V168.557C178.494 168.751 180.39 168.832 182.283 168.832C185.598 168.832 188.899 168.583 191.806 168.256C191.891 169.361 191.969 170.467 192.041 171.573C189.914 171.74 187.654 171.85 185.379 171.85C182.751 171.85 180.105 171.704 177.631 171.329V173.928C177.631 178.418 173.951 182.098 169.465 182.098Z" fill="#B9AFBE"/>
<path d="M101.621 171.743C101.109 171.717 100.602 171.686 100.101 171.652C100.163 170.555 100.233 169.46 100.311 168.368C100.807 168.419 101.313 168.467 101.827 168.511C101.75 169.588 101.682 170.666 101.621 171.743ZM192.041 171.573C191.969 170.467 191.891 169.361 191.806 168.256C192.101 168.223 192.391 168.189 192.677 168.154C192.933 168.123 193.187 168.081 193.437 168.029C193.519 169.16 193.594 170.295 193.661 171.433C193.131 171.483 192.591 171.53 192.041 171.573Z" fill="#1A1D63"/>
<path d="M177.631 150.896C177.306 150.879 176.983 150.859 176.662 150.838V146.873C176.662 146.482 176.638 146.097 176.589 145.719C177.252 146.897 177.631 148.256 177.631 149.699V150.896ZM116.674 150.65V149.699C116.674 148.497 116.937 147.353 117.408 146.323C117.397 146.505 117.392 146.688 117.392 146.873V150.572C117.155 150.599 116.916 150.625 116.674 150.65Z" fill="#B9AFBE"/>
<path d="M169.717 165.423C176.039 167.982 185.823 167.447 192.493 166.639C196.494 166.155 199.302 162.463 198.713 158.477C198.175 154.839 194.973 152.194 191.3 152.366C185.061 152.658 175.702 152.795 169.776 151.48L169.717 165.423Z" fill="white"/>
<path d="M182.219 165.788C180.334 165.788 178.454 165.703 176.662 165.497V159.835C178.486 160.036 180.382 160.118 182.27 160.118C185.908 160.118 189.511 159.811 192.492 159.45C194.209 159.244 195.704 158.447 196.806 157.29C196.995 157.731 197.13 158.203 197.204 158.7C197.428 160.221 197.039 161.73 196.107 162.951C195.178 164.169 193.83 164.941 192.31 165.124C189.28 165.491 185.74 165.788 182.219 165.788Z" fill="#B9AFBE"/>
<path d="M170.289 164.008C176.232 166.414 185.545 165.943 192.31 165.124C193.83 164.941 195.178 164.169 196.107 162.951C197.039 161.73 197.428 160.221 197.204 158.7C196.778 155.823 194.269 153.759 191.371 153.89C184.756 154.201 175.656 154.297 169.662 153.017C169.058 153.623 168.011 156.552 168.294 159.862C168.383 160.902 168.756 163.388 170.289 164.008ZM182.283 168.832C177.572 168.832 172.832 168.33 169.144 166.837C164.737 165.053 164.608 158.034 165.908 153.852C167.167 149.805 169.264 149.805 170.106 149.991C175.767 151.247 184.718 151.147 191.229 150.842C195.683 150.63 199.567 153.818 200.222 158.254C200.569 160.596 199.969 162.922 198.533 164.803C197.1 166.68 195.021 167.871 192.677 168.154C189.567 168.53 185.934 168.832 182.283 168.832Z" fill="#1A1D63"/>
<path d="M98.5838 166.639C101.713 167.018 105.533 167.337 109.357 167.302C109.62 167.302 109.88 167.298 110.143 167.289C110.418 167.285 110.698 167.277 110.973 167.266C111.161 167.262 111.344 167.254 111.524 167.246C111.743 167.234 111.959 167.222 112.175 167.21C112.45 167.194 112.725 167.174 112.997 167.154H113.017C113.288 167.134 113.564 167.11 113.835 167.082C114.015 167.066 114.194 167.046 114.37 167.026C114.522 167.014 114.673 166.994 114.821 166.978C115.056 166.95 115.292 166.918 115.519 166.886C115.739 166.855 115.954 166.823 116.166 166.787C116.21 166.783 116.254 166.779 116.294 166.767C116.545 166.731 116.793 166.687 117.036 166.639C117.284 166.595 117.527 166.547 117.767 166.495C117.787 166.491 117.806 166.487 117.827 166.483C117.962 166.451 118.098 166.423 118.23 166.391C118.377 166.36 118.525 166.324 118.673 166.284H118.677C119.128 166.172 119.571 166.044 120.002 165.909C120.233 165.837 120.465 165.757 120.692 165.677C120.92 165.597 121.143 165.509 121.359 165.422L121.331 158.728L121.299 151.479C119.782 151.818 118.038 152.058 116.182 152.226C110.786 152.717 104.419 152.581 99.7768 152.365C99.6647 152.362 99.5538 152.358 99.4378 152.358C95.9088 152.358 92.8838 154.952 92.3647 158.476C91.7741 162.464 94.5838 166.156 98.5838 166.639Z" fill="white"/>
<path d="M108.858 165.788C105.338 165.788 101.796 165.491 98.7659 165.124C97.2467 164.941 95.8979 164.169 94.9698 162.952C94.0369 161.731 93.6479 160.221 93.8729 158.7C93.9158 158.408 93.9807 158.124 94.0647 157.851C95.1838 159.129 96.76 160.017 98.5838 160.237C101.552 160.596 105.14 160.902 108.764 160.902C108.962 160.902 109.159 160.901 109.357 160.899C109.621 160.899 109.88 160.895 110.143 160.887C110.419 160.883 110.698 160.875 110.974 160.863C111.161 160.859 111.345 160.851 111.525 160.843C111.744 160.831 111.96 160.82 112.175 160.808C112.451 160.792 112.726 160.772 112.997 160.752H113.017C113.289 160.732 113.564 160.708 113.836 160.68C114.015 160.664 114.195 160.644 114.37 160.624C114.522 160.612 114.674 160.592 114.822 160.576C115.057 160.548 115.292 160.516 115.52 160.484C115.74 160.452 115.955 160.42 116.167 160.384C116.211 160.38 116.254 160.376 116.294 160.364C116.546 160.329 116.793 160.285 117.037 160.237C117.156 160.216 117.274 160.193 117.392 160.17V165.02C114.773 165.578 111.823 165.788 108.858 165.788Z" fill="#B9AFBE"/>
<path d="M99.4358 153.884C96.6518 153.884 94.285 155.911 93.8729 158.7C93.6479 160.221 94.037 161.731 94.9698 162.952C95.8979 164.169 97.2467 164.941 98.7659 165.124C105.532 165.943 114.844 166.414 120.787 164.008L121.36 165.423L120.787 164.008C122.321 163.387 122.694 160.902 122.783 159.862C123.066 156.551 122.019 153.623 121.415 153.017C115.42 154.296 106.322 154.2 99.7049 153.89C99.6147 153.886 99.5249 153.884 99.4358 153.884ZM108.794 168.832C105.142 168.832 101.51 168.53 98.3999 168.154C96.0557 167.871 93.976 166.681 92.5428 164.803C91.1081 162.922 90.5081 160.596 90.8538 158.254C91.5088 153.819 95.3858 150.629 99.8479 150.842C106.359 151.147 115.309 151.247 120.97 149.991C121.813 149.805 123.909 149.805 125.168 153.852C126.469 158.034 126.34 165.053 121.932 166.837C118.245 168.33 113.504 168.832 108.794 168.832Z" fill="#1A1D63"/>
<path d="M118.916 146.873V169.216C118.916 173.362 122.31 176.755 126.455 176.755H167.603C171.743 176.755 175.137 173.362 175.137 169.216V146.873C175.137 142.727 171.743 139.34 167.603 139.34H126.455C124.015 139.34 121.836 140.515 120.454 142.326C119.49 143.591 118.916 145.168 118.916 146.873Z" fill="white"/>
<path d="M156.439 168.573C155.972 168.573 155.485 168.559 154.979 168.529C142.07 167.77 140.143 157.367 140.143 157.367H138.914C138.787 156.151 138.325 155.035 137.622 154.112C136.435 152.553 134.56 151.548 132.45 151.548C129.821 151.548 127.557 153.109 126.533 155.355C126.249 155.979 126.06 156.656 125.986 157.367H124.784C124.784 157.367 124.826 164.072 122.32 164.116C122.31 164.116 122.299 164.116 122.289 164.116C121.516 164.116 120.92 163.643 120.444 162.827V146.873C120.444 143.559 123.139 140.864 126.452 140.864H167.602C170.915 140.864 173.611 143.559 173.611 146.873V152.933C167.723 157.072 169.631 168.573 156.439 168.573Z" fill="white"/>
<path d="M167.602 175.228H126.452C123.139 175.228 120.444 172.532 120.444 169.219V162.827C120.92 163.643 121.516 164.116 122.289 164.116C122.299 164.116 122.31 164.116 122.32 164.116C124.826 164.072 124.784 157.367 124.784 157.367H125.986C125.963 157.59 125.951 157.818 125.951 158.048C125.951 158.353 125.971 158.652 126.013 158.946C126.452 162.109 129.166 164.544 132.45 164.544C135.712 164.544 138.412 162.14 138.877 159.008C138.926 158.694 138.949 158.374 138.949 158.048C138.949 157.818 138.937 157.59 138.914 157.367H140.143C140.143 157.367 142.07 167.77 154.979 168.529C155.485 168.559 155.972 168.573 156.439 168.573C169.631 168.573 167.723 157.072 173.611 152.933V169.219C173.611 172.532 170.915 175.228 167.602 175.228Z" fill="#B9AFBE"/>
<path d="M126.452 140.864C123.139 140.864 120.444 143.559 120.444 146.873V169.219C120.444 172.532 123.139 175.228 126.452 175.228H167.602C170.915 175.228 173.611 172.532 173.611 169.219V146.873C173.611 143.559 170.915 140.864 167.602 140.864H126.452ZM167.602 178.28H126.452C121.456 178.28 117.392 174.215 117.392 169.219V146.873C117.392 141.877 121.456 137.812 126.452 137.812H167.602C172.598 137.812 176.662 141.877 176.662 146.873V169.219C176.662 174.215 172.598 178.28 167.602 178.28Z" fill="#1A1D63"/>
<path d="M125.952 158.046C125.952 161.634 128.861 164.544 132.45 164.544C136.038 164.544 138.948 161.634 138.948 158.046C138.948 154.457 136.038 151.548 132.45 151.548C128.861 151.548 125.952 154.457 125.952 158.046Z" fill="#22A7F0"/>
<path d="M125.951 158.048C125.951 158.4 125.978 158.745 126.035 159.083C126.53 155.985 129.214 153.619 132.45 153.619C135.686 153.619 138.37 155.985 138.865 159.083C138.922 158.745 138.949 158.4 138.949 158.048C138.949 154.459 136.039 151.548 132.45 151.548C128.861 151.548 125.951 154.459 125.951 158.048Z" fill="white"/>
<path d="M132.45 164.541C129.214 164.541 126.531 162.176 126.036 159.079C126.172 158.227 126.474 157.431 126.908 156.724C128.045 158.589 130.102 159.833 132.45 159.833C134.798 159.833 136.855 158.59 137.993 156.725C138.426 157.433 138.728 158.23 138.865 159.083C138.866 159.076 138.867 159.069 138.868 159.062C138.38 162.167 135.692 164.541 132.45 164.541Z" fill="#2976B4"/>
<path d="M138.865 159.083C138.728 158.23 138.426 157.433 137.993 156.725C138.191 156.399 138.362 156.054 138.502 155.693C138.791 156.423 138.947 157.214 138.947 158.044C138.947 158.391 138.92 158.731 138.868 159.062C138.867 159.069 138.866 159.076 138.865 159.083ZM126.036 159.079C125.982 158.742 125.954 158.397 125.954 158.044C125.954 157.214 126.11 156.423 126.399 155.693C126.539 156.054 126.709 156.398 126.908 156.724C126.474 157.431 126.172 158.227 126.036 159.079Z" fill="#B9AFBE"/>
<path d="M132.449 152.692C129.497 152.692 127.096 155.094 127.096 158.046C127.096 160.998 129.497 163.399 132.449 163.399C135.402 163.399 137.803 160.998 137.803 158.046C137.803 155.094 135.402 152.692 132.449 152.692ZM132.449 165.688C128.236 165.688 124.807 162.26 124.807 158.046C124.807 153.832 128.236 150.403 132.449 150.403C136.663 150.403 140.092 153.832 140.092 158.046C140.092 162.26 136.663 165.688 132.449 165.688Z" fill="#1A1D63"/>
<path d="M150.864 178.279C150.021 178.279 149.338 177.596 149.338 176.754V163.782C149.338 161.451 150.45 159.222 152.312 157.821L155.809 155.187C156.91 154.359 157.567 153.042 157.567 151.664V139.338C157.567 138.495 158.25 137.812 159.093 137.812C159.936 137.812 160.619 138.495 160.619 139.338V151.664C160.619 153.996 159.507 156.224 157.645 157.626L154.148 160.259C153.047 161.087 152.39 162.404 152.39 163.782V176.754C152.39 177.596 151.707 178.279 150.864 178.279Z" fill="#1A1D63"/>
<path d="M200.939 109.775C204.54 124.721 219.619 123.328 223.769 122.318C232.426 120.21 235.396 112.052 235.396 112.052L228.414 102.824L225.309 97.8312L221.601 96.7159C218.687 91.405 212.48 85.382 208.916 87.507C208.916 87.507 197.834 96.8921 200.939 109.775Z" fill="white"/>
<path d="M221.675 114.885C220.357 114.853 218.951 114.753 217.45 114.578C214.499 114.234 211.881 112.792 210.373 110.583C212.766 108.324 213.233 105.66 213.143 103.656C214.736 105.072 216.252 105.812 217.602 106.055L218.664 108.649C218.726 108.799 218.81 108.937 218.913 109.058C218.743 109.546 218.64 110.067 218.641 110.61C218.643 111.567 218.979 112.967 220.572 114.202C220.901 114.458 221.271 114.686 221.675 114.885Z" fill="#B9AFBE"/>
<path d="M236.218 92.1569C232.771 95.6171 229.752 98.1683 229.752 98.1683L220.077 108.069L213.547 92.123C213.547 92.123 213.509 88.905 213.76 84.6452C214.249 76.2112 215.855 63.7003 221.067 64.023C230.441 64.6062 224.239 89.2921 224.239 89.2921C224.239 89.2921 239.203 69.3409 245.196 75.0081C248.704 78.3241 241.881 86.4691 236.218 92.1569Z" fill="white"/>
<path d="M221.308 96.1953C219.759 93.5422 217.448 90.7851 215.098 89.0051C215.121 88.0191 215.159 86.9363 215.216 85.7933C217.788 87.823 221.239 90.6043 222.598 92.3832C223.419 93.4594 224.596 93.8281 225.944 93.8281C227.413 93.8281 229.086 93.3902 230.726 92.9531C231.872 92.6472 233.001 92.3422 234.035 92.1851C233.378 92.8293 232.723 93.4543 232.08 94.0531C231.64 93.9933 231.156 93.964 230.638 93.964C227.894 93.964 224.212 94.7851 221.308 96.1953Z" fill="#B9AFBE"/>
<path d="M215.071 91.8152L220.609 105.343L228.661 97.1003C228.695 97.066 228.731 97.0331 228.768 97.0011C234.833 91.873 244.503 82.0312 244.63 77.4523C244.651 76.6933 244.384 76.341 244.149 76.1191C243.659 75.655 243.071 75.4691 242.303 75.5351C237.194 75.9691 228.411 86.2753 225.458 90.2101C225.022 90.791 224.237 90.9831 223.581 90.671C222.925 90.3581 222.581 89.6273 222.758 88.9222C223.938 84.2191 226.312 71.0703 223.164 66.7652C222.598 65.991 221.902 65.6042 220.973 65.546C220.674 65.5273 220.205 65.5671 219.619 66.1242C215.756 69.7953 215.029 85.632 215.071 91.8152ZM220.076 109.597C219.979 109.597 219.882 109.587 219.784 109.568C219.28 109.47 218.859 109.124 218.664 108.649L212.135 92.6992C212.062 92.521 212.024 92.3312 212.021 92.1382C211.995 89.8093 211.926 69.2253 217.516 63.9121C218.575 62.9062 219.842 62.4203 221.162 62.5003C222.988 62.614 224.532 63.466 225.628 64.9652C228.622 69.0593 227.922 77.6331 226.957 83.5601C230.96 79.0081 237.174 72.9093 242.043 72.4941C243.668 72.355 245.126 72.8421 246.246 73.9011C247.225 74.8273 247.721 76.0843 247.68 77.537C247.475 84.9023 232.753 97.6242 230.794 99.2851L221.168 109.137C220.878 109.434 220.483 109.597 220.076 109.597Z" fill="#1A1D63"/>
<path d="M237.166 110.326C234.871 114.059 225.123 115.801 221.505 112.996C218.427 110.607 221.501 107.563 222.377 106.789C222.513 106.666 222.598 106.602 222.598 106.602C222.598 106.602 218.853 105.454 218.198 102.3C218.155 102.096 218.126 101.883 218.113 101.658C217.883 98.0191 227.601 94.878 232.014 95.5882C235.313 96.1191 236.571 97.462 236.881 98.8991C237.213 100.43 236.469 102.066 235.972 102.942C235.742 103.342 235.568 103.58 235.568 103.58C235.568 103.58 239.007 107.338 237.166 110.326Z" fill="white"/>
<path d="M224.12 106.655C224.123 106.547 224.116 106.438 224.096 106.33C223.995 105.772 223.591 105.316 223.051 105.145C223.039 105.141 222.585 104.994 222.011 104.68C222.452 104.194 222.783 103.613 222.982 102.978C223.601 103.02 224.248 103.044 224.914 103.044C228.335 103.044 232.255 102.406 235.402 100.146C235.248 101.191 234.627 102.275 234.336 102.68C234.082 103.026 233.994 103.451 234.066 103.851C231.576 104.957 228.029 106.222 224.12 106.655Z" fill="#B9AFBE"/>
<path d="M226.83 112.851C224.947 112.851 223.332 112.481 222.442 111.791C221.773 111.272 221.694 110.867 221.693 110.607C221.692 110.519 221.701 110.429 221.718 110.338C222.93 110.984 224.568 111.278 226.327 111.278C230.021 111.278 234.245 109.981 236.147 107.924C236.228 108.481 236.169 109.037 235.867 109.528C235.064 110.833 232.585 112.062 229.699 112.586C228.714 112.765 227.741 112.851 226.83 112.851Z" fill="#B9AFBE"/>
<path d="M230.591 97.0093C227.474 97.0093 222.555 98.4152 220.389 100.384C219.892 100.835 219.618 101.265 219.637 101.563C219.799 104.089 223.018 105.135 223.051 105.145C223.591 105.316 223.995 105.772 224.096 106.33C224.197 106.887 223.984 107.455 223.538 107.804C222.936 108.281 221.687 109.599 221.693 110.607C221.694 110.867 221.773 111.272 222.442 111.791C223.762 112.815 226.678 113.134 229.699 112.586C232.585 112.062 235.064 110.833 235.867 109.528C237.059 107.593 234.465 104.638 234.439 104.609C233.952 104.072 233.907 103.264 234.336 102.68C234.748 102.107 235.819 100.177 235.297 98.9183C234.835 97.8043 233.125 97.3101 231.773 97.0933C231.422 97.0363 231.024 97.0093 230.591 97.0093ZM226.804 115.911C224.228 115.911 222.015 115.322 220.572 114.202C218.979 112.967 218.643 111.567 218.641 110.61C218.638 109.226 219.316 107.983 220.033 107.056C218.534 106.117 216.763 104.449 216.592 101.758C216.535 100.875 216.792 99.5281 218.337 98.1253C221.592 95.1683 228.616 93.4961 232.257 94.08C235.349 94.5773 237.322 95.8171 238.122 97.764C239.008 99.9203 238.118 102.195 237.424 103.476C238.517 105.019 240.257 108.221 238.466 111.128C237.177 113.22 234.104 114.888 230.244 115.589C229.053 115.805 227.895 115.911 226.804 115.911Z" fill="#1A1D63"/>
<path d="M223.821 108.164C223.389 108.164 222.951 108.152 222.509 108.125C221.667 108.076 221.025 107.354 221.074 106.513C221.124 105.671 221.847 105.02 222.687 105.079C229.244 105.463 234.739 102.298 234.793 102.266C235.521 101.841 236.455 102.083 236.881 102.808C237.307 103.534 237.067 104.467 236.342 104.895C236.103 105.036 230.719 108.164 223.821 108.164Z" fill="#1A1D63"/>
<path d="M208.917 87.5082C213.648 84.6871 223.026 96.2113 223.198 101.383C223.33 105.33 218.654 108.624 213.066 103.587C207.404 98.4832 201.487 91.939 208.917 87.5082Z" fill="white"/>
<path d="M235.396 112.054C235.396 112.054 232.425 120.209 223.771 122.317C219.619 123.328 204.541 124.722 200.939 109.774C197.834 96.8921 208.917 87.5082 208.917 87.5082C213.648 84.6871 223.026 96.2113 223.198 101.383C223.33 105.33 217.462 107.569 212.548 100.622C212.548 100.622 215.137 106.932 209.609 111.237L222.634 118.74L232.484 116.817L235.396 112.054Z" fill="white"/>
<path d="M212.183 108.213L211.923 108.065C212.119 107.912 212.297 107.763 212.467 107.605C212.382 107.805 212.289 108.009 212.183 108.213Z" fill="white"/>
<path d="M222.387 103.785C222.86 103.224 223.15 102.516 223.194 101.728C223.195 101.727 223.196 101.727 223.197 101.726C223.152 102.516 222.862 103.224 222.387 103.785Z" fill="#B9AFBE"/>
<path d="M219.347 105.104C217.926 105.104 216.252 104.478 214.58 102.955C214.329 100.901 212.752 99.4522 212.752 99.4522C212.636 99.0241 212.745 98.8511 213.026 98.8511C213.625 98.8511 215.003 99.639 216.631 100.427C218.26 101.216 220.139 102.004 221.74 102.004C222.26 102.004 222.751 101.921 223.194 101.728C223.15 102.516 222.86 103.224 222.387 103.785C221.7 104.598 220.625 105.104 219.347 105.104Z" fill="#B9AFBE"/>
<path d="M230.654 118.701C230.654 118.7 230.654 118.7 230.654 118.699C231.349 118.084 231.956 117.446 232.484 116.818L232.486 116.817C231.958 117.445 231.349 118.085 230.654 118.701ZM200.465 103.494C200.488 103.229 200.517 102.965 200.55 102.705C200.517 102.965 200.488 103.229 200.465 103.494Z" fill="#845EBE"/>
<path d="M216.457 122.812C211.64 122.423 205.923 120.495 202.701 114.495V114.494C205.843 120.345 211.356 122.323 216.094 122.779C216.213 122.79 216.331 122.801 216.449 122.81C216.452 122.811 216.454 122.811 216.457 122.812Z" fill="#B9AFBE"/>
<path d="M218.466 122.892C217.822 122.892 217.149 122.867 216.457 122.812C216.454 122.811 216.452 122.811 216.449 122.81C217.143 122.866 217.818 122.891 218.465 122.891C220.736 122.891 222.65 122.591 223.769 122.318C225.208 121.967 226.491 121.45 227.628 120.83C227.628 120.831 227.628 120.83 227.628 120.831C226.491 121.45 225.209 121.968 223.771 122.318C222.651 122.591 220.735 122.892 218.466 122.892Z" fill="#8C7B94"/>
<path d="M227.628 120.831C227.628 120.83 227.628 120.831 227.628 120.83C227.766 120.755 227.902 120.678 228.035 120.6C229.019 120.026 229.889 119.377 230.654 118.699C230.654 118.7 230.654 118.7 230.654 118.701C229.785 119.47 228.781 120.203 227.628 120.831ZM202.701 114.495C201.973 113.139 201.372 111.575 200.938 109.773C200.407 107.568 200.291 105.465 200.465 103.494C200.292 105.465 200.407 107.568 200.939 109.774C201.373 111.575 201.973 113.138 202.701 114.494V114.495Z" fill="#1A1D63"/>
<path d="M218.465 122.891C217.818 122.891 217.143 122.866 216.449 122.81C216.331 122.801 216.213 122.79 216.094 122.779C216.913 122.857 217.708 122.891 218.464 122.891C220.735 122.891 222.651 122.59 223.771 122.317C225.384 121.924 226.8 121.321 228.035 120.6C227.902 120.678 227.766 120.755 227.628 120.83C226.491 121.45 225.208 121.967 223.769 122.318C222.65 122.591 220.736 122.891 218.465 122.891ZM230.821 117.142C230.822 117.141 230.823 117.141 230.824 117.141L231.948 116.922L230.821 117.142Z" fill="#B9AFBE"/>
<path d="M200.551 102.701C200.552 102.691 200.553 102.682 200.555 102.673C200.553 102.682 200.552 102.691 200.551 102.701ZM200.555 102.669C200.556 102.66 200.557 102.651 200.559 102.642C200.557 102.651 200.556 102.66 200.555 102.669ZM200.561 102.627C200.561 102.623 200.561 102.62 200.562 102.616C200.562 102.62 200.561 102.623 200.561 102.627Z" fill="#845EBE"/>
<path d="M218.464 122.891C217.708 122.891 216.913 122.857 216.094 122.779C211.356 122.323 205.843 120.345 202.701 114.494C201.973 113.138 201.373 111.575 200.939 109.774C200.407 107.568 200.292 105.465 200.465 103.494C200.488 103.229 200.517 102.965 200.55 102.705C200.551 102.703 200.551 102.702 200.551 102.701C200.552 102.691 200.553 102.682 200.555 102.673C200.555 102.671 200.555 102.67 200.555 102.669C200.556 102.66 200.557 102.651 200.559 102.642C200.559 102.637 200.56 102.632 200.561 102.627C200.561 102.623 200.562 102.62 200.562 102.616C201.289 97.162 204.172 92.796 206.35 90.189C203.855 94.1683 201.64 99.9151 203.251 106.602C205.881 117.518 214.632 119.72 220.779 119.72C223.049 119.72 224.963 119.42 226.084 119.147C227.906 118.701 229.479 117.992 230.821 117.142L231.948 116.922L232.484 116.818C231.956 117.446 231.349 118.084 230.654 118.699C229.889 119.377 229.019 120.026 228.035 120.6C226.8 121.321 225.384 121.924 223.771 122.317C222.651 122.59 220.735 122.891 218.464 122.891Z" fill="#B9AFBE"/>
<path d="M235.393 112.061C235.364 112.141 235.126 112.766 234.628 113.68L234.373 113.731L235.393 112.061Z" fill="white"/>
<path d="M234.798 113.646C234.662 113.808 234.522 113.974 234.373 114.135C234.462 113.978 234.548 113.825 234.628 113.68L234.798 113.646Z" fill="white"/>
<path d="M206.99 120.135C206.134 119.969 205.358 119.6 204.649 119.136C203.94 118.669 203.301 118.095 202.76 117.443C201.649 116.157 200.83 114.643 200.275 113.075C199.211 109.954 198.645 106.621 198.957 103.308C199.247 100.001 200.338 96.8261 201.905 93.9863C202.689 92.562 203.589 91.212 204.587 89.9433C205.085 89.307 205.607 88.6902 206.156 88.0941C206.432 87.7972 206.71 87.5031 207.001 87.2152C207.299 86.921 207.571 86.657 207.931 86.3441C207.987 86.296 208.045 86.2531 208.106 86.2152L208.135 86.198C209.119 85.605 210.315 85.4613 211.301 85.6003C212.302 85.7343 213.163 86.0753 213.944 86.4702C214.728 86.8659 215.422 87.3402 216.081 87.8409C216.741 88.3402 217.351 88.8792 217.93 89.4409C219.093 90.5601 220.125 91.7792 221.073 93.062C222.009 94.355 222.86 95.7132 223.559 97.2023C223.904 97.9503 224.215 98.7281 224.443 99.5831C224.555 100.011 224.65 100.456 224.692 100.946L224.721 101.312C224.721 101.441 224.713 101.577 224.706 101.709C224.682 101.974 224.694 102.24 224.623 102.503C224.447 103.573 223.832 104.576 223.025 105.286C222.214 105.994 221.196 106.454 220.188 106.562C219.935 106.617 219.687 106.614 219.438 106.615C219.192 106.609 218.934 106.634 218.698 106.592C218.221 106.518 217.731 106.462 217.296 106.297C217.073 106.225 216.847 106.157 216.629 106.076L216.013 105.782C215.589 105.598 215.227 105.346 214.858 105.102C213.401 104.102 212.277 102.829 211.302 101.504L213.959 100.043C214.094 100.393 214.165 100.632 214.245 100.918C214.322 101.193 214.386 101.468 214.439 101.744C214.553 102.295 214.616 102.853 214.657 103.416C214.713 104.542 214.642 105.693 214.404 106.836C214.307 107.412 214.083 107.964 213.856 108.504C213.719 108.764 213.565 109.016 213.419 109.27C213.273 109.525 213.064 109.736 212.886 109.965C212.138 110.858 211.102 111.475 209.922 111.639C209.603 111.683 209.309 111.46 209.265 111.142C209.255 111.069 209.259 110.997 209.274 110.93L209.297 110.836C209.433 110.257 209.662 109.845 209.833 109.412C210.002 108.981 210.215 108.618 210.372 108.236C210.739 107.504 211.046 106.793 211.302 106.029C211.564 105.27 211.673 104.435 211.611 103.596C211.579 103.177 211.533 102.756 211.447 102.343C211.407 102.135 211.359 101.931 211.303 101.731C211.254 101.543 211.177 101.311 211.136 101.202L211.128 101.18C210.834 100.388 211.239 99.507 212.031 99.214C212.685 98.9722 213.399 99.2062 213.793 99.7409C214.609 100.849 215.527 101.863 216.572 102.577C217.602 103.28 218.78 103.694 219.766 103.539C220.269 103.498 220.684 103.27 221.007 102.997C221.319 102.712 221.566 102.359 221.626 101.923C221.667 101.823 221.638 101.701 221.657 101.592L221.672 101.423L221.653 101.224C221.632 100.96 221.572 100.661 221.491 100.358C221.33 99.7503 221.082 99.1159 220.793 98.4921C219.599 95.9882 217.828 93.6042 215.81 91.6363C214.8 90.657 213.691 89.7753 212.553 89.1863C211.989 88.898 211.415 88.6921 210.915 88.6281C210.408 88.564 210.024 88.632 209.698 88.8191L209.903 88.673C209.683 88.864 209.4 89.132 209.153 89.3792C208.897 89.632 208.648 89.896 208.401 90.162C207.909 90.696 207.437 91.2531 206.988 91.8273C206.087 92.973 205.277 94.189 204.578 95.457C203.181 97.9921 202.243 100.757 201.996 103.583C201.738 106.396 202.155 109.291 203.295 111.902C203.849 113.198 204.491 114.42 205.226 115.593C205.973 116.766 206.77 117.882 207.576 119.304L207.581 119.312C207.733 119.58 207.639 119.921 207.371 120.072C207.251 120.141 207.116 120.159 206.99 120.135Z" fill="#1A1D63"/>
<path d="M236.83 112.576C236.674 112.997 236.548 113.309 236.383 113.649C236.225 113.982 236.058 114.306 235.878 114.621C235.701 114.939 235.503 115.242 235.315 115.552C235.114 115.853 234.901 116.146 234.693 116.441L234.021 117.293L233.291 118.096C232.782 118.612 232.27 119.122 231.692 119.562C231.142 120.031 230.532 120.429 229.932 120.824C229.292 121.165 228.684 121.546 228.012 121.809C226.723 122.427 225.251 122.682 223.801 122.441C223.726 122.428 223.675 122.357 223.688 122.282C223.693 122.249 223.71 122.221 223.734 122.2L223.741 122.194C224.865 121.223 225.965 120.65 227.012 119.938C227.555 119.626 228.028 119.204 228.525 118.837C228.979 118.406 229.469 118.03 229.884 117.565C230.1 117.343 230.318 117.126 230.512 116.883C230.712 116.646 230.927 116.425 231.115 116.179L231.677 115.443L232.21 114.685C232.543 114.164 232.875 113.644 233.168 113.105C233.313 112.834 233.465 112.569 233.596 112.296C233.728 112.036 233.874 111.735 233.963 111.532L234.003 111.438C234.34 110.666 235.238 110.313 236.01 110.649C236.754 110.973 237.107 111.824 236.83 112.576Z" fill="#1A1D63"/>
<path d="M211.693 150.401C208.866 150.401 199.262 149.647 196.178 139.678C191.739 125.332 198.25 114.76 198.53 114.317C198.867 113.782 199.574 113.622 200.108 113.96C200.642 114.297 200.803 115.002 200.467 115.537C200.391 115.657 194.253 125.713 198.364 139.001C201.426 148.897 211.842 148.135 212.283 148.097C212.917 148.048 213.467 148.51 213.521 149.139C213.575 149.768 213.111 150.322 212.482 150.377C212.464 150.379 212.178 150.401 211.693 150.401Z" fill="#1A1D63"/>
<path d="M101.975 153.601C101.875 153.601 101.774 153.588 101.673 153.56C90.044 150.383 87.11 140.951 86.9897 140.551C86.81 139.945 87.1549 139.308 87.76 139.127C88.3647 138.947 89.0018 139.29 89.183 139.895C89.294 140.258 91.9229 148.523 102.276 151.352C102.886 151.519 103.245 152.148 103.078 152.758C102.939 153.266 102.478 153.601 101.975 153.601Z" fill="#1A1D63"/>
<path d="M51.0467 71.5293C50.7358 71.5293 50.4229 71.4492 50.1397 71.2844L38.8491 64.691C38.2112 64.3192 37.4877 64.1223 36.7576 64.1223C36.403 64.1223 36.051 64.1692 35.71 64.2602C33.5155 64.8492 31.2432 65.1582 28.9573 65.1774L28.7252 65.1781C14.1116 65.1781 2.03383 53.2961 1.80297 38.691C1.68773 31.4141 4.43383 24.5523 9.53422 19.3703C14.6362 14.1871 21.4506 11.332 28.7229 11.332C28.8994 11.332 29.0752 11.3344 29.253 11.3371C43.9198 11.6203 55.76 23.7902 55.6448 38.4684C55.594 45.0602 53.133 51.3852 48.7139 56.2793C47.467 57.6621 47.2659 59.6832 48.2159 61.3094L52.6018 68.8223C53.0139 69.5293 52.8979 70.4242 52.3198 71.0024C51.9729 71.3492 51.5119 71.5293 51.0467 71.5293Z" fill="#F9195A"/>
<path d="M28.7229 9.5332H28.7225C20.9643 9.5332 13.6944 12.5793 8.2514 18.1082C2.80961 23.6371 -0.11969 30.957 0.00374788 38.7192C0.250232 54.3012 13.135 66.9781 28.7252 66.9781L28.9733 66.9774C31.4112 66.9563 33.8346 66.6274 36.1764 65.9981C36.3655 65.9473 36.5608 65.9223 36.7577 65.9223C37.1698 65.9223 37.5787 66.0344 37.9416 66.2453L49.233 72.8383C49.7991 73.1684 50.4248 73.3293 51.0467 73.3293C51.978 73.3293 52.8991 72.9684 53.5928 72.2754C54.7491 71.1184 54.9799 69.3274 54.1557 67.9153L49.769 60.4024C49.217 59.4551 49.3287 58.2832 50.0498 57.4852C54.7639 52.2641 57.3897 45.5152 57.4448 38.4832C57.567 22.8242 44.935 9.83906 29.2877 9.53828C29.0987 9.53438 28.9108 9.5332 28.7229 9.5332ZM28.7229 13.1313C28.8877 13.1313 29.0522 13.1332 29.2182 13.1363C42.9037 13.4004 53.9518 24.7672 53.8459 38.4543C53.7959 44.8473 51.3557 50.6672 47.378 55.0742C45.6049 57.0383 45.3268 59.9313 46.6608 62.2172L51.0479 69.7301L39.7557 63.1371C38.8389 62.6012 37.8018 62.3231 36.7577 62.3231C36.2502 62.3231 35.7412 62.3883 35.2432 62.5223C33.2315 63.0621 31.1198 63.3594 28.942 63.3781C28.8698 63.3793 28.7975 63.3793 28.7252 63.3793C15.0936 63.3793 3.81859 52.3184 3.60219 38.6621C3.37953 24.6012 14.7119 13.132 28.7229 13.1313Z" fill="#1A1D63"/>
<path d="M7.40258 51.0754C7.20219 50.8832 7.00453 50.6871 6.81039 50.4883C4.8311 46.9762 3.67016 42.9492 3.60219 38.6621C3.54555 35.0652 4.24477 31.6371 5.5518 28.5273C9.29594 19.6211 18.0252 13.3261 28.2467 13.1363C28.4053 13.1332 28.5635 13.1312 28.7225 13.1312C28.7721 13.1312 28.8202 13.132 28.8698 13.132C28.9858 13.1332 29.1018 13.1344 29.2182 13.1363C30.1538 13.1543 31.0768 13.2242 31.985 13.3433H31.9858C31.9979 13.3453 32.0096 13.3461 32.0217 13.348C32.0229 13.348 32.0241 13.348 32.0252 13.3492C32.0366 13.3504 32.0467 13.3511 32.0581 13.3531C32.0623 13.3543 32.067 13.3543 32.0713 13.3551C32.0776 13.3562 32.0823 13.3562 32.0885 13.357C32.1018 13.3594 32.1151 13.3613 32.1284 13.3621L32.1299 13.3633C37.7831 14.1371 42.844 16.8152 46.6557 20.716C46.9139 21.173 47.1581 21.639 47.3877 22.1133C42.985 17.891 37.0616 15.241 30.5373 15.1152C30.3725 15.1121 30.2061 15.1101 30.0416 15.1101C16.0299 15.1101 4.69867 26.5793 4.92133 40.641C4.98032 44.3723 5.86899 47.9062 7.40258 51.0754Z" fill="#FC8CAD"/>
<path d="M5.5518 28.5273C9.29555 19.621 18.0252 13.3261 28.2467 13.1363C18.0252 13.3261 9.29594 19.621 5.5518 28.5273ZM32.1299 13.3632L32.1284 13.362C32.1287 13.362 32.1291 13.3632 32.1299 13.3632ZM32.0885 13.357C32.0823 13.3562 32.0776 13.3562 32.0713 13.355C32.0772 13.355 32.0827 13.3562 32.0885 13.357ZM32.058 13.3531C32.0467 13.3511 32.0366 13.3503 32.0252 13.3491C32.0362 13.3503 32.0467 13.3511 32.058 13.3531ZM32.0217 13.348C32.0096 13.346 31.9979 13.3452 31.9858 13.3433C31.9979 13.3452 32.0096 13.346 32.0217 13.348ZM31.985 13.3433C31.0768 13.2241 30.1537 13.1542 29.2182 13.1363C29.1018 13.1343 28.9858 13.1331 28.8698 13.132C28.9858 13.1331 29.1018 13.1343 29.2182 13.1363C30.1541 13.1542 31.0768 13.2241 31.985 13.3433Z" fill="#9B8DA2"/>
<path d="M51.0479 69.73L46.885 67.3003L39.7557 63.137C38.8389 62.6011 37.8018 62.323 36.7577 62.323C36.2502 62.323 35.7412 62.3882 35.2432 62.5222C35.242 62.523 35.2409 62.523 35.2397 62.523C35.2307 62.5253 35.2221 62.5281 35.2135 62.53C34.2202 62.7952 33.203 63.0011 32.1655 63.1441C32.1647 63.1441 32.1635 63.1441 32.1627 63.1441C32.1573 63.1452 32.1514 63.146 32.1459 63.1472C32.142 63.1472 32.1377 63.148 32.1334 63.1492C32.1307 63.1492 32.1284 63.1492 32.1256 63.1503C32.1198 63.1503 32.1135 63.1511 32.1077 63.1523C32.1061 63.1523 32.1049 63.1523 32.1034 63.1531C31.0682 63.2921 30.0131 63.3691 28.942 63.3781C28.8698 63.3792 28.7975 63.3792 28.7252 63.3792C25.9705 63.3792 23.3127 62.9273 20.8225 62.0941C20.8205 62.0933 20.817 62.0921 20.8151 62.0909C20.8065 62.089 20.7971 62.0851 20.7885 62.082C20.7862 62.082 20.7838 62.0812 20.7811 62.08C20.7721 62.0773 20.7616 62.073 20.7526 62.0702C20.7475 62.0691 20.7428 62.0671 20.7377 62.0652C20.733 62.064 20.7287 62.062 20.7245 62.0613C14.7952 60.0491 9.82836 55.8702 6.79555 50.473C6.80063 50.4781 6.80531 50.4831 6.81039 50.4882C7.31703 51.387 7.87797 52.2531 8.48734 53.0812C8.09672 52.4312 7.73461 51.7613 7.40258 51.0753C11.9315 55.421 18.0627 58.1023 24.7682 58.1023C24.8405 58.1023 24.9123 58.1023 24.9846 58.1011C27.1623 58.0831 29.2741 57.7863 31.2858 57.246C31.4991 57.1882 31.819 57.1491 32.212 57.123C35.9549 56.8753 39.3018 54.864 41.585 51.887C42.1467 51.1542 42.7877 50.498 43.4209 49.7972C47.3991 45.3909 49.8389 39.5702 49.8877 33.1781C49.919 29.2241 49.0139 25.4671 47.3877 22.1132C48.4377 23.1202 49.4018 24.2171 50.267 25.3909C49.2467 23.6952 48.033 22.1253 46.6557 20.7159C46.6549 20.714 46.6537 20.7132 46.653 20.712C51.142 25.3023 53.8991 31.5863 53.8459 38.4542C53.7967 44.7882 51.401 50.5593 47.4889 54.9503L47.4877 54.9511C47.4807 54.9593 47.4729 54.9671 47.4659 54.9761C47.4647 54.9773 47.4647 54.9773 47.4639 54.9781C47.4569 54.9863 47.451 54.9933 47.444 55.0003C47.4217 55.0253 47.3998 55.0491 47.378 55.0742C46.3389 56.2253 45.8127 57.696 45.8248 59.1761C45.8248 60.205 46.0889 61.2363 46.6358 62.1741L47.8338 64.2253L51.0479 69.73Z" fill="#B31D61"/>
<path d="M51.0479 69.73L47.8338 64.2253L51.0479 69.73ZM46.885 67.3003L39.7557 63.137C38.8377 62.6011 37.803 62.3273 36.7584 62.3273C36.2502 62.3273 35.7397 62.3921 35.2397 62.523C35.2409 62.523 35.242 62.523 35.2432 62.5222C35.7413 62.3882 36.2502 62.323 36.7577 62.323C37.8018 62.323 38.8389 62.6011 39.7557 63.137L46.885 67.3003ZM28.7252 63.3792C25.9706 63.3792 23.3127 62.9273 20.8225 62.0941C23.3127 62.9273 25.9706 63.3792 28.7252 63.3792C28.7975 63.3792 28.8698 63.3792 28.942 63.3781C30.0131 63.3691 31.0682 63.2921 32.1034 63.1531C31.0682 63.2921 30.0131 63.3691 28.942 63.3781C28.8698 63.3792 28.7975 63.3792 28.7252 63.3792ZM32.1077 63.1523C32.1135 63.1511 32.1198 63.1503 32.1256 63.1503C32.1198 63.1503 32.1135 63.1511 32.1077 63.1523ZM32.1334 63.1491C32.1377 63.148 32.142 63.1472 32.1459 63.1472C32.142 63.1472 32.1377 63.148 32.1334 63.1491ZM32.1627 63.1441C32.1635 63.1441 32.1647 63.1441 32.1655 63.1441C32.1647 63.1441 32.1635 63.1441 32.1627 63.1441ZM20.8151 62.0909C20.8061 62.0882 20.7975 62.0851 20.7885 62.082C20.7971 62.0851 20.8065 62.089 20.8151 62.0909ZM20.7811 62.08C20.7717 62.0773 20.762 62.0741 20.7526 62.0702C20.7616 62.073 20.7721 62.0773 20.7811 62.08ZM20.7377 62.0652C20.7334 62.064 20.7284 62.062 20.7245 62.0613C20.7288 62.062 20.7331 62.064 20.7377 62.0652ZM45.8249 59.1761C45.8127 57.696 46.3389 56.2253 47.378 55.0741C47.3998 55.0491 47.4217 55.0253 47.444 55.0003C47.444 55.0011 47.4428 55.0011 47.4428 55.0023C46.385 56.182 45.8249 57.6761 45.8249 59.1761ZM47.4639 54.9781C47.4647 54.9773 47.4647 54.9773 47.4659 54.9761C47.4647 54.9773 47.4647 54.9773 47.4639 54.9781ZM47.4877 54.9511L47.4889 54.9503L47.4877 54.9511Z" fill="#2B1E52"/>
<path d="M8.48735 53.0812C7.87797 52.2531 7.31703 51.387 6.81039 50.4882C7.00453 50.687 7.20219 50.8831 7.40258 51.0753C7.73461 51.7613 8.09672 52.4312 8.48735 53.0812ZM50.267 25.3909C49.4018 24.2171 48.4377 23.1202 47.3877 22.1132C47.158 21.639 46.9139 21.173 46.6557 20.7159C48.033 22.1253 49.2467 23.6952 50.267 25.3909Z" fill="#B56E9B"/>
<path d="M37.8842 29.8594C35.3174 27.2922 31.1557 27.7523 28.5889 30.3184L28.1893 30.7184L27.7901 30.3184C25.2233 27.7523 21.0619 27.2922 18.4952 29.8594C15.9284 32.4254 15.9284 36.5871 18.4952 39.1543L18.8944 39.5531L26.9643 47.623C27.6409 48.3004 28.7381 48.3004 29.4147 47.623L37.4846 39.5531L37.8842 39.1543C40.451 36.5871 40.451 32.4254 37.8842 29.8594Z" fill="white"/>
<path d="M36.9506 36.5902C36.5323 36.5902 36.0623 35.5703 35.3666 34.6133C34.5764 33.5254 33.7944 32.9281 34.2577 32.5922C34.4143 32.4781 34.6932 32.4082 35.0245 32.4082C35.6725 32.4082 36.5213 32.6742 37.044 33.3941C37.8338 34.482 37.5815 36.1941 37.1182 36.5312C37.0631 36.5711 37.0073 36.5902 36.9506 36.5902Z" fill="#FDF2F2"/>
<path d="M32.8893 31.9382C32.794 31.9382 32.6979 31.9211 32.6088 31.8871C32.317 31.7703 32.0955 31.4742 32.1377 31.1523C32.1682 30.9113 32.4123 30.7332 32.7186 30.7332C32.819 30.7332 32.9256 30.7523 33.0338 30.7941C33.4725 30.9652 33.6385 31.4003 33.4522 31.6632C33.3225 31.848 33.1073 31.9382 32.8893 31.9382Z" fill="#FDF2F2"/>
</svg>
