<svg width="282" height="348" viewBox="0 0 282 348" fill="none" xmlns="http://www.w3.org/2000/svg">
<path d="M247.034 199.614C246.588 194.943 243.188 191.164 238.756 190.451C219.935 187.423 200.962 185.866 182.184 185.767V185.764C182.114 185.764 182.041 185.767 181.971 185.767C181.901 185.767 181.831 185.764 181.758 185.764V185.767C162.98 185.866 144.007 187.423 125.185 190.451C120.754 191.164 117.354 194.943 116.908 199.614C113.626 234.058 113.622 268.538 116.878 303.047C117.334 307.875 120.947 311.729 125.553 312.268C144.234 314.452 163.352 315.523 182.214 315.542V315.553C201.079 315.534 219.808 314.455 238.394 312.268C242.999 311.729 246.61 307.875 247.064 303.049C250.321 268.541 250.318 234.061 247.034 199.614Z" fill="#F1F1F1"/>
<path d="M117.996 292.242C117.445 284.879 117.042 277.522 116.789 270.164C119.746 270.084 122.694 269.708 125.493 269.179C125.659 274.376 125.942 279.77 126.374 285.226C124.153 289.438 120.904 291.382 117.996 292.242Z" fill="#9B9CB8"/>
<path d="M182.214 305.472C178.968 305.472 175.719 305.231 172.473 304.745C172.481 303.939 172.483 303.132 172.483 302.331C172.483 301.434 172.478 300.539 172.47 299.647C175.676 300.39 178.895 300.769 182.112 300.78H182.125C185.342 300.769 188.561 300.39 191.767 299.647C191.756 300.539 191.75 301.436 191.75 302.336C191.75 303.148 191.756 303.963 191.764 304.78C188.58 305.239 185.398 305.472 182.214 305.472Z" fill="#9B9CB8"/>
<path d="M245.945 292.242C243.148 291.414 240.034 289.585 237.824 285.694C238.278 280.064 238.575 274.493 238.745 269.136C241.446 269.657 244.293 270.036 247.153 270.146C246.902 277.508 246.499 284.874 245.945 292.242Z" fill="#9B9CB8"/>
<path d="M116.908 199.614L118.925 199.801C119.107 197.891 119.892 196.179 121.063 194.881C122.237 193.584 123.777 192.708 125.511 192.427C144.229 189.417 163.096 187.866 181.768 187.77C182.881 187.764 183.783 186.867 183.783 185.767V185.764H181.758L181.752 187.767C181.798 187.767 181.868 187.767 181.963 187.77H181.979C182.074 187.767 182.147 187.767 182.192 187.767L182.184 185.764H180.159V185.767C180.159 186.867 181.061 187.764 182.174 187.77C200.846 187.866 219.713 189.417 238.432 192.427C240.166 192.708 241.705 193.584 242.88 194.881C244.05 196.179 244.835 197.891 245.016 199.801C246.658 217.007 247.477 234.218 247.477 251.441C247.477 268.572 246.667 285.712 245.049 302.859C244.862 304.836 244.031 306.593 242.799 307.901C241.565 309.213 239.953 310.067 238.151 310.278C219.554 312.452 200.511 313.52 181.725 313.539C180.607 313.539 179.702 314.436 179.702 315.542V315.553H181.728L181.731 313.55C162.942 313.531 144.293 312.457 125.787 310.281C123.988 310.067 122.375 309.213 121.142 307.901C119.911 306.593 119.081 304.836 118.895 302.862C117.277 285.715 116.467 268.575 116.467 251.443C116.467 234.221 117.285 217.007 118.925 199.801L116.908 199.614L114.892 199.424C113.24 216.756 112.416 234.096 112.416 251.443C112.416 268.701 113.232 285.963 114.862 303.236C115.131 306.088 116.334 308.671 118.174 310.628C120.01 312.586 122.505 313.929 125.309 314.257C143.977 316.452 162.785 317.537 181.725 317.555C182.268 317.555 182.776 317.347 183.159 316.968C183.543 316.591 183.753 316.087 183.753 315.553V315.542H181.728L181.731 317.545C200.668 317.526 219.862 316.45 238.627 314.255C241.433 313.929 243.928 312.588 245.767 310.628C247.609 308.671 248.811 306.085 249.081 303.233C250.71 285.963 251.528 268.698 251.528 251.441C251.528 234.093 250.701 216.756 249.051 199.424C248.787 196.665 247.65 194.152 245.902 192.214C244.158 190.277 241.781 188.907 239.083 188.475C220.156 185.43 201.081 183.863 182.195 183.764L182.184 185.767H184.21V185.764C184.21 185.227 183.997 184.723 183.613 184.346C183.23 183.967 182.716 183.759 182.176 183.761C182.079 183.761 182.009 183.764 181.963 183.764H181.979C181.933 183.764 181.863 183.761 181.766 183.761C181.226 183.759 180.713 183.967 180.329 184.346C179.945 184.723 179.732 185.227 179.732 185.764V185.767H181.758L181.75 183.764C162.861 183.863 143.786 185.43 124.86 188.475C122.161 188.907 119.786 190.277 118.041 192.214C116.292 194.152 115.155 196.665 114.892 199.424L116.908 199.614Z" fill="#1A1D63"/>
<path d="M265.439 221.406C257.567 206.042 242.553 195.485 225.355 192.745C214.558 191.025 203.639 190.163 192.701 190.163H171.762C160.824 190.163 149.906 191.025 139.106 192.745C121.908 195.485 106.895 206.042 99.0225 221.406C93.1728 232.817 92.1357 244.914 94.9525 254.536C99.4082 269.753 115.284 269.462 127.45 266.727H127.45C127.769 279.356 128.776 293.31 130.934 306.516C131.89 312.367 133.073 318.074 134.521 323.452C132.752 324.152 130.875 325.156 128.992 326.587C127.488 327.733 126.459 329.394 126.132 331.242C125.635 334.038 125.557 336.832 125.822 339.628C126.127 342.824 128.725 345.332 131.96 345.626C141.566 346.499 151.277 346.475 161.086 345.554C163.855 345.295 166.131 343.292 166.747 340.61C168.305 333.846 169.418 326.646 170.104 319.038C170.374 315.486 170.55 311.993 170.644 308.545C170.747 304.772 170.752 301.054 170.677 297.388C174.487 298.477 178.303 299.03 182.117 299.044C185.93 299.03 189.746 298.477 193.557 297.388C193.481 301.057 193.487 304.772 193.59 308.548C193.684 311.993 193.86 315.489 194.13 319.038C194.816 326.646 195.928 333.846 197.487 340.61C198.102 343.292 200.379 345.295 203.147 345.554C212.956 346.475 222.668 346.499 232.274 345.626C235.51 345.332 238.108 342.824 238.413 339.628C238.678 336.832 238.6 334.038 238.103 331.242C237.776 329.394 236.747 327.733 235.243 326.587C233.36 325.156 231.483 324.152 229.714 323.452C231.162 318.074 232.345 312.367 233.301 306.516C235.461 293.305 236.469 279.351 236.787 266.717H236.963C249.135 269.462 265.048 269.774 269.509 254.536C272.326 244.914 271.289 232.817 265.439 221.406Z" fill="white"/>
<path d="M239.939 195.253C239.124 194.892 238.3 194.551 237.465 194.227C237.681 194.102 237.895 193.974 238.105 193.846C238.74 194.281 239.38 194.732 240.026 195.202C239.999 195.218 239.966 195.237 239.939 195.253ZM124.548 195.242C124.525 195.229 124.504 195.216 124.48 195.202C125.126 194.732 125.767 194.281 126.402 193.846C126.608 193.971 126.815 194.094 127.023 194.217C126.189 194.54 125.364 194.882 124.548 195.242Z" fill="#B0B1C6"/>
<path d="M211.252 207.457L211.476 203.441C214.226 202.925 216.883 202.322 219.454 201.622C224.421 200.271 229.058 198.556 233.344 196.447C234.246 196.74 235.14 197.058 236.02 197.395C227.767 201.753 219.508 205.107 211.252 207.457ZM153.208 207.444C144.96 205.094 136.715 201.742 128.467 197.387C129.35 197.047 130.243 196.732 131.147 196.439C136.878 199.264 143.235 201.374 150.181 202.869C151.105 203.067 152.039 203.254 152.984 203.433L153.208 207.444Z" fill="#BABBD0"/>
<path d="M182.117 297.308C178.474 297.295 174.825 296.768 171.165 295.722C171.006 295.676 170.841 295.652 170.679 295.652C170.447 295.652 170.22 295.698 170.007 295.786C164.333 294.026 158.691 291.029 153.09 286.823C152.871 286.658 153.014 286.332 153.26 286.332C153.284 286.332 153.311 286.335 153.338 286.343C165.456 289.638 174.636 291.315 183.491 291.315C192.153 291.315 200.503 289.713 210.99 286.455C211.02 286.444 211.05 286.441 211.079 286.441C211.322 286.441 211.465 286.77 211.241 286.933C205.532 291.11 199.863 294.05 194.227 295.783C194.013 295.698 193.787 295.652 193.557 295.652C193.395 295.652 193.23 295.676 193.071 295.722C189.409 296.768 185.763 297.295 182.117 297.308Z" fill="#BABBD0"/>
<path d="M195.267 303.971C195.264 303.423 195.261 302.878 195.261 302.336C195.261 300.689 195.28 299.052 195.313 297.423C195.318 297.238 195.291 297.057 195.237 296.883C198.348 295.82 205.724 293.107 213.313 288.847C213.313 288.847 209.629 298.662 195.267 303.971Z" fill="#BABBD0"/>
<path d="M168.967 303.971C154.61 298.662 150.924 288.847 150.924 288.847C158.513 293.104 165.888 295.82 169 296.88C168.946 297.054 168.919 297.238 168.924 297.425C168.956 299.049 168.973 300.686 168.973 302.331C168.973 302.876 168.973 303.423 168.967 303.971Z" fill="#BABBD0"/>
<path d="M218.177 344.528C213.251 344.528 208.295 344.293 203.315 343.826C202.31 343.733 201.397 343.324 200.673 342.691C199.952 342.058 199.426 341.206 199.199 340.226C197.662 333.552 196.56 326.433 195.88 318.899C195.774 317.502 195.683 316.116 195.604 314.738C197.349 322.595 199.445 329.758 202.48 335.061C203.525 336.885 206.08 338.621 208.184 338.896C211.822 339.372 215.468 339.641 219.198 339.641C222.852 339.641 226.584 339.382 230.468 338.803C232.75 338.458 234.932 337.609 236.806 336.29C236.806 336.367 236.809 336.445 236.809 336.522C236.809 337.499 236.76 338.482 236.666 339.468V339.465C236.552 340.645 236.023 341.69 235.213 342.48C234.4 343.268 233.32 343.789 232.115 343.898C227.494 344.317 222.846 344.528 218.177 344.528Z" fill="#BABBD0"/>
<path d="M146.06 344.528C141.387 344.528 136.742 344.317 132.121 343.898C130.916 343.789 129.835 343.268 129.024 342.48C128.213 341.69 127.682 340.645 127.569 339.465V339.468C127.476 338.482 127.428 337.499 127.428 336.519C127.428 336.442 127.428 336.367 127.429 336.29C129.305 337.609 131.487 338.458 133.771 338.803C137.653 339.382 141.385 339.641 145.041 339.641C148.768 339.641 152.417 339.372 156.055 338.896C158.159 338.621 160.714 336.885 161.759 335.061C164.792 329.76 166.885 322.601 168.629 314.746C168.551 316.122 168.462 317.505 168.354 318.899C167.676 326.433 166.574 333.552 165.038 340.226C164.811 341.206 164.284 342.058 163.56 342.691C162.836 343.324 161.926 343.733 160.922 343.826C155.939 344.293 150.986 344.528 146.06 344.528Z" fill="#BABBD0"/>
<path d="M229.036 326.585C229.093 326.184 229.147 325.786 229.204 325.388C229.269 325.407 229.336 325.42 229.401 325.431C229.285 325.818 229.163 326.203 229.036 326.585ZM231.815 302.91C232.607 293.299 232.688 284.922 231.429 278.91C230.597 274.936 227.953 271.569 224.28 269.761C223.581 269.414 222.895 269.072 222.225 268.733C225.695 268.423 229.163 268.076 232.636 267.689C233.311 267.878 234.008 268.062 234.719 268.241C234.511 275.241 234.089 282.614 233.376 290.009C232.96 294.325 232.445 298.651 231.815 302.91ZM212.116 262.97C210.739 262.059 209.451 261.132 208.246 260.179C208.249 260.078 208.249 259.976 208.249 259.872C208.249 259.119 208.235 258.366 208.208 257.61C208.743 257.581 209.275 257.549 209.81 257.516C212.538 259.33 215.468 260.988 218.622 262.489C216.454 262.665 214.285 262.826 212.116 262.97Z" fill="#BABBD0"/>
<path d="M135.425 326.585C135.296 326.189 135.17 325.789 135.047 325.386C135.117 325.367 135.184 325.346 135.25 325.322C135.308 325.741 135.367 326.163 135.425 326.585ZM132.953 306.318C132.075 300.966 131.387 295.484 130.86 290.009C130.148 282.636 129.727 275.281 129.519 268.297C130.311 268.1 131.082 267.897 131.83 267.689C135.299 268.076 138.766 268.426 142.235 268.733C141.566 269.075 140.882 269.416 140.181 269.761C136.508 271.569 133.864 274.936 133.033 278.91C131.627 285.624 131.893 295.281 132.953 306.318ZM152.344 262.972C150.176 262.826 148.004 262.665 145.836 262.489C148.993 260.988 151.92 259.33 154.651 257.516C155.202 257.551 155.753 257.583 156.301 257.615C156.274 258.368 156.26 259.119 156.26 259.872C156.26 259.963 156.26 260.054 156.26 260.144C155.04 261.111 153.738 262.048 152.344 262.972Z" fill="#BABBD0"/>
<path d="M136.478 322.937C133.741 312.778 131.955 301.37 130.86 290.009C129.764 278.652 129.356 267.339 129.356 257.357C129.356 256.155 129.362 254.975 129.373 253.816C129.384 252.71 128.486 251.805 127.368 251.794C126.249 251.783 125.333 252.67 125.323 253.778C125.311 254.948 125.305 256.142 125.305 257.357C125.306 267.446 125.716 278.876 126.827 290.391C127.939 301.907 129.747 313.51 132.564 323.968C132.852 325.036 133.962 325.672 135.042 325.389C136.124 325.103 136.767 324.005 136.479 322.937H136.478Z" fill="#1A1D63"/>
<path d="M182.255 299.044C178.395 299.044 174.536 298.491 170.679 297.388C170.825 304.403 170.671 311.598 170.107 319.038C169.421 326.646 168.308 333.846 166.75 340.61C166.134 343.292 163.857 345.295 161.089 345.554C151.28 346.475 141.568 346.499 131.961 345.626C128.725 345.332 126.127 342.824 125.822 339.628C125.558 336.832 125.636 334.038 126.133 331.242C126.46 329.394 127.489 327.733 128.993 326.587C130.875 325.156 132.752 324.152 134.521 323.452C140.244 321.185 144.85 322.096 144.85 322.096" stroke="#1A1D63" stroke-width="3" stroke-miterlimit="10" stroke-linecap="round" stroke-linejoin="round"/>
<path d="M234.862 253.816C234.875 254.975 234.881 256.155 234.881 257.354C234.881 267.336 234.473 278.649 233.376 290.009C232.283 301.367 230.495 312.778 227.759 322.937C227.47 324.005 228.113 325.103 229.193 325.389C230.276 325.672 231.386 325.036 231.672 323.968C234.489 313.51 236.299 301.907 237.409 290.389C238.521 278.873 238.932 267.446 238.932 257.354C238.932 256.142 238.926 254.948 238.913 253.778C238.902 252.67 237.987 251.783 236.868 251.794C235.75 251.805 234.854 252.71 234.865 253.816H234.862Z" fill="#1A1D63"/>
<path d="M219.387 322.096C219.387 322.096 223.991 321.185 229.714 323.452C231.483 324.152 233.36 325.156 235.243 326.587C236.747 327.733 237.776 329.394 238.103 331.242C238.6 334.038 238.678 336.832 238.413 339.628C238.108 342.824 235.51 345.332 232.274 345.626C222.668 346.499 212.956 346.475 203.147 345.554C200.379 345.295 198.102 343.292 197.487 340.61C195.928 333.846 194.816 326.646 194.13 319.038C193.565 311.598 193.411 304.403 193.557 297.388C189.7 298.491 185.841 299.044 181.982 299.044" stroke="#1A1D63" stroke-width="3" stroke-miterlimit="10" stroke-linecap="round" stroke-linejoin="round"/>
<path d="M152.838 288.132C172.448 302.323 192.058 302.323 211.668 288.132" stroke="#1A1D63" stroke-width="3" stroke-miterlimit="10" stroke-linecap="round" stroke-linejoin="round"/>
<path d="M130.935 306.516C143.502 309.437 156.773 310.377 170.647 308.545" stroke="#1A1D63" stroke-width="3" stroke-miterlimit="10" stroke-linecap="round" stroke-linejoin="round"/>
<path d="M193.592 308.548C207.466 310.378 220.74 309.438 233.303 306.516" stroke="#1A1D63" stroke-width="3" stroke-miterlimit="10" stroke-linecap="round" stroke-linejoin="round"/>
<path d="M127.108 265.024C123.449 265.851 119.46 266.442 115.624 266.442C113.471 266.442 111.368 266.255 109.396 265.833C107.918 265.515 106.514 265.064 105.212 264.463C103.258 263.557 101.533 262.318 100.082 260.636C98.6325 258.951 97.4477 256.812 96.6388 254.053C95.7014 250.854 95.2075 247.339 95.2075 243.651C95.2069 236.809 96.9089 229.367 100.588 222.191C104.394 214.761 109.927 208.496 116.593 203.751C123.259 199.005 131.057 195.784 139.386 194.46L139.106 192.745V194.481C139.21 194.481 139.283 194.476 139.385 194.46C150.092 192.753 160.919 191.899 171.762 191.899H192.701C203.544 191.899 214.371 192.753 225.077 194.46C241.735 197.112 256.265 207.337 263.875 222.191C267.554 229.367 269.255 236.809 269.255 243.651C269.255 247.339 268.761 250.854 267.824 254.053C267.106 256.505 266.087 258.467 264.853 260.056C263.927 261.247 262.876 262.23 261.718 263.047C259.976 264.27 257.98 265.117 255.798 265.662C253.621 266.207 251.26 266.442 248.838 266.442C245.003 266.442 241.014 265.849 237.355 265.024C236.409 264.81 235.467 265.395 235.253 266.329C235.037 267.264 235.629 268.196 236.574 268.41C240.417 269.275 244.641 269.913 248.838 269.913C251.196 269.913 253.543 269.71 255.811 269.224C257.513 268.858 259.168 268.332 260.737 267.606C263.092 266.519 265.258 264.973 267.054 262.887C268.85 260.801 270.268 258.19 271.197 255.02C272.231 251.479 272.766 247.646 272.766 243.651C272.766 236.24 270.93 228.274 267.006 220.62C262.938 212.684 257.029 205.991 249.921 200.933C242.813 195.873 234.505 192.444 225.636 191.031C214.744 189.298 203.731 188.427 192.701 188.427H171.762C160.73 188.427 149.719 189.298 138.827 191.031L139.106 192.745V191.009C139.003 191.009 138.929 191.015 138.827 191.031C121.09 193.856 105.593 204.747 97.4566 220.62C93.5333 228.274 91.6973 236.24 91.6968 243.651C91.6968 247.646 92.2305 251.479 93.2662 255.02C94.091 257.837 95.3022 260.214 96.8246 262.171C97.9654 263.64 99.2791 264.871 100.713 265.878C102.865 267.39 105.279 268.399 107.805 269.029C110.332 269.657 112.974 269.913 115.624 269.913C119.822 269.913 124.046 269.275 127.889 268.41C128.834 268.196 129.426 267.264 129.21 266.329C128.995 265.395 128.054 264.81 127.108 265.024Z" fill="#1A1D63"/>
<path d="M265.439 221.406L267.006 220.62C262.938 212.684 257.029 205.991 249.921 200.933C242.813 195.873 234.505 192.444 225.636 191.031C214.744 189.298 203.731 188.427 192.701 188.427H171.762C160.73 188.427 149.719 189.298 138.827 191.031L139.106 192.745V191.01C139.003 191.01 138.93 191.015 138.827 191.031C121.09 193.856 105.593 204.747 97.4566 220.62C93.5333 228.274 91.6973 236.24 91.6968 243.651C91.6968 247.646 92.2305 251.479 93.2662 255.02C94.091 257.837 95.3022 260.214 96.8246 262.171C97.9654 263.64 99.2788 264.871 100.713 265.878C102.865 267.39 105.279 268.399 107.805 269.027C110.332 269.657 112.974 269.913 115.624 269.913C119.804 269.911 124.01 269.28 127.839 268.421L127.45 266.727L125.695 266.773C126.016 279.461 127.026 293.481 129.201 306.794C130.165 312.693 131.358 318.453 132.824 323.898L134.521 323.452L133.869 321.842C131.96 322.595 129.937 323.679 127.922 325.212H127.921C126.074 326.62 124.808 328.66 124.403 330.943C124.072 332.805 123.917 334.666 123.917 336.519C123.917 337.612 123.971 338.701 124.074 339.791C124.266 341.81 125.187 343.618 126.561 344.953C127.933 346.291 129.77 347.172 131.8 347.356C136.528 347.784 141.282 348 146.06 348C151.099 348 156.163 347.76 161.254 347.282C163.017 347.119 164.627 346.395 165.888 345.292C167.15 344.186 168.07 342.696 168.459 340.995V340.998C170.037 334.148 171.16 326.871 171.854 319.193L171.857 319.169C172.127 315.588 172.305 312.068 172.4 308.593C172.456 306.489 172.483 304.401 172.483 302.331C172.483 300.662 172.467 299.001 172.432 297.353L170.677 297.388L170.191 299.057C174.15 300.189 178.131 300.766 182.111 300.779H182.125C186.106 300.766 190.087 300.189 194.046 299.057L193.557 297.388L191.802 297.353C191.769 299.004 191.75 300.665 191.75 302.336C191.75 304.403 191.777 306.489 191.837 308.596C191.931 312.068 192.107 315.59 192.38 319.169L192.382 319.193C193.074 326.871 194.197 334.148 195.777 340.998V340.995C196.166 342.696 197.087 344.186 198.348 345.292C199.607 346.395 201.219 347.119 202.983 347.282C208.071 347.76 213.137 348 218.177 348C222.954 348 227.708 347.784 232.436 347.356C234.467 347.172 236.301 346.291 237.676 344.953C239.048 343.618 239.969 341.81 240.163 339.791C240.266 338.704 240.32 337.612 240.32 336.522C240.32 334.666 240.163 332.805 239.834 330.943C239.429 328.66 238.162 326.62 236.315 325.212C234.3 323.679 232.277 322.595 230.368 321.842L229.714 323.452L231.413 323.898C232.877 318.453 234.07 312.693 235.035 306.794C237.211 293.476 238.221 279.453 238.543 266.759L236.787 266.717V268.453H236.963V266.717L236.574 268.41C240.417 269.275 244.641 269.913 248.838 269.913C251.196 269.913 253.543 269.71 255.811 269.224C257.513 268.858 259.168 268.332 260.737 267.606C263.092 266.519 265.258 264.973 267.054 262.887C268.85 260.801 270.268 258.19 271.197 255.02C272.231 251.479 272.766 247.646 272.766 243.651C272.766 236.24 270.93 228.274 267.006 220.62L265.439 221.406L263.875 222.191C267.554 229.367 269.255 236.809 269.255 243.651C269.255 247.339 268.761 250.854 267.824 254.053C267.106 256.505 266.087 258.467 264.853 260.056C263.927 261.247 262.876 262.23 261.718 263.047C259.976 264.27 257.98 265.117 255.798 265.662C253.621 266.207 251.26 266.442 248.838 266.442C245.003 266.442 241.014 265.851 237.355 265.024C237.23 264.997 237.09 264.981 236.963 264.981H236.787C235.834 264.981 235.056 265.731 235.032 266.674C234.713 279.247 233.711 293.134 231.57 306.238C230.622 312.044 229.45 317.695 228.018 323.006C227.791 323.856 228.237 324.737 229.063 325.065C230.692 325.709 232.423 326.633 234.173 327.966V327.963C235.334 328.847 236.126 330.131 236.374 331.541V331.544C236.669 333.2 236.809 334.858 236.809 336.522C236.809 337.499 236.76 338.482 236.666 339.468V339.465C236.552 340.645 236.023 341.69 235.213 342.48C234.4 343.268 233.32 343.789 232.115 343.898C227.494 344.317 222.846 344.528 218.177 344.528C213.251 344.528 208.295 344.293 203.315 343.826C202.31 343.732 201.397 343.324 200.673 342.691C199.952 342.058 199.426 341.206 199.199 340.226C197.659 333.547 196.558 326.425 195.88 318.886L194.13 319.038L195.88 318.91C195.612 315.387 195.439 311.921 195.345 308.503C195.288 306.43 195.261 304.374 195.261 302.336C195.261 300.689 195.28 299.052 195.313 297.423C195.323 296.872 195.069 296.346 194.627 296.013C194.184 295.676 193.606 295.569 193.071 295.721C189.409 296.768 185.757 297.294 182.111 297.308H182.125C178.479 297.294 174.828 296.768 171.165 295.721C170.631 295.569 170.05 295.676 169.607 296.013C169.167 296.346 168.91 296.872 168.924 297.425C168.956 299.049 168.973 300.686 168.973 302.331C168.973 304.371 168.946 306.428 168.891 308.5C168.797 311.921 168.621 315.385 168.354 318.91L170.104 319.038L168.357 318.886C167.676 326.425 166.574 333.547 165.038 340.226C164.811 341.206 164.284 342.058 163.56 342.691C162.836 343.324 161.926 343.732 160.922 343.826C155.939 344.293 150.986 344.528 146.06 344.528C141.387 344.528 136.742 344.317 132.121 343.898C130.916 343.789 129.835 343.268 129.024 342.48C128.213 341.69 127.682 340.645 127.569 339.465V339.468C127.476 338.482 127.428 337.499 127.428 336.519C127.428 334.856 127.567 333.2 127.861 331.544L127.861 331.541C128.11 330.131 128.902 328.847 130.063 327.963L130.062 327.966C131.812 326.633 133.544 325.709 135.173 325.065C135.999 324.737 136.446 323.856 136.217 323.006C134.787 317.695 133.615 312.044 132.667 306.241C130.526 293.139 129.522 279.255 129.205 266.685L129.197 266.556L129.197 266.554C129.147 266.06 128.883 265.608 128.475 265.317C128.068 265.029 127.55 264.925 127.061 265.034C123.414 265.854 119.444 266.442 115.624 266.442C113.471 266.442 111.367 266.255 109.396 265.833C107.918 265.515 106.514 265.064 105.212 264.46C103.258 263.555 101.533 262.318 100.082 260.636C98.6325 258.951 97.4477 256.812 96.6388 254.053C95.7014 250.854 95.2075 247.339 95.2075 243.651C95.2069 236.809 96.9089 229.367 100.588 222.191C104.394 214.761 109.927 208.496 116.593 203.751C123.259 199.005 131.057 195.784 139.386 194.46L139.106 192.745V194.481C139.21 194.481 139.283 194.476 139.386 194.46C150.092 192.753 160.919 191.899 171.762 191.899H192.701C203.544 191.899 214.371 192.753 225.077 194.46C241.735 197.112 256.265 207.337 263.875 222.191L265.439 221.406Z" fill="#1A1D63"/>
<path d="M157.092 269.809C152.139 269.531 147.189 269.173 142.235 268.733C143.996 267.838 145.655 266.96 147.216 266.084C150.356 266.327 153.497 266.538 156.638 266.714C156.722 267.448 156.83 268.18 156.949 268.914C156.995 269.214 157.043 269.51 157.092 269.809Z" fill="#BABBD0"/>
<path d="M142.236 268.733C138.766 268.426 135.299 268.076 131.83 267.689C134.618 266.912 137.073 266.076 138.981 265.368C141.725 265.632 144.472 265.87 147.216 266.084C145.655 266.96 143.996 267.838 142.236 268.733Z" fill="#8A8BAF"/>
<path d="M207.482 269.799C207.641 268.77 207.776 267.74 207.884 266.709C211.004 266.533 214.126 266.322 217.245 266.081C218.806 266.957 220.464 267.838 222.225 268.733C217.31 269.168 212.395 269.524 207.482 269.799Z" fill="#BABBD0"/>
<path d="M222.225 268.733C220.464 267.838 218.806 266.957 217.245 266.081C219.989 265.867 222.733 265.63 225.479 265.368C227.389 266.076 229.844 266.912 232.636 267.689C229.163 268.076 225.696 268.423 222.225 268.733Z" fill="#8A8BAF"/>
<path d="M182.349 280.168C175.751 280.168 169.143 279.682 162.515 278.708C160.922 278.473 158.569 277.268 158.267 275.706C158.013 274.392 157.735 273.081 157.476 271.767C157.762 272.766 158.313 273.65 159.045 274.344C159.893 275.148 160.995 275.703 162.215 275.882C168.94 276.87 175.651 277.364 182.349 277.364C189.044 277.364 195.72 276.87 202.38 275.89L202.083 273.909L202.38 275.89C203.625 275.706 204.743 275.134 205.594 274.304C206.207 273.711 206.688 272.979 206.988 272.165C206.769 273.321 206.545 274.478 206.342 275.634C206.064 277.231 203.704 278.478 202.083 278.716C195.521 279.682 188.942 280.168 182.349 280.168Z" fill="#BABBD0"/>
<path d="M156.949 268.915C156.83 268.18 156.722 267.448 156.638 266.714C156.644 266.714 156.649 266.714 156.655 266.714C156.738 267.448 156.838 268.183 156.949 268.915Z" fill="#8A8BAF"/>
<path d="M237.174 253.273L235.418 253.271C235.415 256.264 235.361 259.279 235.259 262.313L237.014 262.372L236.798 260.649C218.593 262.861 200.393 263.966 182.201 263.966C164.03 263.966 145.865 262.863 127.709 260.652L127.494 262.375L129.248 262.316C129.147 259.279 129.093 256.264 129.09 253.271L127.335 253.273L127.119 254.996C145.474 257.239 163.838 258.358 182.209 258.358C200.595 258.358 218.99 257.237 237.387 254.996L237.174 253.273L235.418 253.271L237.174 253.273L236.958 251.551C218.701 253.773 200.452 254.886 182.209 254.886C163.982 254.886 145.763 253.775 127.55 251.551C127.052 251.49 126.547 251.644 126.171 251.973C125.796 252.301 125.579 252.779 125.579 253.273C125.582 256.307 125.636 259.36 125.74 262.431C125.768 263.285 126.422 263.993 127.279 264.097C145.579 266.324 163.887 267.438 182.201 267.438C200.536 267.438 218.879 266.322 237.228 264.094C238.084 263.99 238.74 263.283 238.767 262.428C238.87 259.36 238.926 256.307 238.929 253.273C238.929 252.779 238.713 252.301 238.335 251.973C237.959 251.644 237.457 251.49 236.958 251.551L237.174 253.273Z" fill="#1A1D63"/>
<path d="M202.083 273.908C188.952 275.842 175.762 275.85 162.512 273.9C160.922 273.665 159.647 272.461 159.347 270.896C157.975 263.774 157.932 256.651 159.22 249.526C159.555 247.665 161.235 246.335 163.147 246.431C175.911 247.08 188.674 247.083 201.441 246.434C203.358 246.335 205.059 247.676 205.37 249.55C206.542 256.643 206.504 263.734 205.262 270.827C204.981 272.421 203.704 273.671 202.083 273.908Z" fill="white"/>
<path d="M202.083 273.909L201.783 271.927C195.318 272.88 188.842 273.358 182.349 273.358C175.854 273.358 169.342 272.88 162.812 271.919C162.439 271.866 162.107 271.697 161.848 271.452C161.586 271.203 161.408 270.886 161.338 270.522C160.652 266.968 160.311 263.419 160.311 259.872C160.311 256.542 160.611 253.215 161.213 249.879C161.292 249.454 161.51 249.097 161.824 248.838C162.137 248.578 162.526 248.429 162.95 248.429C162.982 248.429 163.012 248.429 163.042 248.432C169.467 248.757 175.892 248.923 182.319 248.923C188.726 248.923 195.134 248.76 201.543 248.434C201.575 248.432 201.605 248.432 201.635 248.432C202.064 248.432 202.461 248.584 202.775 248.843C203.088 249.105 203.301 249.457 203.371 249.874C203.922 253.209 204.198 256.542 204.198 259.872C204.198 263.408 203.887 266.944 203.266 270.485C203.199 270.861 203.018 271.193 202.756 271.449C202.491 271.703 202.162 271.871 201.783 271.927L202.083 273.909L202.38 275.89C203.625 275.706 204.743 275.134 205.594 274.304C206.448 273.476 207.044 272.386 207.258 271.169C207.917 267.406 208.249 263.64 208.249 259.872C208.249 256.323 207.955 252.774 207.369 249.227C207.139 247.836 206.404 246.624 205.383 245.777C204.365 244.931 203.045 244.426 201.635 244.426C201.535 244.426 201.435 244.428 201.335 244.434C194.997 244.757 188.658 244.917 182.319 244.917C175.962 244.917 169.607 244.754 163.25 244.431H163.252C163.15 244.426 163.05 244.423 162.95 244.423C161.546 244.423 160.233 244.925 159.22 245.769C158.205 246.61 157.473 247.804 157.224 249.177C156.582 252.737 156.26 256.304 156.26 259.872C156.26 263.675 156.625 267.475 157.357 271.273C157.589 272.472 158.194 273.537 159.045 274.344C159.893 275.148 160.995 275.703 162.215 275.882C168.94 276.87 175.651 277.364 182.349 277.364C189.044 277.364 195.72 276.87 202.38 275.89L202.083 273.909Z" fill="#1A1D63"/>
<path d="M179.959 260.807C179.959 264.714 176.753 267.884 172.802 267.884C168.848 267.884 165.645 264.714 165.645 260.807C165.645 256.897 168.848 253.73 172.802 253.73C176.753 253.73 179.959 256.897 179.959 260.807Z" fill="#6CCEF8"/>
<path d="M172.799 267.884C169.899 267.884 167.398 266.174 166.277 263.72C167.401 266.174 169.899 267.884 172.802 267.884C175.57 267.884 177.971 266.329 179.162 264.054C177.971 266.329 175.57 267.884 172.799 267.884ZM166.277 263.717C166.275 263.712 166.272 263.709 166.269 263.704C166.272 263.709 166.275 263.715 166.277 263.717ZM166.266 263.696C166.266 263.693 166.264 263.693 166.264 263.693C166.264 263.693 166.266 263.693 166.266 263.696Z" fill="#A3A5C1"/>
<path d="M172.802 267.884C169.899 267.884 167.401 266.174 166.277 263.72V263.717C166.275 263.715 166.272 263.709 166.269 263.704C166.269 263.701 166.266 263.699 166.266 263.696C166.266 263.693 166.264 263.693 166.264 263.693C166.018 263.146 165.837 262.561 165.737 261.95C167.028 263.205 168.797 263.977 170.752 263.977C174.706 263.977 177.909 260.809 177.909 256.9C177.909 256.512 177.877 256.133 177.817 255.762C179.138 257.044 179.956 258.83 179.956 260.807C179.956 261.976 179.67 263.082 179.162 264.054C177.971 266.329 175.57 267.884 172.802 267.884Z" fill="#4B87BC"/>
<path d="M179.959 260.807C179.959 264.714 176.753 267.884 172.802 267.884C168.848 267.884 165.645 264.714 165.645 260.807C165.645 256.897 168.848 253.73 172.802 253.73C176.753 253.73 179.959 256.897 179.959 260.807Z" stroke="#1A1D63" stroke-width="3" stroke-miterlimit="10" stroke-linecap="round" stroke-linejoin="round"/>
<path d="M198.332 255.634C198.054 255.372 197.687 255.236 197.306 255.255C194.1 255.396 190.851 255.484 187.651 255.516C186.889 255.522 186.271 256.141 186.271 256.892V258.155C186.271 258.526 186.416 258.876 186.684 259.138C186.949 259.394 187.294 259.533 187.664 259.533H187.683C190.889 259.488 195.561 259.327 197.419 259.261C198.173 259.234 198.764 258.628 198.764 257.883V256.63C198.764 256.251 198.61 255.896 198.332 255.634Z" fill="#1A1D63"/>
<path d="M197.306 262.732C194.1 262.874 190.851 262.962 187.651 262.994C186.889 262.999 186.271 263.619 186.271 264.369V265.632C186.271 266.004 186.416 266.354 186.684 266.615C186.949 266.872 187.294 267.01 187.664 267.01H187.683C190.889 266.965 195.561 266.805 197.419 266.738C198.173 266.711 198.764 266.105 198.764 265.36V264.108C198.764 263.728 198.61 263.373 198.332 263.112C198.054 262.85 197.687 262.714 197.306 262.732Z" fill="#1A1D63"/>
<path d="M182.255 37.149C135.345 37.149 97.4161 74.7529 97.3161 121.138C97.1811 183.895 127.429 203.924 182.255 203.791C237.079 203.924 267.327 183.895 267.192 121.138C267.092 74.7529 229.163 37.149 182.255 37.149Z" fill="white"/>
<path d="M203.677 39.8463L204.184 37.9075C197.181 36.1049 189.83 35.1462 182.255 35.1462C174.679 35.1462 167.328 36.1049 160.322 37.9075C159.523 38.1131 158.931 38.7754 158.823 39.5846L155.669 63.2216C155.58 63.8919 155.836 64.5595 156.355 65.0001C156.873 65.4408 157.581 65.5956 158.237 65.4087C166.264 63.1174 174.269 61.945 182.271 61.8783L182.255 59.8754L182.236 61.8783C190.238 61.945 198.243 63.1174 206.269 65.4087C206.926 65.5956 207.633 65.4408 208.152 65.0001C208.67 64.5595 208.927 63.8919 208.838 63.2216L205.683 39.5846C205.575 38.7754 204.984 38.1131 204.184 37.9075L203.677 39.8463L201.667 40.108L204.822 63.745L206.831 63.4833L207.39 61.5578C199.029 59.173 190.651 57.9419 182.271 57.8725H182.236C173.855 57.9419 165.478 59.173 157.116 61.5578L157.678 63.4833L159.685 63.745L162.839 40.108L160.833 39.8463L161.34 41.7851C168.019 40.0679 175.025 39.152 182.255 39.152C189.484 39.152 196.49 40.0679 203.166 41.7851L203.677 39.8463L201.667 40.108L203.677 39.8463Z" fill="#1A1D63"/>
<path d="M182.255 59.8751L182.236 57.8722C173.855 57.9417 165.478 59.1728 157.116 61.5576C156.582 61.7098 156.136 62.0703 155.88 62.559C155.623 63.0451 155.58 63.6112 155.761 64.132L158.302 71.4546C158.645 72.4454 159.704 73.0062 160.727 72.7445C167.919 70.8991 175.095 69.9484 182.271 69.8923L182.255 67.8894L182.236 69.8923C189.414 69.9484 196.587 70.8991 203.779 72.7445C204.803 73.0062 205.862 72.4454 206.205 71.4546L208.746 64.132C208.927 63.6112 208.884 63.0451 208.627 62.559C208.371 62.0703 207.925 61.7098 207.39 61.5576C199.029 59.1728 190.651 57.9417 182.271 57.8722H182.236L182.255 59.8751L182.236 61.878C190.238 61.9448 198.243 63.1172 206.269 65.4085L206.831 63.483L204.914 62.8314L202.372 70.154L204.29 70.8057L204.797 68.8668C197.298 66.9414 189.787 65.9453 182.271 65.8865H182.236C174.722 65.9453 167.209 66.9414 159.709 68.8668L160.22 70.8057L162.134 70.154L159.593 62.8314L157.678 63.483L158.237 65.4085C166.264 63.1172 174.269 61.9448 182.271 61.878L182.255 59.8751L182.236 61.878L182.255 59.8751Z" fill="#1A1D63"/>
<path d="M182.255 37.1487V35.1458C158.245 35.1431 136.517 44.7731 120.799 60.3317C105.077 75.8876 95.3408 97.3961 95.2906 121.132C95.2903 121.273 95.2903 121.415 95.2903 121.554C95.2912 137.267 97.183 150.401 100.941 161.3C103.759 169.474 107.635 176.388 112.536 182.135C116.21 186.443 120.457 190.091 125.234 193.124C132.401 197.672 140.75 200.84 150.181 202.869C159.615 204.896 170.139 205.793 181.712 205.793C181.893 205.793 182.076 205.793 182.257 205.793H182.249C182.43 205.793 182.614 205.793 182.797 205.793C196.512 205.793 208.754 204.536 219.454 201.622C227.475 199.438 234.632 196.316 240.846 192.091C245.505 188.921 249.629 185.129 253.175 180.674C258.498 173.987 262.514 165.818 265.191 156.028C267.87 146.232 269.215 134.813 269.217 121.554C269.217 121.415 269.217 121.273 269.217 121.135V121.132C269.166 97.3961 259.43 75.8876 243.709 60.3317C227.991 44.7731 206.261 35.1431 182.255 35.1458V37.1487V39.1516C205.154 39.1516 225.844 48.3249 240.844 63.1651C255.838 78.008 265.115 98.4937 265.166 121.14C265.166 121.279 265.166 121.418 265.166 121.554C265.166 136.952 263.303 149.653 259.733 160.007C257.051 167.773 253.418 174.22 248.873 179.553C245.465 183.55 241.538 186.923 237.084 189.752C230.406 193.992 222.53 197.005 213.464 198.954C204.403 200.904 194.157 201.788 182.797 201.788C182.616 201.788 182.438 201.788 182.257 201.788H182.249C182.068 201.788 181.89 201.788 181.712 201.788C168.246 201.788 156.349 200.546 146.13 197.76C138.461 195.672 131.738 192.724 125.957 188.79C121.621 185.839 117.81 182.335 114.515 178.196C109.575 171.99 105.789 164.344 103.227 154.981C100.666 145.621 99.3409 134.546 99.3414 121.554C99.3414 121.418 99.3414 121.279 99.3417 121.143C99.3914 98.4937 108.669 78.008 123.665 63.1651C138.663 48.3249 159.353 39.1516 182.255 39.1516V37.1487Z" fill="#1A1D63"/>
<path d="M267.192 121.137C267.214 131.531 266.401 140.755 264.783 148.908C262.822 158.784 255.552 166.793 245.897 169.971C203.469 183.935 161.041 183.935 118.613 169.971C108.849 166.758 101.615 158.589 99.6634 148.599C98.0851 140.523 97.2946 131.4 97.3162 121.137C97.3162 121.092 97.3165 121.049 97.3165 121.007C97.3435 113.128 100.88 105.659 106.899 100.499C157.049 57.5037 207.201 57.0203 257.348 99.0333C263.406 104.107 266.987 111.507 267.168 119.356C267.181 119.949 267.189 120.542 267.192 121.137Z" fill="#080A28"/>
<path d="M109.28 140.633C108.301 140.633 107.325 140.106 106.554 138.576C104.969 135.425 105.005 131.729 105.013 128.132V127.98C105.016 127.133 105.057 126.289 105.136 125.451C106.038 115.789 109.659 108.378 120.072 100.652C127.602 95.0678 132.668 91.1341 140.779 88.5997C141.83 88.2712 142.786 88.1244 143.629 88.1244C148.064 88.1244 149.36 92.245 144.985 95.9597C125.679 113.414 121.421 116.304 115.079 131.291C114.393 132.915 113.936 134.608 113.716 136.333C113.512 137.938 112.528 139.399 110.987 140.173C110.446 140.446 109.863 140.633 109.28 140.633Z" fill="#C1C2C9"/>
<path d="M267.192 121.137C267.214 131.534 266.403 140.755 264.783 148.908C262.822 158.784 255.552 166.793 245.897 169.971C203.469 183.935 161.04 183.935 118.614 169.971C113.121 168.163 108.43 164.79 105.029 160.408C153.792 168.083 200.846 170.951 236.091 156.709C248.876 151.541 257.885 139.845 259.263 126.254C260.235 116.656 259.271 106.941 255.676 97.6473C256.232 98.1039 256.791 98.5659 257.351 99.0333C263.408 104.107 266.987 111.507 267.17 119.356C267.184 119.949 267.192 120.542 267.192 121.137Z" fill="black"/>
<path d="M267.192 121.137L265.166 121.14C265.166 121.279 265.166 121.415 265.166 121.551C265.166 131.673 264.362 140.632 262.795 148.524C261.885 153.099 259.749 157.243 256.71 160.619C253.675 163.994 249.745 166.593 245.257 168.07C224.148 175.016 203.069 178.439 181.99 178.439C161.092 178.439 140.189 174.96 119.253 168.072C110.183 165.087 103.466 157.502 101.652 148.219C100.125 140.403 99.3411 131.542 99.3414 121.549C99.3414 121.413 99.3414 121.276 99.3417 121.143V121.137C99.3417 121.097 99.3419 121.055 99.3419 121.012C99.366 113.727 102.641 106.799 108.226 102.011C120.786 91.2434 133.303 83.2104 145.763 77.872C158.224 72.5362 170.623 69.8871 183.013 69.8871C195.115 69.8871 207.225 72.4187 219.392 77.5168C231.556 82.6149 243.777 90.2874 256.038 100.561C261.655 105.266 264.975 112.127 265.142 119.402C265.156 119.981 265.164 120.561 265.166 121.143L267.192 121.137L269.217 121.132C269.215 120.523 269.207 119.917 269.193 119.311C268.999 110.888 265.156 102.948 258.658 97.5032C246.143 87.0186 233.584 79.1165 220.972 73.8288C208.362 68.5438 195.691 65.8786 183.013 65.8813C170.034 65.8786 157.062 68.664 144.153 74.1973C131.239 79.728 118.384 88.0014 105.572 98.9853C99.1194 104.519 95.3208 112.53 95.2909 120.999C95.2909 121.044 95.2906 121.089 95.2906 121.137V121.132C95.2903 121.271 95.2903 121.41 95.2903 121.549C95.2903 131.748 96.0881 140.859 97.6745 148.978C99.7646 159.679 107.514 168.43 117.974 171.872C139.288 178.888 160.635 182.448 181.99 182.448C203.515 182.448 225.039 178.947 246.534 171.872C251.703 170.171 256.235 167.175 259.738 163.281C263.241 159.39 265.72 154.591 266.771 149.296C268.399 141.094 269.217 131.881 269.217 121.551C269.217 121.413 269.217 121.271 269.217 121.132L267.192 121.137Z" fill="#1A1D63"/>
<path d="M101.293 103.509C101.474 102.697 101.667 101.888 101.872 101.084C101.873 101.082 101.874 101.074 101.876 101.071C101.879 101.06 101.881 101.047 101.884 101.039C101.887 101.025 101.89 101.015 101.893 101.004C102.376 99.1187 102.924 97.2627 103.537 95.4333C120.935 79.8587 138.338 69.3982 155.736 64.0571C155.747 64.0918 155.758 64.1266 155.771 64.1586L157.603 69.4356C153.111 70.6908 148.628 72.2771 144.153 74.1972C131.239 79.7279 118.384 88.0012 105.572 98.9852C103.978 100.352 102.546 101.869 101.293 103.509ZM262.801 101.749C261.577 100.214 260.192 98.7902 258.658 97.503C246.143 87.0185 233.584 79.1163 220.972 73.8286C216.332 71.8845 211.687 70.2955 207.034 69.0617L208.738 64.1586C208.77 64.0678 208.797 63.9717 208.816 63.8782C208.816 63.8755 208.816 63.8728 208.816 63.8728C208.816 63.8728 208.816 63.8729 208.816 63.8702C208.832 63.7954 208.843 63.718 208.849 63.6405C226.009 68.6371 243.161 78.6116 260.319 93.5613C260.392 93.7589 260.462 93.9565 260.532 94.1541C260.537 94.1702 260.543 94.1888 260.548 94.2075C261.159 95.9354 261.712 97.6926 262.206 99.4712V99.4739C262.209 99.4819 262.212 99.4925 262.215 99.5006C262.217 99.5166 262.223 99.5299 262.225 99.546C262.428 100.278 262.62 101.009 262.801 101.749ZM161.532 68.4181L160.292 64.8449C167.625 62.9275 174.938 61.9421 182.255 61.878C189.568 61.9421 196.882 62.9275 204.214 64.8449L203.085 68.103C196.404 66.6235 189.709 65.8811 183.014 65.8811C183.011 65.8811 183.008 65.8811 183.008 65.8811C181.204 65.8811 179.403 65.9345 177.599 66.0413C172.24 66.3591 166.882 67.1523 161.532 68.4181Z" fill="#D1D2E0"/>
<path d="M155.772 64.1587C155.758 64.1266 155.747 64.0919 155.736 64.0572C155.744 64.0813 155.753 64.108 155.761 64.132L155.772 64.1587ZM208.738 64.1587L208.746 64.132C208.776 64.0492 208.797 63.9637 208.816 63.8783C208.797 63.9718 208.77 64.0679 208.738 64.1587ZM208.816 63.8729C208.816 63.8729 208.816 63.8729 208.816 63.8703C208.816 63.8729 208.816 63.8729 208.816 63.8729Z" fill="#1A1D63"/>
<path d="M157.603 69.4355L155.772 64.1585L155.761 64.1318C155.753 64.1078 155.744 64.0811 155.736 64.0571C164.573 61.3438 173.418 59.9498 182.255 59.875L182.236 61.8779L182.255 59.875C182.498 59.8723 182.741 59.8723 182.987 59.8723C191.607 59.8723 200.228 61.1275 208.849 63.6405C208.843 63.7179 208.832 63.7954 208.816 63.8701C208.816 63.8728 208.816 63.8728 208.816 63.8728C208.816 63.8728 208.816 63.8755 208.816 63.8781C208.797 63.9636 208.776 64.049 208.746 64.1318L208.738 64.1585L207.034 69.0617C205.718 68.7145 204.403 68.394 203.085 68.1029L204.214 64.8449C196.882 62.9274 189.568 61.942 182.255 61.8779C174.938 61.942 167.625 62.9274 160.292 64.8449L161.532 68.4181C166.882 67.1522 172.24 66.3591 177.599 66.0413C170.928 66.4392 164.26 67.5715 157.603 69.4355Z" fill="#1A1D63"/>
<path d="M101.292 103.509C101.474 102.697 101.667 101.888 101.872 101.084C101.667 101.888 101.474 102.697 101.293 103.509C101.292 103.509 101.293 103.509 101.292 103.509ZM262.801 101.749C262.62 101.009 262.428 100.278 262.225 99.546C262.428 100.278 262.62 101.009 262.801 101.749ZM101.876 101.071C101.878 101.06 101.881 101.049 101.884 101.039C101.881 101.047 101.878 101.06 101.876 101.071ZM262.225 99.546C262.223 99.5299 262.217 99.5166 262.215 99.5006C262.217 99.5166 262.223 99.5299 262.225 99.546ZM262.206 99.4739V99.4712V99.4739ZM260.532 94.1541C260.462 93.9565 260.392 93.7589 260.319 93.5613C260.359 93.596 260.4 93.6307 260.44 93.6654C260.451 93.831 260.481 93.9939 260.532 94.1541Z" fill="#1A1D63"/>
<path d="M100.287 108.866C100.563 107.061 100.899 105.274 101.292 103.509C101.293 103.509 101.292 103.509 101.293 103.509C102.546 101.869 103.978 100.353 105.572 98.9852C118.384 88.0013 131.239 79.7279 144.153 74.1972C148.628 72.2771 153.111 70.6908 157.602 69.4357C164.26 67.5716 170.928 66.4393 177.599 66.0414C179.403 65.9346 181.204 65.8812 183.008 65.8812C183.008 65.8812 183.011 65.8812 183.013 65.8812C189.709 65.8812 196.404 66.6236 203.085 68.103C204.403 68.3941 205.718 68.7146 207.034 69.0618C211.687 70.2956 216.332 71.8845 220.972 73.8287C233.584 79.1164 246.143 87.0185 258.658 97.5031C260.192 98.7903 261.577 100.214 262.801 101.749C263.238 103.517 263.613 105.306 263.932 107.114C262.296 104.065 260.073 101.314 257.351 99.0333C232.566 78.2698 207.774 67.8841 182.989 67.8841C157.624 67.8841 132.265 78.7532 106.898 100.499C104.14 102.863 101.903 105.712 100.287 108.866Z" fill="#1A1D63"/>
<path d="M100.579 98.1306C154.845 47.7455 209.108 47.1313 263.368 96.2692" stroke="#1A1D63" stroke-width="3" stroke-miterlimit="10" stroke-linecap="round" stroke-linejoin="round"/>
<path d="M278.562 150.711C278.378 152.145 277.598 153.443 276.393 154.265C272.024 157.243 267.041 159.524 261.475 161.15C265.288 150.337 267.227 137.123 267.192 121.137C267.17 111.473 265.509 102.19 262.463 93.548C267.651 95.0329 272.348 97.3482 276.539 100.529C277.649 101.37 278.359 102.628 278.521 104.001C280.452 120.419 280.455 135.986 278.562 150.711Z" fill="white"/>
<path d="M103.034 161.15C97.4674 159.524 92.4846 157.243 88.1148 154.265C86.9103 153.443 86.1298 152.145 85.9462 150.711C84.053 135.986 84.0557 120.419 85.9867 104.001C86.1487 102.628 86.859 101.37 87.969 100.529C92.1605 97.3482 96.857 95.0329 102.045 93.548C98.9987 102.19 97.338 111.473 97.3161 121.137C97.281 137.123 99.2202 150.337 103.034 161.15Z" fill="white"/>
<path d="M264.624 158.007C265.474 155.16 266.206 152.166 266.822 149.028C271.375 146.951 274.846 144.165 277.474 141.279C277.247 144.376 276.939 147.434 276.553 150.457V150.46C276.439 151.341 275.961 152.126 275.24 152.618L275.243 152.615C272.056 154.786 268.515 156.581 264.624 158.007Z" fill="#BABBD0"/>
<path d="M99.8848 158.007C95.9909 156.581 92.4511 154.786 89.2642 152.615L89.2659 152.618C88.5469 152.126 88.0692 151.341 87.9558 150.46L87.9555 150.457C87.5671 147.434 87.2592 144.376 87.0324 141.279C89.6604 144.165 93.1314 146.951 97.6845 149.028C98.2997 152.166 99.0335 155.16 99.8848 158.007Z" fill="#BABBD0"/>
<path d="M278.562 150.711L276.553 150.46C276.439 151.341 275.961 152.126 275.24 152.618L275.243 152.615C271.068 155.459 266.287 157.654 260.899 159.23L261.475 161.15L263.387 161.81C267.262 150.813 269.215 137.519 269.218 121.562C269.218 121.421 269.218 121.276 269.218 121.132C269.193 111.243 267.495 101.739 264.375 92.8885L262.463 93.5481L261.899 95.4709C266.86 96.8917 271.316 99.0922 275.305 102.118C275.972 102.623 276.41 103.389 276.509 104.233V104.23C277.471 112.416 277.949 120.376 277.949 128.124C277.949 135.78 277.482 143.223 276.553 150.457V150.46L278.562 150.711L280.571 150.962C281.522 143.554 282 135.94 282 128.124C282 120.213 281.511 112.098 280.534 103.768C280.307 101.867 279.324 100.118 277.771 98.9373V98.94C273.377 95.6045 268.44 93.1716 263.025 91.6227C262.298 91.4171 261.512 91.628 260.991 92.1701C260.473 92.7123 260.3 93.5001 260.548 94.2078C263.522 102.641 265.145 111.702 265.166 121.143V121.14C265.166 121.282 265.166 121.423 265.166 121.562C265.166 137.198 263.244 150.051 259.56 160.491C259.309 161.201 259.482 161.986 260.008 162.531C260.532 163.078 261.315 163.284 262.047 163.07C267.792 161.393 272.977 159.024 277.541 155.913H277.544C279.234 154.76 280.317 152.949 280.571 150.962L278.562 150.711Z" fill="#1A1D63"/>
<path d="M103.034 161.15L103.608 159.23C98.2196 157.654 93.439 155.459 89.2643 152.615L89.2659 152.618C88.547 152.126 88.0692 151.341 87.9558 150.46L87.9555 150.457C87.0256 143.223 86.5579 135.78 86.5579 128.124C86.5579 120.376 87.0362 112.416 87.9987 104.23V104.233C88.0981 103.389 88.5354 102.623 89.2011 102.118H89.2022C93.1908 99.0922 97.6467 96.8917 102.608 95.4709L102.045 93.5481L100.132 92.8885C97.0129 101.739 95.3125 111.243 95.2906 121.132C95.2904 121.276 95.2901 121.421 95.2901 121.565C95.2912 137.519 97.2446 150.813 101.121 161.81L103.034 161.15L103.608 159.23L103.034 161.15L104.946 160.491C101.264 150.054 99.3404 137.198 99.3414 121.565C99.3414 121.423 99.3414 121.282 99.3417 121.143C99.363 111.702 100.985 102.641 103.958 94.2078C104.207 93.5001 104.035 92.7123 103.515 92.1701C102.995 91.628 102.208 91.4171 101.482 91.6227C96.0674 93.1716 91.1302 95.6045 86.7359 98.94H86.737C85.183 100.118 84.1996 101.867 83.9749 103.768H83.9747C82.9954 112.098 82.5068 120.213 82.5068 128.124C82.5068 135.94 82.9843 143.554 83.9369 150.962C84.1907 152.949 85.2737 154.76 86.9638 155.913H86.9654C91.5302 159.024 96.7155 161.393 102.46 163.07C103.191 163.284 103.974 163.078 104.5 162.531C105.026 161.986 105.197 161.201 104.946 160.491L103.034 161.15Z" fill="#1A1D63"/>
<path d="M212.6 183.289L212.781 180.05C224.04 178.295 235.291 175.574 246.534 171.873C250.718 170.495 254.482 168.273 257.621 165.413C256.843 167.186 256.006 168.882 255.109 170.5C252.676 172.399 249.899 173.902 246.885 174.906C235.45 178.715 224.024 181.508 212.6 183.289Z" fill="#D1D2E0"/>
<path d="M255.109 170.5C256.006 168.881 256.843 167.185 257.621 165.412C258.363 164.736 259.068 164.026 259.738 163.281C259.903 163.099 260.065 162.915 260.224 162.728C260.394 162.859 260.583 162.963 260.783 163.033C259.895 165.353 258.917 167.554 257.847 169.648C257.594 169.517 257.313 169.45 257.032 169.45C256.629 169.45 256.227 169.586 255.895 169.864C255.638 170.08 255.376 170.294 255.109 170.5Z" fill="#1A1D63"/>
<path d="M212.781 180.05L212.851 178.813V178.811C212.856 178.699 212.859 178.589 212.859 178.477C212.859 178.325 212.854 178.175 212.843 178.026C223.862 176.282 234.878 173.598 245.897 169.971C251.458 168.139 256.23 164.705 259.652 160.234C259.622 160.32 259.592 160.405 259.56 160.491C259.309 161.201 259.482 161.986 260.008 162.531C260.076 162.603 260.149 162.667 260.224 162.729C260.065 162.916 259.903 163.1 259.738 163.281C259.068 164.027 258.363 164.737 257.621 165.413C254.482 168.273 250.718 170.495 246.534 171.873C235.291 175.574 224.04 178.295 212.781 180.05Z" fill="#1A1D63"/>
<path d="M260.783 163.033C260.583 162.964 260.394 162.859 260.224 162.729C260.149 162.667 260.076 162.603 260.008 162.531C259.482 161.986 259.309 161.201 259.56 160.491C259.592 160.405 259.622 160.32 259.652 160.234C262.074 157.064 263.819 153.376 264.688 149.37C263.684 154.314 262.382 158.862 260.783 163.033Z" fill="#1A1D63"/>
<path d="M151.858 183.246C140.543 181.462 129.221 178.682 117.892 174.909C114.659 173.832 111.717 172.182 109.169 170.083C108.352 168.574 107.583 167.004 106.865 165.364C110.002 168.246 113.768 170.489 117.974 171.872C129.202 175.568 140.439 178.303 151.683 180.065L151.858 183.246Z" fill="#D1D2E0"/>
<path d="M109.169 170.083C108.904 169.864 108.643 169.64 108.386 169.413C108.05 169.114 107.631 168.967 107.212 168.967C106.937 168.967 106.662 169.031 106.412 169.157C105.439 167.212 104.543 165.172 103.724 163.033C103.932 162.958 104.129 162.849 104.305 162.71C105.102 163.645 105.957 164.531 106.865 165.364C107.583 167.004 108.352 168.574 109.169 170.083Z" fill="#1A1D63"/>
<path d="M151.683 180.066C140.439 178.303 129.202 175.569 117.974 171.873C113.768 170.489 110.002 168.246 106.865 165.365C105.957 164.531 105.102 163.645 104.305 162.71C104.373 162.654 104.439 162.595 104.5 162.531C105.026 161.986 105.197 161.201 104.946 160.491L103.056 161.142L104.946 160.491C104.905 160.373 104.863 160.253 104.822 160.136C108.239 164.652 113.009 168.129 118.614 169.971C129.617 173.593 140.617 176.274 151.62 178.018C151.61 178.17 151.602 178.322 151.602 178.477C151.602 178.589 151.607 178.701 151.612 178.813L151.683 180.066Z" fill="#1A1D63"/>
<path d="M103.724 163.033C102.093 158.776 100.769 154.127 99.7577 149.066C100.627 153.144 102.378 156.907 104.822 160.135C104.863 160.253 104.905 160.373 104.946 160.491L103.056 161.142L103.034 161.15L103.608 159.23L103.034 161.15L103.056 161.142L104.946 160.491C105.197 161.201 105.026 161.986 104.5 162.531C104.439 162.595 104.373 162.654 104.305 162.71C104.129 162.849 103.932 162.958 103.724 163.033Z" fill="#1A1D63"/>
<path d="M106.037 171.992C109.107 174.724 112.741 176.856 116.771 178.199C138.603 185.471 160.463 189.124 182.325 189.124C204.23 189.124 226.133 185.484 248.006 178.196C251.782 176.938 255.22 174.992 258.172 172.508C258.909 171.886 258.998 170.791 258.372 170.062C257.742 169.33 256.635 169.242 255.895 169.864C253.278 172.065 250.232 173.792 246.885 174.906C225.347 182.079 203.836 185.65 182.325 185.65C160.86 185.65 139.39 182.068 117.892 174.909C114.322 173.72 111.107 171.835 108.386 169.413C107.665 168.772 106.556 168.828 105.907 169.541C105.258 170.254 105.317 171.352 106.037 171.992Z" fill="#1A1D63"/>
<path d="M203.671 238.302H160.792C158.642 238.302 156.865 236.638 156.746 234.515L153.635 178.701C153.506 176.407 155.356 174.476 157.678 174.476H206.782C209.108 174.476 210.955 176.407 210.828 178.701L207.714 234.515C207.598 236.638 205.821 238.302 203.671 238.302Z" fill="#FF3E3E"/>
<path d="M155.709 179.521L155.658 178.592C155.655 178.552 155.653 178.514 155.653 178.477C155.653 178.199 155.709 177.943 155.812 177.705C155.963 177.347 156.222 177.037 156.547 176.821C156.871 176.605 157.249 176.479 157.678 176.479H206.783C207.071 176.479 207.333 176.535 207.574 176.637C207.933 176.786 208.246 177.043 208.465 177.366C208.684 177.686 208.808 178.063 208.808 178.477C208.808 178.514 208.808 178.552 208.805 178.592L208.754 179.521C208.173 179.198 207.501 179.016 206.783 179.016H157.678C156.962 179.016 156.29 179.198 155.709 179.521Z" fill="#FF9F9F"/>
<path d="M189.317 236.299H175.146C175.424 235.867 175.7 235.434 175.975 234.996C176.308 234.465 176.629 233.869 176.942 233.231C177.353 232.39 177.747 231.474 178.09 230.558H186.373C186.587 231.126 186.819 231.695 187.062 232.248C187.51 233.255 187.991 234.2 188.488 234.996C188.761 235.434 189.036 235.867 189.317 236.299Z" fill="#BA3449"/>
<path d="M203.671 238.302V236.299H160.792C160.249 236.296 159.769 236.093 159.401 235.749C159.034 235.404 158.802 234.942 158.769 234.405L155.658 178.591C155.655 178.551 155.653 178.514 155.653 178.476C155.653 178.199 155.709 177.942 155.812 177.704C155.963 177.347 156.222 177.037 156.547 176.821C156.871 176.604 157.249 176.479 157.678 176.479H206.782C207.071 176.479 207.333 176.535 207.574 176.636C207.933 176.786 208.246 177.042 208.465 177.365C208.684 177.686 208.808 178.062 208.808 178.476C208.808 178.514 208.808 178.551 208.805 178.591L205.694 234.405C205.662 234.942 205.429 235.404 205.062 235.749C204.695 236.093 204.214 236.296 203.671 236.299V238.302V240.305C205.278 240.305 206.761 239.677 207.847 238.66C208.935 237.642 209.651 236.213 209.737 234.627L212.851 178.813V178.81C212.856 178.698 212.859 178.588 212.859 178.476C212.859 177.656 212.692 176.863 212.384 176.145C211.922 175.069 211.158 174.155 210.191 173.504C209.224 172.855 208.041 172.47 206.782 172.473H157.678C156.844 172.47 156.036 172.641 155.307 172.948C154.21 173.408 153.29 174.169 152.636 175.127C151.985 176.083 151.602 177.245 151.602 178.476C151.602 178.588 151.607 178.701 151.612 178.813L154.724 234.627C154.813 236.213 155.526 237.642 156.614 238.66C157.702 239.677 159.185 240.305 160.792 240.305H203.671V238.302Z" fill="#1A1D63"/>
<path d="M164.946 183.423C164.946 184.675 163.919 185.693 162.65 185.693C161.384 185.693 160.355 184.675 160.355 183.423C160.355 182.168 161.384 181.153 162.65 181.153C163.919 181.153 164.946 182.168 164.946 183.423Z" fill="white"/>
<path d="M162.65 184.891C161.832 184.891 161.165 184.231 161.165 183.422C161.165 182.61 161.832 181.954 162.65 181.954C163.471 181.954 164.135 182.61 164.135 183.422C164.135 184.231 163.471 184.891 162.65 184.891Z" fill="#BABBD0"/>
<path d="M162.65 178.482C159.895 178.482 157.654 180.696 157.654 183.423C157.654 186.147 159.895 188.363 162.65 188.363C165.408 188.363 167.646 186.147 167.646 183.423C167.646 180.696 165.408 178.482 162.65 178.482ZM162.65 181.153C163.92 181.153 164.946 182.168 164.946 183.423C164.946 184.675 163.92 185.693 162.65 185.693C161.384 185.693 160.355 184.675 160.355 183.423C160.355 182.168 161.384 181.153 162.65 181.153Z" fill="#1A1D63"/>
<path d="M177.226 225.721C177.212 226.02 177.183 226.285 177.134 226.578C177.121 226.653 177.107 226.728 177.094 226.808C177.042 227.07 176.977 227.35 176.902 227.644C176.559 228.963 175.973 230.534 175.333 231.909C175.049 232.518 174.755 233.092 174.466 233.586C174.393 233.709 174.323 233.829 174.252 233.944C169.505 241.528 164.017 247.988 157.103 253.295C156.376 253.853 155.631 254.4 154.872 254.932C154.491 255.199 154.108 255.46 153.719 255.722C151.002 257.541 148.074 259.204 144.906 260.708C144.002 261.138 143.075 261.555 142.13 261.958C141.657 262.161 141.179 262.358 140.7 262.556C138.242 263.549 133.294 265.408 127.499 266.717L127.45 266.727C121.941 267.964 115.672 268.701 110.046 267.726L118.765 234.334L118.773 234.363C119.47 234.27 120.172 234.165 120.877 234.051C121.581 233.933 122.292 233.805 123.005 233.663C124.785 233.311 126.58 232.876 128.385 232.344C129.106 232.133 129.829 231.906 130.553 231.66C130.915 231.54 131.277 231.412 131.639 231.284C132.363 231.022 133.089 230.744 133.813 230.451C134.178 230.301 134.539 230.149 134.901 229.994C135.628 229.679 136.352 229.348 137.078 228.998C137.802 228.648 138.528 228.277 139.252 227.887C139.976 227.497 140.697 227.089 141.42 226.659C141.779 226.442 142.141 226.221 142.5 225.996C145.382 224.186 148.239 222.033 151.042 219.475C151.745 218.834 152.441 218.169 153.138 217.48C154.267 216.356 155.507 215.335 156.841 214.435L156.862 214.419C158.202 213.514 159.614 212.897 161.043 212.539C161.186 212.502 161.329 212.47 161.473 212.438C162.331 212.254 163.193 212.163 164.049 212.158C164.479 212.152 164.905 212.171 165.327 212.211C165.61 212.238 165.888 212.272 166.169 212.318C167.979 212.606 169.71 213.276 171.241 214.265C171.476 214.417 171.708 214.577 171.935 214.743C173.404 215.83 174.655 217.226 175.573 218.871C175.713 219.125 175.848 219.384 175.973 219.648C176.224 220.177 176.44 220.727 176.618 221.301C176.753 221.731 176.867 222.172 176.958 222.626C176.991 222.776 177.018 222.928 177.045 223.08C177.148 223.694 177.21 224.325 177.229 224.976C177.229 225.07 177.231 225.16 177.231 225.246C177.234 225.417 177.231 225.574 177.226 225.721Z" fill="white"/>
<path d="M254.418 267.726L245.697 234.334L245.689 234.363C244.93 234.262 244.168 234.147 243.401 234.019C242.823 233.922 242.243 233.818 241.662 233.703C239.815 233.343 237.951 232.897 236.077 232.347C235.356 232.133 234.632 231.906 233.908 231.663C233.411 231.495 232.914 231.316 232.415 231.132C231.826 230.915 231.237 230.691 230.649 230.451C230.287 230.304 229.922 230.152 229.56 229.994C228.953 229.732 228.342 229.452 227.735 229.163C227.257 228.936 226.776 228.704 226.298 228.458C225.936 228.274 225.574 228.085 225.212 227.89C224.488 227.5 223.764 227.088 223.043 226.659C222.681 226.442 222.322 226.223 221.96 225.996C219.081 224.186 216.224 222.033 213.418 219.475C212.716 218.837 212.019 218.172 211.325 217.48C210.477 216.636 209.57 215.851 208.605 215.132C208.284 214.892 207.955 214.66 207.622 214.435L207.601 214.419C207.134 214.104 206.658 213.827 206.175 213.581C206.037 213.509 205.902 213.442 205.764 213.378C205.321 213.17 204.873 212.991 204.422 212.836C204.327 212.806 204.236 212.774 204.141 212.745C203.941 212.681 203.739 212.625 203.536 212.571C203.326 212.515 203.115 212.467 202.904 212.422C202.375 212.312 201.84 212.238 201.311 212.195L201.246 212.19C200.97 212.171 200.695 212.16 200.422 212.157H200.411C197.786 212.139 195.231 212.932 193.079 214.361C192.893 214.484 192.709 214.612 192.528 214.745C192.301 214.911 192.08 215.087 191.866 215.266C191.65 215.448 191.44 215.637 191.237 215.832C190.624 216.42 190.068 217.069 189.576 217.774C189.33 218.126 189.101 218.492 188.887 218.871C188.747 219.125 188.615 219.384 188.488 219.648C188.301 220.046 188.134 220.455 187.985 220.877C187.786 221.438 187.624 222.022 187.502 222.626C187.472 222.776 187.443 222.928 187.418 223.083C187.316 223.694 187.254 224.327 187.235 224.976C187.232 225.07 187.229 225.16 187.229 225.246C187.229 225.417 187.229 225.574 187.237 225.724C187.248 226.02 187.278 226.285 187.326 226.581C187.34 226.653 187.354 226.731 187.37 226.808C187.418 227.072 187.483 227.353 187.559 227.647C187.826 228.672 188.242 229.85 188.712 230.969C189.185 232.088 189.714 233.148 190.211 233.944C191.21 235.541 192.242 237.087 193.314 238.585C195.723 241.953 198.335 245.067 201.214 247.924C201.854 248.56 202.507 249.182 203.177 249.791C204.176 250.707 205.211 251.591 206.277 252.448C211.263 256.446 217.002 259.821 223.764 262.556C226.222 263.549 231.17 265.408 236.966 266.717L237.011 266.727C242.521 267.966 248.792 268.704 254.418 267.726Z" fill="white"/>
<path d="M245.97 232.379C240.522 231.655 234.913 230.248 229.323 227.692C223.732 225.136 218.152 221.432 212.762 216.067C211.544 214.855 210.204 213.752 208.762 212.78L207.622 214.435L208.83 212.828L208.808 212.812L208.74 212.764C206.105 210.982 203.169 210.152 200.322 210.155C196.449 210.155 192.747 211.663 189.965 214.262C188.574 215.562 187.416 217.141 186.589 218.941C185.763 220.738 185.271 222.757 185.209 224.92V224.925C185.206 225.07 185.204 225.208 185.204 225.342C185.204 225.665 185.215 225.972 185.244 226.277C185.274 226.584 185.32 226.883 185.379 227.187V227.177C185.498 227.807 185.674 228.469 185.887 229.15C186.208 230.173 186.616 231.239 187.062 232.248C187.51 233.255 187.991 234.2 188.488 234.996C192.566 241.515 197.217 247.27 202.845 252.197C208.473 257.121 215.076 261.207 222.997 264.409C224.032 264.829 225.215 264.337 225.639 263.314C226.063 262.289 225.566 261.119 224.531 260.703C216.994 257.653 210.815 253.818 205.529 249.195C200.247 244.573 195.85 239.149 191.934 232.889V232.892C191.699 232.515 191.432 232.026 191.167 231.487C190.77 230.675 190.376 229.74 190.054 228.843C189.73 227.948 189.479 227.078 189.36 226.44L189.357 226.429C189.317 226.215 189.293 226.058 189.279 225.897C189.263 225.737 189.255 225.572 189.255 225.342C189.255 225.248 189.258 225.142 189.26 225.024V225.032C189.306 223.395 189.671 221.916 190.276 220.596C191.183 218.623 192.639 217.015 194.4 215.896C196.161 214.777 198.221 214.16 200.322 214.16C202.383 214.163 204.481 214.745 206.458 216.072L207.601 214.419L206.391 216.027L206.412 216.043L206.48 216.089C207.709 216.919 208.848 217.856 209.888 218.89C215.606 224.586 221.607 228.579 227.621 231.329C233.638 234.08 239.661 235.583 245.43 236.35C246.54 236.497 247.558 235.728 247.706 234.633C247.855 233.535 247.077 232.528 245.97 232.379Z" fill="#1A1D63"/>
<path d="M141.466 264.409C149.387 261.207 155.99 257.121 161.616 252.197C167.247 247.27 171.897 241.515 175.975 234.996C176.308 234.465 176.629 233.869 176.942 233.231C177.41 232.275 177.852 231.225 178.225 230.184C178.601 229.142 178.903 228.119 179.084 227.177V227.185C179.141 226.88 179.189 226.584 179.216 226.277C179.246 225.97 179.26 225.662 179.26 225.342C179.26 225.206 179.257 225.07 179.254 224.928V224.92C179.192 222.757 178.7 220.738 177.874 218.941C176.634 216.241 174.644 214.043 172.251 212.523C169.856 211.004 167.044 210.155 164.141 210.155C161.294 210.152 158.359 210.982 155.72 212.764L155.653 212.812L155.631 212.828L156.841 214.435L155.699 212.78C154.259 213.752 152.92 214.855 151.701 216.067C146.311 221.432 140.731 225.136 135.14 227.692C129.549 230.248 123.94 231.655 118.494 232.379C117.385 232.528 116.607 233.535 116.756 234.633C116.905 235.728 117.924 236.497 119.033 236.35C124.802 235.583 130.825 234.08 136.84 231.329C142.854 228.579 148.855 224.586 154.575 218.89C155.615 217.856 156.755 216.919 157.983 216.089L158.051 216.043L158.072 216.027L156.863 214.419L158.002 216.072C159.979 214.745 162.08 214.163 164.141 214.16C166.939 214.158 169.672 215.261 171.714 217.173C172.735 218.129 173.58 219.28 174.185 220.596C174.79 221.916 175.157 223.395 175.203 225.032V225.024C175.206 225.142 175.208 225.246 175.208 225.342C175.208 225.569 175.2 225.737 175.184 225.897C175.168 226.058 175.146 226.215 175.103 226.429V226.44C175.022 226.864 174.884 227.393 174.706 227.964C174.439 228.819 174.077 229.764 173.688 230.64C173.302 231.514 172.883 232.325 172.529 232.892V232.889C168.613 239.149 164.217 244.573 158.931 249.195C153.646 253.818 147.469 257.653 139.932 260.703C138.896 261.119 138.4 262.289 138.824 263.314C139.247 264.337 140.43 264.829 141.466 264.409Z" fill="#1A1D63"/>
<path d="M201.616 249.78C204.949 248.96 207.93 247.852 210.547 246.437C212.508 245.376 214.266 244.14 215.803 242.73C218.109 240.612 219.911 238.099 221.166 235.244C222.428 232.39 223.149 229.201 223.357 225.719C223.424 224.613 222.571 223.665 221.455 223.601C220.337 223.534 219.379 224.375 219.314 225.481C219.149 228.226 218.633 230.672 217.788 232.841C217.153 234.47 216.335 235.944 215.325 237.285C213.81 239.296 211.865 241.013 209.432 242.455C206.999 243.894 204.074 245.048 200.638 245.892C199.553 246.159 198.894 247.246 199.161 248.319C199.431 249.393 200.53 250.047 201.616 249.78Z" fill="#1A1D63"/>
<path d="M141.107 225.719C141.293 228.814 141.882 231.677 142.894 234.28C143.656 236.233 144.655 238.038 145.887 239.678C147.737 242.137 150.111 244.215 152.952 245.892C155.793 247.572 159.096 248.859 162.845 249.78C163.93 250.047 165.029 249.393 165.3 248.319C165.57 247.246 164.908 246.159 163.822 245.892C160.77 245.141 158.118 244.145 155.861 242.922C154.165 242.006 152.69 240.962 151.418 239.795C149.509 238.04 148.053 236.008 147.008 233.642C145.965 231.279 145.336 228.568 145.15 225.481C145.082 224.375 144.123 223.534 143.008 223.601C141.89 223.665 141.039 224.613 141.107 225.719Z" fill="#1A1D63"/>
<path d="M245.97 232.379C240.522 231.655 234.913 230.248 229.323 227.692C223.732 225.136 218.152 221.432 212.762 216.067C211.544 214.855 210.204 213.752 208.762 212.78L207.622 214.436L208.83 212.828L208.808 212.812L208.74 212.764C206.105 210.983 203.169 210.152 200.322 210.155C196.449 210.155 192.747 211.664 189.965 214.262C188.574 215.563 187.416 217.141 186.589 218.941C185.763 220.738 185.271 222.757 185.209 224.92V224.925C185.206 225.07 185.204 225.209 185.204 225.342C185.204 225.665 185.215 225.972 185.244 226.277C185.274 226.584 185.32 226.883 185.379 227.187V227.177C185.498 227.807 185.674 228.469 185.887 229.15C186.208 230.173 186.616 231.239 187.062 232.248C187.51 233.255 187.991 234.2 188.488 234.996C192.566 241.515 197.217 247.27 202.845 252.197C208.473 257.121 215.076 261.207 222.997 264.409C225.52 265.427 230.559 267.323 236.515 268.669C237.606 268.915 238.691 268.242 238.94 267.163C239.188 266.084 238.508 265.01 237.417 264.765C231.78 263.491 226.924 261.669 224.531 260.703C216.994 257.653 210.815 253.818 205.529 249.195C200.247 244.573 195.85 239.149 191.934 232.889V232.892C191.699 232.515 191.432 232.026 191.167 231.487C190.77 230.675 190.376 229.74 190.054 228.843C189.73 227.948 189.479 227.078 189.36 226.44L189.357 226.429C189.317 226.215 189.293 226.058 189.279 225.898C189.263 225.737 189.255 225.572 189.255 225.342C189.255 225.249 189.258 225.142 189.26 225.024V225.032C189.306 223.395 189.671 221.916 190.276 220.596C191.183 218.623 192.639 217.015 194.4 215.896C196.161 214.777 198.221 214.16 200.322 214.16C202.383 214.163 204.481 214.745 206.458 216.073L207.601 214.42L206.391 216.027L206.412 216.043L206.48 216.089C207.709 216.919 208.848 217.856 209.888 218.89C215.606 224.586 221.607 228.579 227.621 231.329C233.638 234.08 239.661 235.584 245.43 236.35C246.54 236.497 247.558 235.728 247.706 234.633C247.855 233.535 247.077 232.528 245.97 232.379Z" fill="#1A1D63"/>
<path d="M127.948 268.669C133.904 267.323 138.943 265.427 141.466 264.409C149.387 261.207 155.99 257.121 161.616 252.197C167.247 247.27 171.897 241.515 175.975 234.996C176.308 234.465 176.629 233.869 176.942 233.231C177.41 232.275 177.852 231.225 178.225 230.184C178.601 229.142 178.903 228.119 179.084 227.177V227.185C179.141 226.88 179.189 226.584 179.216 226.277C179.246 225.97 179.26 225.663 179.26 225.342C179.26 225.206 179.257 225.07 179.254 224.928V224.92C179.192 222.757 178.7 220.738 177.874 218.941C176.634 216.241 174.644 214.043 172.251 212.523C169.856 211.004 167.044 210.155 164.141 210.155C161.294 210.152 158.359 210.983 155.72 212.764L155.653 212.812L155.631 212.828L156.841 214.436L155.699 212.78C154.259 213.752 152.92 214.855 151.701 216.067C146.311 221.432 140.731 225.136 135.14 227.692C129.549 230.248 123.94 231.655 118.494 232.379C117.385 232.528 116.607 233.535 116.756 234.633C116.905 235.728 117.924 236.497 119.033 236.35C124.802 235.584 130.825 234.08 136.84 231.329C142.854 228.579 148.855 224.586 154.575 218.89C155.615 217.856 156.755 216.919 157.983 216.089L158.051 216.043L158.072 216.027L156.863 214.42L158.002 216.073C159.979 214.745 162.08 214.163 164.141 214.16C166.939 214.158 169.672 215.261 171.714 217.173C172.735 218.129 173.58 219.28 174.185 220.596C174.79 221.916 175.157 223.395 175.203 225.032V225.024C175.206 225.142 175.208 225.246 175.208 225.342C175.208 225.569 175.2 225.737 175.184 225.898C175.168 226.058 175.146 226.215 175.103 226.429V226.44C175.022 226.864 174.884 227.393 174.706 227.964C174.439 228.819 174.077 229.764 173.688 230.64C173.302 231.514 172.883 232.326 172.529 232.892V232.889C168.613 239.149 164.217 244.573 158.931 249.195C153.646 253.818 147.469 257.653 139.932 260.703C137.539 261.669 132.683 263.491 127.046 264.765C125.956 265.01 125.274 266.084 125.523 267.163C125.772 268.242 126.858 268.915 127.948 268.669Z" fill="#1A1D63"/>
<path d="M236.787 268.719H236.963V266.716L236.515 268.669C240.371 269.537 244.614 270.178 248.838 270.18C251.209 270.18 253.578 269.977 255.868 269.486C257.586 269.117 259.26 268.583 260.853 267.849C263.238 266.746 265.437 265.176 267.259 263.061C269.082 260.945 270.519 258.296 271.456 255.092C272.499 251.526 273.036 247.67 273.036 243.651C273.036 236.198 271.189 228.191 267.246 220.5C266.741 219.512 265.523 219.119 264.524 219.619C263.527 220.118 263.127 221.323 263.632 222.311C267.295 229.449 268.985 236.852 268.985 243.651C268.985 247.315 268.494 250.805 267.565 253.978C266.854 256.403 265.852 258.334 264.64 259.893C263.73 261.063 262.701 262.027 261.561 262.828C259.851 264.03 257.888 264.866 255.733 265.403C253.58 265.939 251.242 266.174 248.838 266.174C245.03 266.174 241.06 265.587 237.414 264.764C237.271 264.732 237.111 264.714 236.963 264.714H236.787C235.669 264.714 234.762 265.611 234.762 266.716C234.762 267.822 235.669 268.719 236.787 268.719Z" fill="#1A1D63"/>
<path d="M97.2157 220.5C93.2737 228.191 91.4272 236.198 91.4264 243.651C91.4267 247.67 91.9634 251.526 93.0069 255.092C93.8398 257.941 95.0659 260.35 96.6105 262.334C97.7677 263.824 99.1013 265.074 100.556 266.094C102.74 267.63 105.187 268.65 107.738 269.286C110.292 269.924 112.956 270.18 115.624 270.18C119.831 270.178 124.056 269.542 127.899 268.679L127.45 266.727L125.435 266.925V266.927C125.546 268.028 126.539 268.832 127.652 268.722C128.765 268.61 129.577 267.63 129.466 266.53L129.465 266.527C129.408 265.958 129.103 265.435 128.633 265.101C128.163 264.767 127.565 264.647 127.001 264.772C123.368 265.592 119.416 266.174 115.624 266.174C113.487 266.174 111.402 265.99 109.454 265.571C107.992 265.256 106.608 264.812 105.326 264.22C103.403 263.328 101.712 262.112 100.287 260.462C98.8647 258.809 97.698 256.705 96.8981 253.978C95.9685 250.803 95.4775 247.315 95.4778 243.651C95.477 236.852 97.1687 229.449 100.829 222.311C101.335 221.323 100.936 220.118 99.9383 219.619C98.9404 219.119 97.7215 219.512 97.2157 220.5Z" fill="#1A1D63"/>
<path d="M253.907 265.779L252.506 260.406C259.166 259.242 264.572 256.352 268.167 251.591C267.994 252.405 267.792 253.201 267.565 253.978C266.854 256.403 265.852 258.334 264.64 259.893C263.73 261.063 262.701 262.027 261.561 262.828C259.851 264.03 257.888 264.866 255.733 265.403C255.139 265.552 254.528 265.678 253.907 265.779Z" fill="#BABBD0"/>
<path d="M248.827 266.175C245.035 266.175 241.087 265.59 237.454 264.773C237.441 264.77 237.43 264.767 237.417 264.765C231.78 263.491 226.924 261.67 224.532 260.703C218.533 258.275 213.397 255.354 208.884 251.93C208.786 251.855 208.689 251.781 208.592 251.706C208.406 251.564 208.219 251.42 208.036 251.273C208.017 251.26 207.998 251.244 207.979 251.228C207.871 251.145 207.766 251.062 207.66 250.977C207.631 250.953 207.601 250.929 207.571 250.905C207.433 250.795 207.296 250.683 207.158 250.571C207.112 250.533 207.069 250.499 207.023 250.461C220.848 257.327 234.205 260.999 245.238 261.002C247.793 261.002 250.223 260.804 252.506 260.406L253.907 265.78C252.284 266.052 250.58 266.175 248.843 266.175C248.841 266.175 248.841 266.175 248.838 266.175C248.835 266.175 248.833 266.175 248.827 266.175Z" fill="#BABBD0"/>
<path d="M234.829 266.201C229.968 264.954 225.912 263.424 223.762 262.556C213.999 258.609 206.375 253.332 200.068 246.76C202.396 248.082 204.716 249.315 207.023 250.461C207.069 250.498 207.112 250.533 207.158 250.57C207.296 250.683 207.433 250.795 207.571 250.904C207.601 250.928 207.63 250.952 207.66 250.976C207.766 251.062 207.871 251.145 207.979 251.227C207.998 251.243 208.017 251.259 208.036 251.273C208.219 251.42 208.406 251.564 208.592 251.705C208.689 251.78 208.786 251.855 208.884 251.93C213.396 255.353 218.533 258.275 224.532 260.703C226.924 261.669 231.78 263.491 237.417 264.764C237.43 264.767 237.441 264.77 237.454 264.772C237.441 264.77 237.427 264.767 237.414 264.764C237.271 264.732 237.111 264.714 236.963 264.714H236.787C235.848 264.714 235.059 265.344 234.829 266.201Z" fill="#1A1D63"/>
<path d="M248.838 268.177C244.822 268.177 240.717 267.563 236.963 266.717C236.236 266.551 235.526 266.38 234.829 266.201C235.059 265.344 235.848 264.714 236.787 264.714H236.963C237.111 264.714 237.271 264.732 237.414 264.765C237.427 264.767 237.441 264.77 237.454 264.773C241.087 265.59 245.035 266.175 248.827 266.175C248.833 266.175 248.835 266.175 248.838 266.175C248.841 266.175 248.841 266.175 248.843 266.175C250.58 266.175 252.284 266.052 253.907 265.779C254.528 265.678 255.139 265.552 255.733 265.403C257.888 264.866 259.851 264.03 261.561 262.828C262.701 262.027 263.73 261.063 264.64 259.893C265.852 258.334 266.854 256.403 267.565 253.978C267.792 253.201 267.994 252.405 268.167 251.591C269.245 250.167 270.157 248.576 270.892 246.81C270.689 249.51 270.222 252.101 269.509 254.536C266.425 265.077 257.856 268.177 248.838 268.177Z" fill="#1A1D63"/>
<path d="M110.555 265.779C110.183 265.718 109.816 265.648 109.454 265.571C107.992 265.256 106.608 264.813 105.326 264.22C103.403 263.328 101.712 262.113 100.287 260.462C98.8647 258.809 97.6981 256.705 96.8981 253.978C96.6704 253.201 96.4689 252.405 96.2947 251.591C99.8905 256.352 105.298 259.242 111.958 260.406L110.555 265.779Z" fill="#BABBD0"/>
<path d="M115.634 266.175C115.631 266.175 115.627 266.175 115.624 266.175C113.884 266.175 112.18 266.052 110.555 265.78L111.958 260.406C114.241 260.804 116.67 261.002 119.224 261.002C130.258 261.002 143.613 257.327 157.441 250.461C152.49 254.523 146.77 257.936 139.932 260.703C137.539 261.67 132.683 263.491 127.046 264.765C127.038 264.765 127.03 264.767 127.022 264.77C127.015 264.77 127.008 264.773 127.001 264.773C123.372 265.59 119.423 266.175 115.634 266.175Z" fill="#BABBD0"/>
<path d="M129.419 266.257C129.305 265.795 129.027 265.381 128.633 265.101C128.286 264.855 127.869 264.724 127.448 264.724C127.306 264.724 127.163 264.738 127.022 264.77C127.03 264.767 127.038 264.764 127.046 264.764C132.683 263.491 137.539 261.669 139.932 260.703C146.77 257.936 152.49 254.523 157.44 250.461C159.747 249.315 162.067 248.082 164.392 246.76C158.086 253.332 150.462 258.609 140.7 262.556C138.518 263.437 134.375 264.999 129.419 266.257Z" fill="#1A1D63"/>
<path d="M115.624 268.177C106.607 268.177 98.0389 265.077 94.9525 254.536C94.2395 252.101 93.7723 249.51 93.5698 246.81C94.3054 248.576 95.2185 250.167 96.2948 251.591C96.469 252.405 96.6705 253.201 96.8981 253.978C97.6981 256.705 98.8648 258.809 100.287 260.462C101.712 262.113 103.403 263.328 105.326 264.22C106.608 264.813 107.992 265.256 109.454 265.571C109.816 265.648 110.183 265.718 110.555 265.779C112.18 266.052 113.884 266.175 115.624 266.175C115.627 266.175 115.631 266.175 115.634 266.175C119.423 266.175 123.372 265.59 127.001 264.773C127.008 264.773 127.015 264.77 127.022 264.77C127.163 264.738 127.306 264.724 127.448 264.724C127.869 264.724 128.286 264.855 128.633 265.101C129.027 265.381 129.305 265.795 129.419 266.257C128.791 266.415 128.15 266.57 127.499 266.717C123.747 267.563 119.642 268.177 115.624 268.177Z" fill="#1A1D63"/>
<path d="M39.553 2.13207C62.1401 0.339638 82.0164 17.015 83.9475 39.3751C84.833 49.6328 81.7881 59.3004 76.0545 66.9395C77.1267 69.4621 79.5764 74.3893 83.7608 78.4572C84.486 79.1627 84.0815 80.5214 83.1588 80.4583C78.9982 80.1728 71.4505 79.3054 65.6396 76.662C60.1092 80.2469 53.6138 82.5472 46.5464 83.1099C23.959 84.8996 4.08322 68.2242 2.15194 45.8641C0.220901 23.5012 16.9659 3.92175 39.553 2.13207Z" fill="white"/>
<path d="M44.4529 82.7966C35.8649 82.7966 27.8082 80.0175 21.2077 75.2548C21.2068 75.2548 21.2053 75.2522 21.2043 75.2522C21.1924 75.2443 21.1789 75.2337 21.1667 75.2232C21.1621 75.2205 21.1576 75.2179 21.1528 75.2153C21.1436 75.2074 21.136 75.2021 21.1269 75.1968C21.1194 75.1916 21.1127 75.1863 21.1053 75.181C21.1002 75.1758 21.0954 75.1731 21.0904 75.1679C20.9483 75.0651 20.8073 74.9624 20.6667 74.857C21.3289 74.7701 21.9956 74.7279 22.6636 74.7279C24.1106 74.7279 25.5649 74.9308 26.997 75.3444C30.888 76.4718 34.9809 77.075 39.1886 77.075C40.3698 77.075 41.5599 77.025 42.7569 76.9302C65.3128 75.1099 82.4568 56.5385 83.1689 34.3186C83.5386 36.0124 83.8018 37.751 83.9525 39.5265C84.4573 45.472 83.6464 51.2147 81.7634 56.47C80.4414 60.1606 78.5913 63.6088 76.2973 66.7146C76.954 68.2872 78.1436 70.8056 79.9531 73.4556C79.9555 73.4609 79.9577 73.4635 79.9601 73.4661C79.9637 73.4714 79.9673 73.4767 79.9709 73.4819C81.0278 75.0283 82.2958 76.622 83.7915 78.0972C84.4525 78.7821 84.0919 80.0517 83.2478 80.0517C83.2282 80.0517 83.2083 80.0517 83.1881 80.0517C79.1525 79.7699 71.8314 78.9138 66.1952 76.3059C60.8309 79.841 54.5305 82.1117 47.6754 82.6649C46.595 82.7518 45.5187 82.7966 44.4529 82.7966Z" fill="#C6C6D8"/>
<path d="M39.5529 2.13207C62.1401 0.339638 82.0165 17.015 83.9475 39.3751C84.8331 49.6328 81.7881 59.3004 76.0545 66.9395C77.1267 69.4621 79.5764 74.3893 83.7606 78.4572C84.486 79.1627 84.0815 80.5214 83.1588 80.4583C78.9982 80.1728 71.4505 79.3054 65.6396 76.662C60.1092 80.2469 53.6138 82.5472 46.5464 83.1099C23.9589 84.8996 4.08311 68.2242 2.15157 45.8641C0.22053 23.5012 16.9658 3.92175 39.5529 2.13207V2.13207Z" stroke="#1A1D63" stroke-width="3" stroke-miterlimit="10" stroke-linecap="round" stroke-linejoin="round"/>
<path d="M18.5314 29.7834V55.6076C18.5314 57.0416 19.1544 58.3289 20.1456 59.2235C21.0244 60.0166 22.1957 60.5 23.4777 60.5H69.7755C71.0618 60.5 72.235 60.014 73.1133 59.2181C74.1025 58.3235 74.7218 57.039 74.7218 55.6076V29.7834C74.7218 28.352 74.0985 27.0622 73.1073 26.1675C72.229 25.3744 71.0578 24.891 69.7755 24.891H23.4777C22.1916 24.891 21.0184 25.377 20.1399 26.1729C19.1506 27.0675 18.5314 28.3547 18.5314 29.7834Z" fill="white"/>
<path d="M18.2456 30.1372H16.9333V55.6099C16.9328 57.4433 17.651 59.1054 18.7875 60.246C19.7943 61.2628 21.1465 61.8845 22.6155 61.8845H63.5178C64.9907 61.8845 66.3461 61.2602 67.3535 60.2381L67.352 60.2408C68.4863 59.0976 69.2007 57.4406 69.2 55.6099V30.1372C69.2005 28.3038 68.4823 26.6416 67.3458 25.501C66.339 24.4842 64.9871 23.8625 63.5178 23.8625H22.6155C21.1427 23.8625 19.7872 24.4868 18.7798 25.5089L18.7813 25.5063C17.647 26.6495 16.9324 28.309 16.9333 30.1372H18.2456H19.5579C19.5586 29.1441 19.9382 28.2669 20.5519 27.6452H20.5533C21.0983 27.0947 21.816 26.7628 22.6155 26.7602H63.5178C64.3142 26.7628 65.0317 27.0947 65.5769 27.64C66.192 28.2616 66.5752 29.1441 66.5754 30.1372V55.6099C66.5747 56.603 66.1951 57.4802 65.5812 58.1018H65.5797C65.035 58.6524 64.3176 58.9869 63.5178 58.9869H22.6155C21.8191 58.9869 21.1016 58.655 20.5562 58.1071C19.9411 57.4854 19.5581 56.603 19.5579 55.6099V30.1372H18.2456Z" fill="#1A1D63"/>
<path d="M66.8838 58.3119L49.9254 41.5091L43.9892 35.6277C43.5081 35.1516 42.7965 35.1489 42.314 35.625L36.2062 41.6335L19.253 58.3119C18.711 58.8448 18.6463 59.7863 19.1079 60.4112C19.5695 61.0361 20.3829 61.1119 20.9246 60.579L37.8781 43.8979L43.1468 38.7145L48.2467 43.768L65.2054 60.5681C65.7455 61.1038 66.5591 61.0334 67.0228 60.4085C67.486 59.7863 67.4239 58.8448 66.8838 58.3119Z" fill="#1A1D63"/>
<path d="M19.7333 26.0795L36.6097 42.4663L39.7463 45.511C41.3417 47.0597 43.696 47.0649 45.2966 45.5215L48.5954 42.3423L65.4667 26.0743C64.7084 25.2907 63.697 24.8131 62.5901 24.8131H22.6153C21.5048 24.8131 20.4919 25.2933 19.7333 26.0795Z" fill="white"/>
<path d="M19.7333 27.0302L36.9541 43.417L40.1547 46.4616C41.7827 48.0103 44.185 48.0156 45.8183 46.4722L49.1845 43.293L66.4 27.025C65.6262 26.2414 64.5942 25.7638 63.4647 25.7638H22.6741C21.541 25.7638 20.5074 26.244 19.7333 27.0302Z" stroke="#1A1D63" stroke-width="3" stroke-miterlimit="10" stroke-linecap="round" stroke-linejoin="round"/>
</svg>
