<svg width="24" height="24" viewBox="0 0 24 24" fill="none" xmlns="http://www.w3.org/2000/svg">
<g clip-path="url(#clip0_27_49)">
<path d="M12 15.8929C10.9391 15.8929 9.92172 15.4715 9.17157 14.7213C8.42143 13.9712 8 12.9538 8 11.8929C8 10.832 8.42143 9.81463 9.17157 9.06449C9.92172 8.31434 10.9391 7.89291 12 7.89291C13.0609 7.89291 14.0783 8.31434 14.8284 9.06449C15.5786 9.81463 16 10.832 16 11.8929C16 12.9538 15.5786 13.9712 14.8284 14.7213C14.0783 15.4715 13.0609 15.8929 12 15.8929ZM12 3.89291C12.2122 3.89291 12.4157 3.9772 12.5657 4.12723C12.7157 4.27726 12.8 4.48074 12.8 4.69291V6.29291C12.8 6.50509 12.7157 6.70857 12.5657 6.8586C12.4157 7.00863 12.2122 7.09291 12 7.09291C11.7878 7.09291 11.5843 7.00863 11.4343 6.8586C11.2843 6.70857 11.2 6.50509 11.2 6.29291V4.69291C11.2 4.48074 11.2843 4.27726 11.4343 4.12723C11.5843 3.9772 11.7878 3.89291 12 3.89291ZM12 16.6929C12.2122 16.6929 12.4157 16.7772 12.5657 16.9272C12.7157 17.0773 12.8 17.2807 12.8 17.4929V19.0929C12.8 19.3051 12.7157 19.5086 12.5657 19.6586C12.4157 19.8086 12.2122 19.8929 12 19.8929C11.7878 19.8929 11.5843 19.8086 11.4343 19.6586C11.2843 19.5086 11.2 19.3051 11.2 19.0929V17.4929C11.2 17.2807 11.2843 17.0773 11.4343 16.9272C11.5843 16.7772 11.7878 16.6929 12 16.6929ZM4.8 11.0929H6.4C6.61217 11.0929 6.81566 11.1772 6.96569 11.3272C7.11571 11.4773 7.2 11.6807 7.2 11.8929C7.2 12.1051 7.11571 12.3086 6.96569 12.4586C6.81566 12.6086 6.61217 12.6929 6.4 12.6929H4.8C4.58783 12.6929 4.38434 12.6086 4.23431 12.4586C4.08429 12.3086 4 12.1051 4 11.8929C4 11.6807 4.08429 11.4773 4.23431 11.3272C4.38434 11.1772 4.58783 11.0929 4.8 11.0929ZM17.6 11.0929H19.2C19.4122 11.0929 19.6157 11.1772 19.7657 11.3272C19.9157 11.4773 20 11.6807 20 11.8929C20 12.1051 19.9157 12.3086 19.7657 12.4586C19.6157 12.6086 19.4122 12.6929 19.2 12.6929H17.6C17.3878 12.6929 17.1843 12.6086 17.0343 12.4586C16.8843 12.3086 16.8 12.1051 16.8 11.8929C16.8 11.6807 16.8843 11.4773 17.0343 11.3272C17.1843 11.1772 17.3878 11.0929 17.6 11.0929ZM17.6568 6.23611C17.8068 6.38614 17.891 6.58958 17.891 6.80171C17.891 7.01385 17.8068 7.21729 17.6568 7.36731L16.5256 8.49851C16.4518 8.57492 16.3635 8.63587 16.2659 8.67779C16.1683 8.71972 16.0633 8.74179 15.9571 8.74271C15.8509 8.74364 15.7456 8.7234 15.6472 8.68317C15.5489 8.64295 15.4596 8.58354 15.3845 8.50843C15.3094 8.43332 15.25 8.34399 15.2097 8.24568C15.1695 8.14736 15.1493 8.04202 15.1502 7.93579C15.1511 7.82957 15.1732 7.72459 15.2151 7.62699C15.257 7.52939 15.318 7.44111 15.3944 7.36731L16.5256 6.23611C16.6756 6.08614 16.8791 6.00188 17.0912 6.00188C17.3033 6.00188 17.5068 6.08614 17.6568 6.23611ZM8.6056 15.2873C8.75558 15.4373 8.83983 15.6408 8.83983 15.8529C8.83983 16.065 8.75558 16.2685 8.6056 16.4185L7.4744 17.5497C7.4006 17.6261 7.31233 17.6871 7.21472 17.729C7.11712 17.7709 7.01214 17.793 6.90592 17.7939C6.7997 17.7948 6.69435 17.7746 6.59604 17.7344C6.49772 17.6941 6.4084 17.6347 6.33328 17.5596C6.25817 17.4845 6.19877 17.3952 6.15854 17.2969C6.11832 17.1986 6.09808 17.0932 6.099 16.987C6.09992 16.8808 6.12199 16.7758 6.16392 16.6782C6.20585 16.5806 6.26679 16.4923 6.3432 16.4185L7.4744 15.2873C7.62442 15.1373 7.82787 15.0531 8.04 15.0531C8.25213 15.0531 8.45558 15.1373 8.6056 15.2873ZM7.4744 6.23611L8.6056 7.36731C8.75133 7.5182 8.83196 7.72028 8.83014 7.93003C8.82832 8.13979 8.74418 8.34044 8.59586 8.48877C8.44753 8.6371 8.24688 8.72123 8.03712 8.72305C7.82736 8.72488 7.62528 8.64424 7.4744 8.49851L6.344 7.36731C6.19827 7.21643 6.11764 7.01435 6.11946 6.80459C6.12128 6.59484 6.20542 6.39419 6.35375 6.24586C6.50207 6.09753 6.70272 6.0134 6.91248 6.01157C7.12224 6.00975 7.32432 6.09039 7.4752 6.23611H7.4744ZM16.5256 15.2873L17.6568 16.4185C17.8025 16.5694 17.8832 16.7715 17.8813 16.9812C17.8795 17.191 17.7954 17.3916 17.6471 17.54C17.4987 17.6883 17.2981 17.7724 17.0883 17.7743C16.8786 17.7761 16.6765 17.6954 16.5256 17.5497L15.3944 16.4185C15.318 16.3447 15.257 16.2564 15.2151 16.1588C15.1732 16.0612 15.1511 15.9563 15.1502 15.85C15.1493 15.7438 15.1695 15.6385 15.2097 15.5402C15.25 15.4418 15.3094 15.3525 15.3845 15.2774C15.4596 15.2023 15.5489 15.1429 15.6472 15.1027C15.7456 15.0624 15.8509 15.0422 15.9571 15.0431C16.0633 15.044 16.1683 15.0661 16.2659 15.108C16.3635 15.15 16.4518 15.2109 16.5256 15.2873Z" fill="#FF7A46"/>
</g>
<rect x="0.5" y="0.5" width="23" height="23" rx="7.5" stroke="white"/>
<defs>
<clipPath id="clip0_27_49">
<rect width="24" height="24" rx="8" fill="white"/>
</clipPath>
</defs>
</svg>
