<svg width="24" height="24" viewBox="0 0 24 24" fill="none" xmlns="http://www.w3.org/2000/svg">
<path d="M12.1205 4.86724C12.1937 4.96213 12.2385 5.07826 12.2492 5.20062C12.2599 5.32298 12.236 5.44595 12.1805 5.55364C11.7469 6.40282 11.5204 7.35468 11.522 8.32164C11.522 11.5384 13.9805 14.1432 17.0105 14.1432C17.4057 14.1432 17.7905 14.0992 18.1602 14.0152C18.2736 13.9891 18.3916 13.9991 18.4997 14.044C18.6077 14.089 18.701 14.1669 18.7677 14.268C18.8382 14.3732 18.8742 14.5003 18.87 14.6295C18.8658 14.7587 18.8216 14.8828 18.7445 14.9824C18.1562 15.7532 17.4142 16.3742 16.5724 16.8002C15.7305 17.2262 14.8102 17.4464 13.8785 17.4448C10.421 17.4448 7.62048 14.4736 7.62048 10.8128C7.62048 8.05764 9.20598 5.69444 11.4635 4.69284C11.5759 4.64215 11.7008 4.63174 11.8192 4.66319C11.9377 4.69464 12.0434 4.76624 12.1205 4.86724Z" fill="#606B99"/>
<rect x="0.5" y="0.5" width="23" height="23" rx="7.5" stroke="#08090D"/>
</svg>
