<svg width="500" height="400" viewBox="0 0 500 400" fill="none" xmlns="http://www.w3.org/2000/svg">
<path d="M472.032 399.999H497.165C498.729 399.999 500 398.667 500 397.026C500 395.384 498.729 394.052 497.165 394.052H472.032C470.468 394.052 469.201 395.384 469.201 397.026C469.201 398.667 470.468 399.999 472.032 399.999Z" fill="#1A1D63"/>
<path d="M36.8479 400H462.582C464.147 400 465.417 398.668 465.417 397.027C465.417 395.385 464.147 394.053 462.582 394.053H36.8479C35.2825 394.053 34.0134 395.385 34.0134 397.027C34.0134 398.668 35.2825 400 36.8479 400Z" fill="#1A1D63"/>
<path d="M2.83445 400H27.0218C28.5871 400 29.8562 398.668 29.8562 397.027C29.8562 395.385 28.5871 394.053 27.0218 394.053H2.83445C1.26908 394.053 0 395.385 0 397.027C0 398.668 1.26908 400 2.83445 400Z" fill="#1A1D63"/>
<path d="M189.27 324.257C168.965 347.248 144.53 350.074 116.841 347.68C113.743 347.414 108.878 346.086 106.07 344.667C105.238 344.242 104.676 343.874 103.815 343.164C91.92 333.395 94.7745 314.072 108.862 308.906L108.9 308.891C111.09 308.09 113.342 307.511 115.619 307.162C158.871 300.502 175.854 266.934 188.222 247.083L189.27 324.257Z" fill="white"/>
<path d="M131.633 345.404C131.63 345.404 131.629 345.404 131.626 345.404C131.317 345.404 131.008 345.404 130.698 345.404C130.941 343.434 131.177 341.428 131.406 339.386C133.079 339.366 134.732 339.315 136.368 339.227C136.196 341.21 135.96 343.251 135.666 345.341C134.333 345.384 132.988 345.404 131.633 345.404ZM141.44 344.988C141.717 342.883 141.938 340.813 142.094 338.779C154.882 337.455 166.447 334.022 176.686 328.824L176.909 331.889C176.186 332.444 175.46 332.975 174.728 333.487C168.28 337.998 161.5 340.964 154.325 342.819C150.164 343.894 145.867 344.591 141.44 344.988Z" fill="#BABBD0"/>
<path d="M189.27 324.257L187.191 322.235C183.179 326.779 179.027 330.478 174.728 333.487C168.28 337.998 161.5 340.964 154.325 342.819C147.153 344.671 139.584 345.404 131.626 345.404C126.907 345.404 122.054 345.146 117.074 344.718C116.428 344.663 115.628 344.544 114.768 344.373C113.477 344.12 112.046 343.751 110.718 343.327C109.392 342.906 108.158 342.423 107.303 341.987C106.952 341.808 106.716 341.673 106.468 341.511C106.22 341.344 105.948 341.142 105.562 340.825C103.378 339.029 101.803 336.9 100.758 334.597C99.7144 332.297 99.2058 329.823 99.2058 327.361C99.205 324.031 100.142 320.737 101.924 317.981C102.815 316.602 103.916 315.357 105.225 314.294C106.535 313.232 108.054 312.352 109.797 311.713L109.785 311.717L109.824 311.701L109.834 311.697C111.853 310.96 113.931 310.425 116.031 310.104C127.156 308.391 136.656 304.93 144.803 300.383C157.029 293.556 166.186 284.298 173.421 274.934C177.04 270.248 180.184 265.534 183 261.07C185.814 256.606 188.303 252.388 190.595 248.713L188.222 247.083L185.388 247.127L186.436 324.297L189.27 324.257L187.191 322.235L189.27 324.257L192.104 324.214L191.056 247.043C191.038 245.731 190.212 244.593 189.011 244.229C187.811 243.864 186.533 244.359 185.849 245.458C182.722 250.481 179.364 256.257 175.416 262.212C169.496 271.14 162.262 280.437 152.626 288.088C147.807 291.918 142.387 295.34 136.206 298.111C130.026 300.882 123.084 303.007 115.208 304.22C112.753 304.597 110.327 305.219 107.967 306.084L107.977 306.08L107.939 306.096L107.926 306.099C105.618 306.944 103.549 308.137 101.758 309.592C99.0682 311.773 97.0066 314.536 95.6257 317.593C94.2443 320.645 93.5372 323.992 93.5369 327.361C93.5369 330.684 94.2239 334.034 95.6393 337.154C97.0527 340.274 99.1997 343.152 102.067 345.507C102.544 345.9 102.982 346.233 103.439 346.538C103.895 346.839 104.355 347.097 104.837 347.343C105.672 347.763 106.592 348.148 107.57 348.508C109.036 349.044 110.627 349.511 112.184 349.884C113.743 350.253 115.255 350.526 116.608 350.645C121.704 351.085 126.711 351.351 131.626 351.351C142.673 351.351 153.277 349.999 163.312 346.165C168.326 344.246 173.192 341.709 177.874 338.434C182.558 335.156 187.055 331.14 191.349 326.275C191.842 325.72 192.115 324.975 192.104 324.214L189.27 324.257Z" fill="#1A1D63"/>
<path d="M126.825 306.603C128.612 307.959 130.097 309.497 131.342 311.226C133.207 313.818 134.539 316.855 135.414 320.352C136.288 323.845 136.695 327.79 136.695 332.099C136.695 336.952 136.18 342.26 135.283 347.89C135.025 349.507 136.067 351.042 137.612 351.311C139.156 351.581 140.616 350.491 140.875 348.869C141.808 343.009 142.363 337.388 142.363 332.099C142.362 325.839 141.588 320.019 139.664 314.845C138.701 312.26 137.448 309.842 135.867 307.642C134.287 305.445 132.38 303.475 130.144 301.782C128.875 300.819 127.102 301.12 126.186 302.452C125.27 303.784 125.556 305.644 126.825 306.603Z" fill="#1A1D63"/>
<path d="M290.656 2.97342C225.015 2.97342 171.939 58.7983 171.799 127.659C171.61 220.826 213.938 250.56 290.656 250.362C367.375 250.56 409.703 220.826 409.514 127.659C409.374 58.7983 356.298 2.97342 290.656 2.97342Z" fill="white"/>
<path d="M320.633 6.97765L321.347 4.0994C311.544 1.42333 301.257 3.8147e-05 290.656 3.8147e-05C280.055 3.8147e-05 269.768 1.42333 259.965 4.0994C258.85 4.40467 258.022 5.38787 257.871 6.58913L253.457 41.6794C253.332 42.6745 253.691 43.6657 254.417 44.3198C255.142 44.974 256.132 45.2039 257.051 44.9225C268.283 41.5248 279.484 39.7844 290.682 39.6852L290.656 36.7118L290.633 39.6852C301.831 39.7844 313.029 41.5248 324.261 44.9225C325.183 45.2039 326.17 44.974 326.895 44.3198C327.621 43.6657 327.984 42.6745 327.859 41.6794L323.445 6.58913C323.294 5.38787 322.466 4.40467 321.347 4.0994L320.633 6.97765L317.825 7.36617L322.239 42.4565L325.047 42.068L325.833 39.2095C314.133 35.6692 302.409 33.8415 290.682 33.7384H290.633C278.906 33.8415 267.179 35.6692 255.479 39.2095L256.265 42.068L259.076 42.4565L263.491 7.36617L260.679 6.97765L261.393 9.85595C270.735 7.30674 280.539 5.94687 290.656 5.94687C300.773 5.94687 310.576 7.30674 319.919 9.85595L320.633 6.97765L317.825 7.36617L320.633 6.97765Z" fill="#1A1D63"/>
<path d="M290.656 36.7118L290.633 33.7384C278.906 33.8415 267.179 35.6691 255.479 39.2095C254.73 39.4355 254.11 39.9707 253.751 40.6962C253.392 41.4217 253.332 42.2582 253.585 43.0313L257.141 53.9021C257.621 55.373 259.103 56.2055 260.535 55.817C270.599 53.0775 280.637 51.6661 290.679 51.5829L290.656 48.6095L290.633 51.5829C300.675 51.6661 310.716 53.0775 320.78 55.817C322.213 56.2055 323.694 55.373 324.174 53.9021L327.731 43.0313C327.98 42.2582 327.923 41.4217 327.564 40.6962C327.201 39.9707 326.582 39.4355 325.833 39.2095C314.133 35.6691 302.409 33.8415 290.682 33.7384H290.633L290.656 36.7118L290.633 39.6852C301.831 39.7843 313.029 41.5248 324.261 44.9224L325.047 42.0679L322.368 41.1006L318.811 51.9714L321.491 52.9387L322.205 50.0605C311.71 47.202 301.196 45.7233 290.679 45.6361H290.633C280.116 45.7233 269.605 47.202 259.11 50.0605L259.821 52.9387L262.504 51.9714L258.948 41.1006L256.265 42.0679L257.051 44.9224C268.283 41.5248 279.484 39.7843 290.682 39.6852L290.656 36.7118L290.633 39.6852L290.656 36.7118Z" fill="#1A1D63"/>
<path d="M290.656 2.97343V1.52588e-05C257.062 -0.00393677 226.654 14.2923 204.659 37.3898C182.66 60.4833 169.034 92.4138 168.964 127.651C168.964 127.861 168.963 128.071 168.964 128.277C168.965 151.605 171.612 171.102 176.871 187.282C180.814 199.417 186.238 209.681 193.097 218.213C198.238 224.608 204.181 230.024 210.866 234.527C220.895 241.283 232.578 245.981 245.776 248.994C258.978 252.003 273.702 253.335 289.896 253.335C290.153 253.335 290.406 253.335 290.663 253.335H290.648C290.905 253.335 291.162 253.335 291.415 253.335C310.607 253.335 327.742 251.468 342.711 247.143C353.94 243.9 363.955 239.265 372.647 232.993C379.166 228.287 384.937 222.657 389.899 216.045C397.348 206.117 402.972 193.99 406.717 179.452C410.462 164.914 412.348 147.961 412.348 128.277C412.348 128.071 412.348 127.861 412.348 127.655V127.651C412.28 92.4138 398.652 60.4833 376.653 37.3898C354.658 14.2923 324.25 -0.00393677 290.656 1.52588e-05V2.97343V5.94685C322.704 5.94685 351.657 19.5651 372.643 41.5962C393.629 63.6312 406.611 94.0433 406.679 127.663C406.679 127.869 406.679 128.075 406.679 128.277C406.683 151.137 404.075 169.992 399.075 185.363C395.326 196.892 390.243 206.462 383.883 214.379C379.11 220.314 373.618 225.322 367.386 229.52C358.04 235.816 347.016 240.288 334.333 243.182C321.65 246.076 307.315 247.388 291.415 247.388C291.166 247.388 290.913 247.388 290.663 247.388H290.652C290.399 247.388 290.146 247.388 289.896 247.388C271.057 247.388 254.409 245.545 240.105 241.41C229.375 238.31 219.968 233.933 211.878 228.093C205.81 223.712 200.478 218.511 195.867 212.365C188.954 203.152 183.655 191.801 180.07 177.902C176.486 164.006 174.632 147.565 174.633 128.277C174.633 128.075 174.633 127.869 174.633 127.663C174.703 94.0433 187.686 63.6312 208.669 41.5962C229.658 19.5651 258.608 5.94685 290.656 5.94685V2.97343Z" fill="#1A1D63"/>
<path d="M409.514 127.659C409.544 143.093 408.41 156.782 406.146 168.886C403.403 183.543 393.225 195.437 379.714 200.155C320.346 220.885 260.974 220.885 201.601 200.155C187.937 195.385 177.815 183.258 175.083 168.426C172.875 156.437 171.768 142.895 171.799 127.659C171.799 127.591 171.799 127.528 171.799 127.464C171.837 115.769 176.786 104.68 185.208 97.0207C255.388 33.1913 325.569 32.4737 395.742 94.8441C404.219 102.377 409.23 113.363 409.484 125.014C409.502 125.895 409.514 126.775 409.514 127.659Z" fill="#080A28"/>
<path d="M188.54 156.6C187.171 156.6 185.804 155.819 184.726 153.547C182.509 148.869 182.558 143.382 182.57 138.042V137.82C182.574 136.559 182.632 135.306 182.741 134.062C184.004 119.718 189.071 108.716 203.643 97.2466C214.179 88.9568 221.268 83.117 232.618 79.3546C234.09 78.867 235.428 78.6489 236.606 78.6489C242.813 78.6489 244.626 84.7662 238.505 90.2809C211.488 116.193 205.53 120.483 196.655 142.732C195.695 145.142 195.056 147.656 194.748 150.217C194.463 152.6 193.085 154.768 190.929 155.918C190.172 156.322 189.356 156.6 188.54 156.6Z" fill="#C1C2C9"/>
<path d="M409.514 127.659C409.544 143.093 408.41 156.782 406.143 168.886C403.399 183.547 393.225 195.437 379.714 200.155C320.342 220.885 260.97 220.885 201.602 200.155C193.915 197.471 187.35 192.463 182.592 185.958C250.826 197.352 316.672 201.61 365.992 180.467C383.883 172.795 396.491 155.43 398.418 135.255C399.778 121.006 398.429 106.583 393.399 92.7865C394.178 93.4645 394.96 94.1503 395.742 94.8441C404.219 102.377 409.227 113.363 409.484 125.014C409.503 125.895 409.514 126.775 409.514 127.659Z" fill="black"/>
<path d="M409.514 127.659L406.679 127.663C406.679 127.869 406.679 128.071 406.679 128.273C406.679 143.299 405.557 156.6 403.365 168.315C402.091 175.107 399.098 181.26 394.85 186.271C390.602 191.282 385.1 195.139 378.819 197.332C350.005 207.394 321.245 212.722 292.515 212.722C262.504 212.722 232.515 207.814 202.496 197.336C189.805 192.903 180.405 181.644 177.866 167.863C175.729 156.259 174.632 143.105 174.633 128.269C174.633 128.067 174.633 127.865 174.633 127.667V127.659C174.633 127.599 174.634 127.536 174.634 127.472C174.667 116.657 179.25 106.373 187.065 99.2646C204.644 83.2795 222.163 71.3502 239.601 63.429C257.043 55.5038 274.394 51.575 291.741 51.575C308.672 51.575 325.61 55.3373 342.636 62.9056C359.654 70.474 376.751 81.8642 393.909 97.1118C401.77 104.097 406.415 114.282 406.649 125.082C406.668 125.942 406.679 126.802 406.679 127.663L409.514 127.659L412.348 127.651C412.348 126.747 412.337 125.847 412.318 124.947C412.046 112.439 406.668 100.656 397.575 92.5724C380.062 77.0115 362.496 65.2804 344.847 57.4306C327.201 49.5808 309.477 45.6241 291.741 45.6281C273.574 45.6241 255.418 49.7592 237.347 57.9698C219.275 66.1843 201.283 78.4665 183.352 94.7727C174.322 102.983 169.007 114.881 168.965 127.453C168.965 127.52 168.964 127.587 168.964 127.659V127.651C168.964 127.857 168.964 128.063 168.964 128.269C168.964 143.41 170.08 156.937 172.3 168.989C175.225 184.875 186.069 197.867 200.706 202.977C231.295 213.658 261.915 218.669 292.515 218.669C321.914 218.669 351.294 213.214 380.61 202.977C387.84 200.452 394.185 196.004 399.087 190.223C403.989 184.447 407.454 177.323 408.928 169.457C411.203 157.286 412.348 143.608 412.348 128.273C412.348 128.067 412.348 127.861 412.348 127.651L409.514 127.659Z" fill="#1A1D63"/>
<path d="M177.363 101.489C177.675 100.002 178.014 98.5232 178.377 97.0603C178.377 97.0603 178.377 97.0603 178.377 97.0563C178.383 97.0326 178.389 97.0127 178.395 96.9889C178.398 96.9731 178.402 96.9572 178.405 96.9453C178.407 96.9374 178.409 96.9295 178.411 96.9215C179.036 94.4159 179.734 91.942 180.503 89.4999C204.85 66.3786 229.204 50.8494 253.551 42.9203C253.562 42.9719 253.581 43.0194 253.596 43.071L256.159 50.9049C249.881 52.7683 243.609 55.1232 237.347 57.9698C219.275 66.1843 201.283 78.4665 183.352 94.7727C181.121 96.8026 179.117 99.0545 177.363 101.489ZM403.373 98.876C401.661 96.5964 399.718 94.4833 397.575 92.5724C380.062 77.0115 362.496 65.2804 344.847 57.4306C338.354 54.5404 331.85 52.1815 325.334 50.3499L327.715 43.0749C327.768 42.9243 327.806 42.7696 327.836 42.6111C327.836 42.6031 327.836 42.5992 327.836 42.5952C327.855 42.4961 327.867 42.4009 327.874 42.3018C351.884 49.7195 375.89 64.5271 399.899 86.7207C399.998 87.0141 400.096 87.3035 400.194 87.5969C400.202 87.6246 400.213 87.6524 400.221 87.6802C401.196 90.6139 402.065 93.5953 402.828 96.6281C402.832 96.64 402.836 96.6519 402.84 96.6638C402.84 96.6757 402.843 96.6876 402.847 96.6995C403.029 97.4211 403.202 98.1466 403.373 98.876ZM261.658 49.3944L259.923 44.0899C270.187 41.2433 280.422 39.7804 290.656 39.6852C300.89 39.7804 311.128 41.2433 321.389 44.0899L319.809 48.9226C310.463 46.7263 301.102 45.6281 291.741 45.6281C291.737 45.6281 291.733 45.6281 291.729 45.6281C289.783 45.6281 287.837 45.6757 285.89 45.7708C277.806 46.1593 269.726 47.3685 261.658 49.3944Z" fill="#D1D2E0"/>
<path d="M327.715 43.0749L327.73 43.0313C327.776 42.8926 327.81 42.7538 327.836 42.6111C327.806 42.7696 327.768 42.9243 327.715 43.0749ZM253.596 43.071C253.581 43.0194 253.562 42.9719 253.551 42.9203C253.562 42.956 253.574 42.9956 253.585 43.0313L253.596 43.071ZM327.836 42.6111C327.836 42.6071 327.836 42.5992 327.836 42.5952C327.836 42.5992 327.836 42.6031 327.836 42.6111Z" fill="#1A1D63"/>
<path d="M256.159 50.9049L253.596 43.071L253.585 43.0313C253.574 42.9956 253.562 42.956 253.551 42.9203C265.917 38.8923 278.29 36.8228 290.656 36.7118L290.633 39.6852L290.656 36.7118C291 36.7078 291.34 36.7078 291.684 36.7078C303.747 36.7078 315.811 38.5712 327.874 42.3018C327.867 42.4009 327.855 42.4961 327.836 42.5952C327.836 42.5992 327.836 42.6071 327.836 42.611C327.81 42.7538 327.776 42.8926 327.73 43.0313L327.715 43.0749L325.334 50.3499C323.494 49.8305 321.65 49.3548 319.809 48.9226L321.389 44.0899C311.128 41.2433 300.89 39.7804 290.656 39.6852C280.422 39.7804 270.187 41.2433 259.923 44.0899L261.658 49.3944C269.726 47.3685 277.806 46.1593 285.89 45.7708C275.97 46.2545 266.057 47.9672 256.159 50.9049Z" fill="#1A1D63"/>
<path d="M177.363 101.489C177.675 100.002 178.014 98.5232 178.377 97.0603C178.014 98.5232 177.675 100.002 177.363 101.489C177.363 101.489 177.364 101.489 177.363 101.489ZM403.373 98.8761C403.202 98.1466 403.029 97.4211 402.847 96.6995C403.029 97.4211 403.202 98.1466 403.373 98.8761ZM178.377 97.0563C178.383 97.0326 178.389 97.0127 178.395 96.9889C178.389 97.0127 178.383 97.0326 178.377 97.0563ZM178.405 96.9453C178.407 96.9374 178.409 96.9295 178.411 96.9215C178.409 96.9295 178.407 96.9374 178.405 96.9453ZM402.84 96.6638C402.836 96.6519 402.832 96.64 402.828 96.6281C402.832 96.64 402.836 96.6519 402.84 96.6638ZM400.194 87.5969C400.096 87.3035 399.998 87.0141 399.899 86.7207C399.956 86.7723 400.013 86.8238 400.069 86.8753C400.081 87.1172 400.122 87.359 400.194 87.5969Z" fill="#1A1D63"/>
<path d="M175.956 109.442C176.343 106.762 176.813 104.109 177.363 101.489C177.364 101.489 177.363 101.489 177.363 101.489C179.117 99.0545 181.121 96.8026 183.352 94.7727C201.283 78.4665 219.275 66.1843 237.347 57.9698C243.608 55.1232 249.881 52.7683 256.159 50.9049C266.057 47.9672 275.97 46.2545 285.89 45.7708C287.836 45.6757 289.783 45.6281 291.729 45.6281C291.733 45.6281 291.737 45.6281 291.74 45.6281C301.102 45.6281 310.463 46.7263 319.809 48.9226C321.65 49.3548 323.494 49.8305 325.334 50.3499C331.85 52.1815 338.354 54.5404 344.847 57.4306C362.496 65.2804 380.062 77.0115 397.575 92.5724C399.718 94.4833 401.66 96.5964 403.372 98.876C403.981 101.501 404.51 104.157 404.956 106.841C402.662 102.313 399.555 98.2298 395.742 94.8441C361.06 64.0197 326.366 48.6015 291.684 48.6015C256.189 48.6015 220.705 64.7373 185.207 97.0206C181.348 100.529 178.218 104.763 175.956 109.442Z" fill="#1A1D63"/>
<path d="M178.046 95.3833C197.132 76.5794 216.163 62.5488 235.112 53.2281C254.065 43.9075 272.924 39.2888 291.771 39.2848C310.127 39.2848 328.494 43.6973 346.944 52.57C365.395 61.4427 383.921 74.7874 402.503 92.6398C403.505 93.6032 405.058 93.5318 405.976 92.4812C406.891 91.4306 406.823 89.8012 405.821 88.8378C386.94 70.6999 368.006 57.0301 348.993 47.8839C329.983 38.7377 310.883 34.1309 291.771 34.1309C272.153 34.1309 252.542 38.9597 233.026 48.5619C213.505 58.164 194.066 72.5316 174.683 91.6249C173.694 92.6002 173.645 94.2296 174.573 95.2683C175.502 96.303 177.057 96.3546 178.046 95.3833Z" fill="#1A1D63"/>
<path d="M425.425 171.562C425.168 173.691 424.075 175.618 422.39 176.839C416.275 181.26 409.302 184.645 401.513 187.06C406.85 171.007 409.563 151.391 409.514 127.659C409.484 113.311 407.159 99.5302 402.896 86.7009C410.156 88.9052 416.729 92.3425 422.594 97.0642C424.147 98.3131 425.141 100.18 425.368 102.218C428.07 126.592 428.074 149.702 425.425 171.562Z" fill="white"/>
<path d="M179.799 187.06C172.01 184.645 165.038 181.26 158.923 176.839C157.237 175.618 156.145 173.691 155.888 171.562C153.239 149.702 153.243 126.592 155.945 102.218C156.172 100.18 157.165 98.3131 158.719 97.0642C164.584 92.3425 171.156 88.9052 178.416 86.7009C174.154 99.5302 171.829 113.311 171.799 127.659C171.75 151.391 174.463 171.007 179.799 187.06Z" fill="white"/>
<path d="M405.92 182.393C407.11 178.163 408.138 173.723 409 169.065C415.372 165.98 420.228 161.845 423.905 157.563C423.588 162.158 423.157 166.698 422.613 171.186C422.454 172.498 421.785 173.663 420.78 174.393L420.784 174.389C416.324 177.612 411.37 180.272 405.92 182.393Z" fill="#BABBD0"/>
<path d="M175.393 182.393C169.945 180.272 164.991 177.612 160.532 174.389C159.527 173.663 158.859 172.498 158.7 171.19V171.186C158.156 166.698 157.725 162.158 157.408 157.563C161.086 161.845 165.943 165.98 172.314 169.065C173.175 173.723 174.202 178.163 175.393 182.393Z" fill="#BABBD0"/>
<path d="M425.425 171.562L422.613 171.186C422.454 172.498 421.785 173.663 420.78 174.393L420.784 174.389C414.941 178.611 408.252 181.87 400.712 184.209L401.513 187.06L404.189 188.039C409.616 171.717 412.348 151.977 412.348 128.293C412.348 128.079 412.348 127.869 412.348 127.651C412.318 112.97 409.941 98.8602 405.572 85.7217L402.896 86.7009L402.11 89.5554C409.053 91.6646 415.289 94.9313 420.87 99.4232C421.804 100.172 422.412 101.31 422.552 102.563V102.559C423.901 114.711 424.57 126.529 424.57 138.03C424.57 149.396 423.917 160.446 422.613 171.186L425.425 171.562L428.236 171.935C429.57 160.937 430.239 149.634 430.239 138.03C430.239 126.287 429.555 114.239 428.183 101.873C427.87 99.0505 426.494 96.4537 424.317 94.7054H424.321C418.172 89.7536 411.264 86.1419 403.686 83.8425C402.67 83.5372 401.566 83.8504 400.84 84.6552C400.111 85.46 399.873 86.6296 400.221 87.6802C404.382 100.2 406.649 113.648 406.679 127.663C406.679 127.873 406.679 128.087 406.679 128.293C406.683 151.502 403.989 170.587 398.837 186.08C398.486 187.139 398.728 188.301 399.461 189.109C400.198 189.922 401.294 190.227 402.318 189.91C410.357 187.42 417.613 183.904 424 179.285C426.366 177.573 427.881 174.881 428.236 171.935L425.425 171.562Z" fill="#1A1D63"/>
<path d="M179.799 187.06L180.603 184.209C173.063 181.87 166.373 178.611 160.531 174.389L160.533 174.393C159.527 173.663 158.859 172.498 158.7 171.19V171.186C157.399 160.446 156.744 149.396 156.744 138.026C156.744 126.529 157.413 114.711 158.76 102.559V102.563C158.899 101.31 159.511 100.172 160.443 99.4232H160.445C166.026 94.9313 172.261 91.6646 179.204 89.5554L178.416 86.7009L175.74 85.7217C171.374 98.8602 168.995 112.97 168.964 127.651C168.964 127.865 168.963 128.079 168.963 128.289C168.965 151.977 171.699 171.713 177.123 188.039L179.799 187.06L180.603 184.209L179.799 187.06L182.476 186.08C177.322 170.587 174.631 151.502 174.633 128.289C174.633 128.083 174.633 127.873 174.633 127.663C174.663 113.648 176.932 100.2 181.093 87.6802C181.441 86.6296 181.201 85.46 180.474 84.6552C179.746 83.8504 178.644 83.5372 177.628 83.8425C170.051 86.1419 163.143 89.7536 156.993 94.7054H156.995C154.82 96.4537 153.444 99.0505 153.129 101.873C151.759 114.239 151.075 126.287 151.075 138.026C151.075 149.634 151.744 160.937 153.076 171.935C153.431 174.881 154.947 177.573 157.312 179.285H157.315C163.702 183.904 170.959 187.42 178.996 189.91C180.019 190.227 181.116 189.922 181.852 189.109C182.587 188.301 182.827 187.139 182.476 186.08L179.799 187.06Z" fill="#1A1D63"/>
<path d="M393.66 198.858H389.151C391.661 197.28 393.996 195.445 396.124 193.387C395.345 195.27 394.521 197.09 393.66 198.858Z" fill="#D1D2E0"/>
<path d="M396.748 199.029C395.927 198.914 395.092 198.858 394.242 198.858H393.66C394.522 197.09 395.345 195.27 396.124 193.387C397.16 192.384 398.15 191.33 399.087 190.223C399.317 189.954 399.544 189.68 399.767 189.403C400.005 189.597 400.27 189.748 400.546 189.855C399.389 193.062 398.123 196.115 396.748 199.029Z" fill="#1A1D63"/>
<path d="M389.151 198.858H382.957C389.355 195.96 394.854 191.397 398.962 185.696C398.921 185.827 398.879 185.954 398.837 186.08C398.486 187.139 398.728 188.301 399.461 189.109C399.559 189.216 399.661 189.312 399.767 189.403C399.544 189.68 399.317 189.954 399.087 190.223C398.15 191.33 397.159 192.384 396.124 193.387C393.996 195.445 391.661 197.28 389.151 198.858Z" fill="#1A1D63"/>
<path d="M192.177 198.858H187.654C186.78 197.07 185.949 195.223 185.16 193.316C187.3 195.401 189.649 197.26 192.177 198.858Z" fill="#D1D2E0"/>
<path d="M184.543 198.981C183.175 196.083 181.916 193.042 180.766 189.855C181.057 189.744 181.332 189.585 181.579 189.375C182.694 190.763 183.89 192.079 185.16 193.316C185.949 195.223 186.78 197.07 187.654 198.858H186.666C185.949 198.858 185.239 198.898 184.543 198.981Z" fill="#1A1D63"/>
<path d="M198.363 198.858H192.177C189.649 197.26 187.301 195.401 185.16 193.316C183.89 192.079 182.694 190.763 181.579 189.375C181.674 189.292 181.765 189.205 181.852 189.109C182.587 188.301 182.827 187.139 182.476 186.08L179.831 187.048L182.476 186.08C182.418 185.906 182.36 185.732 182.302 185.553C186.411 191.314 191.918 195.936 198.363 198.858Z" fill="#1A1D63"/>
<path d="M400.546 189.855C400.27 189.748 400.005 189.597 399.767 189.403C399.661 189.312 399.559 189.216 399.461 189.109C398.728 188.301 398.486 187.139 398.837 186.08C398.879 185.954 398.921 185.827 398.962 185.696C402.356 180.994 404.797 175.519 406.01 169.572C404.608 176.91 402.783 183.662 400.546 189.855Z" fill="#1A1D63"/>
<path d="M180.766 189.855C178.484 183.535 176.63 176.633 175.215 169.12C176.432 175.174 178.882 180.76 182.302 185.553C182.36 185.732 182.418 185.906 182.476 186.08L179.831 187.048L179.799 187.06L180.603 184.209L179.799 187.06L179.831 187.048L182.476 186.08C182.827 187.139 182.587 188.301 181.851 189.109C181.765 189.204 181.674 189.292 181.579 189.375C181.332 189.585 181.057 189.744 180.766 189.855Z" fill="#1A1D63"/>
<path d="M184.003 203.156C188.298 207.211 193.383 210.375 199.023 212.369C229.575 223.165 260.165 228.588 290.762 228.584C321.412 228.588 352.061 223.185 382.67 212.365C387.949 210.498 392.76 207.608 396.891 203.921C397.927 202.997 398.051 201.372 397.171 200.289C396.294 199.203 394.744 199.072 393.709 199.996C390.047 203.263 385.78 205.828 381.101 207.481C350.962 218.13 320.86 223.431 290.762 223.431C260.72 223.431 230.676 218.114 200.591 207.485C195.596 205.721 191.097 202.922 187.29 199.326C186.281 198.375 184.728 198.458 183.821 199.516C182.913 200.575 182.994 202.204 184.003 203.156Z" fill="#1A1D63"/>
<path d="M64.8666 397.003H447.892C451.83 397.003 455.024 393.657 455.024 389.522V379.682C455.024 375.551 451.83 372.204 447.892 372.204H64.8666C60.9282 372.204 57.7351 375.551 57.7351 379.682V389.522C57.7351 393.657 60.9282 397.003 64.8666 397.003Z" fill="#FCA17D"/>
<path d="M64.8666 397.003V394.029C64.2657 394.029 63.7075 393.906 63.195 393.677C62.4275 393.34 61.7657 392.761 61.302 392.043C60.8383 391.318 60.5707 390.469 60.5696 389.522V379.682C60.57 379.051 60.6897 378.468 60.9063 377.929C61.2302 377.125 61.7789 376.431 62.466 375.943C63.1553 375.459 63.9671 375.178 64.8666 375.178H83.0127C107.4 382.342 82.6137 388.36 231.363 388.36C281.96 388.36 352.685 387.662 452.186 386.076V389.522C452.186 390.156 452.068 390.739 451.849 391.278C451.528 392.083 450.98 392.777 450.292 393.264C449.601 393.748 448.792 394.029 447.892 394.029H64.8666V397.003Z" fill="#A65833"/>
<path d="M64.8665 397.003V399.976H447.892C449.257 399.976 450.576 399.687 451.77 399.156C453.561 398.359 455.077 397.038 456.154 395.369C457.227 393.704 457.858 391.678 457.854 389.522V379.682C457.858 378.246 457.579 376.867 457.072 375.614C456.312 373.735 455.054 372.145 453.463 371.015C451.876 369.889 449.944 369.227 447.892 369.231H64.8665C63.4985 369.227 62.1802 369.52 60.9864 370.052C59.1946 370.849 57.6788 372.169 56.6047 373.838C55.5303 375.503 54.8999 377.529 54.901 379.682V389.522C54.9006 390.961 55.1799 392.34 55.6852 393.593C56.4437 395.472 57.7037 397.062 59.2925 398.192C60.8798 399.318 62.8125 399.98 64.8665 399.976V397.003V394.029C64.2656 394.029 63.7074 393.906 63.195 393.677C62.4274 393.34 61.7657 392.761 61.302 392.043C60.8382 391.318 60.5707 390.469 60.5695 389.522V379.682C60.5699 379.051 60.6897 378.468 60.9063 377.929C61.2301 377.125 61.7789 376.431 62.466 375.943C63.1553 375.459 63.9671 375.178 64.8665 375.178H447.892C448.493 375.178 449.049 375.301 449.563 375.531C450.33 375.868 450.991 376.443 451.456 377.164C451.917 377.89 452.186 378.738 452.186 379.682V389.522C452.186 390.156 452.068 390.739 451.849 391.278C451.528 392.083 450.98 392.777 450.292 393.264C449.6 393.748 448.792 394.029 447.892 394.029H64.8665V397.003Z" fill="#1A1D63"/>
<path d="M176.77 372.201H404.136C410.515 372.201 415.689 366.773 415.689 360.081V355.422C415.689 352.798 413.66 350.669 411.158 350.669H169.751C167.248 350.669 165.22 352.798 165.22 355.422V360.081C165.22 366.773 170.391 372.201 176.77 372.201Z" fill="#999999"/>
<path d="M165.321 361.98C166.062 367.74 171.087 372.197 177.172 372.197H403.735C409.82 372.197 414.846 367.74 415.587 361.98C413.754 363.05 411.611 363.669 409.314 363.669H171.592C169.298 363.669 167.155 363.05 165.321 361.98Z" fill="#808080"/>
<path d="M165.221 356.969V358.348H415.685V356.969C415.685 354.431 413.588 352.378 410.999 352.378H169.907C167.32 352.378 165.221 354.431 165.221 356.969Z" fill="#CCCCCC"/>
<path d="M176.77 372.201V375.174H404.136C406.116 375.174 408.013 374.75 409.737 373.985C412.322 372.839 414.514 370.928 416.063 368.521C417.617 366.119 418.524 363.197 418.524 360.081V355.423C418.524 354.364 418.316 353.341 417.942 352.417C417.382 351.026 416.453 349.852 415.277 349.02C414.106 348.187 412.673 347.696 411.158 347.7H169.751C168.741 347.696 167.765 347.914 166.883 348.306C165.557 348.893 164.438 349.872 163.645 351.101C162.851 352.33 162.384 353.833 162.385 355.423V360.081C162.385 362.158 162.787 364.148 163.516 365.956C164.61 368.668 166.431 370.968 168.725 372.593C171.017 374.222 173.801 375.174 176.77 375.174V372.201V369.227C175.559 369.227 174.42 368.969 173.378 368.51C171.818 367.816 170.481 366.654 169.541 365.191C168.601 363.728 168.055 361.988 168.054 360.081V355.423C168.054 355.169 168.101 354.943 168.186 354.733C168.313 354.416 168.531 354.138 168.804 353.948C169.078 353.753 169.389 353.646 169.751 353.642H411.158C411.4 353.646 411.615 353.694 411.815 353.781C412.118 353.916 412.382 354.146 412.564 354.431C412.749 354.721 412.851 355.046 412.855 355.423V360.081C412.855 361.353 412.609 362.547 412.171 363.641C411.509 365.278 410.402 366.682 409.007 367.665C407.613 368.652 405.954 369.223 404.136 369.227H176.77V372.201Z" fill="#1A1D63"/>
<path d="M180.152 363.669H175.158C174.547 363.05 174.171 362.214 174.171 361.286C174.171 360.037 174.858 358.943 175.883 358.348H179.427C180.452 358.943 181.139 360.037 181.139 361.286C181.139 362.214 180.763 363.05 180.152 363.669Z" fill="#3A3C71"/>
<path d="M177.655 364.7C176.676 364.7 175.791 364.303 175.158 363.669H180.152C179.519 364.303 178.634 364.7 177.655 364.7Z" fill="#34366A"/>
<path d="M179.427 358.348H175.883C176.403 358.047 177.008 357.873 177.655 357.873C178.302 357.873 178.907 358.047 179.427 358.348Z" fill="#47497D"/>
<path d="M405.765 362.567H400.742C400.205 362.567 399.767 362.111 399.767 361.544V360.176C399.767 359.613 400.205 359.153 400.742 359.153H405.765C406.301 359.153 406.736 359.613 406.736 360.176V361.544C406.736 362.111 406.301 362.567 405.765 362.567Z" fill="#33366E"/>
<path d="M171.431 217.856L180.176 337.701C181.019 349.246 190.828 358.194 202.647 358.194H378.259C390.081 358.194 399.888 349.246 400.731 337.701L409.476 217.856C410.107 209.198 403.104 201.832 394.242 201.832H186.666C177.802 201.832 170.799 209.198 171.431 217.856Z" fill="#999999"/>
<path d="M176.74 290.614L180.177 337.701C181.017 349.246 190.829 358.194 202.649 358.194H378.259C390.077 358.194 399.892 349.246 400.731 337.701L402.367 315.293C348.989 318.964 244.098 321.252 176.74 290.614Z" fill="#808080"/>
<path d="M171.431 217.86L180.176 337.705C180.534 342.641 182.537 347.101 185.633 350.59L183.108 218.015C183.051 215.18 185.385 212.853 188.282 212.853H392.877C395.776 212.853 398.108 215.18 398.051 218.015L395.53 350.296C398.482 346.851 400.383 342.506 400.731 337.705L409.476 217.86C410.107 209.198 403.104 201.832 394.242 201.832H186.666C177.803 201.832 170.8 209.198 171.431 217.86Z" fill="#CCCCCC"/>
<path d="M171.431 217.856L168.604 218.086L177.35 337.927C177.59 341.225 178.474 344.346 179.867 347.149C181.958 351.355 185.185 354.86 189.118 357.31C193.051 359.76 197.703 361.167 202.647 361.167H378.259C384.854 361.167 390.92 358.67 395.47 354.523C397.749 352.445 399.646 349.955 401.041 347.149C402.435 344.346 403.316 341.225 403.558 337.927L412.303 218.086C412.337 217.646 412.352 217.206 412.352 216.774C412.352 214.296 411.834 211.914 410.908 209.761C409.514 206.53 407.209 203.806 404.325 201.891C401.441 199.972 397.964 198.858 394.242 198.858H186.666C181.699 198.858 177.184 200.837 173.905 204.064C172.265 205.677 170.929 207.608 170.001 209.761C169.072 211.914 168.556 214.296 168.557 216.774C168.557 217.206 168.572 217.646 168.604 218.086L171.431 217.856L174.257 217.63C174.236 217.341 174.225 217.056 174.225 216.774C174.226 215.16 174.558 213.626 175.167 212.211C176.08 210.09 177.63 208.234 179.619 206.914C181.608 205.59 184.022 204.805 186.666 204.805H394.242C397.764 204.805 400.89 206.205 403.123 208.401C404.242 209.503 405.13 210.796 405.742 212.211C406.351 213.626 406.683 215.16 406.683 216.774C406.683 217.056 406.672 217.341 406.649 217.63L397.904 337.475C397.723 339.953 397.065 342.28 396.014 344.401C394.435 347.581 391.963 350.284 388.894 352.195C385.829 354.106 382.178 355.22 378.259 355.22H202.647C197.423 355.22 192.675 353.242 189.155 350.035C187.396 348.429 185.947 346.518 184.895 344.401C183.842 342.28 183.183 339.953 183.002 337.475L174.257 217.63L171.431 217.856Z" fill="#1A1D63"/>
<path d="M268.94 280.54C268.94 292.683 278.328 302.531 289.904 302.531C301.483 302.531 310.867 292.683 310.867 280.54C310.867 268.393 301.483 258.549 289.904 258.549C278.328 258.549 268.94 268.393 268.94 280.54Z" fill="#F2F2F2"/>
<path d="M101.464 243.039C100.019 243.039 98.5588 243.257 97.1245 243.685C96.7674 243.793 96.4231 243.943 96.0973 244.126C94.6 244.316 93.439 245.656 93.439 247.277V248.847V250.393V269.903C93.3721 269.919 93.306 269.939 93.2398 269.955L93.199 269.967C93.1317 269.982 93.0644 269.998 92.9976 270.018L92.9091 270.042C92.8717 270.054 92.8354 270.062 92.7995 270.074C92.6967 270.101 92.5951 270.129 92.4953 270.161C92.4613 270.173 92.4269 270.185 92.3929 270.192L92.3097 270.216C92.2254 270.244 92.1415 270.268 92.0576 270.292L92.0044 270.307L91.9738 270.319L91.9552 270.323C91.7629 270.383 91.5735 270.446 91.3872 270.51L91.3252 270.529L91.2428 270.557C91.1416 270.589 91.041 270.625 90.9405 270.664L90.8604 270.692H90.8559L90.7788 270.72C90.6843 270.751 90.5887 270.787 90.4927 270.823L90.4352 270.843L90.4004 270.855C90.1559 270.946 89.9477 271.025 89.7508 271.104C89.4877 271.207 89.2618 271.299 89.0475 271.394L88.9515 271.433C82.1919 274.324 76.45 279.565 72.7755 286.201C72.7543 286.237 72.7365 286.269 72.7188 286.3C72.6575 286.411 72.599 286.526 72.5408 286.637L72.4743 286.76L72.4074 286.887C72.3469 286.998 72.2868 287.113 72.2286 287.228L72.1764 287.331L72.1832 287.319C71.1685 289.318 70.3446 291.411 69.7226 293.568C68.6213 293.686 67.6009 294.194 66.808 295.026C65.8968 295.982 65.3942 297.255 65.3942 298.606V305.874C65.3942 307.229 65.8968 308.502 66.8095 309.457C67.4176 310.096 68.1606 310.544 68.9716 310.77C69.178 313.747 69.3915 316.613 69.6062 319.29C69.8 321.708 70.0053 324.118 70.2161 326.45C70.3333 327.746 70.4539 329.03 70.5763 330.303C70.7921 332.547 71.0132 334.724 71.2328 336.777C71.3526 337.895 71.475 339.001 71.599 340.103C71.9724 343.398 72.3699 346.637 72.7807 349.722C72.9187 350.76 73.0593 351.787 73.2021 352.806C73.3446 353.821 73.4894 354.824 73.6367 355.815C73.6409 355.851 73.6458 355.89 73.6511 355.926C73.7796 356.786 73.9096 357.635 74.0408 358.479L74.0634 358.626L74.0918 358.812C74.2195 359.625 74.3488 360.426 74.4791 361.227L74.5105 361.421L74.5513 361.675C74.9946 364.367 76.1677 366.852 77.944 368.862C78.8998 369.945 80.0037 370.857 81.2251 371.57C81.6847 371.84 82.0842 372.05 82.4836 372.228C83.447 372.66 84.4617 372.97 85.498 373.152C88.6934 373.715 91.9658 374.104 95.2224 374.318L95.2938 374.322L95.4477 374.33C97.3161 374.448 99.2175 374.508 101.1 374.508C106.457 374.508 111.947 374.028 117.415 373.085C118.797 372.847 120.13 372.383 121.373 371.705C121.977 371.376 122.562 370.991 123.112 370.567C125.918 368.402 127.792 365.219 128.387 361.603C129.771 353.179 131.003 343.672 132.048 333.356C132.504 328.852 132.932 324.114 133.321 319.274C133.543 316.506 133.756 313.656 133.957 310.77C136.014 310.187 137.532 308.213 137.532 305.874V298.61C137.532 295.994 135.631 293.833 133.202 293.568C133.138 293.346 133.073 293.127 133.006 292.909L132.967 292.786L132.953 292.747C132.8 292.255 132.638 291.776 132.471 291.316L132.467 291.304C132.453 291.264 132.44 291.228 132.427 291.189C132.258 290.729 132.074 290.261 131.865 289.758C131.83 289.67 131.794 289.587 131.758 289.504C131.54 288.992 131.335 288.533 131.13 288.104L131.091 288.025C130.891 287.605 130.676 287.185 130.433 286.725L130.396 286.657C130.368 286.602 130.34 286.55 130.311 286.495L130.288 286.455C130.262 286.404 130.234 286.352 130.206 286.3C130.181 286.257 130.154 286.205 130.126 286.158L130.107 286.126C129.939 285.825 129.761 285.515 129.579 285.21C129.546 285.155 129.513 285.103 129.481 285.048L129.441 284.984C129.173 284.544 128.923 284.148 128.673 283.771L128.618 283.688C128.363 283.307 128.082 282.907 127.761 282.471C127.704 282.391 127.646 282.312 127.588 282.233C127.277 281.817 126.981 281.436 126.685 281.075C126.656 281.04 126.625 281.004 126.595 280.964L126.57 280.936C126.283 280.588 125.981 280.235 125.672 279.89L125.631 279.842C125.596 279.803 125.562 279.763 125.526 279.723C125.212 279.378 124.876 279.022 124.527 278.665C124.471 278.609 124.416 278.554 124.361 278.498L124.323 278.463C123.934 278.074 123.584 277.737 123.253 277.436L123.237 277.42C122.913 277.123 122.554 276.809 122.143 276.464L122.099 276.429C122.037 276.377 121.975 276.326 121.913 276.274C121.538 275.965 121.162 275.672 120.794 275.394C120.744 275.354 120.692 275.315 120.64 275.279L120.577 275.231C120.226 274.974 119.876 274.724 119.533 274.49C119.477 274.446 119.431 274.415 119.383 274.383L119.284 274.32C117.575 273.174 115.764 272.195 113.899 271.402L113.816 271.37C113.609 271.279 113.395 271.192 113.176 271.108C112.962 271.017 112.755 270.942 112.59 270.882L112.527 270.855L112.495 270.843L112.474 270.835C112.361 270.791 112.248 270.751 112.134 270.712L112.058 270.688L111.978 270.66L111.91 270.637C111.844 270.613 111.778 270.589 111.712 270.565C111.452 270.474 111.201 270.395 110.978 270.323L110.949 270.315C110.899 270.3 110.848 270.284 110.797 270.272C110.612 270.208 110.414 270.149 110.184 270.089C110.076 270.058 109.966 270.026 109.857 269.998L109.781 269.978L109.696 269.955L109.656 269.943L109.621 269.935C109.577 269.919 109.532 269.907 109.487 269.895V250.393V247.277C109.487 245.656 108.326 244.316 106.829 244.126C106.503 243.939 106.158 243.793 105.801 243.685C104.368 243.257 102.908 243.039 101.464 243.039ZM101.464 246.211C102.633 246.211 103.803 246.385 104.973 246.734C105.312 246.837 105.607 247.028 105.845 247.277H106.463V250.393V272.48C106.644 272.512 106.822 272.547 107.001 272.579C107.148 272.611 107.294 272.635 107.44 272.666C107.866 272.758 108.288 272.853 108.708 272.96H108.709C108.79 272.98 108.87 273.007 108.948 273.027L109.001 273.043C109.134 273.079 109.267 273.11 109.4 273.15C109.589 273.202 109.775 273.257 109.959 273.317C110.005 273.328 110.051 273.344 110.096 273.356H110.097L110.102 273.36C110.325 273.432 110.547 273.499 110.767 273.578C110.854 273.606 110.939 273.642 111.025 273.669L111.1 273.697C111.213 273.737 111.324 273.772 111.435 273.816L111.494 273.836L111.55 273.86C111.736 273.927 111.922 273.998 112.106 274.074C112.308 274.149 112.509 274.232 112.708 274.32L112.757 274.339L112.762 274.343H112.762H112.765C114.514 275.085 116.181 275.997 117.749 277.055L117.747 277.051C117.787 277.075 117.825 277.107 117.865 277.134C118.192 277.356 118.513 277.586 118.831 277.82C118.897 277.872 118.964 277.919 119.03 277.967C119.374 278.229 119.713 278.494 120.046 278.768C120.117 278.827 120.186 278.887 120.256 278.946C120.596 279.232 120.933 279.521 121.26 279.818L121.266 279.826C121.597 280.128 121.92 280.441 122.239 280.758C122.3 280.821 122.362 280.881 122.424 280.944C122.733 281.258 123.036 281.579 123.331 281.904C123.376 281.955 123.42 282.007 123.465 282.054C123.743 282.368 124.015 282.685 124.281 283.006C124.316 283.05 124.351 283.093 124.386 283.133C124.667 283.478 124.94 283.831 125.207 284.191C125.26 284.263 125.312 284.33 125.364 284.401C125.632 284.766 125.894 285.139 126.146 285.516L126.184 285.571C126.427 285.94 126.662 286.312 126.891 286.685C126.932 286.756 126.975 286.824 127.016 286.891C127.18 287.169 127.341 287.446 127.496 287.724C127.526 287.779 127.558 287.831 127.588 287.886C127.62 287.946 127.649 288.001 127.681 288.061C127.718 288.132 127.755 288.2 127.793 288.271C128.001 288.663 128.203 289.06 128.395 289.46L128.427 289.524C128.626 289.94 128.815 290.368 128.997 290.796C129.03 290.872 129.062 290.947 129.094 291.026C129.272 291.454 129.444 291.887 129.605 292.327C129.618 292.366 129.631 292.402 129.644 292.442C129.799 292.87 129.945 293.302 130.082 293.738C130.098 293.79 130.115 293.837 130.13 293.889C130.271 294.345 130.401 294.8 130.522 295.264C130.539 295.332 130.556 295.399 130.573 295.467C130.693 295.934 130.806 296.41 130.905 296.886C131.36 296.842 131.816 296.799 132.271 296.755C132.414 296.739 132.557 296.727 132.7 296.711C133.697 296.711 134.508 297.56 134.508 298.61V305.874C134.508 306.924 133.697 307.773 132.7 307.773C132.372 307.804 132.045 307.836 131.718 307.868C131.632 307.876 131.546 307.884 131.46 307.891V307.895C131.34 307.907 131.22 307.919 131.101 307.931H131.119C130.868 311.701 130.598 315.392 130.308 319.008C129.921 323.825 129.5 328.499 129.042 333.019C128.012 343.192 126.802 352.58 125.407 361.064C124.939 363.907 123.44 366.377 121.32 368.014C120.896 368.343 120.448 368.636 119.978 368.89C119.037 369.406 118.011 369.77 116.925 369.957C111.6 370.872 106.325 371.336 101.1 371.336C99.2696 371.336 97.4454 371.277 95.6275 371.166C95.5546 371.162 95.4817 371.154 95.4091 371.15C92.253 370.948 89.1155 370.571 85.9965 370.024C85.1835 369.881 84.4039 369.639 83.6692 369.31C83.3351 369.16 83.0139 368.985 82.6994 368.803C81.7505 368.248 80.896 367.538 80.162 366.706C78.8212 365.187 77.8824 363.268 77.5302 361.135C77.5063 360.989 77.4833 360.838 77.4595 360.691C77.3302 359.899 77.2017 359.106 77.0755 358.297C77.0585 358.19 77.0422 358.075 77.0249 357.968C76.8949 357.131 76.7656 356.291 76.6386 355.438H76.6405C76.489 354.416 76.3397 353.385 76.1934 352.342C76.0517 351.335 75.9122 350.312 75.7751 349.281C75.3635 346.193 74.9723 343.006 74.6012 339.727C74.4776 338.637 74.3563 337.534 74.2373 336.42C74.0113 334.311 73.7943 332.166 73.5846 329.986C73.4625 328.717 73.3423 327.441 73.2259 326.152C73.0147 323.813 72.8121 321.434 72.6186 319.024C72.3684 315.9 72.1345 312.712 71.9138 309.473H71.9134C71.8756 308.958 71.8431 308.446 71.808 307.931H71.851C71.3106 307.876 70.7675 307.828 70.2241 307.773C69.7252 307.773 69.274 307.558 68.9471 307.217C68.6198 306.873 68.4172 306.397 68.4172 305.874V298.606C68.4172 298.083 68.6198 297.611 68.9471 297.266C69.274 296.925 69.7252 296.711 70.2241 296.711H70.2244H70.2252C70.3749 296.727 70.5245 296.739 70.6746 296.755C71.1239 296.799 71.574 296.842 72.0215 296.886C72.6148 294.031 73.577 291.32 74.8518 288.81L74.8926 288.727C74.9652 288.584 75.0419 288.445 75.1163 288.303C75.19 288.164 75.2622 288.025 75.3374 287.886L75.3828 287.807C78.7252 281.765 83.9205 276.992 90.1567 274.343H90.1593H90.162C90.3808 274.244 90.6 274.157 90.8215 274.074C91.0214 273.991 91.2243 273.915 91.4269 273.84L91.4919 273.816C91.6 273.776 91.7081 273.737 91.8135 273.701L91.8192 273.697C91.9326 273.658 92.0452 273.618 92.1593 273.578L92.233 273.554L92.3056 273.531C92.473 273.475 92.6434 273.416 92.8162 273.364L92.829 273.36L92.891 273.34C93.0025 273.309 93.1159 273.277 93.2281 273.241C93.2685 273.229 93.3082 273.217 93.349 273.206C93.4273 273.178 93.5081 273.158 93.589 273.134L93.6714 273.114C93.7054 273.102 93.7387 273.095 93.7731 273.083C93.8441 273.063 93.9167 273.047 93.9877 273.027C94.1684 272.98 94.3498 272.936 94.5316 272.888C94.6162 272.869 94.6994 272.845 94.7848 272.825C94.829 272.813 94.8721 272.801 94.9167 272.789L94.9877 272.773L95.0168 272.769C95.1842 272.73 95.349 272.694 95.5191 272.658L95.5731 272.647C95.654 272.631 95.736 272.619 95.8173 272.603C96.0319 272.559 96.2462 272.516 96.4624 272.476V250.393V248.847V247.277H97.0807C97.3184 247.028 97.6143 246.837 97.9529 246.734C99.1234 246.385 100.293 246.211 101.464 246.211Z" fill="#1A1D63"/>
<path d="M106.463 250.393V342.716C106.463 343.818 105.717 344.758 104.688 344.984C102.511 345.46 100.36 345.464 98.23 344.992C97.2028 344.766 96.4624 343.83 96.4624 342.728V250.393H106.463Z" fill="#FDD800"/>
<path d="M104.944 250.393V342.716C104.943 342.891 104.889 343.037 104.79 343.164C104.69 343.291 104.551 343.386 104.379 343.422H104.377C103.379 343.64 102.395 343.747 101.417 343.747C100.454 343.747 99.4979 343.644 98.5414 343.434H98.5429C98.3724 343.394 98.2349 343.303 98.1351 343.176C98.0364 343.049 97.9824 342.902 97.9816 342.728V250.393C97.9816 249.513 97.3014 248.8 96.4624 248.8C95.623 248.8 94.9427 249.513 94.9427 250.393V342.728C94.9424 343.656 95.2583 344.528 95.7866 345.198C96.3142 345.876 97.0603 346.364 97.9167 346.554H97.9185C99.0757 346.808 100.244 346.934 101.417 346.934C102.608 346.934 103.804 346.804 104.998 346.542H104.996C105.854 346.356 106.603 345.868 107.134 345.194C107.665 344.52 107.983 343.648 107.983 342.716V250.393C107.983 249.513 107.302 248.8 106.463 248.8C105.624 248.8 104.944 249.513 104.944 250.393Z" fill="#1A1D63"/>
<path d="M80.7528 356.612C79.995 356.43 79.2384 356.227 78.4829 356.009C76.461 342.589 74.8643 327.076 73.6844 309.941C74.5484 310.02 75.4123 310.096 76.2762 310.167C82.3181 311.368 88.5849 312.356 94.9428 313.041V319.274C94.012 321.859 93.5373 324.602 93.5369 327.361C93.5369 327.932 93.5569 328.503 93.5974 329.07C91.0445 328.539 88.6095 328.277 86.2735 328.238C85.9636 324.939 85.6715 321.561 85.3975 318.112C85.2505 316.261 83.7728 314.861 82.0339 314.861C81.9398 314.861 81.845 314.865 81.7497 314.873C79.89 315.036 78.5083 316.748 78.6628 318.699C78.935 322.124 79.2248 325.482 79.5328 328.761C79.2834 328.804 79.0355 328.852 78.7883 328.9C78.0086 329.05 77.4735 329.804 77.5544 330.628C78.478 340.06 79.5461 348.742 80.7528 356.612ZM94.9428 307.503C91.8763 307.436 88.8109 307.325 85.7444 307.162C85.7902 304.803 85.9092 302.337 86.0936 299.772C89.043 299.923 91.9938 300.03 94.9428 300.097V307.503ZM77.2014 306.591C75.486 306.448 73.7717 306.294 72.0563 306.127C72.0011 306.119 71.9456 306.111 71.8893 306.111C71.3915 306.06 70.8938 306.008 70.3965 305.957C70.3243 305.949 70.2974 305.949 70.2252 305.949L70.1746 305.929L70.1534 305.873V298.606L70.1746 298.555L70.2082 298.539C72.5967 298.789 74.986 299.011 77.3749 299.201C77.2551 301.762 77.1935 304.232 77.2014 306.591ZM107.983 306.08V300.097C113.438 299.978 118.894 299.709 124.349 299.296C124.451 300.299 124.536 301.283 124.601 302.242C121.624 303.047 118.498 303.713 115.208 304.22C112.759 304.597 110.338 305.219 107.983 306.08ZM131.418 300.065C131.392 299.609 131.361 299.15 131.327 298.682C131.791 298.634 132.253 298.591 132.717 298.539L132.75 298.555L132.771 298.606V299.554C132.324 299.728 131.873 299.899 131.418 300.065ZM94.9428 296.454C91.6522 296.378 88.3608 296.252 85.0698 296.069C85.4281 291.371 86.3397 287.232 87.3468 284.16C87.4761 283.763 87.176 283.446 86.8593 283.446C86.7218 283.446 86.5812 283.505 86.4712 283.648C83.4508 287.478 81.0861 291.49 79.4799 295.708C77.7218 295.582 75.9633 295.435 74.2048 295.272C76.6111 286.63 82.6613 279.608 90.4901 276.171C91.3094 276.857 92.8899 277.444 94.9428 277.848V296.454ZM107.983 296.454V277.848C110.036 277.444 111.617 276.857 112.436 276.171C114.943 277.273 117.267 278.74 119.348 280.512C121.28 284.929 123.051 289.952 124.229 295.653C118.814 296.065 113.398 296.335 107.983 296.454Z" fill="#5FC6FB"/>
<path d="M109.801 332.702C109.801 332.702 109.801 332.702 109.8 332.702C109.192 332.702 108.586 332.686 107.983 332.646V314.005C110.104 314.084 112.225 314.124 114.34 314.124C118.039 314.124 121.721 313.997 125.356 313.727C125.205 319.67 124.322 325.054 123.089 329.887C118.565 331.714 114.125 332.702 109.801 332.702Z" fill="#CEEAFF"/>
<path d="M94.9428 329.371C94.4908 329.264 94.0422 329.161 93.5973 329.07C93.5569 328.503 93.5369 327.932 93.5369 327.361C93.5372 324.602 94.0119 321.859 94.9428 319.274V329.371ZM107.983 307.503V306.08C110.338 305.219 112.759 304.597 115.208 304.22C118.498 303.713 121.624 303.047 124.601 302.242C124.705 303.78 124.759 305.259 124.755 306.666C119.164 307.103 113.574 307.38 107.983 307.503ZM132.771 304.042C132.373 303.653 131.961 303.277 131.537 302.908C131.514 301.984 131.474 301.037 131.418 300.065C131.873 299.899 132.324 299.728 132.771 299.554V304.042Z" fill="#22408A"/>
<path d="M131.538 306.06C131.564 305.045 131.562 303.99 131.537 302.908C131.961 303.277 132.373 303.653 132.771 304.042V305.873L132.75 305.929L132.7 305.949C132.627 305.949 132.6 305.949 132.528 305.957C132.198 305.992 131.868 306.028 131.538 306.06Z" fill="#22408A"/>
<path d="M104.944 332.273C104.18 332.135 103.419 331.96 102.66 331.754C102.65 331.75 102.64 331.75 102.63 331.746C102.628 331.746 102.626 331.746 102.624 331.746C101.87 331.536 101.119 331.294 100.37 331.017L100.361 331.013C99.5569 330.723 98.7636 330.454 97.9817 330.212V313.347C100.297 313.561 102.618 313.731 104.944 313.862V332.273ZM101.462 307.574C100.302 307.574 99.1419 307.57 97.9817 307.554V300.145C99.1419 300.161 100.302 300.165 101.462 300.165C102.623 300.165 103.784 300.161 104.944 300.145V307.554C103.784 307.57 102.623 307.574 101.462 307.574ZM101.462 296.525C100.302 296.525 99.1419 296.517 97.9817 296.501V278.268C99.0807 278.367 100.25 278.423 101.464 278.423C102.676 278.423 103.845 278.367 104.944 278.268V296.501C103.784 296.517 102.623 296.525 101.462 296.525Z" fill="#CCCC40"/>
<path d="M107.983 332.646C107.553 332.618 107.125 332.579 106.698 332.531C106.675 332.527 106.652 332.523 106.629 332.519V332.523V332.519C106.066 332.456 105.504 332.373 104.944 332.273V313.862C105.956 313.918 106.97 313.965 107.983 314.005V332.646ZM97.9816 330.212C97.7624 330.141 97.544 330.077 97.3267 330.014C97.1717 329.966 97.0172 329.922 96.863 329.875C96.8501 329.871 96.8373 329.871 96.8244 329.867C96.1903 329.685 95.5629 329.522 94.9427 329.371V319.274V313.041C95.9533 313.148 96.9673 313.252 97.9816 313.347V330.212ZM97.9816 307.554C96.9692 307.543 95.9552 307.527 94.9427 307.503V300.097C95.9556 300.117 96.9688 300.133 97.9816 300.145V307.554ZM104.944 307.554V300.145C105.957 300.133 106.97 300.117 107.983 300.097V306.08V307.503C106.97 307.527 105.957 307.543 104.944 307.554ZM97.9816 296.501C96.9684 296.489 95.956 296.474 94.9427 296.454V277.848C95.8683 278.026 96.8906 278.169 97.9816 278.268V296.501ZM104.944 296.501V278.268C106.035 278.169 107.057 278.026 107.983 277.848V296.454C106.97 296.474 105.957 296.489 104.944 296.501Z" fill="#22408A"/>
<path d="M107.983 277.848V274.653C108.087 274.676 108.19 274.704 108.294 274.732H108.295C108.513 274.787 108.722 274.843 108.927 274.902L108.966 274.914C109.138 274.962 109.29 275.005 109.425 275.053L109.556 275.089H109.558C109.563 275.093 109.576 275.097 109.599 275.105C109.821 275.172 110.024 275.239 110.206 275.303L110.25 275.319C110.44 275.382 110.637 275.449 110.842 275.525L110.889 275.545L110.93 275.56C111.12 275.628 111.302 275.699 111.473 275.771L111.508 275.783C111.714 275.862 111.905 275.941 112.083 276.016C112.109 276.028 112.136 276.04 112.163 276.052C112.254 276.092 112.345 276.131 112.435 276.171C111.616 276.857 110.036 277.444 107.983 277.848ZM94.9427 277.848C92.8898 277.444 91.3093 276.857 90.49 276.171C90.5954 276.123 90.7013 276.08 90.8078 276.032C90.8207 276.028 90.8335 276.02 90.8464 276.016C91.0274 275.937 91.2171 275.862 91.4186 275.783L91.4537 275.771C91.6249 275.699 91.8071 275.628 91.9968 275.56L92.0365 275.545L92.0845 275.525C92.2893 275.449 92.4862 275.382 92.6774 275.319L92.7058 275.307C93.0652 275.184 93.4314 275.069 93.8018 274.962L93.8637 274.946C93.8989 274.934 93.9567 274.914 94.0331 274.894L94.0546 274.89C94.346 274.803 94.6427 274.724 94.9427 274.653V277.848Z" fill="#87D4FC"/>
<path d="M101.464 278.423C100.25 278.423 99.0807 278.367 97.9817 278.268V274.086C98.0081 274.082 98.0346 274.078 98.0611 274.078L98.1053 274.07C98.1918 274.058 98.309 274.046 98.4522 274.03L98.4802 274.026C98.6022 274.014 98.7213 274.002 98.8456 273.991L98.9348 273.983C98.984 273.975 99.0365 273.971 99.1109 273.967L99.219 273.955C99.2508 273.951 99.2897 273.951 99.346 273.943C99.4314 273.939 99.4753 273.935 99.4889 273.935H99.51C99.566 273.931 99.5969 273.927 99.6045 273.927L99.6922 273.923C99.8392 273.911 99.987 273.903 100.12 273.895H100.156C100.288 273.887 100.417 273.883 100.549 273.88L100.628 273.876C100.679 273.876 100.732 273.872 100.787 273.872H100.831C101.04 273.868 101.25 273.864 101.464 273.864C101.677 273.864 101.887 273.868 102.096 273.872H102.139C102.195 273.872 102.248 273.876 102.299 273.876L102.378 273.88C102.509 273.883 102.639 273.887 102.77 273.895H102.806C102.94 273.903 103.088 273.911 103.235 273.923L103.326 273.927C103.382 273.931 103.461 273.935 103.569 273.943H103.572C103.633 273.947 103.674 273.951 103.708 273.955L103.781 273.963C104.015 273.983 104.247 274.006 104.474 274.034L104.532 274.038C104.634 274.05 104.74 274.058 104.841 274.074L104.91 274.082H104.916L104.943 274.086H104.944V278.268C103.845 278.367 102.676 278.423 101.464 278.423Z" fill="#D9D970"/>
<path d="M104.944 278.268V274.086L104.973 274.09C105.181 274.113 105.383 274.141 105.576 274.173L105.6 274.177L105.674 274.193C105.807 274.209 105.946 274.232 106.082 274.26L106.124 274.268C106.747 274.371 107.366 274.502 107.983 274.653V277.848C107.057 278.026 106.035 278.169 104.944 278.268ZM97.9816 278.268C96.8906 278.169 95.8683 278.026 94.9427 277.848V274.653C95.0565 274.625 95.171 274.597 95.2859 274.569L95.3067 274.565C95.4771 274.526 95.6604 274.486 95.8603 274.442H95.8611C96.1665 274.379 96.4647 274.32 96.7583 274.272L96.8025 274.264C96.9374 274.236 97.0928 274.213 97.2572 274.189L97.2881 274.185C97.5179 274.149 97.7492 274.113 97.9816 274.086V278.268Z" fill="#5970A7"/>
<path d="M123.777 331.314C122.723 341.907 121.488 351.537 120.079 360.097C119.717 362.293 118.101 364.006 116.047 364.363C111.027 365.227 105.996 365.663 101.096 365.663C96.3305 365.663 91.5512 365.247 86.8884 364.43C84.837 364.073 83.2176 362.36 82.8582 360.168C81.4066 351.359 80.139 341.424 79.0657 330.466C85.1371 329.284 91.8729 329.613 99.863 332.519C107.572 335.386 115.617 334.648 123.777 331.314Z" fill="#EAA549"/>
<path d="M123.777 331.314L122.266 331.148C121.215 341.713 119.983 351.307 118.582 359.827C118.455 360.6 118.109 361.278 117.619 361.798C117.128 362.317 116.502 362.666 115.8 362.789C110.859 363.641 105.91 364.073 101.096 364.073C96.4148 364.073 91.7183 363.661 87.1393 362.856H87.1374C86.4364 362.733 85.8082 362.38 85.3173 361.865C84.8271 361.346 84.4817 360.668 84.3555 359.899L84.3551 359.895C82.9111 351.133 81.6473 341.229 80.577 330.303L79.0657 330.466L79.3431 332.036C81.3718 331.639 83.4719 331.421 85.6775 331.421C89.8018 331.421 94.2984 332.182 99.3652 334.026L99.3558 334.022C102.779 335.294 106.276 335.893 109.8 335.889C114.616 335.889 119.477 334.779 124.328 332.801L123.777 331.314L122.266 331.148L123.777 331.314L123.226 329.827C118.654 331.695 114.168 332.706 109.8 332.702C106.601 332.702 103.463 332.166 100.37 331.017L100.361 331.013C95.0142 329.07 90.1623 328.234 85.6775 328.234C83.2803 328.234 80.9897 328.471 78.7883 328.9C78.0086 329.05 77.4735 329.804 77.5543 330.628C78.6303 341.618 79.902 351.585 81.3612 360.438H81.3608C81.594 361.861 82.238 363.134 83.1601 364.109C84.0815 365.084 85.289 365.766 86.6397 366H86.6374C91.3842 366.836 96.2458 367.261 101.096 367.261C106.083 367.261 111.194 366.813 116.293 365.933C117.646 365.699 118.855 365.017 119.776 364.041C120.699 363.066 121.342 361.794 121.576 360.37C122.992 351.763 124.231 342.102 125.288 331.481C125.343 330.929 125.119 330.382 124.699 330.049C124.279 329.712 123.718 329.629 123.226 329.827L123.777 331.314Z" fill="#1A1D63"/>
<path d="M106.463 334.105V342.716C106.463 343.818 105.717 344.758 104.688 344.984C102.511 345.46 100.36 345.464 98.23 344.992C97.2028 344.766 96.4624 343.83 96.4624 342.728V331.413C97.5705 331.73 98.7031 332.099 99.8626 332.519C102.039 333.328 104.242 333.851 106.463 334.105Z" fill="#FDD800"/>
<path d="M106.463 334.105H104.944V342.716C104.943 342.891 104.889 343.037 104.79 343.164C104.69 343.291 104.551 343.386 104.379 343.422H104.377C103.379 343.64 102.395 343.747 101.417 343.747C100.454 343.747 99.4979 343.644 98.5414 343.434H98.5429C98.3724 343.394 98.2349 343.303 98.1351 343.176C98.0364 343.049 97.9824 342.902 97.9816 342.728V331.413H96.4624L96.0614 332.951C97.1377 333.261 98.2375 333.613 99.3645 334.026L99.3558 334.022C101.642 334.87 103.962 335.421 106.298 335.691L106.463 334.105H104.944H106.463L106.629 332.519C104.522 332.277 102.436 331.786 100.37 331.017L100.361 331.013C99.1687 330.581 98.0032 330.204 96.863 329.875C96.408 329.744 95.9155 329.847 95.5402 330.148C95.1653 330.446 94.9427 330.918 94.9427 331.413V342.728C94.9424 343.656 95.2583 344.528 95.7866 345.198C96.3142 345.876 97.0603 346.364 97.9167 346.554H97.9185C99.0757 346.808 100.244 346.934 101.417 346.934C102.608 346.934 103.804 346.804 104.998 346.542H104.996C105.854 346.356 106.603 345.868 107.134 345.194C107.665 344.52 107.983 343.648 107.983 342.716V334.105C107.983 333.292 107.399 332.61 106.629 332.519L106.463 334.105Z" fill="#1A1D63"/>
<path d="M91.1642 357.888C88.7421 357.888 86.3317 357.674 83.9326 357.266C83.8094 356.481 83.6877 355.684 83.5671 354.879C84.1412 355.339 84.8539 355.605 85.6102 355.605C85.7734 355.605 85.9382 355.593 86.1045 355.569C87.9511 355.284 89.2285 353.484 88.9575 351.545C88.7375 349.971 88.5232 348.374 88.3143 346.744C88.0856 344.964 86.6355 343.672 84.97 343.672C84.8196 343.672 84.6676 343.683 84.5142 343.703C83.5595 343.838 82.7515 344.381 82.2281 345.138C81.9428 342.875 81.6673 340.555 81.402 338.181C81.9976 338.716 82.7682 339.033 83.5947 339.033C83.719 339.033 83.8441 339.025 83.9704 339.009C85.8252 338.795 87.1623 337.043 86.9571 335.096C86.8298 333.887 86.7047 332.666 86.5822 331.433C89.2012 331.504 91.9718 331.881 94.9427 332.646V342.728C94.9423 343.656 95.2583 344.528 95.7866 345.198C96.3142 345.876 97.0602 346.364 97.9166 346.554H97.9185C99.0757 346.808 100.244 346.934 101.417 346.934C101.418 346.934 101.419 346.934 101.42 346.934C102.61 346.934 103.804 346.804 104.998 346.542H104.996C105.854 346.356 106.603 345.868 107.133 345.194C107.665 344.52 107.983 343.648 107.983 342.716V335.838C108.587 335.873 109.193 335.889 109.8 335.889C113.849 335.889 117.929 335.108 122.009 333.681C122.007 333.701 122.005 333.721 122.002 333.744C121.017 336.944 119.91 339.87 118.814 342.534C116.357 348.508 111.573 353.072 105.718 355.236C100.813 357.052 95.9643 357.888 91.1642 357.888Z" fill="#D0A664"/>
<path d="M83.9326 357.266C82.9295 357.096 81.928 356.893 80.9284 356.655C79.7228 348.794 78.6453 340.056 77.7217 330.612C77.6488 329.879 78.1272 329.209 78.8192 329.07C79.0622 329.027 79.3056 328.979 79.549 328.939C79.7701 331.29 80.0006 333.602 80.2406 335.877C80.3389 336.809 80.7727 337.618 81.402 338.181C81.6673 340.555 81.9428 342.875 82.2281 345.138C81.7376 345.852 81.4964 346.752 81.617 347.692C81.8294 349.345 82.0474 350.974 82.2716 352.576C82.405 353.531 82.8891 354.34 83.5671 354.879C83.6877 355.684 83.8093 356.481 83.9326 357.266ZM109.8 335.889C109.193 335.889 108.587 335.873 107.983 335.838V334.105C107.983 333.542 107.701 333.039 107.271 332.753C108.101 332.829 108.94 332.868 109.788 332.868C114.011 332.868 118.438 331.94 123.035 330.097C122.712 331.35 122.365 332.563 122.002 333.744C122.005 333.721 122.007 333.701 122.009 333.681C117.929 335.108 113.849 335.889 109.8 335.889ZM94.9427 332.646C91.9718 331.881 89.2012 331.504 86.5822 331.433C86.4832 330.434 86.386 329.431 86.2904 328.416C89.4979 328.471 92.7666 328.951 96.1354 329.859C95.9215 329.907 95.7178 330.006 95.5402 330.148C95.1653 330.446 94.9427 330.918 94.9427 331.413V332.646Z" fill="#1F327A"/>
<path d="M101.417 343.747C100.454 343.747 99.4979 343.644 98.5414 343.434H98.5429C98.3725 343.394 98.2349 343.303 98.1351 343.176C98.0365 343.049 97.9824 342.902 97.9817 342.728V333.546C98.4356 333.697 98.8944 333.855 99.3573 334.022C101.2 334.708 103.066 335.195 104.944 335.501V342.716C104.943 342.891 104.889 343.037 104.79 343.164C104.69 343.291 104.551 343.386 104.379 343.422H104.377C103.379 343.64 102.395 343.747 101.417 343.747Z" fill="#D7BB45"/>
<path d="M101.42 346.934C101.419 346.934 101.418 346.934 101.417 346.934C100.244 346.934 99.0757 346.808 97.9185 346.554H97.9167C97.0603 346.364 96.3142 345.876 95.7866 345.198C95.2583 344.528 94.9424 343.656 94.9427 342.728V332.646V331.413C94.9427 330.918 95.1653 330.446 95.5402 330.148C95.7179 330.006 95.9216 329.907 96.1355 329.859C97.5085 330.228 98.8974 330.668 100.306 331.183C102.345 331.94 104.449 332.44 106.611 332.686L106.463 334.105L106.611 332.686C106.83 332.714 107.051 332.733 107.271 332.753C107.701 333.039 107.983 333.542 107.983 334.105V335.838V342.716C107.983 343.648 107.665 344.52 107.134 345.194C106.603 345.868 105.854 346.356 104.996 346.542H104.998C103.804 346.804 102.61 346.934 101.42 346.934ZM98.5414 343.434C99.4979 343.644 100.454 343.747 101.417 343.747C102.395 343.747 103.379 343.64 104.377 343.422H104.379C104.551 343.386 104.69 343.291 104.79 343.164C104.889 343.037 104.943 342.891 104.944 342.716V335.501C103.066 335.195 101.2 334.708 99.3573 334.022C98.8943 333.855 98.4355 333.697 97.9816 333.546V342.728C97.9824 342.902 98.0364 343.049 98.1351 343.176C98.2349 343.303 98.3724 343.394 98.5429 343.434H98.5414Z" fill="#1F327A"/>
<path d="M85.6102 355.605C84.854 355.605 84.1412 355.339 83.5672 354.879C83.0997 351.759 82.6529 348.512 82.2281 345.138C82.7516 344.381 83.5596 343.838 84.5142 343.703C84.6677 343.683 84.8196 343.672 84.97 343.672C86.6355 343.672 88.0856 344.964 88.3143 346.744C88.5233 348.374 88.7376 349.971 88.9575 351.545C89.2285 353.484 87.9511 355.284 86.1045 355.569C85.9382 355.593 85.7735 355.605 85.6102 355.605Z" fill="#F3E9D8"/>
<path d="M83.5672 354.879C82.8892 354.34 82.4051 353.531 82.2717 352.576C82.0476 350.974 81.8295 349.345 81.6171 347.692C81.4965 346.752 81.7377 345.852 82.2282 345.138C82.653 348.512 83.0997 351.759 83.5672 354.879Z" fill="#C7CCDE"/>
<path d="M79.5328 328.761C79.2248 325.482 78.9349 322.124 78.6628 318.699C78.5082 316.748 79.8899 315.036 81.7497 314.873C81.8449 314.865 81.9398 314.861 82.0339 314.861C83.7727 314.861 85.2504 316.261 85.3974 318.112C85.6714 321.561 85.9636 324.939 86.2735 328.238C86.0743 328.234 85.8752 328.234 85.6775 328.234C85.6764 328.234 85.6752 328.234 85.6745 328.234C83.5471 328.234 81.5041 328.42 79.5328 328.761Z" fill="#D7F1FE"/>
<path d="M79.549 328.939C79.5433 328.88 79.538 328.82 79.5327 328.761C81.504 328.42 83.547 328.234 85.6744 328.234C85.6751 328.234 85.6763 328.234 85.6774 328.234C85.8751 328.234 86.0742 328.234 86.2734 328.238C86.2791 328.297 86.2847 328.357 86.2904 328.416C86.0829 328.412 85.8754 328.412 85.6683 328.412C83.6075 328.412 81.5712 328.586 79.549 328.939Z" fill="#C6C6D8"/>
<path d="M83.5947 339.033C82.7682 339.033 81.9976 338.716 81.402 338.181C81.1684 336.095 80.9428 333.966 80.7247 331.794C82.323 331.552 83.9685 331.421 85.6775 331.421C85.9768 331.421 86.2787 331.425 86.5822 331.433C86.7047 332.666 86.8297 333.887 86.9571 335.096C87.1623 337.043 85.8252 338.795 83.9704 339.009C83.8441 339.025 83.719 339.033 83.5947 339.033Z" fill="#F3E9D8"/>
<path d="M81.4021 338.181C80.7728 337.618 80.339 336.809 80.2407 335.877C80.0007 333.602 79.7702 331.29 79.5491 328.939C81.5714 328.586 83.6076 328.412 85.6685 328.412C85.8756 328.412 86.083 328.412 86.2905 328.416C86.3861 329.431 86.4833 330.434 86.5823 331.433C86.2788 331.425 85.9769 331.421 85.6775 331.421C83.9686 331.421 82.3231 331.552 80.7248 331.794C80.9429 333.966 81.1685 336.095 81.4021 338.181Z" fill="#C7CCDE"/>
<path d="M85.0698 296.069C83.2066 295.97 81.343 295.847 79.4799 295.708C81.086 291.49 83.4507 287.478 86.4711 283.648C86.5811 283.505 86.7217 283.446 86.8593 283.446C87.176 283.446 87.476 283.763 87.3468 284.16C86.3396 287.232 85.4281 291.371 85.0698 296.069Z" fill="#D7F1FE"/>
<path d="M85.7444 307.162C82.8971 307.011 80.049 306.821 77.2014 306.591C77.1934 304.232 77.255 301.762 77.3748 299.201C80.2815 299.435 83.187 299.625 86.0936 299.772C85.9092 302.337 85.7901 304.803 85.7444 307.162Z" fill="#D7F1FE"/>
<path d="M70.076 308.054C71.4146 328.238 73.3189 346.26 75.8193 361.445C76.2554 364.093 77.4603 366.464 79.1881 368.284C80.9156 370.103 83.1756 371.376 85.7104 371.82H85.7093C90.7905 372.712 95.9205 373.156 101.095 373.156C106.42 373.156 111.791 372.688 117.207 371.753H117.206C119.747 371.316 122.013 370.044 123.744 368.224C125.475 366.4 126.682 364.026 127.118 361.373C129.611 346.209 131.512 328.21 132.851 308.058C132.918 307.051 132.196 306.183 131.24 306.111C130.283 306.044 129.453 306.801 129.387 307.804C128.054 327.865 126.161 345.757 123.696 360.755C123.384 362.654 122.521 364.351 121.285 365.651C120.048 366.951 118.447 367.847 116.644 368.157H116.643C111.406 369.061 106.225 369.513 101.095 369.513C96.1102 369.513 91.1741 369.088 86.2833 368.228H86.2826C84.4818 367.911 82.8831 367.011 81.6484 365.714C80.4145 364.414 79.554 362.721 79.2414 360.822C76.7683 345.812 74.8722 327.893 73.54 307.804C73.4735 306.801 72.644 306.044 71.6874 306.111C70.7305 306.183 70.0091 307.051 70.076 308.054Z" fill="#1A1D63"/>
<path d="M132.7 307.773L132.528 305.957C122.172 307.035 111.817 307.574 101.462 307.574C91.1076 307.574 80.7524 307.035 70.3964 305.957C70.3242 305.949 70.2974 305.949 70.2252 305.949L70.1746 305.929L70.1534 305.873V298.606L70.1746 298.555L70.2252 298.535V296.711L70.0529 298.523C80.5222 299.617 90.9923 300.165 101.462 300.165C111.932 300.165 122.403 299.617 132.872 298.523L132.7 296.711V298.535L132.75 298.555L132.771 298.606V305.873L132.75 305.929L132.7 305.949C132.627 305.949 132.601 305.949 132.528 305.957L132.7 307.773V309.592C133.673 309.592 134.57 309.172 135.206 308.502C135.845 307.836 136.245 306.896 136.244 305.873V298.606C136.245 297.588 135.845 296.648 135.206 295.978C134.57 295.308 133.673 294.888 132.7 294.892C132.627 294.892 132.6 294.892 132.528 294.9C122.172 295.982 111.817 296.525 101.462 296.525C91.1076 296.525 80.7528 295.982 70.3972 294.9C70.325 294.892 70.2974 294.892 70.2252 294.892C69.2517 294.888 68.3549 295.308 67.7192 295.978C67.0801 296.648 66.6799 297.588 66.681 298.606V305.873C66.6799 306.896 67.0801 307.836 67.7192 308.502C68.3549 309.172 69.2517 309.592 70.2252 309.592V307.773L70.0533 309.584C80.5226 310.675 90.9923 311.218 101.462 311.218C111.932 311.218 122.402 310.675 132.871 309.584L132.7 307.773V309.592V307.773Z" fill="#1A1D63"/>
<path d="M73.7183 297.282C75.7221 287.605 82.2232 279.676 90.8078 276.032C90.9987 275.953 91.1903 275.822 91.3411 275.675H91.3437L90.1593 274.343V276.163H90.1619C90.3928 276.163 90.6211 276.116 90.8343 276.02C91.0191 275.941 91.2122 275.862 91.4185 275.783L91.4537 275.771C91.6249 275.699 91.807 275.628 91.9968 275.56L92.0364 275.545L92.1014 275.521L91.4919 273.816L92.0701 275.533C92.2802 275.453 92.4816 275.382 92.6774 275.319L92.7057 275.307C93.0652 275.184 93.4314 275.069 93.8017 274.962L93.8637 274.946C93.8989 274.934 93.9567 274.914 94.033 274.894L94.0546 274.89C94.4567 274.772 94.8679 274.665 95.2858 274.569L95.3066 274.565C95.4771 274.526 95.6604 274.486 95.8603 274.443H95.8611C96.1664 274.379 96.4646 274.32 96.7583 274.272L96.8025 274.264C96.9374 274.236 97.0927 274.213 97.2571 274.189L97.2881 274.185C97.5443 274.145 97.8017 274.106 98.061 274.078L98.1052 274.07C98.1917 274.058 98.3089 274.046 98.4521 274.03L98.4801 274.026C98.6022 274.014 98.7212 274.002 98.8456 273.991L98.9347 273.983C98.9839 273.975 99.0364 273.971 99.1109 273.967L99.2189 273.955C99.2526 273.951 99.2938 273.947 99.355 273.943L99.228 272.127L99.3138 273.947C99.4204 273.939 99.4737 273.935 99.4888 273.935H99.5099C99.5708 273.931 99.6022 273.927 99.6059 273.927L99.5651 273.372L99.5916 273.927H99.6059L99.5651 273.372L99.5916 273.927L99.5387 272.821V273.927H99.5916L99.5387 272.821V273.927H99.5549L99.6921 273.923C99.8391 273.911 99.9869 273.903 100.12 273.895H100.156C100.288 273.887 100.417 273.883 100.549 273.88L100.627 273.876C100.678 273.876 100.732 273.872 100.787 273.872H100.83C101.039 273.868 101.25 273.864 101.463 273.864C101.677 273.864 101.887 273.868 102.096 273.872H102.139C102.195 273.872 102.248 273.876 102.299 273.876L102.378 273.88C102.509 273.883 102.639 273.887 102.77 273.895H102.806C102.94 273.903 103.088 273.911 103.234 273.923L103.325 273.927C103.381 273.931 103.46 273.935 103.569 273.943H103.572C103.633 273.947 103.674 273.951 103.708 273.955L103.781 273.963C104.015 273.983 104.247 274.006 104.474 274.034L104.531 274.038C104.634 274.05 104.74 274.058 104.841 274.074L104.951 274.086L104.996 273.34L104.91 274.082L104.951 274.086L104.996 273.34L104.91 274.082H104.916L104.943 274.086L104.973 274.09C105.185 274.117 105.391 274.145 105.588 274.177L105.856 272.377L105.554 274.169L105.599 274.177L105.674 274.193C105.807 274.209 105.946 274.232 106.082 274.26L106.124 274.268C106.852 274.387 107.575 274.546 108.294 274.732H108.295C108.513 274.787 108.722 274.843 108.927 274.902L108.966 274.914C109.138 274.962 109.29 275.005 109.425 275.053L109.565 275.093L109.65 274.712L109.556 275.089L109.565 275.093L109.65 274.712L109.556 275.089C109.556 275.089 109.574 275.097 109.615 275.109L110.097 273.356L109.596 275.101C109.819 275.172 110.023 275.239 110.206 275.303L110.249 275.319C110.445 275.382 110.647 275.453 110.857 275.533L111.435 273.816L110.824 275.521L110.889 275.545L110.93 275.56C111.12 275.628 111.302 275.699 111.473 275.771L111.508 275.783C111.714 275.862 111.905 275.941 112.083 276.016C112.296 276.112 112.531 276.163 112.762 276.163H112.765V274.343L112.113 276.032C120.698 279.672 127.205 287.605 129.209 297.282C129.412 298.262 130.337 298.888 131.274 298.674C132.211 298.46 132.806 297.488 132.602 296.505C130.345 285.63 123.056 276.746 113.416 272.654C113.213 272.567 112.984 272.52 112.765 272.52H112.762V274.343L113.441 272.666C113.186 272.551 112.94 272.452 112.703 272.361L112.105 274.074L112.738 272.377C112.509 272.282 112.285 272.199 112.07 272.119L111.5 273.84L112.111 272.135L112.046 272.111L112.013 272.095C111.78 272.012 111.538 271.925 111.285 271.842L110.767 273.578L111.328 271.854C111.068 271.762 110.824 271.687 110.598 271.612L110.579 271.608C110.541 271.596 110.468 271.572 110.353 271.544L109.959 273.317L110.493 271.584C110.26 271.505 110.04 271.441 109.833 271.386L109.4 273.15L109.872 271.398C109.617 271.322 109.367 271.255 109.12 271.192H109.121C108.321 270.985 107.503 270.807 106.669 270.668L106.397 272.468L106.711 270.676C106.522 270.64 106.327 270.609 106.129 270.581L105.902 272.385L106.204 270.593L106.158 270.585L106.124 270.577C105.872 270.537 105.624 270.502 105.382 270.47L105.177 272.282L105.412 270.474C105.386 270.474 105.301 270.458 105.172 270.45L105.061 272.266L105.281 270.458C105.128 270.438 104.975 270.422 104.823 270.411L104.677 272.222L104.88 270.414C104.6 270.379 104.317 270.351 104.033 270.331L103.907 272.147L104.106 270.339C103.999 270.323 103.905 270.315 103.826 270.311H103.829C103.721 270.304 103.584 270.292 103.418 270.288L103.372 272.107L103.509 270.292C103.321 270.276 103.123 270.264 102.921 270.256L102.864 272.076L102.957 270.256C102.785 270.248 102.612 270.24 102.436 270.24L102.407 272.06L102.514 270.24C102.387 270.232 102.262 270.228 102.139 270.228V272.052L102.182 270.228C101.942 270.224 101.704 270.22 101.463 270.22C101.223 270.22 100.984 270.224 100.745 270.228L100.787 272.052V270.228C100.665 270.228 100.54 270.232 100.412 270.24L100.52 272.06L100.491 270.24C100.314 270.24 100.141 270.248 99.9703 270.256L100.063 272.076L100.006 270.256C99.804 270.264 99.6059 270.276 99.4177 270.292L99.5549 272.107V270.288H99.5387C99.4457 270.288 99.3773 270.292 99.3372 270.296L99.2979 270.3H99.2949L99.3361 270.886L99.3025 270.3H99.2949L99.3361 270.886L99.3025 270.3L99.4064 272.115L99.324 270.296C99.2144 270.303 99.1543 270.307 99.1418 270.307L99.1007 270.311C99.0209 270.315 98.9276 270.323 98.8206 270.339L99.0198 272.147L98.9287 270.327C98.7923 270.335 98.6449 270.347 98.4888 270.371L98.7118 272.175L98.578 270.359C98.4151 270.371 98.2533 270.387 98.0889 270.407L98.2843 272.218L98.1165 270.407C97.979 270.418 97.8153 270.434 97.626 270.462L97.8656 272.266L97.6706 270.458C97.3618 270.494 97.0568 270.537 96.756 270.585L97.0221 272.385L96.787 270.581C96.595 270.609 96.3879 270.64 96.1713 270.68L96.4869 272.472L96.2156 270.672C95.8607 270.732 95.5153 270.799 95.1774 270.87H95.1782C94.9726 270.914 94.756 270.962 94.5262 271.017L94.9166 272.789L94.5474 271.013C94.0731 271.12 93.5977 271.239 93.1237 271.378L93.589 273.134L93.1457 271.374C93.0599 271.398 92.9556 271.425 92.8339 271.465L93.349 273.206L92.8955 271.445C92.4658 271.568 92.0376 271.703 91.6132 271.85L92.1593 273.578L91.6415 271.842C91.3883 271.925 91.1468 272.012 90.9136 272.095L90.8822 272.107L90.8173 272.135L91.4268 273.84L90.8569 272.119C90.6411 272.199 90.4178 272.282 90.1888 272.377L90.8214 274.074L90.2239 272.361C89.9873 272.452 89.7424 272.551 89.4896 272.662L90.1619 274.343V272.52H90.1593C89.7224 272.52 89.2938 272.698 88.9741 273.011H88.9715L90.1562 274.343L89.5051 272.654C79.8657 276.75 72.5811 285.63 70.3245 296.505C70.1212 297.488 70.7153 298.46 71.6526 298.674C72.5898 298.888 73.5146 298.262 73.7183 297.282Z" fill="#1A1D63"/>
<path d="M113.057 275.089H111.321H112.121L111.369 274.799C111.342 274.871 111.32 274.982 111.321 275.089H112.121L111.369 274.799L111.826 274.978L111.429 274.676C111.42 274.688 111.394 274.728 111.369 274.799L111.826 274.978L111.429 274.676L111.524 274.748L111.432 274.668L111.429 274.676L111.524 274.748L111.432 274.668L111.422 274.68C111.393 274.712 111.293 274.803 111.128 274.906C110.839 275.093 110.356 275.319 109.739 275.525C108.81 275.834 107.58 276.112 106.167 276.302C104.753 276.492 103.154 276.599 101.464 276.599C99.9269 276.599 98.4654 276.512 97.1498 276.349C96.1631 276.23 95.2587 276.072 94.4703 275.886C93.8793 275.747 93.3536 275.588 92.9122 275.426C92.2508 275.192 91.7776 274.918 91.5887 274.76C91.5414 274.72 91.5119 274.692 91.4991 274.676L91.4919 274.668L91.3373 274.803L91.5074 274.692L91.4919 274.668L91.3373 274.803L91.5074 274.692L91.001 275.021L91.5682 274.839C91.5475 274.768 91.5225 274.72 91.5074 274.692L91.001 275.021L91.5682 274.839L90.7874 275.089H91.6034C91.6038 274.998 91.589 274.906 91.5682 274.839L90.7874 275.089H91.6034H90.8218L91.5467 275.402C91.5769 275.331 91.6045 275.208 91.6034 275.089H90.8218L91.5467 275.402L91.0524 275.192L91.5066 275.485C91.5172 275.469 91.532 275.442 91.5467 275.402L91.0524 275.192L91.5066 275.485L91.3403 275.378L91.4911 275.509L91.5066 275.485L91.3403 275.378L91.4911 275.509L90.1593 274.343V276.163H90.162C90.3808 276.163 90.611 276.116 90.8139 276.028C94.1011 274.633 97.6914 273.864 101.464 273.864C105.233 273.864 108.823 274.629 112.109 276.028C112.312 276.116 112.543 276.163 112.762 276.163H112.765V274.343L111.433 275.509L111.584 275.378L111.417 275.485L111.433 275.509L111.584 275.378L111.417 275.485L111.923 275.156L111.356 275.338C111.377 275.41 111.402 275.461 111.417 275.485L111.923 275.156L111.356 275.338L112.128 275.089H111.321C111.32 275.18 111.335 275.271 111.356 275.338L112.128 275.089H111.321H113.057H114.793C114.794 274.712 114.717 274.339 114.589 274.014C114.46 273.689 114.287 273.412 114.097 273.174C113.767 272.758 113.28 272.52 112.765 272.52H112.762V274.343L113.415 272.654C109.722 271.081 105.683 270.22 101.464 270.22C97.2398 270.22 93.2016 271.085 89.5097 272.654L90.162 274.343V272.52H90.1593C89.6442 272.52 89.1574 272.758 88.8271 273.174C88.6374 273.412 88.4639 273.689 88.3358 274.014C88.2073 274.339 88.1299 274.712 88.131 275.089C88.1302 275.43 88.193 275.767 88.2992 276.064C88.5002 276.627 88.826 277.047 89.171 277.38C89.476 277.678 89.8071 277.911 90.1631 278.126C90.7859 278.494 91.4904 278.788 92.2848 279.045C93.4745 279.43 94.8668 279.723 96.417 279.929C97.9662 280.132 99.6702 280.243 101.464 280.243C103.129 280.243 104.717 280.147 106.176 279.969C107.271 279.838 108.291 279.66 109.221 279.438C109.918 279.271 110.565 279.085 111.156 278.867C112.044 278.538 112.807 278.169 113.468 277.634C113.796 277.364 114.106 277.047 114.359 276.627C114.484 276.421 114.594 276.183 114.672 275.921C114.75 275.66 114.794 275.378 114.793 275.089H113.057Z" fill="#1A1D63"/>
<path d="M108.182 369.231H94.0823C91.4697 369.017 88.8703 368.68 86.2834 368.228H86.2826C84.4818 367.911 82.8832 367.011 81.6485 365.714C80.4146 364.414 79.554 362.721 79.2415 360.822C78.9822 359.252 78.7294 357.647 78.483 356.009C79.2384 356.227 79.9951 356.429 80.7528 356.612C80.952 357.912 81.1545 359.185 81.3613 360.438H81.3609C81.5941 361.861 82.2381 363.134 83.1602 364.109C84.0816 365.084 85.289 365.766 86.6398 366H86.6375C91.3842 366.836 96.2459 367.261 101.096 367.261C106.083 367.261 111.194 366.813 116.293 365.933C117.646 365.699 118.855 365.017 119.776 364.041C120.699 363.066 121.342 361.794 121.576 360.37C122.064 357.405 122.531 354.312 122.977 351.101C123.698 351.141 124.418 351.176 125.135 351.208C124.68 354.507 124.2 357.69 123.696 360.755C123.384 362.654 122.521 364.351 121.285 365.651C120.048 366.951 118.447 367.847 116.645 368.157H116.643C113.807 368.648 110.986 369.005 108.182 369.231ZM94.9428 313.041C88.585 312.356 82.3182 311.368 76.2762 310.167C82.4981 310.686 88.7206 311.012 94.9428 311.146V313.041Z" fill="#4A93CD"/>
<path d="M126.618 339.35C125.904 339.33 125.181 339.303 124.461 339.271C124.748 336.738 125.024 334.137 125.288 331.481C125.343 330.929 125.119 330.382 124.699 330.049C124.431 329.831 124.105 329.72 123.776 329.72C123.59 329.72 123.404 329.756 123.226 329.827C123.181 329.847 123.135 329.867 123.089 329.887C124.322 325.054 125.205 319.67 125.356 313.727C121.721 313.997 118.039 314.124 114.34 314.124C112.225 314.124 110.104 314.084 107.983 314.005V312.502C108.558 312.209 109.163 311.943 109.797 311.713L109.785 311.717L109.824 311.701L109.834 311.697C110.494 311.456 111.161 311.238 111.832 311.039C117.636 310.841 123.439 310.472 129.242 309.941C128.522 320.38 127.648 330.22 126.618 339.35Z" fill="#98ACD0"/>
<path d="M125.913 345.289C125.197 345.257 124.478 345.226 123.756 345.186C123.998 343.255 124.233 341.281 124.461 339.271C125.181 339.303 125.904 339.33 126.618 339.35C126.39 341.364 126.155 343.343 125.913 345.289Z" fill="#7388B7"/>
<path d="M125.135 351.208C124.418 351.176 123.698 351.141 122.977 351.101C123.244 349.174 123.504 347.2 123.756 345.186C124.478 345.226 125.197 345.257 125.913 345.289C125.662 347.299 125.403 349.273 125.135 351.208ZM107.983 312.502V311.146C109.266 311.119 110.549 311.083 111.832 311.039C111.161 311.238 110.494 311.456 109.834 311.697L109.824 311.701L109.785 311.717L109.797 311.713C109.163 311.943 108.558 312.209 107.983 312.502Z" fill="#20357E"/>
<path d="M101.095 369.513C98.747 369.513 96.4092 369.421 94.0823 369.231H108.182C105.808 369.417 103.447 369.513 101.095 369.513Z" fill="#20357E"/>
<path d="M104.944 313.862C102.618 313.731 100.297 313.561 97.9817 313.347V311.198C99.1419 311.21 100.302 311.218 101.462 311.218C102.623 311.218 103.784 311.21 104.944 311.198V313.862Z" fill="#96974B"/>
<path d="M107.983 314.005C106.97 313.965 105.956 313.918 104.944 313.862V311.198C105.957 311.186 106.97 311.17 107.983 311.146V312.502V314.005ZM97.9816 313.347C96.9673 313.252 95.9533 313.148 94.9427 313.041V311.146C95.9556 311.17 96.9688 311.186 97.9816 311.198V313.347Z" fill="#20357E"/>
<path d="M101.096 367.261C96.2458 367.261 91.3841 366.836 86.6374 366H86.6397C85.2889 365.766 84.0815 365.084 83.1601 364.109C82.2379 363.134 81.5939 361.861 81.3608 360.438H81.3612C81.1544 359.185 80.9519 357.912 80.7527 356.612C80.8116 356.628 80.8695 356.64 80.9284 356.655C81.1238 357.928 81.3226 359.181 81.5248 360.41C81.9847 363.193 84.0497 365.37 86.6661 365.826C91.4076 366.662 96.2624 367.082 101.095 367.082C106.066 367.082 111.169 366.638 116.265 365.758C118.884 365.306 120.952 363.13 121.412 360.339C122.817 351.795 124.066 342.078 125.12 331.461C125.171 330.973 124.971 330.485 124.596 330.188C124.357 329.998 124.068 329.899 123.775 329.899C123.611 329.899 123.445 329.93 123.288 329.994C123.203 330.03 123.119 330.061 123.035 330.097C123.054 330.026 123.071 329.954 123.089 329.887C123.135 329.867 123.181 329.847 123.226 329.827C123.404 329.756 123.59 329.72 123.776 329.72C124.105 329.72 124.43 329.831 124.699 330.049C125.119 330.382 125.343 330.929 125.288 331.481C125.024 334.137 124.748 336.738 124.461 339.271C124.233 341.281 123.998 343.255 123.756 345.186C123.504 347.2 123.244 349.174 122.977 351.101C122.531 354.312 122.064 357.405 121.576 360.37C121.342 361.794 120.699 363.066 119.776 364.041C118.854 365.017 117.646 365.699 116.293 365.933C111.194 366.813 106.083 367.261 101.096 367.261Z" fill="#1A1D63"/>
<path d="M101.096 364.073C96.4148 364.073 91.7183 363.661 87.1393 362.856H87.1374C86.4364 362.733 85.8083 362.38 85.3173 361.865C84.8272 361.346 84.4817 360.668 84.3555 359.899L84.3551 359.895C84.2126 359.03 84.0717 358.154 83.9326 357.266C86.3317 357.674 88.7421 357.888 91.1642 357.888C95.9643 357.888 100.813 357.052 105.718 355.236C111.573 353.072 116.357 348.508 118.814 342.534C119.91 339.87 121.017 336.944 122.002 333.744C121.01 343.287 119.868 352.009 118.582 359.827C118.455 360.6 118.109 361.278 117.619 361.798C117.128 362.317 116.502 362.666 115.8 362.789C110.86 363.641 105.91 364.073 101.096 364.073Z" fill="#997D64"/>
<path d="M101.095 367.082C96.2625 367.082 91.4076 366.662 86.6662 365.826C84.0498 365.37 81.9848 363.193 81.5248 360.41C81.3227 359.181 81.1239 357.928 80.9285 356.656C81.9281 356.893 82.9296 357.096 83.9326 357.266C84.0717 358.154 84.2126 359.03 84.3551 359.895L84.3555 359.899C84.4817 360.668 84.8272 361.346 85.3173 361.865C85.8083 362.38 86.4364 362.733 87.1374 362.856H87.1393C91.7183 363.661 96.4148 364.073 101.096 364.073C105.91 364.073 110.86 363.641 115.8 362.789C116.502 362.666 117.128 362.317 117.619 361.798C118.109 361.278 118.455 360.6 118.582 359.827C119.868 352.009 121.01 343.287 122.002 333.744C122.365 332.563 122.712 331.35 123.035 330.097C123.119 330.061 123.203 330.03 123.288 329.994C123.445 329.93 123.611 329.899 123.776 329.899C124.068 329.899 124.357 329.998 124.596 330.188C124.971 330.485 125.171 330.973 125.12 331.461C124.066 342.078 122.817 351.795 121.412 360.339C120.952 363.13 118.884 365.306 116.265 365.758C111.169 366.638 106.066 367.082 101.095 367.082Z" fill="#1D2C73"/>
<path d="M101.095 371.336C96.0148 371.336 90.982 370.9 85.9964 370.024C81.6608 369.263 78.2791 365.679 77.5305 361.135C77.2247 359.276 76.9277 357.377 76.6385 355.438C77.2523 355.641 77.8676 355.831 78.4828 356.009C78.7292 357.647 78.9821 359.252 79.2413 360.822C79.5539 362.721 80.4144 364.414 81.6483 365.715C82.883 367.011 84.4817 367.911 86.2825 368.228H86.2832C88.8701 368.68 91.4695 369.017 94.0821 369.231C96.409 369.421 98.7469 369.513 101.095 369.513C103.446 369.513 105.808 369.417 108.181 369.231C110.986 369.005 113.806 368.648 116.643 368.157H116.644C118.447 367.847 120.048 366.951 121.285 365.651C122.521 364.351 123.384 362.654 123.696 360.755C124.199 357.69 124.679 354.507 125.135 351.208C125.402 349.274 125.662 347.299 125.913 345.289C126.155 343.343 126.39 341.364 126.617 339.35C127.648 330.22 128.522 320.38 129.242 309.941C129.826 309.886 130.41 309.83 130.994 309.775C129.667 329.134 127.81 346.447 125.407 361.064C124.658 365.615 121.269 369.211 116.925 369.957C111.599 370.872 106.322 371.336 101.095 371.336Z" fill="#1A1D63"/>
<path d="M101.462 311.218C100.302 311.218 99.1419 311.21 97.9817 311.198C96.9688 311.186 95.9556 311.17 94.9428 311.146C88.7206 311.012 82.498 310.686 76.2762 310.167C75.1481 309.941 74.0276 309.711 72.9161 309.473H71.9134C71.8756 308.958 71.8431 308.446 71.808 307.931C81.6945 308.906 91.5796 309.398 101.464 309.398C109.215 309.398 116.965 309.097 124.715 308.494V308.498C126.85 308.332 128.983 308.141 131.118 307.931C131.119 307.931 131.119 307.931 131.119 307.931C131.078 308.546 131.036 309.16 130.994 309.775C130.41 309.83 129.826 309.886 129.242 309.941C123.439 310.472 117.636 310.841 111.832 311.039C110.549 311.083 109.266 311.119 107.983 311.146C106.97 311.17 105.957 311.186 104.944 311.198C103.784 311.21 102.623 311.218 101.462 311.218Z" fill="#1A1D63"/>
<path d="M124.229 295.653C123.051 289.952 121.28 284.929 119.348 280.512C123.765 284.275 127.086 289.401 128.722 295.272C127.225 295.411 125.727 295.538 124.229 295.653Z" fill="#4A93CD"/>
<path d="M124.578 297.449C124.468 296.842 124.352 296.244 124.229 295.653C125.727 295.538 127.225 295.411 128.722 295.272C128.886 295.863 129.033 296.458 129.162 297.06C129.152 297.06 129.143 297.064 129.133 297.064C128.134 297.155 127.134 297.243 126.135 297.326C125.616 297.37 125.096 297.409 124.578 297.449Z" fill="#1A1D63"/>
<path d="M129.162 297.06C129.033 296.458 128.886 295.863 128.722 295.272C127.086 289.401 123.765 284.275 119.348 280.512C118.823 279.315 118.287 278.161 117.747 277.051C124.348 281.503 129.183 288.588 130.905 296.894C130.325 296.953 129.743 297.009 129.162 297.06Z" fill="#1A1D63"/>
<path d="M124.601 302.242C124.536 301.283 124.451 300.299 124.349 299.296C126.675 299.118 129.002 298.912 131.327 298.682C131.361 299.15 131.392 299.61 131.418 300.065C130.225 300.509 129.005 300.926 127.759 301.318C127.7 301.334 127.642 301.354 127.584 301.374C126.607 301.679 125.613 301.968 124.601 302.242Z" fill="#4A93CD"/>
<path d="M124.755 306.666C124.759 305.259 124.705 303.78 124.601 302.242C125.613 301.968 126.607 301.679 127.584 301.374C127.041 301.564 126.547 301.929 126.186 302.452C125.3 303.741 125.539 305.525 126.706 306.508C126.056 306.563 125.405 306.615 124.755 306.666ZM131.537 302.908C131.087 302.519 130.623 302.143 130.144 301.782C129.642 301.401 129.062 301.219 128.487 301.219C128.241 301.219 127.996 301.251 127.759 301.318C129.005 300.926 130.225 300.509 131.418 300.065C131.474 301.037 131.514 301.984 131.537 302.908Z" fill="#20357E"/>
<path d="M126.706 306.508C125.539 305.525 125.3 303.741 126.186 302.452C126.547 301.929 127.041 301.564 127.584 301.374C127.642 301.354 127.7 301.334 127.759 301.318C127.996 301.251 128.241 301.219 128.487 301.219C129.062 301.219 129.642 301.401 130.144 301.782C130.623 302.143 131.087 302.519 131.537 302.908C131.562 303.99 131.564 305.045 131.538 306.06C131.37 306.076 131.202 306.092 131.034 306.111C130.98 306.111 130.927 306.119 130.874 306.127C129.484 306.262 128.096 306.389 126.706 306.508Z" fill="#20357E"/>
<path d="M130.874 306.127C130.927 306.119 130.98 306.111 131.034 306.111C130.981 306.115 130.927 306.119 130.874 306.127Z" fill="#1A1D63"/>
<path d="M124.715 308.494C124.74 307.899 124.753 307.289 124.755 306.666C125.405 306.615 126.056 306.563 126.706 306.508C128.096 306.389 129.484 306.262 130.874 306.127C130.927 306.119 130.981 306.115 131.034 306.111C131.202 306.092 131.37 306.076 131.538 306.06C131.522 306.686 131.496 307.297 131.46 307.895C131.346 307.907 131.232 307.919 131.118 307.931C128.984 308.141 126.85 308.328 124.715 308.494ZM124.349 299.296C124.288 298.698 124.221 298.095 124.148 297.484C124.81 297.433 125.472 297.381 126.135 297.326C127.134 297.243 128.134 297.155 129.133 297.064C129.143 297.064 129.153 297.06 129.162 297.06C129.178 297.136 129.194 297.207 129.209 297.282C129.385 298.135 130.105 298.714 130.904 298.714C131.026 298.714 131.15 298.702 131.274 298.674C131.292 298.67 131.309 298.666 131.326 298.662C131.327 298.67 131.327 298.674 131.327 298.682C129.002 298.912 126.675 299.118 124.349 299.296Z" fill="#1A1D63"/>
<path d="M130.904 298.714C130.105 298.714 129.385 298.135 129.209 297.282C129.193 297.207 129.178 297.136 129.162 297.06C129.835 297.001 130.508 296.933 131.181 296.866C131.235 297.473 131.283 298.071 131.326 298.662C131.309 298.666 131.292 298.67 131.274 298.674C131.15 298.702 131.026 298.714 130.904 298.714Z" fill="#1A1D63"/>
<path d="M124.715 308.498V308.494C126.85 308.328 128.984 308.141 131.119 307.931C128.983 308.141 126.85 308.332 124.715 308.498Z" fill="#1A1D63"/>
<path d="M126.135 297.326C127.134 297.243 128.134 297.155 129.133 297.064C128.134 297.155 127.134 297.243 126.135 297.326Z" fill="#1A1D63"/>
<path d="M106.463 247.277V278.098C104.947 278.308 103.252 278.423 101.463 278.423C99.6733 278.423 97.9786 278.308 96.4624 278.098V247.277H106.463Z" fill="#FDD800"/>
<path d="M106.463 248.847H104.944V278.098H106.463L106.265 276.516C104.822 276.714 103.189 276.829 101.463 276.829C99.7364 276.829 98.1041 276.714 96.6608 276.516L96.4624 278.098H97.9816V248.847C97.9813 248.709 98.0255 248.574 98.098 248.471C98.1717 248.368 98.2617 248.3 98.369 248.268C99.4117 247.959 100.439 247.805 101.464 247.805C102.49 247.805 103.515 247.959 104.556 248.268C104.664 248.3 104.754 248.368 104.828 248.471C104.9 248.574 104.945 248.709 104.944 248.847H106.463H107.983C107.982 248.015 107.726 247.226 107.276 246.584C106.827 245.941 106.172 245.438 105.389 245.204C104.092 244.815 102.778 244.617 101.464 244.617C100.149 244.617 98.8354 244.815 97.5365 245.204C96.7541 245.438 96.0988 245.941 95.6495 246.584C95.1993 247.226 94.9431 248.015 94.9431 248.847V278.098C94.9431 278.895 95.5089 279.573 96.2636 279.676C97.8531 279.898 99.6105 280.017 101.463 280.017C103.315 280.017 105.073 279.898 106.662 279.676C107.417 279.573 107.983 278.895 107.983 278.098V248.847H106.463Z" fill="#1A1D63"/>
<path d="M84.8854 53.6643C106.928 53.6643 124.797 69.3044 124.797 88.5999C124.797 97.4488 121.036 105.529 114.84 111.682C115.806 114.29 118.318 119.833 123.357 123.9C123.423 123.956 123.384 124.063 123.301 124.055C121.477 123.892 111.098 122.83 103.931 119.305C98.2708 122.001 91.7825 123.536 84.8854 123.536C62.8424 123.536 44.9733 107.891 44.9733 88.5999C44.9733 69.3044 62.8424 53.6643 84.8854 53.6643Z" fill="white"/>
<path d="M122.726 124C122.725 124 122.724 124 122.723 124C122.724 124 122.725 124 122.726 124ZM122.723 124C120.397 123.766 113.744 122.949 107.784 120.891C106.447 120.427 105.143 119.904 103.932 119.305C98.2704 122.001 91.7821 123.536 84.8861 123.536C74.7977 123.536 65.585 120.261 58.559 114.857H58.5593C65.5858 120.257 74.7989 123.536 84.8853 123.536C91.7825 123.536 98.2707 122.001 103.931 119.305C110.537 122.556 119.875 123.71 122.723 124ZM118.151 118.144C118.15 118.14 118.148 118.14 118.147 118.136C118.148 118.14 118.15 118.14 118.151 118.144ZM118.139 118.128C116.427 115.571 115.386 113.156 114.84 111.682C117.239 109.299 119.273 106.631 120.865 103.737C119.273 106.631 117.239 109.299 114.841 111.686C115.128 112.459 115.551 113.489 116.136 114.667C116.665 115.729 117.326 116.911 118.139 118.128Z" fill="#57A2D3"/>
<path d="M123.308 124.055C123.306 124.055 123.303 124.055 123.301 124.055C123.159 124.043 122.966 124.023 122.726 123.999C122.725 123.999 122.724 123.999 122.723 123.999C119.875 123.71 110.537 122.556 103.931 119.305C98.2707 122.001 91.7825 123.536 84.8853 123.536C74.7988 123.536 65.5857 120.257 58.5593 114.857C58.8091 114.845 59.0589 114.841 59.3087 114.841C61.1772 114.841 63.0434 115.131 64.8431 115.725C69.7002 117.327 74.9617 118.207 80.4572 118.207C103.151 118.207 121.859 103.273 124.456 84.0169C124.681 85.5155 124.797 87.0458 124.797 88.5999C124.797 94.0234 123.384 99.1576 120.865 103.737C119.272 106.631 117.239 109.299 114.84 111.682C115.386 113.156 116.427 115.571 118.139 118.128C118.142 118.128 118.144 118.132 118.147 118.136C118.148 118.14 118.15 118.14 118.151 118.144C119.464 120.098 121.173 122.14 123.356 123.9C123.421 123.952 123.385 124.055 123.308 124.055Z" fill="#C6C6D8"/>
<path d="M84.8853 53.6643V56.2412C95.352 56.2373 104.784 59.9639 111.534 65.8751C114.91 68.8287 117.614 72.3254 119.47 76.1671C121.326 80.0087 122.34 84.1953 122.341 88.5999C122.34 92.6398 121.486 96.4934 119.912 100.069C118.339 103.645 116.04 106.94 113.151 109.81C112.424 110.532 112.188 111.638 112.55 112.617C113.081 114.048 114.017 116.241 115.513 118.651C117.008 121.058 119.067 123.69 121.859 125.942L121.859 125.946L123.305 123.972L121.17 125.054C121.329 125.403 121.579 125.72 121.859 125.946L123.305 123.972L121.17 125.054L123.31 123.972H120.933C120.933 124.325 121.008 124.701 121.17 125.054L123.31 123.972H120.933H123.307L121.56 122.283C121.147 122.763 120.937 123.341 120.933 123.972H123.307L121.56 122.283L123.311 123.976L122.338 121.696C122.032 121.839 121.768 122.049 121.56 122.283L123.311 123.976L122.338 121.696L123.31 123.972V121.478C122.986 121.478 122.642 121.553 122.338 121.696L123.31 123.972V121.478V123.952L123.499 121.486C123.433 121.482 123.372 121.478 123.31 121.478V123.952L123.499 121.486H123.511C122.655 121.411 119.673 121.113 116.069 120.408C114.268 120.055 112.311 119.603 110.395 119.032C108.479 118.465 106.602 117.775 104.974 116.974C104.322 116.653 103.572 116.649 102.916 116.958C97.5799 119.504 91.4356 120.959 84.8853 120.955C74.4187 120.959 64.9867 117.236 58.237 111.325C54.8609 108.367 52.1565 104.874 50.3009 101.033C48.4449 97.1872 47.4309 93.0045 47.4298 88.5999C47.4309 84.1953 48.4449 80.0087 50.3009 76.1671C53.0824 70.4066 57.7827 65.4192 63.7762 61.8748C69.7671 58.3345 77.0354 56.2412 84.8853 56.2412V53.6643V51.0873C73.3091 51.0913 62.7853 55.1866 55.0896 61.9184C51.2427 65.2844 48.1021 69.3163 45.9188 73.8359C43.7352 78.3516 42.5156 83.3588 42.5167 88.5999C42.5156 93.841 43.7352 98.8483 45.9188 103.364C49.1962 110.139 54.6172 115.821 61.3639 119.813C68.113 123.801 76.2032 126.109 84.8853 126.109C92.1294 126.109 98.962 124.503 104.946 121.652L103.931 119.305L102.889 121.641C104.844 122.6 106.952 123.365 109.055 123.992C112.207 124.927 115.348 125.55 117.889 125.958C120.429 126.366 122.366 126.557 123.092 126.624H123.104C123.175 126.628 123.242 126.632 123.31 126.632C123.657 126.632 124.023 126.553 124.347 126.402C124.837 126.168 125.22 125.791 125.466 125.371C125.714 124.951 125.845 124.475 125.847 123.972C125.847 123.591 125.767 123.187 125.594 122.814C125.424 122.437 125.158 122.1 124.854 121.859H124.855C122.607 120.047 120.891 117.87 119.629 115.836C118.367 113.807 117.565 111.927 117.13 110.75L114.84 111.682L116.529 113.553C119.836 110.27 122.517 106.448 124.373 102.23C126.229 98.0197 127.255 93.4089 127.254 88.5999C127.255 83.3588 126.036 78.3516 123.852 73.8359C120.574 67.0565 115.153 61.3753 108.407 57.387C101.658 53.3947 93.5675 51.0873 84.8853 51.0873V53.6643Z" fill="#1A1D63"/>
<path d="M76.1224 85.3768L66.5628 89.0519L76.1179 92.6954C76.8567 92.9768 77.3488 93.7142 77.3488 94.5389V94.5666C77.3488 95.9423 76.0385 96.8899 74.8152 96.4022L63.8988 92.0452C62.714 91.5734 61.9309 90.384 61.9309 89.0519C61.9309 87.7238 62.714 86.5305 63.8988 86.0587L74.8152 81.7056C76.0385 81.218 77.3488 82.1655 77.3488 83.5372C77.3488 84.3619 76.859 85.0953 76.1224 85.3768Z" fill="#1A1D63"/>
<path d="M90.4504 72.3334C91.9141 72.3334 92.939 73.8518 92.4553 75.2988L83.2546 102.853C82.9561 103.745 82.1522 104.343 81.2497 104.343C79.786 104.343 78.7607 102.825 79.2448 101.378L88.4455 73.828C88.7436 72.932 89.5479 72.3334 90.4504 72.3334Z" fill="#1A1D63"/>
<path d="M109.446 89.0519C109.446 90.384 108.663 91.5734 107.478 92.0452L96.5614 96.4022C95.3385 96.8899 94.0282 95.9423 94.0282 94.5666V94.5389C94.0282 93.7142 94.5199 92.9768 95.2591 92.6954L104.814 89.0519L95.2542 85.3768C94.518 85.0953 94.0282 84.3619 94.0282 83.5372C94.0282 82.1655 95.3385 81.218 96.5618 81.7056L107.478 86.0587C108.663 86.5305 109.446 87.7238 109.446 89.0519Z" fill="#1A1D63"/>
<path d="M433.293 304.228C434.295 314.219 432.205 321.954 428.138 328.808C423.713 336.27 416.241 341.134 407.953 342.431C395.568 344.373 384.506 344.833 376.377 341.277C366.211 336.833 362.273 324.047 367.545 313.906C373.32 302.801 385.999 296.929 403.788 294.931L406.317 262.236C421.237 269.998 431.041 283.145 433.293 304.228Z" fill="white"/>
<path d="M391.6 343.925C385.856 343.925 380.701 343.172 376.377 341.277C371.018 338.934 367.39 334.276 365.927 328.908C365.927 328.908 365.927 328.908 365.931 328.912C367.39 334.276 371.018 338.934 376.377 341.277C380.704 343.168 385.859 343.925 391.604 343.925C392.923 343.925 394.276 343.886 395.655 343.81C394.272 343.886 392.923 343.925 391.6 343.925Z" fill="#616277"/>
<path d="M395.655 343.81C395.874 343.798 396.09 343.787 396.309 343.771C396.09 343.787 395.874 343.798 395.655 343.81Z" fill="#9697AC"/>
<path d="M396.309 343.771C396.683 343.747 397.061 343.723 397.439 343.695C397.061 343.723 396.683 343.747 396.309 343.771Z" fill="#1A1D63"/>
<path d="M417.949 338.894C422.065 336.508 425.602 333.086 428.138 328.808C429.151 327.1 430.043 325.335 430.795 323.496C430.043 325.335 429.151 327.1 428.138 328.808C425.602 333.086 422.065 336.508 417.949 338.894Z" fill="#5399CC"/>
<path d="M391.604 343.925C385.86 343.925 380.705 343.168 376.377 341.277C371.018 338.934 367.39 334.276 365.931 328.912C372.054 331.072 378.463 332.717 385.44 333.384C387.25 333.558 389.057 333.645 390.852 333.645C406.755 333.645 422.012 326.953 433.104 315.063C432.658 318.061 431.876 320.836 430.806 323.46C430.803 323.472 430.799 323.484 430.795 323.496C430.043 325.335 429.151 327.1 428.138 328.808C425.602 333.086 422.065 336.508 417.949 338.894C414.88 340.67 411.49 341.876 407.953 342.431C404.321 343.002 400.803 343.446 397.439 343.695C397.061 343.723 396.683 343.747 396.309 343.771C396.09 343.787 395.875 343.798 395.655 343.81C394.276 343.886 392.923 343.925 391.604 343.925Z" fill="#BABBD0"/>
<path d="M433.293 304.228L430.474 304.541C430.632 306.111 430.708 307.614 430.708 309.053C430.708 312.645 430.239 315.852 429.393 318.838C428.546 321.815 427.31 324.574 425.731 327.238C423.75 330.577 421.086 333.34 417.968 335.425C414.854 337.507 411.29 338.902 407.534 339.493C401.827 340.389 396.449 340.952 391.604 340.952C388.849 340.952 386.271 340.77 383.906 340.373C381.536 339.981 379.386 339.37 377.466 338.533C374.457 337.213 372.126 335.061 370.516 332.424C368.906 329.792 368.04 326.672 368.04 323.48C368.04 320.733 368.679 317.938 370.032 315.329C371.321 312.859 372.98 310.686 375.036 308.752C378.112 305.854 382.099 303.499 386.971 301.687C391.842 299.875 397.587 298.618 404.091 297.889C405.444 297.738 406.506 296.596 406.615 295.173L409.144 262.477L406.317 262.236L405.058 264.9C408.614 266.751 411.834 268.904 414.703 271.398C419 275.136 422.511 279.628 425.179 285.079C427.843 290.531 429.661 296.957 430.477 304.561L430.474 304.541L433.293 304.228L436.109 303.899C435.527 298.424 434.446 293.421 432.896 288.866C430.572 282.031 427.182 276.207 422.892 271.354C418.607 266.498 413.433 262.616 407.579 259.571C406.736 259.135 405.738 259.163 404.922 259.647C404.106 260.13 403.569 261.015 403.494 261.994L400.965 294.693L403.788 294.931L403.49 291.978C394.374 293.001 386.453 295.019 379.926 298.325C376.665 299.982 373.754 301.968 371.249 304.323C368.747 306.674 366.657 309.402 365.055 312.482C363.241 315.975 362.371 319.765 362.371 323.48C362.371 327.794 363.539 332.02 365.739 335.631C367.938 339.239 371.188 342.232 375.285 344.02C377.696 345.075 380.285 345.793 383.014 346.249C385.742 346.7 388.615 346.899 391.604 346.899C396.865 346.899 402.496 346.296 408.373 345.372C412.904 344.663 417.216 342.978 421.018 340.44C424.812 337.899 428.097 334.502 430.546 330.378C432.352 327.334 433.818 324.075 434.827 320.538C435.833 316.998 436.377 313.188 436.377 309.053C436.377 307.396 436.29 305.683 436.112 303.919L436.109 303.899L433.293 304.228Z" fill="#1A1D63"/>
<path d="M403.773 297.881L410.954 297.484C412.518 297.401 413.72 296.002 413.637 294.36C413.554 292.719 412.22 291.462 410.659 291.546L403.478 291.942C401.914 292.029 400.712 293.429 400.795 295.07C400.878 296.707 402.212 297.968 403.773 297.881Z" fill="#1A1D63"/>
<path d="M392.292 298.749C396.49 302.607 399.635 306.647 401.725 310.861C403.811 315.079 404.873 319.468 404.877 324.206C404.873 329.558 403.501 335.402 400.493 341.816C399.801 343.287 400.379 345.071 401.781 345.797C403.187 346.522 404.888 345.915 405.58 344.441C408.883 337.396 410.546 330.64 410.546 324.206C410.549 318.516 409.238 313.113 406.751 308.113C404.272 303.11 400.64 298.515 396.029 294.277C394.854 293.195 393.063 293.318 392.031 294.551C390.999 295.788 391.116 297.667 392.292 298.749Z" fill="#1A1D63"/>
</svg>
