<svg width="426" height="480" viewBox="0 0 426 480" fill="none" xmlns="http://www.w3.org/2000/svg">
<path d="M340.89 272.47C340.291 265.965 335.719 260.703 329.76 259.71C304.454 255.492 278.944 253.324 253.693 253.19V253.182C253.598 253.182 253.504 253.186 253.409 253.186C253.315 253.186 253.217 253.182 253.122 253.182V253.19C227.871 253.324 202.364 255.492 177.056 259.71C171.097 260.703 166.526 265.965 165.928 272.47C161.514 320.444 161.509 368.46 165.887 416.519C166.5 423.244 171.357 428.611 177.551 429.362C202.67 432.404 228.372 433.896 253.736 433.922V433.937C279.101 433.91 304.28 432.408 329.274 429.366C335.462 428.611 340.317 423.244 340.93 416.523C345.31 368.463 345.302 320.444 340.89 272.47Z" fill="#F0F0F0"/>
<path d="M253.758 421.351C248.482 421.351 243.205 420.499 237.929 418.788C237.962 415.441 237.944 412.119 237.878 408.832H238.536C243.438 410.223 248.347 410.929 253.257 410.944C258.163 410.929 263.072 410.223 267.978 408.832H268.635C268.566 412.227 268.552 415.653 268.588 419.115C263.646 420.603 258.704 421.351 253.758 421.351Z" fill="#9A9CB8"/>
<path d="M330.018 326.7C330.044 325.51 330.065 324.301 330.065 323.081C330.065 320.723 329.986 318.32 329.681 315.892C333.421 315.129 337.146 314.304 340.861 313.43C341.003 316.996 341.123 320.563 341.213 324.13C337.459 325.104 333.541 325.974 330.018 326.7Z" fill="#9A9CB8"/>
<path d="M176.596 326.659C173.126 325.941 169.287 325.082 165.603 324.13C165.696 320.563 165.814 316.997 165.956 313.434C167.404 313.776 168.855 314.111 170.307 314.434C170.328 314.445 170.349 314.456 170.371 314.471C170.517 314.553 170.689 314.65 170.941 314.747C171.131 314.817 171.367 314.899 171.701 314.94C173.59 315.282 175.382 315.624 177.141 315.97C177.128 316.085 177.114 316.201 177.102 316.32C176.724 319.771 176.604 323.23 176.596 326.659Z" fill="#9A9CB8"/>
<path d="M165.928 272.47L168.639 272.73C168.883 270.071 169.939 267.687 171.514 265.879C173.092 264.072 175.163 262.852 177.493 262.461C202.661 258.27 228.03 256.113 253.137 255.979C254.633 255.968 255.846 254.718 255.846 253.189V253.182H253.122L253.104 255.971C253.177 255.971 253.275 255.975 253.398 255.975H253.42C253.54 255.975 253.638 255.971 253.714 255.971L253.693 253.182H250.969V253.189C250.969 254.718 252.186 255.968 253.682 255.979C278.788 256.113 304.156 258.27 329.325 262.461C331.652 262.852 333.726 264.072 335.302 265.879C336.878 267.687 337.934 270.071 338.178 272.73C340.382 296.693 341.482 320.667 341.482 344.649C341.482 368.508 340.393 392.378 338.218 416.262C337.967 419.011 336.852 421.458 335.196 423.281C333.537 425.107 331.365 426.297 328.947 426.591C303.938 429.622 278.338 431.106 253.079 431.132C251.576 431.136 250.359 432.382 250.359 433.921V433.936H253.083L253.086 431.147C227.823 431.121 202.749 429.626 177.866 426.594C175.446 426.297 173.278 425.107 171.619 423.284C169.965 421.458 168.849 419.011 168.599 416.266C166.423 392.381 165.334 368.511 165.334 344.652C165.334 320.667 166.434 296.693 168.639 272.73L165.928 272.47L163.216 272.206C160.996 296.344 159.887 320.492 159.887 344.652C159.887 368.686 160.984 392.731 163.176 416.783C163.538 420.755 165.156 424.352 167.629 427.082C170.098 429.808 173.452 431.675 177.223 432.132C202.323 435.19 227.613 436.7 253.079 436.726C253.809 436.726 254.491 436.435 255.007 435.911C255.523 435.383 255.806 434.68 255.806 433.936V433.921H253.083L253.086 436.711C278.549 436.685 304.356 435.186 329.586 432.132C333.359 431.675 336.714 429.808 339.187 427.078C341.66 424.352 343.28 420.755 343.643 416.779C345.832 392.727 346.929 368.682 346.929 344.649C346.929 320.492 345.822 296.344 343.599 272.206C343.247 268.364 341.718 264.864 339.369 262.164C337.019 259.467 333.827 257.559 330.2 256.957C304.752 252.717 279.101 250.534 253.707 250.396L253.693 253.189H256.416V253.182C256.416 252.438 256.129 251.728 255.614 251.203C255.098 250.679 254.401 250.385 253.674 250.393C253.558 250.393 253.467 250.396 253.398 250.396H253.42C253.351 250.396 253.26 250.393 253.144 250.393C252.414 250.385 251.721 250.679 251.205 251.203C250.69 251.728 250.399 252.438 250.399 253.182V253.189H253.122L253.108 250.396C227.714 250.534 202.067 252.717 176.619 256.957C172.99 257.559 169.797 259.467 167.45 262.164C165.099 264.864 163.57 268.364 163.216 272.206L165.928 272.47Z" fill="#1A1D63"/>
<path d="M383.768 283.177C381.172 281.124 378.576 279.068 375.979 277.015C371.208 272.094 367.907 266.296 366.077 259.616L365.267 253.424C358.484 257.764 351.617 260.643 344.856 262.513C340.93 263.599 337.038 264.343 333.221 264.838L333.112 265.087C279.976 271.945 226.843 271.945 173.706 265.087L173.597 264.838C169.78 264.343 165.888 263.599 161.962 262.513C155.463 260.717 148.867 257.983 142.34 253.922C141.963 257.704 140.906 261.297 139.162 264.697C137.61 269.584 134.956 273.812 131.202 277.387C127.715 281.229 123.586 283.947 118.813 285.539C118.041 285.952 117.258 286.328 116.466 286.666C124.185 293.874 133.277 299.784 144.42 304.34C145.625 304.831 147.11 305.359 148.806 305.909C153.273 307.36 159.217 308.955 165.477 310.454C170.398 311.622 175.511 312.738 180.253 313.679C179.814 315.851 179.538 318.718 179.472 322.605L179.614 347.929C179.345 376.567 181.342 414.5 189.259 444.938C186.88 445.912 184.356 447.31 181.825 449.308C179.803 450.903 178.419 453.217 177.98 455.787C177.312 459.681 177.206 463.571 177.562 467.465C177.973 471.917 181.466 475.409 185.816 475.818C198.733 477.035 211.791 477.001 224.98 475.718C228.702 475.357 231.763 472.571 232.591 468.837C234.686 459.413 236.183 449.39 237.105 438.79C237.864 428.432 238.071 418.408 237.875 408.642C242.998 410.155 248.129 410.925 253.257 410.944C258.384 410.925 263.515 410.155 268.639 408.642C268.443 418.408 268.65 428.432 269.409 438.79C270.331 449.39 271.827 459.413 273.922 468.837C274.75 472.571 277.811 475.357 281.534 475.718C294.722 477.001 307.78 477.035 320.697 475.818C325.047 475.409 328.54 471.917 328.951 467.465C329.307 463.571 329.201 459.681 328.533 455.787C328.094 453.217 326.71 450.903 324.688 449.308C322.157 447.31 319.633 445.912 317.254 444.938C325.171 414.5 327.168 376.567 326.899 347.929L327.346 322.605C327.28 318.718 327.004 315.851 326.565 313.679C331.373 312.727 336.555 311.592 341.537 310.402C347.724 308.922 353.592 307.345 358.012 305.909C359.708 305.359 361.193 304.831 362.398 304.34C373.673 299.728 382.85 293.733 390.628 286.409C388.278 285.573 385.991 284.498 383.768 283.177Z" fill="white"/>
<path d="M309.08 313.943C312.726 309.688 317.588 306.709 322.981 305.437C329.023 304.009 335.672 303.31 340.843 302.599C358.291 300.208 370.837 294.912 380.758 287.819C381.11 287.946 381.462 288.065 381.815 288.176C382.454 288.377 383.093 288.552 383.739 288.708C381.666 290.359 379.531 291.918 377.33 293.405C374.371 295.358 371.288 297.125 368.114 298.709C367.838 298.847 367.558 298.984 367.279 299.118C366.077 299.646 364.864 300.137 363.568 300.635L363.382 300.717C362.518 301.126 361.658 301.521 360.797 301.893C357.609 303.105 354.348 304.143 351.025 305.084C350.586 305.169 350.143 305.244 349.696 305.311C349.362 305.344 349.122 305.422 348.93 305.489C348.712 305.571 348.556 305.649 348.422 305.72C348.327 305.772 348.244 305.82 348.171 305.868C346.94 306.192 345.702 306.512 344.46 306.821C339.151 307.94 334.027 309.138 328.962 310.224C322.774 311.551 316.673 312.719 310.424 313.404C309.919 313.459 309.462 313.653 309.08 313.943Z" fill="#BABBD0"/>
<path d="M197.734 313.943C197.475 313.746 197.177 313.59 196.848 313.493C195.366 313.065 194.011 312.994 192.86 312.954C191.704 312.92 190.742 312.909 189.946 312.771L189.971 312.775C186.925 312.225 184.136 311.67 181.332 311.116C181.152 311.034 180.964 310.975 180.769 310.938C177.975 310.387 175.187 309.803 172.407 309.19C172.377 309.171 172.346 309.153 172.313 309.134C172.167 309.052 171.994 308.955 171.743 308.859C171.555 308.788 171.321 308.706 170.993 308.665C168.931 308.282 166.88 307.869 164.844 307.423C161.188 306.482 157.509 305.366 153.7 304.388C151.612 303.853 149.565 303.228 147.553 302.525C145.926 301.934 144.318 301.309 142.735 300.643C142.459 300.528 142.183 300.409 141.908 300.29C137.81 298.482 133.847 296.325 129.973 293.863C127.519 292.301 125.156 290.59 122.868 288.756C123.584 288.593 124.295 288.399 125.001 288.176C125.356 288.065 125.71 287.946 126.061 287.815C135.982 294.912 148.526 300.208 165.975 302.599C171.144 303.31 177.792 304.009 183.836 305.437C189.229 306.709 194.091 309.684 197.734 313.943Z" fill="#BABBD0"/>
<path d="M252.676 290.33C220.815 290.33 195.173 283.866 176.376 267.81C178.743 268.17 181.104 268.513 183.453 268.855C184.8 269.048 186.15 269.238 187.499 269.42C194.459 272.674 202.066 275.17 210.285 277.004C222.968 279.826 237.119 281.076 252.679 281.076C252.923 281.076 253.166 281.076 253.409 281.076C253.653 281.076 253.896 281.076 254.139 281.076C272.579 281.076 289.039 279.324 303.426 275.267C309.189 273.641 314.622 271.644 319.705 269.238C323.213 268.829 326.739 268.423 330.265 267.936C311.481 283.899 285.887 290.33 254.117 290.33C253.878 290.33 253.638 290.33 253.395 290.326C253.155 290.33 252.912 290.33 252.676 290.33Z" fill="#BABBD0"/>
<path d="M184.077 394.037C184.028 394.037 183.978 393.921 183.925 393.694C183.23 385.215 182.772 376.709 182.553 368.203C182.541 367.771 182.531 367.34 182.521 366.909C182.976 366.964 183.429 367.02 183.884 367.072C183.496 375.731 183.561 384.835 184.079 394.037C184.079 394.037 184.078 394.037 184.077 394.037ZM184.471 358.016C183.777 357.93 183.083 357.849 182.388 357.763C182.368 355.174 182.358 352.578 182.349 349.979C183.327 350.098 184.304 350.217 185.282 350.328C184.966 352.824 184.696 355.39 184.471 358.016ZM185.957 345.542C184.748 345.4 183.542 345.255 182.332 345.11C182.329 344.162 182.324 343.213 182.318 342.265C182.287 337.136 182.042 332.015 182.043 327.005C182.043 323.617 182.154 320.281 182.505 317.03C184.595 317.443 186.733 317.856 189.025 318.269L189.051 318.272C190.433 318.507 191.65 318.495 192.689 318.533C193.734 318.562 194.591 318.637 195.356 318.86C195.605 318.934 195.856 318.968 196.103 318.968C196.442 318.968 196.774 318.901 197.082 318.782C196.954 319.091 196.734 319.373 196.415 319.589L196.349 319.634C193.764 321.393 191.742 323.862 190.419 326.711C188.542 332.138 187.055 338.512 185.957 345.542Z" fill="#BABBD0"/>
<path d="M323.108 384.664C323.246 378.669 323.188 372.774 322.934 367.068C323.246 367.031 323.562 366.994 323.874 366.957C323.696 372.87 323.453 378.777 323.108 384.664ZM322.345 358.008C322.12 355.386 321.851 352.824 321.536 350.328C322.44 350.22 323.34 350.116 324.245 350.005C324.205 352.604 324.161 355.2 324.107 357.8C323.518 357.871 322.934 357.941 322.345 358.008ZM320.86 345.538C319.76 338.508 318.275 332.137 316.397 326.711C315.076 323.862 313.053 321.393 310.467 319.633L310.402 319.589C310.083 319.373 309.865 319.09 309.738 318.782C310.039 318.901 310.369 318.968 310.711 318.968C310.809 318.968 310.907 318.96 311.005 318.949C315.533 318.454 319.941 317.722 324.31 316.87C324.546 318.878 324.622 320.954 324.619 323.081C324.619 325.447 324.528 327.872 324.484 330.326V330.341C324.426 335.265 324.379 340.197 324.313 345.129C323.162 345.27 322.011 345.404 320.86 345.538Z" fill="#BABBD0"/>
<path d="M253.362 409.01C240.228 409.007 227.231 403.926 214.377 393.925C214.083 393.694 214.275 393.241 214.606 393.241C214.638 393.241 214.675 393.244 214.711 393.256C231.004 397.845 243.347 400.181 255.254 400.181C266.899 400.181 278.127 397.949 292.228 393.412C292.268 393.397 292.307 393.393 292.347 393.393C292.674 393.393 292.867 393.851 292.565 394.078C279.358 404.086 266.293 409.01 253.362 409.01Z" fill="#BABBD0"/>
<path d="M268.904 418.595L268.973 408.638C268.973 408.638 281.915 404.555 295.351 396.744C295.351 396.744 290.027 411.435 268.904 418.595Z" fill="#BABBD0"/>
<path d="M237.911 418.595C216.788 411.435 211.467 396.744 211.467 396.744C224.904 404.555 237.846 408.638 237.846 408.638L237.911 418.595Z" fill="#BABBD0"/>
<path d="M329.27 461.492C329.223 461.488 329.172 461.485 329.121 461.481C329.114 461.321 329.107 461.161 329.1 461.001C329.147 460.957 329.198 460.908 329.245 460.864C329.256 461.072 329.263 461.284 329.27 461.492Z" fill="#5398CA"/>
<path d="M304.026 476.696C309.607 476.633 315.166 476.343 320.697 475.819C325.047 475.409 328.54 471.917 328.951 467.465C329.132 465.472 329.194 463.474 329.121 461.481C329.172 461.485 329.223 461.488 329.27 461.492C329.346 463.486 329.281 465.472 329.103 467.465C328.693 471.917 325.2 475.409 320.849 475.819C315.268 476.343 309.658 476.637 304.026 476.696Z" fill="#4273AB"/>
<path d="M301.894 476.708C295.194 476.708 288.458 476.377 281.686 475.718C277.964 475.357 274.903 472.568 274.075 468.834C271.98 459.413 270.484 449.386 269.561 438.79C269.067 432.017 268.806 425.386 268.741 418.877L268.835 418.933C271.787 435.104 275.026 450.684 280.786 461.105C282.191 463.646 285.626 466.063 288.455 466.446C293.346 467.108 298.248 467.488 303.263 467.488C308.176 467.488 313.195 467.123 318.416 466.316C321.837 465.784 325.087 464.375 327.789 462.162C328.243 461.79 328.678 461.403 329.1 461.001C329.107 461.161 329.114 461.321 329.121 461.481C329.194 463.475 329.132 465.472 328.951 467.465C328.54 471.917 325.047 475.41 320.697 475.819C315.166 476.343 309.607 476.633 304.026 476.696C303.318 476.704 302.606 476.708 301.894 476.708Z" fill="#BABBD0"/>
<path d="M234.509 459.093C235.631 452.585 236.491 445.812 237.105 438.79C237.159 438.031 237.214 437.273 237.261 436.518C237.312 436.518 237.363 436.521 237.414 436.521C237.363 437.276 237.312 438.031 237.257 438.79C236.644 445.812 235.783 452.581 234.661 459.093C234.61 459.093 234.556 459.093 234.509 459.093Z" fill="#5398CA"/>
<path d="M207.066 476.696C213.011 476.629 218.981 476.302 224.98 475.718C228.702 475.357 231.763 472.572 232.591 468.838C233.296 465.658 233.935 462.411 234.509 459.093C234.556 459.093 234.61 459.093 234.661 459.093C234.087 462.407 233.448 465.654 232.744 468.834C231.916 472.568 228.855 475.357 225.133 475.718C219.083 476.306 213.062 476.633 207.066 476.696Z" fill="#4273AB"/>
<path d="M237.73 430.95C237.682 430.946 237.628 430.946 237.577 430.946C237.766 427.007 237.878 423.113 237.922 419.264C237.944 419.152 237.962 419.044 237.984 418.933L238.078 418.877C238.038 422.853 237.926 426.877 237.73 430.95Z" fill="#AFB0C5"/>
<path d="M237.414 436.521C237.363 436.521 237.312 436.517 237.261 436.517C237.385 434.65 237.49 432.791 237.577 430.946C237.628 430.946 237.682 430.946 237.729 430.95C237.642 432.794 237.537 434.654 237.414 436.521Z" fill="#1A1D63"/>
<path d="M204.922 476.708C198.572 476.708 192.253 476.41 185.969 475.819C181.618 475.41 178.125 471.917 177.715 467.465C177.515 465.263 177.461 463.065 177.573 460.864C178.042 461.314 178.525 461.749 179.029 462.162C181.731 464.375 184.981 465.784 188.402 466.316C193.622 467.123 198.641 467.488 203.555 467.488C208.569 467.488 213.473 467.108 218.364 466.446C221.193 466.063 224.628 463.646 226.033 461.105C231.752 450.755 234.988 435.316 237.922 419.264C237.878 423.114 237.766 427.008 237.577 430.946C237.49 432.791 237.385 434.651 237.261 436.518C237.214 437.273 237.159 438.031 237.105 438.79C236.491 445.812 235.631 452.585 234.509 459.093C233.935 462.411 233.296 465.658 232.591 468.838C231.763 472.572 228.702 475.357 224.98 475.718C218.981 476.302 213.011 476.629 207.066 476.696C206.351 476.704 205.637 476.708 204.922 476.708Z" fill="#BABBD0"/>
<path d="M114.978 289.061C122.534 296.518 131.296 301.863 140.666 305.802C150.04 309.744 160.027 312.292 170.128 314.174C170.287 314.203 170.455 314.222 170.616 314.222V311.897L169.847 314.088C169.983 314.133 170.206 314.215 170.616 314.222V311.897L169.847 314.088L170.363 312.619L169.649 313.999C169.675 314.014 169.729 314.043 169.847 314.088L170.363 312.619L169.649 313.999L169.885 313.545L169.633 313.991L169.649 313.999L169.885 313.545L169.633 313.991C169.633 313.991 169.689 314.025 169.772 314.084C169.903 314.17 170.086 314.304 170.371 314.471C170.517 314.553 170.689 314.65 170.941 314.746C171.194 314.839 171.529 314.958 172.068 314.962V312.176L171.595 314.921C177.71 316.026 182.793 317.142 189.025 318.269L189.051 318.272C190.433 318.507 191.65 318.495 192.689 318.533C193.734 318.562 194.591 318.637 195.356 318.86C196.803 319.28 198.309 318.425 198.721 316.941C199.133 315.461 198.294 313.917 196.848 313.493C195.366 313.065 194.011 312.995 192.86 312.954C191.704 312.92 190.742 312.909 189.946 312.771L189.971 312.775C183.857 311.671 178.773 310.555 172.541 309.428C172.383 309.398 172.229 309.383 172.068 309.383V311.708L172.837 309.517C172.701 309.473 172.478 309.391 172.068 309.383V311.708L172.837 309.517L172.321 310.986L173.034 309.606C173.009 309.592 172.955 309.562 172.837 309.517L172.321 310.986L173.034 309.606L172.799 310.06L173.051 309.614L173.034 309.606L172.799 310.06L173.051 309.614C173.05 309.614 172.995 309.58 172.911 309.521C172.781 309.435 172.598 309.301 172.313 309.134C172.167 309.052 171.994 308.956 171.743 308.859C171.49 308.766 171.155 308.647 170.616 308.639V311.429L171.103 308.688C161.232 306.85 151.611 304.377 142.735 300.643C133.857 296.909 125.732 291.925 118.757 285.045C117.674 283.974 115.95 284.007 114.907 285.115C113.863 286.227 113.895 287.994 114.978 289.061Z" fill="#1A1D63"/>
<path d="M174.032 262.086C168.792 261.219 163.54 260.148 158.526 258.56C153.51 256.972 148.738 254.87 144.418 251.954C143.162 251.107 141.473 251.464 140.645 252.747C139.817 254.034 140.165 255.763 141.421 256.611C146.278 259.891 151.541 262.186 156.917 263.889C162.296 265.593 167.794 266.701 173.161 267.594C174.646 267.839 176.045 266.805 176.285 265.284C176.526 263.763 175.516 262.331 174.032 262.086Z" fill="#1A1D63"/>
<path d="M388.405 284.725C383.213 289.486 377.563 293.469 371.495 297.125L372.878 299.531L371.658 297.036C368.837 298.479 366.404 299.546 363.568 300.636L363.382 300.718C361.077 301.807 358.803 302.789 356.523 303.581C354.242 304.377 351.958 304.98 349.616 305.322L350.001 308.085V305.296C349.5 305.3 349.173 305.404 348.93 305.489C348.712 305.571 348.556 305.649 348.422 305.72C348.193 305.846 348.033 305.954 347.899 306.044C347.706 306.174 347.572 306.263 347.565 306.267L348.153 307.304L347.724 306.192C347.597 306.244 347.565 306.267 347.565 306.267L348.153 307.304L347.724 306.192L348.476 308.141L348.008 306.099C347.877 306.133 347.79 306.166 347.724 306.192L348.476 308.141L348.008 306.099L348.549 308.454V306.036C348.313 306.04 348.138 306.07 348.008 306.099L348.549 308.454V306.036C348.385 306.036 348.186 306.058 348.029 306.088C341.431 307.405 335.149 308.896 328.962 310.224C322.774 311.552 316.673 312.72 310.424 313.404C308.931 313.568 307.846 314.944 308.005 316.472C308.165 318.005 309.509 319.113 311.005 318.949C317.534 318.235 323.816 317.03 330.08 315.684C336.344 314.337 342.593 312.854 349.068 311.567L348.549 308.826V311.619C349.05 311.611 349.373 311.507 349.62 311.422C349.834 311.34 349.99 311.262 350.125 311.191C350.357 311.065 350.517 310.957 350.648 310.867C350.84 310.737 350.974 310.648 350.982 310.644L350.393 309.607L350.822 310.719C350.949 310.667 350.982 310.644 350.982 310.644L350.393 309.607L350.822 310.719L350.07 308.77L350.539 310.812C350.669 310.778 350.76 310.745 350.822 310.719L350.07 308.77L350.539 310.812L350.001 308.457V310.871C350.234 310.871 350.408 310.841 350.539 310.812L350.001 308.457V310.871C350.114 310.871 350.273 310.86 350.386 310.845C353.124 310.443 355.742 309.744 358.273 308.866C360.808 307.985 363.255 306.921 365.666 305.78L364.526 303.25L365.481 305.861C368.455 304.72 371.11 303.555 374.095 302.023L374.258 301.934C380.54 298.148 386.506 293.952 392.037 288.879C393.159 287.849 393.253 286.086 392.251 284.941C391.245 283.791 389.524 283.695 388.405 284.725Z" fill="#1A1D63"/>
<path d="M333.544 267.609C345.31 266.169 356.185 261.929 366.135 256.153C367.446 255.395 367.903 253.695 367.163 252.352C366.422 251.013 364.759 250.541 363.451 251.3C353.981 256.793 343.799 260.735 332.898 262.071C331.405 262.253 330.338 263.64 330.516 265.169C330.694 266.697 332.048 267.791 333.544 267.609Z" fill="#1A1D63"/>
<path d="M203.145 443.048C203.145 443.048 196.954 441.78 189.259 444.938C186.881 445.912 184.357 447.31 181.826 449.304C179.803 450.9 178.42 453.213 177.981 455.787C177.312 459.681 177.207 463.571 177.563 467.465C177.973 471.917 181.467 475.409 185.817 475.818C198.733 477.035 211.791 477.001 224.98 475.718C228.702 475.357 231.763 472.568 232.591 468.834C234.686 459.413 236.183 449.386 237.105 438.79C237.864 428.428 238.071 418.408 237.875 408.638C243.06 410.174 248.249 410.944 253.438 410.944H253.075C258.264 410.944 263.453 410.174 268.639 408.638C268.443 418.408 268.65 428.428 269.409 438.79C270.331 449.386 271.827 459.413 273.922 468.834C274.75 472.568 277.811 475.357 281.534 475.718C294.722 477.001 307.78 477.035 320.697 475.818C325.047 475.409 328.54 471.917 328.951 467.465C329.307 463.571 329.201 459.681 328.533 455.787C328.094 453.213 326.71 450.9 324.688 449.304C322.157 447.31 319.633 445.912 317.254 444.938C309.56 441.78 303.368 443.048 303.368 443.048" stroke="#1A1D63" stroke-width="5" stroke-miterlimit="10" stroke-linecap="round" stroke-linejoin="round"/>
<path d="M388.315 284.803C382.283 290.397 375.453 295.049 368.114 298.709C360.122 302.7 351.505 305.106 342.604 307.278C337.114 308.621 331.591 309.845 326.049 310.938C325.334 311.079 324.702 311.507 324.299 312.128C323.896 312.749 323.751 313.512 323.896 314.241C324.466 317.052 324.622 320.013 324.619 323.081C324.619 325.447 324.528 327.872 324.484 330.326V330.341C324.263 349.518 324.147 368.817 322.912 387.904C321.674 406.994 319.313 425.873 314.618 444.231C314.237 445.723 315.108 447.248 316.564 447.638C318.021 448.025 319.506 447.136 319.887 445.645C324.702 426.822 327.091 407.586 328.344 388.272C329.597 368.958 329.706 349.562 329.931 330.408V330.427C329.971 328.05 330.065 325.592 330.065 323.081C330.065 319.827 329.909 316.483 329.23 313.114L326.565 313.675L327.081 316.416C332.702 315.308 338.301 314.066 343.868 312.705C352.87 310.503 361.894 308.015 370.5 303.723C378.274 299.847 385.537 294.908 391.971 288.939C393.086 287.905 393.17 286.142 392.16 285C391.151 283.858 389.429 283.773 388.315 284.807V284.803Z" fill="#1A1D63"/>
<path d="M141.431 256.534C147.157 260.123 153.606 263.407 160.484 264.928C168.113 266.613 175.846 267.754 183.453 268.855C198.572 271.038 213.792 272.437 229.044 273.091C236.074 273.396 243.111 273.542 250.148 273.542C258.206 273.542 266.264 273.352 274.311 272.987C289.49 272.299 304.625 270.998 319.698 269.238C326.761 268.413 333.886 267.609 340.93 266.114C347.971 264.623 354.94 262.432 361.621 258.821C363.194 257.969 364.737 257.058 366.244 256.087C367.518 255.269 367.9 253.547 367.101 252.242C366.302 250.936 364.621 250.542 363.346 251.364C361.955 252.256 360.528 253.101 359.076 253.885C352.979 257.184 346.537 259.23 339.826 260.651C333.119 262.075 326.155 262.871 319.081 263.697C304.116 265.441 289.105 266.732 274.071 267.412C266.101 267.773 258.123 267.963 250.148 267.963C243.187 267.963 236.226 267.818 229.272 267.52C214.195 266.869 199.151 265.489 184.214 263.332C176.62 262.235 169.015 261.104 161.632 259.475C155.662 258.163 149.698 255.183 144.275 251.777C142.993 250.973 141.316 251.386 140.531 252.699C139.745 254.012 140.148 255.73 141.431 256.534Z" fill="#1A1D63"/>
<path d="M191.891 444.22C189.778 436.09 188.167 427.807 186.895 419.457C185.607 410.996 184.649 402.475 183.944 393.929C183.238 385.371 182.775 376.787 182.553 368.203C182.33 359.597 182.37 350.949 182.318 342.265C182.287 337.136 182.042 332.015 182.043 327.005C182.043 323.587 182.156 320.221 182.515 316.941C182.616 316.011 182.746 315.107 182.921 314.241C183.067 313.508 182.922 312.749 182.518 312.128C182.114 311.507 181.484 311.079 180.769 310.938C176.136 310.023 171.519 309.026 166.926 307.937C162.58 306.91 158.232 305.553 153.7 304.388C145.244 302.22 137.443 298.612 129.973 293.863C125.945 291.3 122.164 288.333 118.554 285.089C117.422 284.074 115.702 284.193 114.71 285.35C113.719 286.51 113.832 288.273 114.963 289.288C118.751 292.688 122.767 295.845 127.098 298.601C134.962 303.604 143.302 307.475 152.376 309.8C156.732 310.916 161.111 312.284 165.698 313.374C170.361 314.479 175.042 315.487 179.737 316.416L180.253 313.675L177.585 313.114C177.368 314.196 177.217 315.267 177.102 316.32C176.711 319.89 176.596 323.461 176.596 327.005C176.597 332.201 176.843 337.333 176.872 342.298C176.923 350.942 176.882 359.626 177.108 368.352C177.332 377.043 177.802 385.732 178.517 394.397C179.231 403.059 180.203 411.71 181.513 420.317C182.809 428.822 184.455 437.295 186.627 445.656C187.014 447.143 188.506 448.029 189.96 447.634C191.413 447.236 192.278 445.708 191.891 444.22Z" fill="#1A1D63"/>
<path d="M213.858 395.747C240.224 415.511 266.591 415.511 292.957 395.747" stroke="#1A1D63" stroke-width="5" stroke-miterlimit="10" stroke-linecap="round" stroke-linejoin="round"/>
<path d="M184.589 421.351C201.485 425.42 219.33 426.729 237.984 424.177" stroke="#1A1D63" stroke-width="5" stroke-miterlimit="10" stroke-linecap="round" stroke-linejoin="round"/>
<path d="M268.835 424.181C287.489 426.729 305.337 425.42 322.229 421.351" stroke="#1A1D63" stroke-width="5" stroke-miterlimit="10" stroke-linecap="round" stroke-linejoin="round"/>
<path d="M219.58 370.23C207.677 369.542 195.781 368.489 183.884 367.072C183.948 365.652 184.024 364.238 184.113 362.84C195.727 364.212 207.347 365.239 218.967 365.919C219.083 366.942 219.225 367.965 219.388 368.988C219.446 369.401 219.511 369.817 219.58 370.23Z" fill="#BABBD0"/>
<path d="M183.884 367.072C183.429 367.02 182.976 366.964 182.521 366.909C182.488 365.488 182.463 364.063 182.442 362.639C182.999 362.706 183.555 362.773 184.113 362.84C184.024 364.238 183.948 365.652 183.884 367.072Z" fill="#8A8BAF"/>
<path d="M182.521 366.909C181.608 366.797 180.694 366.686 179.781 366.57C179.734 365.142 179.696 363.718 179.664 362.297C180.591 362.412 181.515 362.527 182.442 362.639C182.463 364.063 182.488 365.488 182.521 366.909Z" fill="#1A1D63"/>
<path d="M287.329 370.215C287.543 368.783 287.725 367.347 287.87 365.912C299.479 365.231 311.092 364.205 322.705 362.836C322.792 364.234 322.868 365.644 322.934 367.068C311.063 368.478 299.196 369.527 287.329 370.215Z" fill="#BABBD0"/>
<path d="M322.934 367.068C322.868 365.644 322.792 364.234 322.705 362.836C323.133 362.784 323.562 362.732 323.994 362.68C323.958 364.108 323.918 365.532 323.874 366.957C323.562 366.994 323.246 367.031 322.934 367.068Z" fill="#8A8BAF"/>
<path d="M323.874 366.957C323.918 365.533 323.958 364.108 323.994 362.68C325.047 362.553 326.1 362.423 327.153 362.293C327.12 363.714 327.084 365.138 327.037 366.567C325.984 366.7 324.927 366.831 323.874 366.957Z" fill="#1A1D63"/>
<path d="M253.54 384.657C244.669 384.657 235.78 383.98 226.868 382.622C224.726 382.295 221.563 380.618 221.156 378.442C220.815 376.612 220.445 374.786 220.092 372.956C220.477 374.347 221.218 375.582 222.202 376.545C223.342 377.665 224.824 378.438 226.465 378.687C235.507 380.063 244.535 380.752 253.54 380.752C262.538 380.752 271.519 380.067 280.473 378.699C282.144 378.446 283.647 377.646 284.791 376.493C285.615 375.664 286.262 374.645 286.668 373.51C286.37 375.121 286.069 376.731 285.797 378.341C285.423 380.566 282.249 382.302 280.07 382.633C271.246 383.98 262.4 384.657 253.54 384.657Z" fill="#BABBD0"/>
<path d="M219.388 368.987C219.225 367.965 219.083 366.942 218.967 365.919C218.974 365.919 218.981 365.919 218.989 365.923C219.105 366.945 219.235 367.965 219.388 368.987Z" fill="#8A8BAF"/>
<path d="M327.251 347.2L324.891 347.197C324.887 351.366 324.815 355.565 324.677 359.79L327.037 359.872L326.75 357.473C302.268 360.553 277.797 362.092 253.337 362.092C228.906 362.092 204.483 360.556 180.069 357.477L179.781 359.876L182.14 359.794C182.003 355.565 181.931 351.366 181.927 347.197L179.567 347.2L179.277 349.599C203.957 352.724 228.648 354.282 253.348 354.282C278.069 354.282 302.802 352.72 327.538 349.599L327.251 347.2L324.891 347.197L327.251 347.2L326.961 344.802C302.413 347.9 277.877 349.447 253.348 349.447C228.844 349.447 204.345 347.9 179.856 344.802C179.187 344.716 178.508 344.932 178.003 345.389C177.497 345.847 177.206 346.512 177.206 347.204C177.21 351.426 177.283 355.677 177.422 359.957C177.46 361.144 178.34 362.129 179.492 362.274C204.096 365.376 228.713 366.927 253.337 366.927C277.989 366.927 302.653 365.373 327.324 362.271C328.475 362.126 329.357 361.14 329.394 359.954C329.535 355.677 329.608 351.426 329.612 347.204C329.612 346.512 329.321 345.847 328.816 345.389C328.312 344.932 327.633 344.716 326.961 344.802L327.251 347.2Z" fill="#1A1D63"/>
<path d="M280.07 375.939C262.415 378.636 244.683 378.643 226.865 375.928C224.726 375.601 223.012 373.923 222.609 371.744C220.764 361.825 220.706 351.906 222.438 341.986C222.889 339.39 225.151 337.538 227.718 337.672C244.88 338.58 262.045 338.58 279.206 337.676C281.784 337.542 284.072 339.405 284.489 342.016C286.065 351.894 286.018 361.769 284.344 371.647C283.967 373.871 282.249 375.608 280.07 375.939Z" fill="white"/>
<path d="M280.07 375.939L279.667 373.183C270.977 374.507 262.266 375.173 253.54 375.173C244.803 375.173 236.048 374.507 227.268 373.168C226.767 373.094 226.324 372.859 225.971 372.517C225.623 372.171 225.38 371.729 225.285 371.223C224.363 366.273 223.905 361.33 223.905 356.387C223.905 351.753 224.308 347.119 225.118 342.477C225.223 341.882 225.518 341.387 225.939 341.023C226.36 340.662 226.883 340.454 227.453 340.454C227.497 340.454 227.537 340.454 227.576 340.457C236.215 340.915 244.858 341.142 253.497 341.142C262.114 341.142 270.727 340.915 279.344 340.461C279.387 340.461 279.427 340.457 279.471 340.457C280.045 340.457 280.579 340.669 281.003 341.03C281.421 341.398 281.708 341.886 281.802 342.466C282.543 347.115 282.913 351.756 282.913 356.398C282.913 361.319 282.496 366.239 281.661 371.171C281.57 371.695 281.327 372.156 280.974 372.513C280.622 372.867 280.175 373.105 279.671 373.183L280.07 375.939L280.47 378.698C282.144 378.446 283.647 377.646 284.791 376.493C285.938 375.34 286.741 373.819 287.028 372.123C287.914 366.886 288.36 361.642 288.36 356.398C288.36 351.451 287.965 346.509 287.177 341.566C286.868 339.628 285.88 337.943 284.508 336.764C283.139 335.581 281.363 334.879 279.471 334.879C279.337 334.879 279.199 334.882 279.064 334.89C270.542 335.34 262.019 335.563 253.497 335.563C244.949 335.563 236.404 335.336 227.86 334.886C227.722 334.879 227.587 334.875 227.453 334.875C225.565 334.875 223.8 335.574 222.438 336.749C221.073 337.921 220.089 339.583 219.758 341.495C218.89 346.453 218.458 351.422 218.458 356.387C218.458 361.683 218.949 366.979 219.933 372.268C220.245 373.938 221.058 375.422 222.202 376.545C223.342 377.665 224.824 378.438 226.465 378.687C235.507 380.063 244.535 380.751 253.54 380.751C262.538 380.751 271.518 380.067 280.473 378.698L280.07 375.939Z" fill="#1A1D63"/>
<path d="M250.323 357.692C250.323 363.137 246.012 367.548 240.7 367.548C235.384 367.548 231.077 363.137 231.077 357.692C231.077 352.251 235.384 347.836 240.7 347.836C246.012 347.836 250.323 352.251 250.323 357.692Z" fill="#6CCDF7"/>
<path d="M240.7 367.548C236.785 367.548 233.419 365.157 231.916 361.72C233.419 365.157 236.785 367.548 240.7 367.548C244.364 367.548 247.548 365.451 249.175 362.364C247.548 365.451 244.364 367.548 240.7 367.548ZM231.912 361.72C231.912 361.713 231.909 361.709 231.905 361.702C231.909 361.709 231.912 361.713 231.912 361.72Z" fill="#A3A5C1"/>
<path d="M240.7 367.548C236.785 367.548 233.419 365.157 231.916 361.72C231.916 361.72 231.916 361.72 231.912 361.72C231.912 361.713 231.909 361.709 231.905 361.702C231.574 360.943 231.335 360.132 231.204 359.284C232.94 361.032 235.318 362.107 237.947 362.107C243.26 362.107 247.57 357.696 247.57 352.251C247.57 351.712 247.527 351.184 247.447 350.667C249.222 352.456 250.323 354.94 250.323 357.692C250.323 359.385 249.905 360.973 249.175 362.364C247.548 365.451 244.364 367.548 240.7 367.548Z" fill="#4B87BC"/>
<path d="M250.323 357.692C250.323 363.137 246.012 367.548 240.7 367.548C235.384 367.548 231.077 363.137 231.077 357.692C231.077 352.251 235.384 347.836 240.7 347.836C246.012 347.836 250.323 352.251 250.323 357.692Z" stroke="#1A1D63" stroke-width="5" stroke-miterlimit="10" stroke-linecap="round" stroke-linejoin="round"/>
<path d="M275.03 350.488C274.656 350.124 274.158 349.938 273.646 349.96C269.34 350.161 264.971 350.284 260.665 350.324C259.641 350.332 258.809 351.195 258.809 352.24V353.999C258.809 354.52 259.005 355.003 259.368 355.368C259.72 355.725 260.185 355.922 260.683 355.922H260.712C265.018 355.855 271.301 355.632 273.803 355.539C274.812 355.502 275.607 354.657 275.607 353.62V351.875C275.607 351.347 275.4 350.856 275.03 350.488Z" fill="#1A1D63"/>
<path d="M273.646 360.374C269.34 360.575 264.971 360.698 260.665 360.739C259.641 360.746 258.809 361.609 258.809 362.654V364.413C258.809 364.934 259.005 365.417 259.368 365.782C259.72 366.139 260.185 366.336 260.683 366.336H260.712C265.018 366.269 271.301 366.046 273.803 365.953C274.812 365.916 275.607 365.071 275.607 364.034V362.289C275.607 361.761 275.4 361.27 275.03 360.902C274.656 360.538 274.158 360.348 273.646 360.374Z" fill="#1A1D63"/>
<path d="M253.409 46.2071C190.337 46.2071 139.34 98.5775 139.205 163.177C139.024 250.578 179.694 278.473 253.409 278.287C327.124 278.473 367.794 250.578 367.613 163.177C367.478 98.5775 316.481 46.2071 253.409 46.2071Z" fill="white"/>
<path d="M282.213 49.9638L282.899 47.2636C273.479 44.7532 263.595 43.4179 253.409 43.4179C243.224 43.4179 233.339 44.7532 223.92 47.2636C222.845 47.55 222.05 48.4724 221.904 49.5993L217.663 82.5182C217.543 83.4517 217.892 84.3815 218.589 84.9989C219.283 85.6125 220.234 85.8245 221.12 85.5642C231.912 82.3768 242.672 80.7404 253.431 80.6474L253.409 77.858L253.384 80.6474C264.143 80.7404 274.906 82.3768 285.699 85.5642C286.581 85.8245 287.532 85.6125 288.23 84.9989C288.927 84.3815 289.272 83.4517 289.152 82.5182L284.911 49.5993C284.765 48.4724 283.97 47.55 282.899 47.2636L282.213 49.9638L279.511 50.3283L283.752 83.2471L286.454 82.8826L287.209 80.2011C275.967 76.8798 264.699 75.1652 253.431 75.0685H253.384C242.116 75.1652 230.852 76.8798 219.609 80.2011L220.365 82.8826L223.063 83.2471L227.304 50.3283L224.606 49.9638L225.292 52.664C234.269 50.2725 243.688 48.9968 253.409 48.9968C263.13 48.9968 272.55 50.2725 281.526 52.664L282.213 49.9638L279.511 50.3283L282.213 49.9638Z" fill="#1A1D63"/>
<path d="M253.409 77.8579L253.384 75.0684C242.116 75.1651 230.852 76.8797 219.609 80.201C218.89 80.413 218.291 80.9151 217.946 81.5957C217.601 82.2763 217.543 83.0648 217.787 83.79L221.204 93.9844C221.665 95.3643 223.088 96.1453 224.464 95.7808C234.135 93.2108 243.783 91.8905 253.431 91.8087L253.409 89.0193L253.388 91.8087C263.036 91.8905 272.68 93.2108 282.351 95.7808C283.727 96.1453 285.15 95.3643 285.611 93.9844L289.028 83.7863C289.272 83.0648 289.214 82.2763 288.869 81.5957C288.524 80.9151 287.928 80.413 287.209 80.201C275.967 76.8797 264.699 75.1651 253.431 75.0684H253.384L253.409 77.8579L253.384 80.6473C264.143 80.7402 274.906 82.3767 285.699 85.5641L286.454 82.8825L283.876 81.9788L280.459 92.1769L283.037 93.0807L283.72 90.3805C273.636 87.6989 263.537 86.3117 253.431 86.2298H253.388C243.282 86.3117 233.18 87.6989 223.095 90.3805L223.782 93.0807L226.356 92.1769L222.939 81.9788L220.365 82.8825L221.12 85.5641C231.912 82.3767 242.672 80.7402 253.431 80.6473L253.409 77.8579L253.384 80.6473L253.409 77.8579Z" fill="#1A1D63"/>
<path d="M253.409 46.2072V43.4178C221.127 43.4178 191.913 56.8293 170.779 78.4975C149.641 100.158 136.549 130.113 136.482 163.169C136.481 163.367 136.481 163.564 136.481 163.757C136.482 185.641 139.026 203.932 144.079 219.114C147.868 230.495 153.079 240.124 159.669 248.128C164.609 254.13 170.319 259.207 176.742 263.432C186.379 269.77 197.604 274.177 210.285 277.004C222.968 279.827 237.119 281.076 252.679 281.076C252.923 281.076 253.17 281.076 253.413 281.076H253.402C253.649 281.076 253.892 281.076 254.139 281.076C272.579 281.076 289.039 279.324 303.426 275.267C314.215 272.224 323.834 267.88 332.19 261.993C338.454 257.578 343.999 252.297 348.767 246.093C355.924 236.78 361.323 225.403 364.922 211.768C368.524 198.126 370.336 182.223 370.336 163.757C370.336 163.564 370.336 163.366 370.336 163.173V163.169C370.267 130.113 357.177 100.158 336.039 78.4975C314.905 56.8293 285.688 43.4178 253.409 43.4178V46.2072V48.9966C284.199 48.9966 312.018 61.7722 332.186 82.4399C352.347 103.111 364.82 131.642 364.889 163.184V163.181C364.889 163.374 364.889 163.567 364.889 163.757C364.889 185.202 362.387 202.894 357.583 217.31C353.981 228.129 349.093 237.108 342.986 244.531C338.399 250.099 333.119 254.8 327.131 258.739C318.151 264.641 307.562 268.836 295.372 271.551C283.189 274.266 269.412 275.497 254.139 275.497C253.896 275.497 253.656 275.497 253.417 275.497H253.402C253.159 275.497 252.919 275.497 252.679 275.497C234.574 275.501 218.578 273.768 204.836 269.889C194.527 266.98 185.488 262.874 177.715 257.396C171.885 253.286 166.761 248.407 162.331 242.642C155.689 233.998 150.596 223.35 147.152 210.311C143.709 197.275 141.927 181.851 141.928 163.757C141.928 163.567 141.928 163.374 141.929 163.184C141.995 131.642 154.47 103.111 174.632 82.4399C194.798 61.7722 222.616 48.9966 253.409 48.9966V46.2072Z" fill="#1A1D63"/>
<path d="M367.613 163.177C367.642 177.656 366.549 190.498 364.374 201.853C361.737 215.607 351.962 226.761 338.98 231.187C281.933 250.634 224.886 250.634 167.84 231.187C154.711 226.712 144.986 215.339 142.361 201.422C140.239 190.175 139.176 177.47 139.205 163.177C139.205 163.117 139.205 163.054 139.205 162.995C139.241 152.023 143.997 141.62 152.09 134.435C219.522 74.5589 286.951 73.882 354.377 132.393C362.522 139.459 367.337 149.765 367.58 160.696C367.602 161.522 367.609 162.347 367.613 163.177Z" fill="#080A28"/>
<path d="M155.291 190.327C153.975 190.327 152.662 189.594 151.626 187.463C149.495 183.078 149.542 177.931 149.554 172.917V172.709C149.559 171.527 149.614 170.351 149.719 169.183C150.932 155.727 155.801 145.406 169.802 134.65C179.926 126.87 186.737 121.391 197.643 117.862C199.057 117.404 200.342 117.2 201.475 117.2C207.439 117.2 209.181 122.939 203.299 128.112C177.34 152.421 171.615 156.445 163.088 177.317C162.165 179.579 161.551 181.937 161.256 184.339C160.982 186.574 159.658 188.609 157.586 189.687C156.859 190.067 156.074 190.327 155.291 190.327Z" fill="#C1C2C9"/>
<path d="M367.613 163.177C367.642 177.656 366.552 190.498 364.374 201.853C361.737 215.607 351.962 226.761 338.98 231.187C281.933 250.634 224.886 250.634 167.841 231.187C160.455 228.669 154.148 223.971 149.576 217.868C215.139 228.557 278.407 232.552 325.795 212.717C342.986 205.52 355.099 189.23 356.951 170.303C358.259 156.936 356.962 143.405 352.129 130.463C352.877 131.099 353.629 131.742 354.38 132.393C362.525 139.459 367.337 149.765 367.584 160.696C367.602 161.522 367.613 162.347 367.613 163.177Z" fill="black"/>
<path d="M367.613 163.177L364.889 163.181C364.889 163.374 364.889 163.564 364.889 163.754C364.889 177.849 363.807 190.327 361.701 201.318C360.481 207.692 357.605 213.465 353.523 218.162C349.438 222.863 344.155 226.482 338.12 228.542C309.661 238.242 281.239 242.98 252.817 242.984C224.799 242.98 196.773 238.112 168.701 228.542C156.506 224.384 147.475 213.822 145.035 200.894C142.981 190.008 141.928 177.667 141.928 163.75C141.928 163.56 141.928 163.374 141.929 163.184C141.929 163.125 141.929 163.062 141.929 163.002C141.961 152.856 146.364 143.209 153.874 136.544C170.764 121.544 187.597 110.353 204.352 102.922C221.109 95.4872 237.784 91.8052 254.448 91.8015C270.716 91.8052 286.995 95.331 303.35 102.431C319.705 109.531 336.133 120.216 352.619 134.52C360.169 141.074 364.632 150.628 364.86 160.76C364.878 161.567 364.886 162.374 364.889 163.181L367.613 163.177L370.336 163.173C370.333 162.322 370.322 161.477 370.304 160.633C370.042 148.903 364.878 137.849 356.138 130.266C339.314 115.664 322.433 104.659 305.478 97.2948C288.524 89.9307 271.489 86.2226 254.448 86.2226C236.992 86.2226 219.548 90.098 202.187 97.8006C184.822 105.507 167.535 117.029 150.306 132.326C141.63 140.032 136.522 151.19 136.482 162.984V162.987C136.482 163.047 136.482 163.106 136.482 163.17C136.481 163.363 136.481 163.556 136.481 163.75C136.481 177.954 137.554 190.644 139.687 201.95C142.497 216.853 152.916 229.041 166.98 233.835C195.557 243.576 224.181 248.563 252.817 248.563C281.835 248.563 310.856 243.717 339.841 233.835C346.787 231.466 352.881 227.296 357.591 221.87C362.3 216.451 365.634 209.768 367.046 202.393C369.236 190.975 370.336 178.139 370.336 163.754C370.336 163.56 370.336 163.367 370.336 163.17V163.173L367.613 163.177Z" fill="#1A1D63"/>
<path d="M144.552 138.626C144.956 136.748 145.406 134.885 145.898 133.044C145.901 133.033 145.904 133.022 145.907 133.01C145.908 133.003 145.909 132.999 145.911 132.996C146.418 131.102 146.971 129.232 147.569 127.38C170.962 105.689 194.362 91.1208 217.754 83.6824C217.768 83.727 217.783 83.7716 217.797 83.8163L220.263 91.1729C214.232 92.9209 208.203 95.1339 202.187 97.8006C184.822 105.507 167.535 117.029 150.306 132.326C148.162 134.23 146.237 136.343 144.552 138.626Z" fill="#D1D2E0"/>
<path d="M217.799 83.8164C217.784 83.7719 217.769 83.7274 217.754 83.6829C217.765 83.72 217.776 83.7533 217.787 83.7904L217.799 83.8164Z" fill="#1A1D63"/>
<path d="M361.712 136.175C360.063 134.037 358.201 132.054 356.138 130.265C339.314 115.664 322.433 104.659 305.478 97.2946C299.236 94.5832 292.987 92.3703 286.73 90.652L289.018 83.8198C289.058 83.7045 289.09 83.5855 289.116 83.4627C289.141 83.3437 289.159 83.221 289.17 83.102C312.24 90.0606 335.302 103.956 358.375 124.772C358.469 125.047 358.564 125.323 358.658 125.598C358.665 125.62 358.673 125.646 358.683 125.672C359.479 128.012 360.201 130.381 360.851 132.787C361.153 133.91 361.44 135.037 361.712 136.175Z" fill="#D1D2E0"/>
<path d="M289.018 83.8198L289.028 83.7863C289.065 83.6822 289.094 83.5706 289.116 83.4628C289.09 83.5855 289.057 83.7045 289.018 83.8198Z" fill="#1A1D63"/>
<path d="M225.547 89.7559L223.88 84.7795C233.739 82.1091 243.576 80.7367 253.409 80.6475C263.243 80.7367 273.076 82.1091 282.939 84.7795L281.417 89.3133C272.437 87.2565 263.446 86.2226 254.448 86.2226C254.444 86.2226 254.441 86.2226 254.437 86.2226C252.512 86.2226 250.584 86.2709 248.656 86.3639C240.947 86.7396 233.241 87.8702 225.547 89.7559Z" fill="#D1D2E0"/>
<path d="M220.263 91.1724L217.797 83.8157L217.787 83.7897C217.776 83.7525 217.765 83.7191 217.754 83.6819C229.635 79.9031 241.528 77.9617 253.409 77.8575L253.384 80.647L253.409 77.8575C253.736 77.8575 254.067 77.8538 254.393 77.8538C265.988 77.8538 277.579 79.6056 289.17 83.1016C289.159 83.2207 289.141 83.3434 289.116 83.4624C289.094 83.5703 289.065 83.6819 289.028 83.786L289.018 83.8195L286.73 90.6517C284.961 90.1645 283.189 89.7219 281.417 89.3128L282.939 84.779C273.076 82.1086 263.243 80.7362 253.409 80.647C243.576 80.7362 233.739 82.1086 223.88 84.779L225.547 89.7554C233.241 87.8697 240.947 86.7391 248.656 86.3634C239.182 86.8283 229.715 88.435 220.263 91.1724Z" fill="#1A1D63"/>
<path d="M144.551 138.626C144.956 136.748 145.405 134.885 145.898 133.044C145.406 134.885 144.956 136.748 144.552 138.626C144.551 138.626 144.552 138.626 144.551 138.626ZM361.712 136.175C361.44 135.037 361.153 133.91 360.851 132.787C361.153 133.91 361.44 135.041 361.712 136.175ZM145.907 133.01C145.908 133.003 145.909 132.999 145.911 132.996C145.909 132.999 145.908 133.003 145.907 133.01ZM358.658 125.598C358.564 125.323 358.469 125.048 358.375 124.772C358.426 124.821 358.48 124.873 358.535 124.921C358.549 125.148 358.589 125.375 358.658 125.598Z" fill="#1A1D63"/>
<path d="M143.199 146.087C143.571 143.573 144.023 141.085 144.551 138.626C144.552 138.626 144.551 138.626 144.552 138.626C146.237 136.343 148.162 134.23 150.306 132.326C167.535 117.029 184.822 105.506 202.187 97.8002C208.203 95.1336 214.232 92.9206 220.263 91.1726C229.715 88.4352 239.182 86.8285 248.656 86.3636C250.584 86.2707 252.512 86.2223 254.437 86.2223C254.441 86.2223 254.444 86.2223 254.448 86.2223C263.446 86.2223 272.437 87.2562 281.417 89.313C283.189 89.7221 284.961 90.1647 286.73 90.6519C292.987 92.3702 299.236 94.5831 305.478 97.2944C322.433 104.659 339.314 115.664 356.138 130.265C358.201 132.054 360.063 134.037 361.712 136.175C362.297 138.637 362.805 141.129 363.23 143.651C361.029 139.4 358.041 135.569 354.38 132.393C321.056 103.476 287.721 89.0117 254.397 89.0117C220.292 89.0117 186.196 104.149 152.089 134.435C148.38 137.726 145.372 141.698 143.199 146.087Z" fill="#1A1D63"/>
<path d="M143.592 131.136C216.556 60.9652 289.515 60.1098 362.471 128.543" stroke="#1A1D63" stroke-width="5" stroke-miterlimit="10" stroke-linecap="round" stroke-linejoin="round"/>
<path d="M382.9 204.363C382.654 206.361 381.604 208.168 379.985 209.314C374.109 213.461 367.409 216.637 359.925 218.902C365.053 203.843 367.66 185.44 367.613 163.177C367.584 149.717 365.351 136.789 361.254 124.753C368.23 126.821 374.545 130.046 380.181 134.475C381.673 135.647 382.628 137.399 382.846 139.31C385.442 162.176 385.446 183.856 382.9 204.363Z" fill="white"/>
<path d="M146.893 218.902C139.409 216.637 132.709 213.461 126.833 209.314C125.214 208.168 124.164 206.361 123.918 204.363C121.372 183.856 121.376 162.176 123.972 139.31C124.19 137.399 125.145 135.647 126.637 134.475C132.273 130.046 138.588 126.821 145.563 124.753C141.467 136.789 139.234 149.717 139.205 163.177C139.158 185.44 141.765 203.843 146.893 218.902Z" fill="white"/>
<path d="M364.159 214.524C365.303 210.56 366.291 206.394 367.115 202.02C373.238 199.131 377.904 195.248 381.441 191.231C381.136 195.542 380.722 199.804 380.199 204.01V204.014C380.046 205.241 379.404 206.335 378.438 207.019C374.153 210.039 369.396 212.538 364.159 214.524Z" fill="#BABBD0"/>
<path d="M142.658 214.524C137.423 212.538 132.663 210.039 128.379 207.019H128.381C127.414 206.335 126.772 205.241 126.619 204.014V204.01C126.097 199.804 125.683 195.542 125.378 191.231C128.912 195.248 133.578 199.131 139.7 202.02C140.528 206.394 141.514 210.56 142.658 214.524Z" fill="#BABBD0"/>
<path d="M382.9 204.363L380.199 204.014C380.046 205.241 379.404 206.334 378.438 207.019C372.824 210.98 366.396 214.033 359.152 216.228L359.925 218.902L362.496 219.82C367.707 204.508 370.336 185.994 370.336 163.772C370.336 163.575 370.336 163.374 370.336 163.173V163.169C370.307 149.397 368.02 136.16 363.825 123.835L361.254 124.753L360.496 127.431C367.166 129.414 373.158 132.474 378.521 136.688H378.525C379.418 137.391 380.006 138.459 380.141 139.634C381.433 151.03 382.076 162.12 382.076 172.906C382.076 183.569 381.448 193.938 380.199 204.01V204.014L382.9 204.363L385.602 204.717C386.88 194.399 387.523 183.796 387.523 172.906C387.523 161.893 386.866 150.587 385.551 138.987C385.25 136.339 383.925 133.903 381.837 132.262C375.928 127.617 369.29 124.229 362.01 122.075C361.033 121.785 359.976 122.079 359.275 122.834C358.578 123.589 358.346 124.69 358.684 125.672C362.678 137.417 364.86 150.037 364.889 163.184V163.18C364.889 163.381 364.889 163.578 364.889 163.772C364.889 185.544 362.304 203.448 357.354 217.983C357.017 218.976 357.246 220.066 357.954 220.825C358.662 221.587 359.715 221.873 360.695 221.576C368.419 219.24 375.391 215.941 381.528 211.612L381.531 211.608C383.805 210.002 385.261 207.48 385.602 204.713V204.717L382.9 204.363Z" fill="#1A1D63"/>
<path d="M146.892 218.902L147.664 216.228C140.419 214.033 133.992 210.98 128.379 207.019H128.381C127.414 206.334 126.772 205.241 126.619 204.014V204.01C125.369 193.938 124.74 183.569 124.74 172.906C124.74 162.12 125.383 151.03 126.677 139.634C126.81 138.459 127.398 137.391 128.294 136.688H128.295C133.658 132.474 139.649 129.414 146.321 127.431L145.563 124.753L142.991 123.835C138.797 136.16 136.511 149.397 136.482 163.169C136.481 163.37 136.481 163.571 136.481 163.768C136.482 185.99 139.109 204.505 144.321 219.82L146.892 218.902L147.664 216.228L146.892 218.902L149.464 217.983C144.513 203.448 141.926 185.544 141.928 163.768C141.928 163.575 141.928 163.377 141.929 163.184C141.957 150.037 144.137 137.417 148.135 125.672C148.47 124.686 148.239 123.589 147.54 122.834C146.841 122.079 145.782 121.785 144.806 122.075C137.526 124.229 130.888 127.617 124.979 132.262H124.981C122.891 133.903 121.569 136.339 121.267 138.987C119.95 150.587 119.293 161.893 119.293 172.906C119.293 183.792 119.935 194.399 121.216 204.717L121.215 204.713C121.557 207.48 123.013 210.002 125.286 211.608L125.288 211.612C131.425 215.941 138.398 219.24 146.121 221.576C147.104 221.873 148.157 221.587 148.864 220.825C149.571 220.066 149.802 218.976 149.464 217.983L146.892 218.902Z" fill="#1A1D63"/>
<path d="M253.587 255.443C224.428 255.443 195.276 250.415 166.117 240.354C163.266 239.373 160.573 238.067 158.072 236.483C155.839 232.883 153.827 228.985 152.044 224.771C156.262 228.784 161.326 231.908 166.98 233.835C195.557 243.575 224.181 248.563 252.817 248.563H252.821C281.839 248.563 310.856 243.713 339.841 233.835C345.462 231.916 350.524 228.821 354.747 224.838C352.906 229.174 350.825 233.173 348.509 236.858C346.177 238.272 343.683 239.447 341.065 240.351C311.905 250.411 282.746 255.443 253.587 255.443Z" fill="#D1D2E0"/>
<path d="M348.509 236.859C350.825 233.173 352.906 229.175 354.747 224.838C355.742 223.897 356.694 222.908 357.591 221.87C357.812 221.618 358.03 221.361 358.248 221.101C358.477 221.283 358.727 221.428 358.996 221.525C357.507 225.556 355.826 229.339 353.956 232.879C352.26 234.356 350.441 235.687 348.509 236.859ZM158.072 236.483C156.091 235.226 154.231 233.794 152.51 232.206C150.781 228.859 149.218 225.303 147.821 221.525C148.101 221.42 148.365 221.272 148.602 221.074C149.674 222.376 150.823 223.611 152.044 224.771C153.827 228.985 155.839 232.883 158.072 236.483Z" fill="#1A1D63"/>
<path d="M252.821 248.563H252.817C224.181 248.563 195.557 243.576 166.98 233.835C161.326 231.908 156.262 228.784 152.044 224.771C150.823 223.611 149.674 222.376 148.602 221.074C148.694 221 148.781 220.914 148.864 220.825C149.571 220.066 149.802 218.977 149.464 217.984L146.923 218.891L149.464 217.984C149.408 217.82 149.353 217.656 149.297 217.489C153.891 223.778 160.305 228.621 167.841 231.187C196.363 240.909 224.886 245.774 253.409 245.774C281.933 245.774 310.457 240.909 338.98 231.187C346.461 228.639 352.877 223.852 357.474 217.626C357.434 217.745 357.394 217.865 357.354 217.984C357.017 218.977 357.246 220.066 357.954 220.825C358.044 220.925 358.142 221.015 358.248 221.1C358.03 221.361 357.812 221.617 357.59 221.87C356.694 222.908 355.742 223.897 354.747 224.838C350.524 228.821 345.462 231.916 339.841 233.835C310.856 243.713 281.839 248.563 252.821 248.563Z" fill="#1A1D63"/>
<path d="M358.996 221.524C358.727 221.427 358.477 221.282 358.248 221.1C358.142 221.014 358.044 220.925 357.954 220.825C357.246 220.066 357.017 218.976 357.354 217.983C357.394 217.864 357.434 217.745 357.474 217.626C360.732 213.211 363.077 208.075 364.247 202.496C362.896 209.381 361.146 215.714 358.996 221.524Z" fill="#1A1D63"/>
<path d="M147.821 221.524C145.628 215.595 143.848 209.12 142.488 202.072C143.657 207.752 146.012 212.992 149.297 217.489C149.353 217.656 149.408 217.82 149.464 217.983L146.923 218.891L146.893 218.902L147.664 216.228L146.893 218.902L146.923 218.891L149.464 217.983C149.802 218.976 149.571 220.066 148.864 220.825C148.781 220.914 148.694 220.999 148.602 221.074C148.365 221.271 148.101 221.42 147.821 221.524Z" fill="#1A1D63"/>
<path d="M152.51 232.206C156.403 235.795 161.007 238.592 166.116 240.354C224.435 260.472 282.75 260.472 341.065 240.351C345.851 238.699 350.212 236.141 353.956 232.879" stroke="#1A1D63" stroke-width="5" stroke-miterlimit="10" stroke-linecap="round" stroke-linejoin="round"/>
<path d="M141.433 237.87L145.698 235.393C145.445 234.939 145.157 234.474 144.815 234.002C144.3 233.299 143.669 232.577 142.808 231.915C142.377 231.588 141.887 231.276 141.329 231.015C140.773 230.755 140.147 230.543 139.477 230.428L138.648 235.374L139.534 230.435L139.471 230.424L138.586 235.363L139.537 230.439C138.924 230.312 138.306 230.253 137.695 230.253C136.568 230.253 135.47 230.461 134.454 230.84C132.927 231.41 131.578 232.362 130.515 233.608C129.453 234.854 128.677 236.408 128.337 238.126L128.337 238.123C128.125 239.198 127.769 240.455 127.3 241.823C126.832 243.196 126.254 244.676 125.613 246.223L127.1 246.87L125.871 245.803C125.736 245.967 125.663 246.104 125.613 246.223L127.1 246.87L125.871 245.803L127.547 247.257L126.492 245.29C126.209 245.45 126.005 245.639 125.871 245.803L127.547 247.257L126.492 245.29H126.491L127.82 247.77L127.38 244.985C127.001 245.048 126.684 245.182 126.491 245.29L127.82 247.77L127.38 244.985L127.99 248.842V244.936C127.787 244.936 127.582 244.951 127.38 244.985L127.99 248.842V244.936V248.83L130.155 245.628C129.543 245.193 128.791 244.936 127.99 244.936V248.83L130.155 245.628L127.998 248.819L131.545 247.447C131.267 246.692 130.769 246.06 130.155 245.628L127.998 248.819L131.545 247.447H131.544L120.719 218.076L120.591 217.764C119.941 216.309 119.231 215.011 118.404 213.844L118.398 213.836C117.5 212.572 116.315 211.545 115.008 210.883C113.701 210.217 112.296 209.916 110.955 209.916C109.738 209.916 108.565 210.158 107.478 210.597C105.85 211.251 104.386 212.352 103.282 213.881C102.732 214.643 102.279 215.514 101.968 216.462C101.655 217.414 101.487 218.441 101.488 219.486C101.488 220.062 101.538 220.639 101.637 221.215L101.634 221.2C101.773 222.026 101.964 222.855 102.201 223.7L106.911 222.309L102.171 223.588L107.233 243.244L111.973 241.965L115.852 238.893C114.342 236.895 112.72 234.214 111.085 231.116C109.447 228.018 107.785 224.503 106.115 220.802L105.955 220.475C105.219 219.114 104.314 217.864 103.181 216.819L103.2 216.838C102.376 216.068 101.421 215.465 100.415 215.075C99.4089 214.677 98.3577 214.487 97.3348 214.491C96.1927 214.491 95.0855 214.721 94.063 215.142C92.5313 215.778 91.1707 216.852 90.1739 218.303C89.6771 219.028 89.2759 219.846 89.0035 220.724C88.7305 221.606 88.5881 222.547 88.5888 223.495V223.577V223.54C88.5921 224.533 88.7145 225.466 88.8928 226.355C88.9338 226.56 89.0013 226.809 89.0693 227.01L97.1971 250.712L101.822 249.05L105.82 246.145C104.337 244.003 102.64 241.626 101.062 239.19C99.4841 236.761 98.0323 234.266 97.0595 232.042L97.0501 232.019C96.7287 231.298 96.3002 230.61 95.7671 229.992C95.2344 229.371 94.5957 228.828 93.8738 228.393L93.8535 228.382C93.2641 228.032 92.6283 227.735 91.9383 227.523C91.2498 227.311 90.5043 227.184 89.7301 227.184C88.701 227.181 87.6244 227.422 86.6759 227.891C85.9627 228.241 85.3261 228.709 84.7967 229.237C83.9993 230.033 83.439 230.945 83.0526 231.863C82.6662 232.786 82.4455 233.723 82.3362 234.668L82.3318 234.705C82.2922 235.073 82.2733 235.441 82.2733 235.806C82.2751 237.264 82.566 238.643 83.025 239.956L83.0446 240.012C85.6548 247.194 88.8565 254.439 92.6504 261.74L96.9782 259.382L100.015 255.439C97.4807 253.394 95.1643 251.382 92.999 248.815L92.9739 248.786C92.4932 248.228 91.9111 247.689 91.1511 247.22C90.7709 246.989 90.3453 246.774 89.8692 246.606C89.3939 246.435 88.867 246.309 88.3052 246.253L87.8419 251.252L88.3808 246.26C88.1422 246.234 87.8949 246.219 87.6414 246.219C86.888 246.216 86.08 246.361 85.3574 246.647C84.8145 246.859 84.3239 247.142 83.9089 247.443C83.2832 247.901 82.8249 248.395 82.468 248.849C82.1106 249.303 81.8485 249.727 81.6255 250.113C81.5227 250.296 81.509 250.322 81.4222 250.511C81.1229 251.173 80.99 251.746 80.9112 252.233C80.8353 252.724 80.8165 253.141 80.8157 253.517C80.8165 254.037 80.8549 254.487 80.9022 254.904C80.9505 255.317 81.01 255.7 81.071 256.061L81.1531 256.455C81.9069 259.46 82.9306 262.316 84.1351 265.035C85.3399 267.761 86.7249 270.354 88.2108 272.849L88.225 272.875C88.8336 273.883 89.5373 274.921 90.3928 275.925L90.3816 275.914C93.4609 279.559 96.9782 282.538 100.784 284.925H100.783C105.582 287.938 111.027 289.481 116.474 289.481C119.348 289.481 122.223 289.05 125.001 288.176C127.778 287.298 130.457 285.974 132.923 284.2L132.895 284.219C133.336 283.906 133.72 283.613 134.059 283.352L134.087 283.33C138.895 279.596 142.617 274.794 145.124 269.439C147.632 264.083 148.935 258.169 148.935 252.155C148.935 250.091 148.782 248.012 148.47 245.944L148.469 245.937C148.146 243.813 147.725 241.649 147.202 239.424L147.211 239.462C146.913 238.156 146.455 236.776 145.705 235.408L145.698 235.393L141.433 237.87L137.16 240.332C137.348 240.67 137.53 241.154 137.662 241.742L137.67 241.775C138.134 243.75 138.502 245.647 138.781 247.484L138.78 247.477C139.015 249.035 139.131 250.601 139.131 252.155C139.131 256.682 138.147 261.119 136.284 265.098C134.419 269.074 131.687 272.589 128.162 275.33L128.19 275.308C127.852 275.568 127.558 275.791 127.312 275.966L127.284 275.984C125.675 277.145 123.935 278.004 122.114 278.577C120.294 279.153 118.392 279.44 116.474 279.44C112.838 279.44 109.153 278.402 105.909 276.364H105.908C102.895 274.471 100.194 272.18 97.7959 269.342L97.7843 269.327C97.3754 268.847 96.9731 268.274 96.5693 267.601L96.5838 267.627C95.258 265.396 94.0688 263.161 93.0655 260.892C92.0618 258.623 91.2433 256.325 90.6492 253.955L85.9013 255.205L90.7316 254.35C90.6881 254.093 90.6561 253.877 90.6387 253.721C90.63 253.647 90.6249 253.587 90.6223 253.55L90.6202 253.513V253.509L90.2541 253.517H90.6202V253.509L90.2541 253.517H90.6202H88.6894L90.5911 253.833C90.6213 253.636 90.6194 253.543 90.6202 253.517H88.6894L90.5911 253.833L87.1563 253.264L90.3006 254.774C90.4978 254.339 90.5584 254.026 90.5911 253.833L87.1563 253.264L90.3006 254.774L85.8614 252.643L90.0973 255.172C90.1201 255.131 90.1361 255.105 90.1412 255.097L88.9019 254.205L89.9938 255.276C90.0918 255.168 90.1329 255.108 90.1412 255.097L88.9019 254.205L89.9938 255.276L88.0282 253.349L89.6677 255.57C89.8144 255.458 89.9204 255.354 89.9938 255.276L88.0282 253.349L89.6677 255.57L87.6669 252.862L88.7595 256.064C89.1313 255.934 89.4498 255.741 89.6677 255.57L87.6669 252.862L88.7595 256.064L87.6414 252.788V256.261C87.9784 256.265 88.3895 256.198 88.7595 256.064L87.6414 252.788V256.261V253.107L87.3026 256.243C87.404 256.254 87.5176 256.261 87.6414 256.261V253.107L87.3026 256.243L87.3785 256.25L87.6763 253.037L86.6363 256.087C86.8466 256.161 87.0986 256.224 87.3785 256.25L87.6763 253.037L86.6363 256.087L87.5285 253.468L85.9391 255.718C86.0974 255.834 86.3197 255.971 86.6363 256.087L87.5285 253.468L85.9391 255.718L87.1211 254.045L85.6043 255.41C85.6816 255.499 85.7804 255.599 85.9391 255.718L87.1211 254.045L85.6043 255.41L85.5789 255.38C88.3601 258.679 91.2542 261.152 93.941 263.324C95.7646 264.797 98.337 264.76 100.12 263.235C101.904 261.71 102.397 259.125 101.306 257.024C97.7001 250.084 94.6807 243.244 92.2335 236.509L87.6393 238.26L92.2532 236.564C92.0927 236.107 92.0759 235.85 92.0778 235.806H92.0752H92.077H92.0778H92.0752H92.077L92.073 235.843C92.0788 235.794 92.085 235.765 92.0868 235.757L92.0872 235.754L91.2262 235.516L91.9975 235.958C92.0683 235.828 92.0857 235.757 92.0872 235.754L91.2262 235.516L91.9975 235.958L90.2629 234.965L91.7313 236.334C91.8606 236.185 91.9445 236.055 91.9975 235.958L90.2629 234.965L91.7313 236.334L89.7708 234.508L90.8638 236.97C91.2371 236.799 91.5411 236.549 91.7313 236.334L89.7708 234.508L90.8638 236.97L89.7301 234.415V237.226C90.0682 237.23 90.4934 237.148 90.8638 236.97L89.7301 234.415V237.226V235.058L89.119 237.141C89.2512 237.182 89.4625 237.226 89.7301 237.226V235.058L89.119 237.141L89.4738 235.932L88.9752 237.089C89.005 237.104 89.0526 237.122 89.119 237.141L89.4738 235.932L88.9752 237.089L89.2236 236.512L88.9436 237.074L88.9752 237.089L89.2236 236.512L88.9436 237.074L89.0605 236.84L88.9374 237.07L88.9436 237.074L89.0605 236.84L88.9374 237.07L88.9171 237.059L89.9462 235.259L88.4203 236.639C88.5525 236.795 88.7236 236.944 88.9171 237.059L89.9462 235.259L88.4203 236.639L89.7792 235.411L88.1266 236.181C88.1916 236.326 88.2871 236.486 88.4203 236.639L89.7792 235.411L88.1266 236.181L88.1171 236.159C89.4429 239.175 91.1554 242.058 92.8933 244.743C94.6305 247.424 96.4015 249.901 97.8242 251.954C99.2368 253.993 101.907 254.658 104.075 253.509C106.243 252.36 107.256 249.745 106.447 247.387L98.3199 223.681L93.6944 225.343L98.4964 224.332C98.414 223.926 98.3929 223.655 98.3933 223.514L98.3929 223.48L96.6782 223.495H98.3929V223.48L96.6782 223.495H98.3929H97.4702L98.3094 223.871C98.3718 223.726 98.3947 223.573 98.3929 223.495H97.4702L98.3094 223.871L97.2788 223.409L98.1304 224.161C98.2004 224.079 98.264 223.979 98.3094 223.871L97.2788 223.409L98.1304 224.161L97.3489 223.473L97.7807 224.436C97.9078 224.373 98.0243 224.287 98.1304 224.161L97.3489 223.473L97.7807 224.436L97.3348 223.443V224.533C97.508 224.533 97.6536 224.495 97.7807 224.436L97.3348 223.443V224.533V223.305L96.907 224.451C97.0442 224.507 97.1986 224.533 97.3348 224.533V223.305L96.907 224.451L97.2469 223.543L96.603 224.265C96.6546 224.317 96.7697 224.399 96.907 224.451L97.2469 223.543L96.603 224.265L96.6219 224.283C96.7893 224.436 97.0548 224.745 97.3754 225.336L101.665 222.907L97.2149 225.012C98.9329 228.821 100.672 232.507 102.464 235.899C104.259 239.291 106.097 242.381 108.093 245.033C109.522 246.926 112.042 247.525 114.14 246.469C116.237 245.409 117.309 242.999 116.713 240.682L111.651 221.029L111.622 220.918C111.472 220.389 111.367 219.917 111.297 219.497L111.294 219.478L111.292 219.467L111.116 219.486H111.293L111.292 219.467L111.116 219.486H111.293H110.711L111.235 219.731C111.275 219.646 111.295 219.53 111.293 219.486H110.711L111.235 219.731L110.725 219.493L111.143 219.876C111.17 219.846 111.205 219.798 111.235 219.731L110.725 219.493L111.143 219.876L110.97 219.716L111.067 219.939C111.082 219.932 111.101 219.925 111.143 219.876L110.97 219.716L111.067 219.939L110.955 219.683V219.958C111.028 219.958 111.05 219.947 111.067 219.939L110.955 219.683V219.958V219.248L110.648 219.88C110.761 219.939 110.886 219.958 110.955 219.958V219.248L110.648 219.88L110.944 219.266L110.512 219.791C110.542 219.817 110.592 219.85 110.648 219.88L110.944 219.266L110.512 219.791L110.738 219.515L110.481 219.761L110.512 219.791L110.738 219.515L110.481 219.761L110.54 219.705L110.478 219.757L110.481 219.761L110.54 219.705L110.478 219.757L110.484 219.765L110.477 219.753C110.818 220.23 111.241 220.966 111.674 221.94L116.133 219.85L111.546 221.624L122.371 250.995L122.371 250.991C122.812 252.193 123.6 253.193 124.575 253.885C125.55 254.577 126.735 254.978 127.99 254.978C128.307 254.978 128.629 254.952 128.948 254.896C129.808 254.755 130.582 254.45 131.212 254.093H131.212C132.076 253.606 132.788 252.977 133.348 252.3C133.909 251.62 134.328 250.895 134.638 250.147C135.329 248.481 135.985 246.807 136.555 245.141C137.124 243.471 137.61 241.808 137.945 240.127L137.766 240.09L137.921 240.187L137.945 240.127L137.766 240.09L137.921 240.187L137.752 240.079L137.85 240.258L137.921 240.187L137.752 240.079L137.85 240.258L137.695 239.979V240.295C137.761 240.295 137.819 240.276 137.85 240.258L137.695 239.979V240.295V239.975L137.635 240.287L137.695 240.295V239.975L137.635 240.287L137.7 240.302L137.763 240.313L137.819 240.325L138.194 238.086L137.118 240.079C137.27 240.165 137.518 240.272 137.819 240.325L138.194 238.086L137.118 240.079L137.767 238.874L136.9 239.927C136.933 239.956 137.001 240.012 137.118 240.079L137.767 238.874L136.9 239.927L137.226 239.532L136.877 239.908L136.9 239.927L137.226 239.532L136.877 239.908C136.899 239.927 137.034 240.098 137.167 240.343L137.16 240.332L141.433 237.87Z" fill="#1A1D63"/>
<path d="M141.433 237.87C140.771 236.673 139.836 235.583 138.648 235.375L138.586 235.363C136.08 234.858 133.651 236.554 133.141 239.127C132.594 241.879 131.457 244.97 130.125 248.187C129.866 248.812 129.434 249.366 128.852 249.694C128.633 249.816 128.405 249.902 128.164 249.943C127.647 250.028 127.142 249.723 126.958 249.221L116.133 219.851C115.591 218.638 115.024 217.623 114.441 216.801C111.665 212.91 105.653 215.607 106.465 220.349C106.57 220.97 106.718 221.625 106.911 222.309L111.973 241.965C108.466 237.316 105.053 230.417 101.665 222.908C101.137 221.93 100.552 221.152 99.9014 220.553C97.4001 218.221 93.4671 220.059 93.4911 223.529C93.4922 224.094 93.5641 224.697 93.6944 225.344L101.822 249.05C98.9165 244.855 94.8873 239.339 92.5883 234.103C92.3316 233.522 91.9238 233.043 91.3955 232.726C89.2055 231.428 87.502 232.674 87.2046 235.256C87.1084 236.148 87.2518 237.152 87.6393 238.261C90.1677 245.219 93.2783 252.26 96.9782 259.382C94.3673 257.273 91.7622 255.031 89.289 252.1C88.9117 251.657 88.4058 251.308 87.8419 251.252C86.9519 251.151 86.3898 251.713 85.8614 252.643C85.617 253.178 85.722 254.145 85.9013 255.205C87.2489 260.58 89.5856 265.511 92.397 270.239C92.9035 271.079 93.4562 271.886 94.0888 272.626C96.8271 275.869 99.9366 278.506 103.346 280.645C111.608 285.833 122.166 285.807 130.103 280.094C130.447 279.849 130.786 279.589 131.125 279.328C140.887 271.749 145.492 259.103 143.625 246.711C143.324 244.732 142.929 242.701 142.436 240.6C142.221 239.655 141.901 238.726 141.433 237.87Z" fill="white"/>
<path d="M116.206 284.461C111.753 284.409 107.288 283.122 103.345 280.649C99.9359 278.503 96.8271 275.87 94.0881 272.63C93.6036 272.061 93.1657 271.455 92.7601 270.823C93.1664 271.451 93.604 272.057 94.0888 272.626C96.8271 275.87 99.9366 278.506 103.346 280.645C107.288 283.122 111.753 284.409 116.206 284.461ZM124.656 282.999C126.561 282.293 128.393 281.326 130.103 280.095C130.198 280.024 130.293 279.957 130.387 279.886C130.293 279.957 130.199 280.028 130.104 280.095C128.393 281.326 126.561 282.293 124.656 282.999ZM88.8271 263.47C88.8253 263.466 88.8238 263.462 88.822 263.459C88.8238 263.462 88.8253 263.466 88.8271 263.47ZM88.8038 263.421C88.7995 263.41 88.7948 263.399 88.7904 263.392C88.7948 263.399 88.7995 263.41 88.8038 263.421ZM88.7799 263.366C88.7722 263.351 88.765 263.332 88.7577 263.317C88.765 263.332 88.7722 263.351 88.7799 263.366ZM88.7563 263.313C88.4857 262.715 88.2257 262.108 87.977 261.498C88.2257 262.108 88.4857 262.715 88.7563 263.313ZM87.9683 261.476C87.9639 261.469 87.9599 261.458 87.9556 261.446C87.9599 261.458 87.9639 261.469 87.9683 261.476ZM87.9381 261.402C87.9367 261.402 87.936 261.398 87.9345 261.394C87.936 261.398 87.9371 261.402 87.9381 261.402ZM143.1 243.683C142.903 242.672 142.681 241.645 142.436 240.6C142.248 239.774 141.979 238.956 141.6 238.19C141.979 238.953 142.248 239.774 142.438 240.604C142.683 241.645 142.903 242.672 143.1 243.683Z" fill="#1A1D63"/>
<path d="M116.473 284.461C116.384 284.461 116.295 284.461 116.206 284.461C111.753 284.409 107.288 283.122 103.346 280.645C99.9366 278.506 96.8271 275.87 94.0887 272.626C93.604 272.057 93.1664 271.451 92.7601 270.823C92.6366 270.629 92.516 270.436 92.398 270.239C91.0875 268.033 89.8794 265.787 88.827 263.47C88.8252 263.466 88.8238 263.462 88.8219 263.459C88.8158 263.447 88.81 263.432 88.8038 263.421C88.7994 263.41 88.7947 263.399 88.7904 263.392C88.7867 263.38 88.7831 263.373 88.7798 263.366C88.7722 263.351 88.7649 263.332 88.7577 263.317C88.7569 263.317 88.7569 263.317 88.7562 263.313C88.4857 262.715 88.2257 262.108 87.9769 261.498C87.974 261.491 87.9711 261.484 87.9682 261.476C87.9639 261.469 87.9599 261.458 87.9555 261.446C87.9497 261.432 87.9439 261.417 87.9381 261.402C87.937 261.402 87.9359 261.398 87.9345 261.394C87.1672 259.498 86.5099 257.556 85.9914 255.548C87.3037 259.062 89.0093 262.399 90.9364 265.638C91.4445 266.479 91.9982 267.286 92.6301 268.029C95.3691 271.269 98.4775 273.902 101.888 276.048C105.909 278.573 110.473 279.86 115.014 279.86C119.805 279.86 124.57 278.428 128.646 275.494C128.989 275.248 129.327 274.988 129.665 274.728C139.428 267.148 144.033 254.503 142.166 242.11C141.949 240.693 141.688 239.243 141.373 237.766C141.393 237.8 141.412 237.833 141.432 237.87C141.49 237.974 141.546 238.082 141.6 238.19C141.979 238.956 142.248 239.774 142.436 240.6C142.681 241.645 142.902 242.672 143.1 243.683C143.298 244.706 143.473 245.714 143.624 246.711C145.491 259.103 140.886 271.749 131.123 279.328C130.878 279.518 130.633 279.704 130.387 279.886C130.293 279.957 130.198 280.024 130.103 280.095C128.393 281.326 126.561 282.293 124.656 282.999C122.024 283.977 119.252 284.461 116.473 284.461Z" fill="#BABBD0"/>
<path d="M141.433 237.87C140.771 236.673 139.836 235.583 138.648 235.375L138.586 235.363C136.08 234.858 133.651 236.554 133.141 239.127C132.594 241.879 131.457 244.97 130.125 248.187C129.866 248.812 129.434 249.366 128.852 249.694C128.633 249.816 128.405 249.902 128.164 249.943C127.647 250.028 127.142 249.723 126.958 249.221L116.133 219.851C115.591 218.638 115.024 217.623 114.441 216.801C111.665 212.91 105.653 215.607 106.465 220.349C106.57 220.97 106.718 221.625 106.911 222.309L111.973 241.965C108.467 237.316 105.053 230.417 101.665 222.908C101.137 221.93 100.552 221.152 99.9017 220.553C97.4001 218.221 93.4671 220.059 93.4911 223.529C93.4925 224.094 93.5641 224.697 93.6944 225.344L101.822 249.05C98.9165 244.855 94.8873 239.339 92.5883 234.103C92.3316 233.522 91.9235 233.043 91.3955 232.726C89.2058 231.428 87.502 232.674 87.2046 235.256C87.1084 236.148 87.2518 237.152 87.6393 238.261C90.1677 245.219 93.2783 252.26 96.9782 259.382C94.3673 257.273 91.7622 255.031 89.289 252.096C88.9117 251.657 88.4058 251.308 87.8419 251.252C86.9519 251.151 86.3901 251.713 85.8614 252.643C85.617 253.178 85.722 254.145 85.9013 255.205C87.2489 260.58 89.5856 265.511 92.3973 270.239C92.9035 271.079 93.4566 271.886 94.0888 272.626C96.8271 275.869 99.9366 278.506 103.346 280.645C111.608 285.833 122.166 285.807 130.103 280.094C130.447 279.849 130.786 279.589 131.125 279.328C140.887 271.749 145.492 259.103 143.625 246.711C143.324 244.732 142.929 242.701 142.436 240.6C142.221 239.655 141.901 238.726 141.433 237.87V237.87Z" stroke="#1A1D63" stroke-width="5" stroke-miterlimit="10" stroke-linecap="round" stroke-linejoin="round"/>
<path d="M129.519 250.043C123.358 253.848 121.274 257.809 119.415 263.819C119.415 263.819 114.639 253.32 127.457 245.345L129.519 250.043Z" fill="#1A1D63"/>
<path d="M365.383 237.87L369.65 240.343C369.73 240.202 369.806 240.083 369.861 240.005C369.904 239.949 369.933 239.915 369.94 239.908V239.904L369.207 239.142L369.723 240.064C369.879 239.971 369.937 239.908 369.94 239.904L369.207 239.142L369.723 240.064L368.626 238.108L368.996 240.325C369.316 240.269 369.574 240.153 369.723 240.064L368.626 238.108L368.996 240.325L369.054 240.313L369.116 240.302L369.182 240.287L369.123 239.975V240.295L369.182 240.287L369.123 239.975V240.295V239.949L369.007 240.276C369.036 240.287 369.08 240.295 369.123 240.295V239.949L369.007 240.276L369.08 240.068L368.916 240.213C368.938 240.239 368.96 240.258 369.007 240.276L369.08 240.068L368.916 240.213L369.058 240.086L368.873 240.127L368.916 240.213L369.058 240.086L368.873 240.127C369.207 241.808 369.694 243.471 370.264 245.141C370.834 246.807 371.487 248.481 372.181 250.147C372.49 250.895 372.907 251.62 373.47 252.3C374.029 252.977 374.741 253.606 375.605 254.093H375.609C376.237 254.45 377.011 254.755 377.871 254.896H377.868C378.187 254.952 378.51 254.978 378.826 254.978C380.083 254.978 381.266 254.573 382.243 253.885C383.216 253.193 384.004 252.193 384.444 250.995H384.447L395.272 221.624L390.686 219.85L395.141 221.94C395.577 220.966 395.998 220.23 396.34 219.753L396.333 219.765L396.34 219.757L396.213 219.649L396.325 219.768L396.34 219.757L396.213 219.649L396.325 219.768L395.871 219.289L396.107 219.906C396.202 219.869 396.296 219.802 396.325 219.768L395.871 219.289L396.107 219.906L395.864 219.27V219.958C395.919 219.958 396.013 219.947 396.107 219.906L395.864 219.27V219.958V219.664L395.755 219.943C395.773 219.947 395.799 219.958 395.864 219.958V219.664L395.755 219.943L395.857 219.679L395.646 219.839C395.712 219.928 395.737 219.932 395.755 219.943L395.857 219.679L395.646 219.839L396.151 219.456L395.555 219.664C395.581 219.735 395.614 219.798 395.646 219.839L396.151 219.456L395.555 219.664L396.075 219.486H395.523C395.523 219.515 395.534 219.594 395.555 219.664L396.075 219.486H395.523H395.693L395.526 219.471L395.523 219.486H395.693L395.526 219.471L395.523 219.482L395.519 219.497C395.45 219.917 395.345 220.386 395.196 220.914L395.167 221.029L390.105 240.682C389.509 242.999 390.581 245.409 392.679 246.469C394.775 247.525 397.295 246.926 398.726 245.033C400.719 242.381 402.557 239.291 404.354 235.899C406.144 232.507 407.884 228.821 409.601 225.012L405.153 222.907L409.441 225.336C409.761 224.745 410.026 224.44 410.197 224.283L410.215 224.265L409.569 223.54L409.91 224.451C410.048 224.399 410.164 224.317 410.215 224.265L409.569 223.54L409.91 224.451L409.481 223.305V224.533C409.619 224.533 409.772 224.507 409.91 224.451L409.481 223.305V224.533V223.432L409.078 224.455C409.194 224.503 409.329 224.533 409.481 224.533V223.432L409.078 224.455L409.47 223.462L408.621 224.075C408.751 224.265 408.908 224.38 409.078 224.455L409.47 223.462L408.621 224.075L409.532 223.417L408.468 223.763C408.501 223.871 408.555 223.979 408.621 224.075L409.532 223.417L408.468 223.763L409.285 223.495H408.425C408.425 223.555 408.436 223.655 408.468 223.763L409.285 223.495H408.425V223.54L411.711 223.521L408.425 223.506V223.54L411.711 223.521L408.425 223.506V223.514C408.425 223.651 408.403 223.926 408.319 224.332L413.124 225.343L408.497 223.681L400.37 247.387C399.561 249.745 400.574 252.36 402.742 253.509C404.91 254.658 407.579 253.993 408.991 251.954C410.415 249.901 412.187 247.424 413.922 244.743C415.662 242.058 417.376 239.172 418.701 236.159L418.69 236.185L417.042 235.415L418.396 236.639C418.53 236.486 418.625 236.33 418.69 236.185L417.042 235.415L418.396 236.639L416.871 235.259L417.899 237.059C418.095 236.944 418.265 236.795 418.396 236.639L416.871 235.259L417.899 237.059L417.88 237.07L417.405 236.178L417.673 237.152C417.804 237.111 417.873 237.074 417.88 237.07L417.405 236.178L417.673 237.152L417.085 235.025V237.226C417.339 237.226 417.539 237.189 417.673 237.152L417.085 235.025V237.226V234.411L415.898 236.947C416.283 237.137 416.733 237.23 417.085 237.226V234.411L415.898 236.947L417.06 234.47L415.19 236.442C415.368 236.62 415.611 236.806 415.898 236.947L417.06 234.47L415.19 236.442L416.49 235.073L414.758 235.835C414.805 235.943 414.921 236.174 415.19 236.442L416.49 235.073L414.758 235.835L415.484 235.516L414.736 235.772L414.758 235.835L415.484 235.516L414.736 235.772L415.037 235.668L414.729 235.757L414.736 235.772L415.037 235.668L414.729 235.757H414.732C414.732 235.768 414.739 235.798 414.743 235.843L414.739 235.806L414.896 235.787L414.739 235.794V235.806L414.896 235.787L414.739 235.794V235.806C414.739 235.85 414.725 236.111 414.565 236.564L419.177 238.26L414.583 236.509C412.136 243.244 409.118 250.084 405.512 257.024C404.419 259.125 404.913 261.71 406.696 263.235C408.479 264.76 411.054 264.797 412.877 263.324C415.564 261.152 418.458 258.679 421.239 255.38L421.21 255.41L419.602 253.959L420.698 255.841C420.967 255.67 421.109 255.529 421.21 255.41L419.602 253.959L420.698 255.841L419.253 253.368L420.179 256.087C420.39 256.008 420.56 255.923 420.698 255.841L419.253 253.368L420.179 256.087L419.141 253.037L419.438 256.25C419.718 256.224 419.972 256.161 420.179 256.087L419.141 253.037L419.438 256.25L419.515 256.243L419.177 253.104V256.261C419.3 256.261 419.413 256.254 419.515 256.243L419.177 253.104V256.261V252.78L417.964 256.031C418.356 256.187 418.81 256.265 419.177 256.261V252.78L417.964 256.031L419.151 252.847L417.22 255.625C417.412 255.767 417.67 255.915 417.964 256.031L419.151 252.847L417.22 255.625L418.676 253.531L416.715 255.149C416.78 255.227 416.929 255.41 417.22 255.625L418.676 253.531L416.715 255.149L417.608 254.413L416.682 255.105L416.715 255.149L417.608 254.413L416.682 255.105L417.031 254.844L416.675 255.094L416.682 255.105L417.031 254.844L416.675 255.094L416.686 255.112L416.718 255.172L420.956 252.643L416.515 254.77L419.66 253.264L416.225 253.829C416.257 254.026 416.319 254.335 416.515 254.77L419.66 253.264L416.225 253.829L418.124 253.517H416.196C416.199 253.543 416.196 253.632 416.225 253.829L418.124 253.517H416.196H416.562L416.196 253.509V253.517H416.562L416.196 253.509C416.196 253.509 416.196 253.531 416.192 253.572C416.185 253.703 416.148 253.993 416.087 254.35L420.916 255.205L416.167 253.955C415.575 256.325 414.754 258.623 413.752 260.892C412.749 263.161 411.558 265.396 410.233 267.627L410.248 267.601C409.844 268.274 409.441 268.847 409.031 269.327L409.02 269.342C406.624 272.18 403.922 274.471 400.908 276.364C397.665 278.402 393.979 279.44 390.341 279.44C388.424 279.44 386.524 279.153 384.702 278.577C382.882 278.004 381.143 277.145 379.534 275.984L379.505 275.962C379.258 275.791 378.964 275.568 378.626 275.308L378.655 275.33C375.13 272.589 372.399 269.078 370.532 265.098C368.67 261.119 367.685 256.682 367.685 252.155C367.685 250.601 367.802 249.035 368.038 247.477L368.034 247.484C368.314 245.647 368.684 243.75 369.149 241.775L369.156 241.742C369.287 241.154 369.468 240.67 369.657 240.332L369.65 240.343L365.383 237.87L361.113 235.408C360.361 236.776 359.904 238.156 359.606 239.462L359.613 239.424C359.094 241.649 358.673 243.817 358.349 245.937L358.346 245.944C358.033 248.012 357.881 250.091 357.881 252.155C357.881 258.169 359.185 264.083 361.694 269.439C364.199 274.794 367.921 279.596 372.729 283.33L372.758 283.352C373.096 283.613 373.481 283.906 373.924 284.222L373.895 284.2C376.361 285.974 379.04 287.298 381.815 288.176C384.593 289.05 387.469 289.481 390.341 289.481C395.791 289.481 401.235 287.938 406.035 284.925C409.837 282.538 413.356 279.559 416.435 275.914L416.424 275.925C417.278 274.921 417.982 273.883 418.592 272.875L418.607 272.849C420.092 270.354 421.475 267.761 422.681 265.039C423.887 262.316 424.911 259.46 425.662 256.455L425.746 256.061C425.808 255.7 425.866 255.317 425.916 254.9C425.964 254.487 426 254.037 426 253.517C426 253.141 425.982 252.724 425.906 252.237C425.826 251.746 425.695 251.173 425.397 250.515C425.31 250.325 425.296 250.296 425.19 250.117C424.994 249.768 424.765 249.396 424.464 248.998C424.239 248.7 423.974 248.388 423.651 248.068C423.164 247.596 422.518 247.108 421.726 246.759C420.942 246.405 420.023 246.216 419.177 246.219C418.923 246.219 418.676 246.234 418.436 246.26L418.977 251.252L418.512 246.253C417.949 246.309 417.423 246.435 416.947 246.606C416.232 246.863 415.636 247.209 415.128 247.584C414.623 247.96 414.206 248.365 413.842 248.786L413.817 248.815C411.653 251.382 409.336 253.394 406.801 255.439L409.841 259.382L414.166 261.74C417.96 254.439 421.163 247.194 423.774 240.012L423.792 239.956C424.25 238.64 424.54 237.26 424.544 235.806C424.544 235.441 424.526 235.077 424.486 234.705L424.482 234.664C424.384 233.827 424.199 232.994 423.887 232.172C423.654 231.555 423.349 230.945 422.95 230.357C422.354 229.483 421.526 228.657 420.491 228.077C419.464 227.489 418.244 227.181 417.085 227.184C416.312 227.184 415.567 227.311 414.877 227.523C414.187 227.735 413.552 228.032 412.964 228.382L412.942 228.393C412.223 228.828 411.584 229.375 411.05 229.992C410.516 230.61 410.088 231.294 409.768 232.019L409.757 232.042C408.784 234.266 407.332 236.761 405.756 239.19C404.176 241.626 402.48 244.003 400.995 246.145L404.993 249.05L409.619 250.712L417.746 227.01C417.815 226.809 417.884 226.56 417.924 226.355C418.102 225.466 418.225 224.536 418.229 223.54V223.551C418.229 223.514 418.229 223.495 418.229 223.484V223.48L415.015 223.495H418.229V223.48L415.015 223.495H418.229C418.229 222.227 417.975 220.981 417.499 219.869C417.143 219.032 416.671 218.269 416.116 217.607C415.28 216.614 414.26 215.841 413.134 215.313C412.009 214.781 410.767 214.491 409.481 214.491C408.461 214.487 407.408 214.677 406.402 215.075C405.396 215.469 404.441 216.068 403.617 216.838L403.635 216.819C402.506 217.864 401.598 219.114 400.861 220.479L400.701 220.802C399.031 224.503 397.371 228.018 395.733 231.116C394.096 234.214 392.476 236.895 390.965 238.893L394.844 241.965L399.586 243.244L404.644 223.588L399.906 222.309L404.615 223.703C404.855 222.859 405.044 222.026 405.182 221.197V221.215C405.28 220.639 405.327 220.058 405.327 219.486C405.331 218.091 405.029 216.73 404.492 215.54C404.093 214.647 403.562 213.844 402.956 213.152C402.037 212.114 400.941 211.318 399.742 210.768C398.544 210.221 397.233 209.916 395.864 209.916C394.521 209.916 393.115 210.217 391.808 210.883C390.501 211.545 389.317 212.572 388.42 213.836L388.413 213.844C387.585 215.011 386.877 216.309 386.227 217.764L386.1 218.076L375.275 247.447V247.443L378.819 248.815L376.662 245.628C376.048 246.06 375.551 246.692 375.275 247.443L378.819 248.815L376.662 245.628L378.826 248.83V244.936C378.024 244.936 377.272 245.193 376.662 245.628L378.826 248.83V244.936V248.842L379.44 244.985C379.236 244.951 379.029 244.936 378.826 244.936V248.842L379.44 244.985H379.436L378.997 247.763L380.322 245.29C380.133 245.182 379.817 245.048 379.436 244.985L378.997 247.763L380.322 245.29H380.326L379.269 247.257L380.947 245.803C380.812 245.639 380.609 245.45 380.326 245.29L379.269 247.257L380.947 245.803L379.719 246.87L381.205 246.223C381.154 246.104 381.081 245.967 380.947 245.803L379.719 246.87L381.205 246.223C380.562 244.676 379.985 243.196 379.516 241.823C379.048 240.455 378.692 239.198 378.481 238.123V238.126C378.252 236.981 377.835 235.906 377.265 234.95C376.408 233.518 375.22 232.35 373.826 231.536C372.431 230.718 370.816 230.253 369.123 230.253C368.513 230.253 367.892 230.312 367.282 230.439L368.23 235.363L367.348 230.424L367.282 230.435L368.168 235.374L367.34 230.428C366.447 230.584 365.634 230.904 364.951 231.29C363.923 231.878 363.164 232.592 362.562 233.295C361.955 234.002 361.498 234.712 361.12 235.397L361.113 235.408L365.383 237.87Z" fill="#1A1D63"/>
<path d="M365.383 237.87C366.048 236.673 366.981 235.583 368.168 235.375L368.23 235.363C370.736 234.858 373.165 236.554 373.677 239.127C374.225 241.879 375.358 244.97 376.691 248.187C376.952 248.812 377.385 249.366 377.966 249.694C378.183 249.816 378.412 249.902 378.652 249.943C379.171 250.028 379.676 249.723 379.861 249.221L390.686 219.851C391.227 218.638 391.793 217.623 392.374 216.801C395.152 212.91 401.166 215.607 400.352 220.349C400.247 220.97 400.098 221.625 399.906 222.309L394.844 241.965C398.352 237.316 401.765 230.417 405.153 222.908C405.679 221.93 406.264 221.152 406.914 220.553C409.416 218.221 413.349 220.059 413.327 223.529C413.323 224.094 413.254 224.697 413.124 225.344L404.993 249.05C407.902 244.855 411.929 239.339 414.227 234.103C414.485 233.522 414.892 233.043 415.422 232.726C417.612 231.428 419.315 232.674 419.613 235.256C419.711 236.148 419.565 237.152 419.177 238.261C416.649 245.219 413.538 252.26 409.841 259.382C412.448 257.273 415.055 255.031 417.528 252.1C417.906 251.657 418.411 251.308 418.977 251.252C419.867 251.151 420.426 251.713 420.956 252.643C421.199 253.178 421.094 254.145 420.916 255.205C419.569 260.58 417.23 265.511 414.42 270.239C413.915 271.079 413.36 271.886 412.728 272.626C409.99 275.869 406.881 278.506 403.472 280.645C395.21 285.833 384.651 285.807 376.713 280.094C376.371 279.849 376.03 279.589 375.692 279.328C365.932 271.749 361.323 259.103 363.194 246.711C363.495 244.732 363.887 242.701 364.381 240.6C364.595 239.655 364.915 238.726 365.383 237.87Z" fill="white"/>
<path d="M390.61 284.461C395.065 284.409 399.528 283.122 403.472 280.645C406.881 278.506 409.99 275.87 412.728 272.626C413.225 272.042 413.672 271.421 414.086 270.774C413.672 271.421 413.225 272.046 412.728 272.63C409.99 275.87 406.881 278.503 403.472 280.649C399.528 283.122 395.065 284.409 390.61 284.461ZM382.25 283.033C380.315 282.322 378.452 281.344 376.713 280.095C376.615 280.024 376.517 279.953 376.419 279.879C376.517 279.953 376.615 280.024 376.713 280.095C378.452 281.344 380.315 282.322 382.25 283.033ZM418.044 263.354C418.044 263.354 418.044 263.351 418.044 263.347C418.044 263.351 418.044 263.354 418.044 263.354ZM418.066 263.302C418.069 263.295 418.073 263.291 418.073 263.284C418.073 263.291 418.069 263.295 418.066 263.302ZM418.091 263.247C418.095 263.239 418.098 263.228 418.106 263.217C418.098 263.228 418.095 263.239 418.091 263.247ZM418.117 263.191C418.124 263.18 418.127 263.165 418.135 263.15C418.127 263.165 418.124 263.18 418.117 263.191ZM418.142 263.139C418.149 263.12 418.156 263.105 418.164 263.09C418.156 263.105 418.149 263.12 418.142 263.139ZM418.167 263.079C418.287 262.808 418.407 262.536 418.523 262.261C418.407 262.536 418.287 262.808 418.167 263.079ZM418.527 262.25C418.534 262.235 418.541 262.22 418.549 262.205C418.541 262.22 418.534 262.235 418.527 262.25ZM418.563 262.16C418.567 262.157 418.567 262.153 418.57 262.149C418.567 262.153 418.567 262.157 418.563 262.16ZM363.716 243.683C363.913 242.672 364.134 241.645 364.377 240.604C364.563 239.797 364.82 239.001 365.184 238.257C364.824 239.005 364.563 239.797 364.381 240.6C364.134 241.645 363.916 242.672 363.716 243.683Z" fill="#1A1D63"/>
<path d="M390.345 284.461C387.596 284.461 384.858 283.989 382.25 283.033C380.315 282.322 378.452 281.344 376.713 280.095C376.615 280.024 376.517 279.953 376.419 279.879C376.175 279.7 375.936 279.514 375.692 279.328C365.931 271.749 361.327 259.103 363.194 246.711C363.346 245.714 363.52 244.706 363.716 243.683C363.916 242.672 364.134 241.645 364.381 240.6C364.563 239.797 364.824 239.005 365.183 238.257C365.249 238.127 365.314 237.997 365.387 237.87C365.405 237.833 365.423 237.8 365.445 237.766C365.129 239.243 364.868 240.693 364.65 242.11C362.783 254.503 367.388 267.148 377.152 274.728C377.49 274.988 377.828 275.248 378.173 275.494C382.247 278.428 387.011 279.86 391.804 279.86C396.343 279.86 400.908 278.573 404.931 276.048C408.341 273.902 411.449 271.269 414.187 268.029C414.819 267.286 415.371 266.479 415.88 265.638C417.808 262.399 419.515 259.062 420.825 255.548C420.237 257.82 419.475 260.015 418.57 262.149C418.567 262.153 418.567 262.157 418.563 262.16C418.559 262.175 418.552 262.19 418.549 262.205C418.541 262.22 418.534 262.235 418.527 262.25C418.527 262.253 418.523 262.257 418.523 262.261C418.407 262.536 418.287 262.808 418.167 263.079C418.164 263.083 418.164 263.087 418.164 263.09C418.156 263.105 418.149 263.12 418.142 263.139C418.138 263.142 418.135 263.146 418.135 263.15C418.127 263.165 418.124 263.18 418.116 263.191C418.113 263.202 418.109 263.209 418.106 263.217C418.098 263.228 418.095 263.239 418.091 263.247C418.084 263.261 418.08 263.273 418.073 263.284C418.073 263.291 418.069 263.295 418.066 263.302C418.058 263.317 418.051 263.332 418.044 263.347C418.044 263.351 418.044 263.354 418.044 263.354C416.976 265.712 415.753 268 414.42 270.239C414.311 270.417 414.202 270.596 414.086 270.774C413.672 271.421 413.225 272.042 412.728 272.626C409.99 275.87 406.881 278.506 403.472 280.645C399.528 283.122 395.065 284.409 390.61 284.461C390.522 284.461 390.432 284.461 390.345 284.461Z" fill="#BABBD0"/>
<path d="M365.383 237.87C366.048 236.673 366.981 235.583 368.168 235.375L368.23 235.363C370.736 234.858 373.165 236.554 373.677 239.127C374.225 241.879 375.358 244.97 376.691 248.187C376.952 248.812 377.385 249.366 377.966 249.694C378.183 249.816 378.412 249.902 378.652 249.943C379.171 250.028 379.676 249.723 379.861 249.221L390.686 219.851C391.227 218.638 391.793 217.623 392.374 216.801C395.152 212.91 401.166 215.607 400.352 220.349C400.247 220.97 400.098 221.625 399.906 222.309L394.844 241.965C398.352 237.316 401.765 230.417 405.153 222.908C405.679 221.93 406.264 221.152 406.914 220.553C409.416 218.221 413.349 220.059 413.327 223.529C413.323 224.094 413.254 224.697 413.124 225.344L404.993 249.05C407.902 244.855 411.929 239.339 414.227 234.103C414.485 233.522 414.892 233.043 415.422 232.726C417.612 231.428 419.315 232.674 419.613 235.256C419.711 236.148 419.565 237.152 419.177 238.261C416.649 245.219 413.538 252.26 409.841 259.382C412.448 257.273 415.055 255.031 417.528 252.096C417.906 251.657 418.411 251.308 418.977 251.252C419.867 251.151 420.426 251.713 420.956 252.643C421.199 253.178 421.094 254.145 420.916 255.205C419.569 260.58 417.23 265.511 414.42 270.239C413.915 271.079 413.36 271.886 412.728 272.626C409.99 275.869 406.881 278.506 403.472 280.645C395.21 285.833 384.651 285.807 376.713 280.094C376.371 279.849 376.03 279.589 375.692 279.328C365.932 271.749 361.323 259.103 363.194 246.711C363.495 244.732 363.887 242.701 364.381 240.6C364.595 239.655 364.915 238.726 365.383 237.87V237.87Z" stroke="#1A1D63" stroke-width="5" stroke-miterlimit="10" stroke-linecap="round" stroke-linejoin="round"/>
<path d="M377.297 250.043C383.46 253.848 385.544 257.809 387.403 263.819C387.403 263.819 392.178 253.32 379.36 245.345L377.297 250.043Z" fill="#1A1D63"/>
<path d="M54.4641 3.03067C82.1906 3.96307 104.11 25.9866 103.422 52.2193C103.107 64.2529 98.0886 75.0763 90.0746 83.1824C91.0362 86.2575 93.3477 92.3085 97.8868 97.5908C98.6734 98.5042 97.9964 100.03 96.8821 99.8362C91.8588 98.9494 82.7929 96.9324 76.0809 93.0849C68.8654 96.51 60.6492 98.3177 51.9738 98.0247C24.2469 97.0923 2.32762 75.0687 3.01577 48.836C3.70317 22.6034 26.7375 2.09447 54.4641 3.03067Z" fill="white"/>
<path d="M100.288 100.367C100.284 100.367 100.279 100.367 100.275 100.367C98.3733 100.118 89.0638 98.7749 80.8699 95.4053C79.2049 94.7172 77.5836 93.951 76.0806 93.0882C69.3704 96.2718 61.7955 98.0608 53.7926 98.0608C53.1883 98.0608 52.583 98.0496 51.974 98.0273C39.2842 97.5996 27.813 92.7572 19.1673 85.1142C19.1677 85.1142 19.168 85.1142 19.1684 85.1142C27.8141 92.7572 39.286 97.5996 51.9729 98.0273C52.5826 98.0496 53.189 98.0571 53.794 98.0571C61.7973 98.0571 69.3714 96.2718 76.0802 93.0882C82.7919 96.9338 91.8577 98.9497 96.8812 99.8386C96.9477 99.8497 97.0123 99.8535 97.0755 99.8535C98.0603 99.8535 98.6137 98.4848 97.9089 97.6182C98.6602 98.4922 99.4729 99.3439 100.35 100.158C100.429 100.229 100.382 100.367 100.288 100.367ZM93.3861 91.0017C91.6867 87.8701 90.6431 85.0063 90.0737 83.1839C93.6109 79.606 96.5642 75.5 98.7876 70.9923C96.5646 75.5 93.6113 79.606 90.0744 83.1876C90.4081 84.2513 90.9034 85.6721 91.597 87.2974C92.089 88.4503 92.6809 89.7037 93.3861 91.0017Z" fill="#57A1D2"/>
<path d="M97.0755 99.8535C97.0123 99.8535 96.9477 99.8498 96.8812 99.8386C91.8577 98.9497 82.7919 96.9339 76.0802 93.0882C69.3714 96.2719 61.7973 98.0571 53.794 98.0571C53.189 98.0571 52.5826 98.0497 51.9729 98.0274C39.286 97.5997 27.8141 92.7572 19.1684 85.1142C19.2457 85.1142 19.3234 85.1142 19.4012 85.1142C21.9899 85.1142 24.5724 85.5903 27.0413 86.561C33.0932 88.945 39.6803 90.362 46.5928 90.5964C47.2686 90.6187 47.9429 90.6298 48.6136 90.6298C76.2672 90.6298 99.2953 71.4312 103.155 45.9769C103.385 48.0262 103.476 50.1089 103.421 52.2214C103.244 58.9421 101.601 65.2871 98.7876 70.9923C96.5642 75.5 93.6109 79.6061 90.0737 83.184C90.6431 85.0064 91.6867 87.8702 93.3861 91.0018C94.5601 93.1664 96.0475 95.4574 97.9089 97.6183C98.6137 98.4849 98.0603 99.8535 97.0755 99.8535Z" fill="#C6C6D8"/>
<path d="M54.4641 3.03067C82.1906 3.96307 104.11 25.9866 103.422 52.2193C103.107 64.2491 98.0886 75.0763 90.0746 83.1824C91.0362 86.2575 93.3478 92.3085 97.8869 97.5908C98.6735 98.5042 97.9965 100.03 96.8821 99.8362C91.8589 98.9494 82.7929 96.9324 76.0816 93.0849C68.8654 96.51 60.6492 98.3177 51.9738 98.0247C24.2469 97.0923 2.32802 75.0687 3.01579 48.836C3.7032 22.6034 26.7376 2.09447 54.4641 3.03067V3.03067Z" stroke="#1A1D63" stroke-width="5" stroke-miterlimit="10" stroke-linecap="round" stroke-linejoin="round"/>
<path d="M55 35.1282C59.0078 35.1282 62.8368 36.027 66.1375 37.7332C54.6275 46.655 45.316 53.8429 38.4341 59.1222C36.1714 56.5699 34.9802 53.6071 34.9802 50.5C34.9802 42.0248 43.9611 35.1282 55 35.1282ZM55 65.8746C51.1143 65.8746 47.3815 65.0229 44.14 63.4056C51.0179 58.129 60.2969 50.966 71.7473 42.0914C73.8919 44.5965 75.0198 47.4872 75.0198 50.5C75.0198 58.9779 66.0389 65.8746 55 65.8746ZM55 29C39.5606 29 27 38.6459 27 50.5C27 62.3569 39.5606 72 55 72C70.4394 72 83 62.3569 83 50.5C83 38.6459 70.4394 29 55 29Z" fill="#FF3E3E"/>
</svg>
