<svg width="100" height="86" viewBox="0 0 100 86" fill="none" xmlns="http://www.w3.org/2000/svg">
<path d="M54.3393 30.944L54.7003 31.8765L54.7003 31.8765L54.3393 30.944ZM70.8394 83.444L82.1813 85.6107L78.3869 74.705L70.8394 83.444ZM5.8673 0.709629C4.25354 7.40333 2.13835 14.4242 0.981525 20.5843C-0.170492 26.7188 -0.470318 32.4171 1.8343 36.4583C4.22332 40.6475 9.1547 42.6931 17.4507 42.1454C25.75 41.5974 37.7207 38.4493 54.7003 31.8765L53.9783 30.0114C37.0464 36.5657 25.3062 39.6224 17.3189 40.1497C9.32831 40.6773 5.3973 38.6689 3.57165 35.4676C1.66161 32.1183 1.79486 27.0895 2.94716 20.9534C4.09466 14.8429 6.15504 8.04957 7.81159 1.17837L5.8673 0.709629ZM54.7003 31.8765C65.3784 27.7431 74.3754 27.7466 81.3081 30.2223C88.2409 32.6981 93.188 37.6718 95.7496 43.6382C100.859 55.5387 96.5208 71.5637 78.9234 79.577L79.7522 81.3972C98.2778 72.9612 103.152 55.8102 97.5874 42.8492C94.812 36.3848 89.4503 31.0063 81.9807 28.3388C74.511 25.6713 65.012 25.7403 53.9783 30.0114L54.7003 31.8765Z" fill="#08090D"/>
</svg>
