<svg width="196" height="292" viewBox="0 0 196 292" fill="none" xmlns="http://www.w3.org/2000/svg">
<path d="M160.838 152.774C160.402 148.435 157.078 144.925 152.746 144.265C134.347 141.452 115.8 140.004 97.4415 139.914V139.912C97.3723 139.912 97.3028 139.912 97.2337 139.912C97.1645 139.912 97.0953 139.912 97.0261 139.912V139.914C78.6671 140.004 60.1215 141.452 41.7213 144.265C37.3891 144.925 34.0654 148.435 33.6303 152.774C30.4212 184.773 30.4175 216.801 33.6008 248.857C34.0459 253.342 37.5781 256.922 42.0812 257.42C60.3435 259.449 79.0318 260.447 97.4713 260.464V260.474C115.913 260.457 134.22 259.454 152.392 257.423C156.891 256.919 160.421 253.342 160.867 248.859C164.051 216.804 164.046 184.773 160.838 152.774Z" fill="#F1F1F1"/>
<path d="M34.6936 238.817C34.1988 232.544 33.8268 226.27 33.5776 219.996C34.2307 219.919 34.8826 219.823 35.5334 219.704C36.1639 219.592 36.7568 219.436 37.3113 219.255H37.3097C38.6007 218.835 39.8009 218.23 40.8747 217.473C40.9584 217.421 41.0376 217.364 41.1115 217.302C41.3919 217.094 41.6633 216.876 41.9246 216.647C42.0685 221.877 42.3587 227.121 42.8313 232.395C40.6619 236.245 37.5138 238.026 34.6936 238.817Z" fill="#9B9CB8"/>
<path d="M97.4693 251.109C94.3843 251.109 91.298 250.896 88.2116 250.472C88.2201 249.708 88.2243 248.944 88.2243 248.185C88.2243 247.458 88.2206 246.731 88.213 246.009C91.1654 246.637 94.1282 246.964 97.091 246.991C97.1424 246.996 97.1939 246.999 97.2459 246.999C97.3027 246.999 97.342 246.996 97.364 246.996H97.3782C97.3951 246.996 97.4387 246.996 97.5092 246.999C97.562 246.999 97.6121 246.996 97.6649 246.991C100.627 246.964 103.589 246.637 106.541 246.009C106.536 246.731 106.531 247.458 106.531 248.185C106.531 248.954 106.536 249.728 106.544 250.502C103.521 250.906 100.495 251.109 97.4693 251.109Z" fill="#9B9CB8"/>
<path d="M159.774 238.817C157.039 238.051 153.995 236.352 151.835 232.74C152.308 227.168 152.606 221.663 152.765 216.389C154.14 217.667 155.809 218.652 157.665 219.255C158.219 219.436 158.813 219.592 159.441 219.704C159.925 219.793 160.408 219.867 160.894 219.932C160.643 226.225 160.271 232.521 159.774 238.817Z" fill="#9B9CB8"/>
<path d="M33.6303 152.774L35.6017 152.95C35.7794 151.174 36.5469 149.584 37.6919 148.381C38.8391 147.173 40.3453 146.359 42.0392 146.101C60.3375 143.303 78.7815 141.864 97.0365 141.775C98.1242 141.77 99.006 140.936 99.006 139.914V139.912H97.0262L97.0188 141.772C97.066 141.772 97.1349 141.772 97.2263 141.772H97.2413C97.3324 141.772 97.4018 141.772 97.4488 141.772L97.4415 139.912H95.4614V139.914C95.4614 140.936 96.3434 141.77 97.4309 141.775C115.686 141.864 134.13 143.303 152.429 146.101C154.122 146.359 155.629 147.173 156.775 148.381C157.921 149.584 158.689 151.174 158.866 152.95C160.468 168.931 161.268 184.922 161.268 200.92C161.268 216.833 160.476 232.755 158.895 248.683C158.713 250.516 157.902 252.149 156.698 253.367C155.492 254.585 153.913 255.376 152.155 255.575C133.972 257.594 115.359 258.586 96.9945 258.603C95.9009 258.603 95.0162 259.435 95.0162 260.464V260.474H96.9963L96.9984 258.613C78.6318 258.596 60.4016 257.596 42.3101 255.575C40.5509 255.379 38.9745 254.585 37.7685 253.367C36.5654 252.151 35.7541 250.519 35.5724 248.686C33.9907 232.757 33.1984 216.836 33.1984 200.922C33.1984 184.924 33.9986 168.934 35.6017 152.95L33.6303 152.774L31.6589 152.601C30.0442 168.7 29.2382 184.808 29.2382 200.922C29.2382 216.952 30.036 232.988 31.6291 249.03C31.8926 251.682 33.0688 254.081 34.867 255.9C36.6623 257.718 39.1007 258.966 41.8422 259.271C60.0922 261.31 78.4776 262.315 96.9945 262.334C97.5222 262.334 98.0212 262.141 98.3961 261.789C98.771 261.439 98.977 260.97 98.977 260.474V260.464H96.9963L96.9984 262.325C115.512 262.305 134.276 261.307 152.619 259.268C155.362 258.966 157.802 257.718 159.6 255.9C161.398 254.081 162.575 251.68 162.839 249.028C164.431 232.985 165.229 216.95 165.229 200.92C165.229 184.805 164.423 168.698 162.808 152.601C162.552 150.036 161.44 147.701 159.732 145.903C158.024 144.104 155.703 142.832 153.063 142.427C134.561 139.599 115.913 138.146 97.4517 138.054L97.4415 139.914H99.4205V139.912C99.4205 139.413 99.2146 138.944 98.8397 138.592C98.4648 138.242 97.9631 138.049 97.4341 138.051C97.3427 138.051 97.2735 138.051 97.2263 138.051H97.2413C97.1941 138.051 97.1249 138.051 97.0336 138.051C96.5045 138.049 96.0034 138.242 95.6285 138.592C95.2538 138.944 95.0461 139.413 95.0461 139.912V139.914H97.0262L97.0159 138.054C78.5531 138.146 59.9055 139.599 41.4034 142.427C38.7651 142.832 36.4431 144.104 34.7368 145.903C33.0281 147.701 31.9161 150.036 31.6589 152.601L33.6303 152.774Z" fill="#1A1D63"/>
<path d="M176.848 184.43C173.408 177.594 168.788 171.347 163.352 165.773C147.215 149.234 134.49 145.927 123.546 143.777H71.208C60.2649 145.927 47.5395 149.234 31.4027 165.773C25.9666 171.347 21.3466 177.594 17.9063 184.43C15.1241 189.957 13.3122 195.323 12.3118 200.647C12.5795 200.642 12.847 200.639 13.1144 200.647C16.8141 200.736 19.6313 201.758 22.9228 203.261C24.2041 203.847 25.502 204.447 26.736 205.12C29.0057 206.355 31.1408 207.881 33.1441 209.453C33.6492 209.85 34.1381 210.292 34.6054 210.768C35.487 211.408 36.3685 212.048 37.25 212.688C38.3338 213.633 39.18 214.71 39.7888 215.916C40.6165 211.185 42.0189 206.933 43.8351 203.108C43.64 222.209 45.0921 247.507 50.8473 267.812C49.118 268.462 47.2831 269.395 45.4429 270.724C43.9724 271.788 42.9665 273.331 42.647 275.048C42.1615 277.645 42.0847 280.24 42.3434 282.837C42.642 285.807 45.1818 288.136 48.3444 288.409C57.7354 289.22 67.2294 289.198 76.8186 288.342C79.5248 288.102 81.7501 286.241 82.3523 283.75C83.8754 277.467 84.9632 270.779 85.6338 263.711C86.1856 256.8 86.3361 250.117 86.1937 243.6C89.8759 244.6 93.5608 245.108 97.2459 245.133V245.138C97.2895 245.138 97.3336 245.136 97.3776 245.136C97.4215 245.136 97.4653 245.138 97.5091 245.138V245.133C101.195 245.108 104.88 244.6 108.561 243.6C108.418 250.117 108.569 256.8 109.12 263.711C109.791 270.779 110.879 277.467 112.402 283.75C113.004 286.241 115.23 288.102 117.936 288.342C127.525 289.198 137.019 289.22 146.41 288.409C149.573 288.136 152.112 285.807 152.411 282.837C152.67 280.24 152.593 277.645 152.107 275.048C151.788 273.331 150.782 271.788 149.311 270.724C147.471 269.395 145.636 268.462 143.907 267.812C149.662 247.507 151.115 222.209 150.919 203.108C152.493 206.419 153.76 210.049 154.61 214.033C155.748 211.83 157.308 209.863 159.296 208.126C161.833 205.564 164.835 203.75 168.304 202.688C171.639 201.044 175.235 200.287 179.087 200.424C180.222 200.429 181.339 200.493 182.44 200.617C181.437 195.303 179.625 189.948 176.848 184.43Z" fill="white"/>
<path d="M97.5091 163.895C81.7026 163.895 65.8963 160.328 50.0901 153.194C50.885 152.732 51.6699 152.298 52.4446 151.894C56.7105 153.514 61.2856 154.804 66.1566 155.798C75.3789 157.684 85.6662 158.517 96.9792 158.517C97.1561 158.517 97.3327 158.517 97.5091 158.517C97.686 158.517 97.8629 158.517 98.0398 158.517C111.449 158.515 123.417 157.346 133.874 154.642C136.805 153.883 139.617 153.005 142.307 151.995C143.128 152.41 143.936 152.839 144.733 153.283C128.993 160.358 113.25 163.895 97.5091 163.895Z" fill="#BABBD0"/>
<path d="M97.405 243.275C97.3963 243.275 97.387 243.275 97.3775 243.275C97.3675 243.275 97.358 243.275 97.349 243.275C97.3192 243.273 97.2891 243.273 97.259 243.273C93.7595 243.25 90.2597 242.767 86.7438 241.812C86.5632 241.762 86.3784 241.74 86.1944 241.74C85.838 241.74 85.4853 241.829 85.1764 242.003C79.7519 240.355 74.3576 237.609 68.9992 233.784C68.7856 233.633 68.9247 233.328 69.165 233.328C69.1895 233.328 69.2154 233.332 69.2418 233.337C81.0894 236.401 90.062 237.959 98.7208 237.959C107.185 237.957 115.348 236.468 125.603 233.444C125.632 233.434 125.661 233.429 125.687 233.429C125.927 233.429 126.067 233.737 125.848 233.888C120.391 237.681 114.968 240.378 109.577 242C109.268 241.829 108.917 241.74 108.561 241.74C108.376 241.74 108.191 241.762 108.011 241.812C104.495 242.767 100.994 243.25 97.4958 243.273C97.4654 243.273 97.4351 243.273 97.405 243.275Z" fill="#BABBD0"/>
<path d="M147.566 235.947C147.944 228.986 147.883 222.199 147.373 215.945C147.857 215.893 148.34 215.841 148.82 215.789C148.807 216.298 148.791 216.809 148.773 217.317C148.725 218.736 148.667 220.155 148.601 221.572C148.601 221.589 148.598 221.604 148.598 221.621C148.377 226.305 148.041 231.117 147.566 235.947ZM146.721 209.927C146.478 208.166 146.193 206.462 145.869 204.829C146.381 204.775 146.893 204.723 147.402 204.668C147.669 206.109 148.033 207.518 148.49 208.89C148.58 209.163 148.675 209.434 148.773 209.704C148.086 209.781 147.405 209.855 146.721 209.927ZM145.166 201.656C144.364 198.412 143.379 195.502 142.207 193.021C144.002 195.122 145.589 197.395 146.975 199.791C146.975 199.811 146.972 199.828 146.972 199.846C146.967 199.95 146.967 200.022 146.967 200.064C146.962 200.223 146.959 200.374 146.959 200.515C146.959 200.54 146.959 200.563 146.959 200.58V200.563V200.605C146.959 200.627 146.959 200.649 146.959 200.677C146.959 200.744 146.959 200.835 146.962 200.949V200.959C146.969 201.15 146.98 201.319 146.988 201.465C146.381 201.53 145.773 201.594 145.166 201.656Z" fill="#BABBD0"/>
<path d="M47.8725 241.856C47.8714 241.856 47.8703 241.856 47.8693 241.856C47.7521 240.985 47.6404 240.115 47.5343 239.244C47.4413 238.411 47.3526 237.579 47.2681 236.746C46.5434 229.609 46.1265 222.492 45.9327 215.762C46.5051 215.826 47.073 215.888 47.6454 215.95C46.993 223.963 47.0764 232.851 47.8751 241.856C47.8743 241.856 47.8732 241.856 47.8725 241.856ZM48.2983 209.932C47.6008 209.858 46.9027 209.781 46.2049 209.704C46.3026 209.433 46.3966 209.163 46.4872 208.89C46.9442 207.516 47.308 206.107 47.5733 204.663C48.0979 204.72 48.6249 204.775 49.1495 204.832C48.8247 206.464 48.5412 208.168 48.2983 209.932ZM49.8533 201.659C49.2316 201.594 48.6088 201.53 47.9873 201.463C47.9976 201.317 48.0076 201.148 48.0134 200.959C48.0171 200.84 48.0171 200.746 48.0171 200.677C48.0171 200.639 48.0171 200.607 48.0171 200.585V200.58V200.513C48.0171 200.374 48.0155 200.223 48.0103 200.061C48.0103 200.019 48.0095 199.955 48.005 199.865C48.0024 199.811 47.9984 199.756 47.9934 199.704C47.9868 199.585 47.9783 199.468 47.9688 199.352C49.4542 196.826 51.1845 194.447 53.1754 192.277C51.8424 194.914 50.7362 198.082 49.8533 201.659Z" fill="#BABBD0"/>
<path d="M110.496 249.621C110.493 249.142 110.491 248.663 110.491 248.185C110.491 246.661 110.509 245.146 110.541 243.637C110.546 243.436 110.514 243.236 110.451 243.047C113.624 242.01 120.65 239.517 127.871 235.667C127.871 235.667 124.314 244.669 110.496 249.621Z" fill="#BABBD0"/>
<path d="M84.259 249.621C70.4397 244.669 66.8837 235.667 66.8837 235.667C74.105 239.517 81.1301 242.01 84.3025 243.047C84.2402 243.236 84.2096 243.434 84.2138 243.637C84.2468 245.146 84.264 246.661 84.264 248.185C84.264 248.663 84.2621 249.142 84.259 249.621Z" fill="#BABBD0"/>
<path d="M132.636 287.139C127.826 287.139 122.989 286.923 118.123 286.489C117.197 286.407 116.36 286.05 115.692 285.497C115.026 284.941 114.541 284.197 114.335 283.336H114.332C112.832 277.147 111.758 270.546 111.095 263.558C111.032 262.779 110.976 262.005 110.924 261.231C112.558 267.934 114.522 274.011 117.281 278.596C118.303 280.29 120.8 281.902 122.857 282.158C126.413 282.599 129.98 282.85 133.624 282.85C137.198 282.85 140.847 282.609 144.641 282.071C146.769 281.766 148.804 281.037 150.576 279.908C150.576 279.92 150.576 279.935 150.576 279.948C150.576 280.851 150.531 281.756 150.439 282.664L150.441 282.661C150.336 283.696 149.845 284.611 149.095 285.308C148.345 286.001 147.344 286.459 146.23 286.556C141.724 286.946 137.19 287.139 132.636 287.139Z" fill="#BABBD0"/>
<path d="M62.118 287.139C57.5632 287.139 53.0322 286.946 48.5257 286.556C47.4095 286.459 46.4099 286.001 45.6591 285.308C44.909 284.611 44.4195 283.696 44.3147 282.661L44.315 282.664C44.2244 281.756 44.1777 280.851 44.1777 279.95C44.1777 279.935 44.1777 279.92 44.1779 279.908C45.9513 281.034 47.9874 281.766 50.1138 282.071C53.909 282.609 57.5582 282.85 61.1311 282.85C64.776 282.85 68.3418 282.599 71.8976 282.158C73.9542 281.902 76.4518 280.29 77.4735 278.596C80.2341 274.011 82.1981 267.934 83.8313 261.236C83.7793 262.005 83.7225 262.779 83.6604 263.555C82.997 270.546 81.9219 277.147 80.4215 283.336H80.4213C80.2135 284.197 79.7285 284.941 79.0621 285.497C78.3947 286.05 77.557 286.407 76.6319 286.489H76.6311C71.7669 286.923 66.9291 287.139 62.118 287.139Z" fill="#BABBD0"/>
<path d="M14.2673 200.798C15.5006 195.457 17.2771 190.193 19.7322 185.222C22.1875 180.248 25.3195 175.569 29.2705 171.377L29.3724 171.26C29.878 170.625 30.2439 169.993 30.5752 169.435C30.9039 168.876 31.198 168.393 31.4845 168.035L29.9004 166.919L30.7859 168.584C31.2841 168.348 31.6936 168.048 32.0595 167.708C32.4228 167.363 32.7399 166.979 32.9915 166.51L31.2205 165.679L32.6205 166.994L32.0096 166.421L32.4679 167.11C32.5025 167.09 32.5704 167.043 32.6205 166.994L32.0096 166.421L32.4679 167.11L32.2229 166.741L32.4455 167.123L32.4679 167.11L32.2229 166.741L32.4455 167.123L32.4479 167.12C32.4619 167.113 32.5693 167.068 32.7546 166.969C32.9376 166.872 33.1884 166.711 33.4126 166.497C33.4955 166.421 33.5557 166.354 33.6238 166.264C34.861 164.637 36.1567 163.302 37.5547 162.017C38.9513 160.735 40.4541 159.504 42.063 158.12L40.725 156.748L41.9925 158.177C48.1382 153.367 54.7642 150.013 62.2276 147.592L62.221 147.594C67.9863 145.746 74.0486 145.292 80.2751 145.295C85.6992 145.292 91.2327 145.637 96.7566 145.637C97.0119 145.637 97.2673 145.637 97.5223 145.637C98.6153 145.63 99.4971 144.791 99.4892 143.764C99.4839 142.737 98.5915 141.909 97.4959 141.916C97.2506 141.916 97.0038 141.916 96.7566 141.916C91.4098 141.919 85.8737 141.574 80.2751 141.574C73.854 141.574 67.3304 142.028 60.9432 144.072L60.9366 144.074C53.0872 146.615 45.9844 150.207 39.4574 155.319L39.3869 155.376C37.8277 156.721 36.2943 157.971 34.7868 159.355C33.2806 160.737 31.8042 162.255 30.4012 164.101L32.0125 165.183L30.6124 163.868L31.2231 164.441L30.765 163.751C30.7302 163.771 30.6626 163.818 30.6124 163.868L31.2231 164.441L30.765 163.751L31.0098 164.121L30.7875 163.739L30.765 163.751L31.0098 164.121L30.7875 163.739L30.7851 163.741C30.7711 163.749 30.6637 163.793 30.4783 163.893C30.2954 163.989 30.0446 164.151 29.8204 164.364C29.6649 164.51 29.5477 164.662 29.4495 164.848C29.4371 164.875 29.3581 164.987 29.2594 165.076C29.1633 165.17 29.0447 165.242 29.0149 165.255C28.7348 165.386 28.504 165.567 28.3163 165.803C27.8107 166.438 27.4448 167.07 27.1135 167.629C26.7848 168.187 26.4907 168.671 26.2042 169.028L27.7883 170.144L26.3061 168.911C22.0726 173.401 18.7363 178.397 16.1397 183.656C13.5426 188.916 11.6834 194.44 10.3972 200.009C10.1653 201.014 10.8439 202.006 11.9126 202.222C12.9813 202.44 14.0355 201.803 14.2673 200.798Z" fill="#1A1D63"/>
<path d="M52.7667 267.351C50.5976 259.365 49.2836 250.993 47.9643 242.558L46.0053 242.829L47.9691 242.591C46.3808 231.078 45.7738 219.738 45.7738 208.382C45.7738 206.633 45.7881 204.884 45.8155 203.135C45.8308 202.158 45.0412 201.337 44.0054 201.252C42.9697 201.17 42.0422 201.85 41.8799 202.815C41.7951 203.321 41.7671 203.805 41.7671 204.266C41.7671 204.671 41.7888 205.058 41.8168 205.425C41.8912 206.397 42.7553 207.151 43.7948 207.151C44.8342 207.149 45.6959 206.392 45.7672 205.417C45.8274 204.584 45.81 203.815 45.8158 203.118C45.8218 202.232 45.1626 201.466 44.2378 201.284C43.3129 201.106 42.3839 201.562 42.014 202.378C42.0018 202.403 41.9754 202.463 41.9422 202.535C41.8249 202.798 41.618 203.267 41.4279 203.795C41.3328 204.06 41.2412 204.341 41.1662 204.638C41.1287 204.787 41.0955 204.941 41.0696 205.105C41.044 205.268 41.0247 205.442 41.0244 205.646C41.0247 205.794 41.0345 205.961 41.0743 206.159C41.105 206.305 41.1525 206.474 41.2407 206.66C41.3067 206.799 41.3967 206.95 41.5208 207.102C41.7043 207.327 41.9757 207.548 42.2856 207.69C42.5951 207.834 42.9243 207.898 43.202 207.905H43.2047C43.2356 207.905 43.2596 207.905 43.2765 207.905C43.5297 207.905 43.7961 207.863 44.0358 207.781C44.2613 207.705 44.4609 207.598 44.6243 207.484C44.9326 207.265 45.118 207.032 45.2492 206.831C45.4733 206.477 45.5592 206.196 45.631 205.933C45.731 205.544 45.7704 205.192 45.797 204.849C45.8224 204.507 45.8287 204.182 45.8287 203.897C45.8287 203.696 45.8253 203.515 45.8221 203.373C45.8203 203.301 45.8187 203.239 45.8176 203.19C45.8163 203.143 45.8158 203.105 45.8158 203.1C45.8121 202.227 45.1687 201.478 44.2639 201.289C43.3591 201.101 42.439 201.528 42.0441 202.314C39.9734 206.449 38.7568 210.853 37.9978 215.241C37.8225 216.255 38.5554 217.211 39.6349 217.374C40.7145 217.54 41.7315 216.851 41.9068 215.836C42.6246 211.681 43.7639 207.618 45.6273 203.899L43.8357 203.108L41.8556 203.115C41.8561 203.17 41.8569 203.219 41.8582 203.274C41.8624 203.435 41.8685 203.654 41.8685 203.897C41.8688 204.095 41.8643 204.308 41.8524 204.502C41.8437 204.648 41.8305 204.782 41.8152 204.886C41.8041 204.963 41.7914 205.023 41.7843 205.05L41.7814 205.06L41.7806 205.063L42.3226 205.219L41.8115 204.991C41.7874 205.04 41.7814 205.06 41.7806 205.063L42.3226 205.219L41.8115 204.991L42.8826 205.467L41.9108 204.832C41.8587 204.904 41.83 204.956 41.8115 204.991L42.8826 205.467L41.9108 204.832L43.1954 205.673L42.363 204.432C42.1214 204.576 41.9878 204.73 41.9108 204.832L43.1954 205.673L42.363 204.432L43.2731 205.789L42.7875 204.251C42.6281 204.296 42.4826 204.361 42.363 204.432L43.2731 205.789L42.7875 204.251L43.2765 205.799V204.184C43.1173 204.184 42.9465 204.207 42.7875 204.251L43.2765 205.799V204.184V205.772L43.3298 204.184C43.3053 204.184 43.2873 204.184 43.2765 204.184V205.772L43.3298 204.184H43.3327L43.2765 205.784L43.7343 204.244C43.588 204.204 43.4507 204.189 43.3327 204.184L43.2765 205.784L43.7343 204.244L43.2601 205.839L44.4646 204.631C44.2663 204.452 43.9901 204.308 43.7343 204.244L43.2601 205.839L44.4646 204.631L43.2857 205.814L44.7967 205.03C44.7236 204.906 44.615 204.762 44.4646 204.631L43.2857 205.814L44.7967 205.03L43.4478 205.73L44.9643 205.462C44.944 205.363 44.9063 205.219 44.7967 205.03L43.4478 205.73L44.9643 205.462L43.9212 205.646H44.9847C44.9841 205.616 44.9836 205.559 44.9643 205.462L43.9212 205.646H44.9847H44.4878L44.9841 205.67L44.9847 205.646H44.4878L44.9841 205.67L44.7816 205.66L44.9839 205.673L44.9841 205.67L44.7816 205.66L44.9839 205.673L44.9841 205.67C44.9865 205.638 45.0174 205.484 45.0723 205.308C45.1534 205.04 45.2814 204.705 45.3968 204.43C45.4546 204.291 45.5093 204.165 45.5544 204.065C45.5998 203.961 45.6336 203.889 45.6574 203.835L43.8357 203.108L41.8556 203.095C41.8513 203.854 41.8627 204.544 41.8162 205.162L43.7919 205.291L45.7669 205.157C45.7427 204.842 45.7271 204.544 45.7271 204.266C45.7271 203.951 45.7471 203.661 45.7915 203.398L43.8357 203.108L41.8558 203.08C41.8281 204.847 41.8136 206.615 41.8136 208.382C41.8136 219.862 42.4272 231.365 44.0416 243.067L44.0464 243.099C45.3672 251.534 46.6931 260.03 48.9293 268.271C49.1996 269.266 50.2776 269.868 51.3374 269.613C52.3971 269.36 53.0368 268.348 52.7667 267.351Z" fill="#1A1D63"/>
<path d="M97.509 245.138C93.7368 245.138 89.964 244.625 86.1939 243.6C86.3364 250.117 86.186 256.8 85.6345 263.711C84.9639 270.779 83.8758 277.467 82.3525 283.75C81.7508 286.241 79.5249 288.102 76.8188 288.342C67.23 289.198 57.7361 289.22 48.3448 288.409C45.182 288.136 42.6421 285.807 42.3438 282.837C42.0851 280.24 42.1616 277.645 42.6474 275.048C42.9669 273.331 43.9728 271.788 45.4436 270.724C47.2835 269.395 49.1184 268.462 50.8477 267.812C56.4422 265.706 60.9439 266.552 60.9439 266.552" stroke="#1A1D63" stroke-width="5" stroke-miterlimit="10" stroke-linecap="round" stroke-linejoin="round"/>
<path d="M39.4722 216.035C39.8368 215.968 40.1995 215.898 40.561 215.826C41.6305 215.61 42.3122 214.623 42.0838 213.618C41.8552 212.614 40.8033 211.974 39.7338 212.187C39.3975 212.254 39.0611 212.318 38.725 212.38C37.651 212.574 36.9477 213.549 37.1541 214.559C37.3603 215.566 38.3984 216.228 39.4722 216.035Z" fill="#1A1D63"/>
<path d="M14.1343 200.816C14.5538 199.389 14.822 197.993 15.0839 196.675C15.3445 195.358 15.5993 194.12 15.956 193.006L14.0596 192.471L15.8982 193.163C16.9643 190.655 17.9466 188.196 19.0711 185.812C20.1955 183.428 21.4596 181.119 23.0862 178.886L21.452 177.834L22.9553 179.045C23.8542 178.06 24.504 177.103 25.0977 176.237C25.692 175.366 26.2306 174.587 26.9155 173.835L26.9334 173.816C29.5807 170.831 31.9568 168.103 34.5898 165.133L33.0686 163.942L34.4686 165.257C34.6168 165.116 34.9003 164.897 35.2295 164.652C35.5603 164.401 35.9368 164.124 36.3167 163.769L36.4068 163.679C37.3042 162.714 38.1825 161.834 39.1058 161.023C40.0298 160.214 40.9982 159.475 42.0873 158.792C42.1847 158.73 42.3064 158.639 42.3891 158.559C42.9171 158.063 43.4451 157.567 43.9731 157.071L43.1423 156.292L43.6318 157.302C43.6695 157.284 43.8021 157.23 43.9731 157.071L43.1423 156.292L43.6318 157.302L43.4491 156.925L43.617 157.309L43.6318 157.302L43.4491 156.925L43.617 157.309H43.6175C43.6371 157.299 43.7757 157.262 44.0157 157.178C44.136 157.133 44.2842 157.073 44.4579 156.982C44.6303 156.89 44.8312 156.761 45.0292 156.575C45.6892 155.955 46.3144 155.369 46.9694 154.838C47.625 154.307 48.3085 153.829 49.0998 153.402L48.1174 151.787L49.0522 153.427C52.7162 151.584 56.3443 149.879 60.0431 148.517C63.743 147.153 67.5111 146.126 71.4757 145.617C72.5593 145.479 73.3175 144.541 73.1691 143.521C73.021 142.504 72.0225 141.792 70.939 141.931C66.5986 142.487 62.5175 143.608 58.5969 145.054C54.6752 146.498 50.9109 148.269 47.1822 150.147L47.135 150.172C46.0781 150.738 45.1776 151.375 44.381 152.023C43.584 152.67 42.8891 153.325 42.2288 153.945L43.0599 154.724L42.5704 153.714C42.5327 153.732 42.4002 153.786 42.2288 153.945L43.0599 154.724L42.5704 153.714L42.7531 154.092L42.5852 153.707L42.5704 153.714L42.7531 154.092L42.5852 153.707H42.5847C42.5652 153.717 42.4265 153.754 42.1866 153.839C42.0662 153.883 41.9181 153.943 41.7443 154.034C41.5719 154.126 41.371 154.255 41.1727 154.441C40.645 154.937 40.117 155.434 39.5889 155.93L40.989 157.245L39.8907 155.697C38.6036 156.503 37.4599 157.376 36.4039 158.304C35.347 159.229 34.3773 160.209 33.4266 161.229L34.9167 162.454L33.5166 161.139C33.3685 161.281 33.0847 161.499 32.7557 161.745C32.4249 161.995 32.0484 162.273 31.6685 162.628C31.6099 162.682 31.6001 162.692 31.5473 162.752C28.9001 165.736 26.5239 168.465 23.8909 171.434L25.4122 172.625L23.9086 171.414C23.0096 172.399 22.3599 173.357 21.7664 174.222C21.1718 175.093 20.6335 175.872 19.9484 176.624C19.8948 176.683 19.8644 176.721 19.8177 176.783C18.0121 179.263 16.6358 181.791 15.4504 184.307C14.2647 186.822 13.267 189.325 12.221 191.778C12.1903 191.85 12.1867 191.863 12.1629 191.935C11.7278 193.302 11.4545 194.668 11.1905 195.996C10.9281 197.32 10.6754 198.61 10.3174 199.821C10.0257 200.811 10.6435 201.838 11.6974 202.111C12.7511 202.386 13.8423 201.805 14.1343 200.816Z" fill="#1A1D63"/>
<path d="M51.0783 188.893C45.6354 194.475 41.9553 201.319 39.6845 208.419C38.9698 210.657 38.3924 212.926 37.9468 215.219C37.7503 216.231 38.4634 217.198 39.539 217.384C40.6149 217.568 41.6461 216.898 41.8425 215.888C42.2626 213.728 42.8062 211.589 43.4773 209.491C45.6098 202.818 49.0472 196.479 53.997 191.409C54.7362 190.652 54.6818 189.474 53.8758 188.779C53.07 188.087 51.8173 188.137 51.0783 188.893Z" fill="#1A1D63"/>
<path d="M150.375 225.488C149.763 239.852 147.387 253.992 143.907 267.812" stroke="#1A1D63" stroke-width="5" stroke-miterlimit="10" stroke-linecap="round" stroke-linejoin="round"/>
<path d="M156.231 212.244C155.407 208.851 154.238 205.531 152.728 202.349C152.345 201.545 151.415 201.101 150.499 201.289C149.581 201.476 148.931 202.242 148.939 203.125C148.95 204.227 148.955 205.331 148.955 206.432C148.955 210.061 148.894 213.69 148.773 217.317C148.725 218.736 148.667 220.155 148.601 221.572C148.554 222.599 149.398 223.467 150.491 223.514C151.584 223.559 152.509 222.765 152.559 221.738C152.625 220.304 152.683 218.87 152.73 217.436C152.854 213.77 152.918 210.101 152.918 206.432C152.918 205.318 152.91 204.204 152.899 203.088L150.919 203.108L149.111 203.864C150.513 206.821 151.603 209.91 152.369 213.07C152.611 214.073 153.673 214.7 154.739 214.472C155.806 214.244 156.474 213.246 156.231 212.244Z" fill="#1A1D63"/>
<path d="M97.2888 145.635C98.2113 145.617 99.1327 145.608 100.054 145.608C104.526 145.608 109.002 145.799 113.564 145.799C116.497 145.799 119.467 145.719 122.49 145.454L122.305 143.601L122.06 145.446C128.119 146.158 133.977 148.063 139.638 150.723L139.664 150.735C146.074 153.628 151.708 157.356 156.791 161.826C161.873 166.299 166.398 171.519 170.556 177.378L172.204 176.346L170.53 177.341C172.988 180.987 175.045 184.612 176.679 188.338C178.31 192.066 179.525 195.894 180.298 199.965C180.491 200.977 181.518 201.649 182.595 201.471C183.673 201.289 184.388 200.324 184.198 199.312C183.374 194.974 182.075 190.878 180.338 186.921C178.604 182.964 176.436 179.147 173.878 175.351L173.851 175.314C169.561 169.266 164.846 163.818 159.499 159.113C154.153 154.404 148.171 150.445 141.38 147.381L140.522 149.058L141.407 147.394C135.45 144.595 129.164 142.531 122.551 141.755C122.408 141.738 122.263 141.735 122.12 141.748C119.264 142.001 116.42 142.078 113.564 142.078C109.12 142.078 104.645 141.889 100.054 141.887C99.1089 141.887 98.1585 141.896 97.2014 141.916C96.1081 141.939 95.2414 142.79 95.2654 143.817C95.2897 144.844 96.1955 145.657 97.2888 145.635Z" fill="#1A1D63"/>
<path d="M133.811 266.552C133.811 266.552 138.312 265.706 143.907 267.812C145.636 268.462 147.471 269.395 149.311 270.724C150.782 271.788 151.788 273.331 152.107 275.048C152.593 277.645 152.67 280.24 152.411 282.837C152.112 285.807 149.573 288.136 146.41 288.409C137.019 289.22 127.525 289.198 117.936 288.342C115.23 288.102 113.004 286.241 112.402 283.75C110.879 277.467 109.791 270.779 109.12 263.711C108.569 256.8 108.418 250.117 108.561 243.6C104.791 244.625 101.018 245.138 97.2454 245.138" stroke="#1A1D63" stroke-width="5" stroke-miterlimit="10" stroke-linecap="round" stroke-linejoin="round"/>
<path d="M184.209 199.364C182.551 191.657 179.567 184.262 175.227 177.383C175.142 177.249 175.042 177.125 174.923 177.016C174.659 176.768 174.395 176.52 174.131 176.271L172.732 177.586L174.448 176.658C171.863 172.441 168.875 168.676 165.564 165.185C162.253 161.695 158.623 158.475 154.753 155.339L154.739 155.329C145.758 148.165 135.361 143.799 123.884 141.941C122.807 141.765 121.782 142.445 121.595 143.457C121.41 144.469 122.134 145.431 123.211 145.607C134.067 147.371 143.735 151.44 152.178 158.167L152.165 158.157C155.951 161.224 159.449 164.329 162.607 167.661C165.765 170.993 168.582 174.545 171.016 178.514C171.098 178.65 171.214 178.792 171.333 178.901C171.597 179.149 171.861 179.397 172.125 179.645L173.524 178.33L171.821 179.278C175.929 185.795 178.754 192.788 180.328 200.101C180.544 201.108 181.587 201.758 182.659 201.555C183.731 201.351 184.425 200.371 184.209 199.364Z" fill="#1A1D63"/>
<path d="M140.739 191.389C146.439 197.397 150.28 205.063 152.374 213.088C152.635 214.085 153.707 214.695 154.768 214.452C155.83 214.206 156.479 213.199 156.22 212.202C153.997 203.693 149.918 195.482 143.696 188.913C142.967 188.147 141.716 188.08 140.9 188.762C140.084 189.447 140.01 190.622 140.739 191.389Z" fill="#1A1D63"/>
<path d="M176.848 184.431L178.638 183.634C175.105 176.611 170.369 170.211 164.812 164.515C156.617 156.113 149.2 150.993 142.405 147.724C135.614 144.449 129.471 143.037 123.953 141.953C123.813 141.926 123.689 141.916 123.546 141.916H71.208C71.0649 141.916 70.9429 141.926 70.8027 141.953C65.2843 143.037 59.1407 144.449 52.3495 147.724C45.5551 150.993 38.1387 156.113 29.9432 164.515H29.9429C24.387 170.211 19.6503 176.611 16.1162 183.634C13.2641 189.3 11.3933 194.832 10.3618 200.322C10.2585 200.873 10.4209 201.431 10.8069 201.855C11.1931 202.279 11.7558 202.517 12.3498 202.505C12.48 202.502 12.6067 202.502 12.7305 202.502C12.8446 202.502 12.9557 202.502 13.064 202.505H13.0637C14.7322 202.547 16.1611 202.79 17.591 203.202C19.019 203.614 20.4513 204.202 22.0571 204.936C23.332 205.516 24.5876 206.099 25.7432 206.73C27.8677 207.886 29.9191 209.344 31.8744 210.88C32.3069 211.22 32.7356 211.607 33.1496 212.028C33.2288 212.11 33.3022 212.172 33.3949 212.239C34.2764 212.879 35.158 213.519 36.0392 214.159L37.25 212.688L35.9022 214.05C36.8136 214.846 37.499 215.725 37.9998 216.714C38.3713 217.449 39.2063 217.873 40.0652 217.759C40.9238 217.645 41.6023 217.022 41.7427 216.218C42.5432 211.644 43.8952 207.548 45.6435 203.864L43.835 203.108L41.8552 203.088C41.8438 204.177 41.838 205.286 41.838 206.412C41.8383 215.787 42.2399 226.402 43.3258 237.101C44.4124 247.798 46.1805 258.574 48.9339 268.291L50.8473 267.812L50.112 266.083C48.2248 266.792 46.2257 267.809 44.2361 269.248H44.2348C42.3777 270.593 41.1038 272.543 40.6967 274.726H40.697C40.3704 276.47 40.2175 278.213 40.2175 279.95C40.2175 280.972 40.2706 281.992 40.372 283.009V283.011C40.5658 284.946 41.4953 286.68 42.8806 287.96C44.2649 289.24 46.1167 290.084 48.1633 290.26C52.7907 290.662 57.4428 290.86 62.118 290.86C67.0556 290.86 72.0188 290.639 77.0058 290.193H77.005C78.786 290.037 80.4142 289.342 81.6867 288.283C82.9603 287.223 83.8886 285.795 84.283 284.162H84.2828C85.8283 277.787 86.9285 271.017 87.6062 263.875L87.6085 263.85C88.0355 258.499 88.2242 253.287 88.2242 248.185C88.2242 246.634 88.2068 245.094 88.1733 243.561L86.1937 243.6L85.6435 245.386C89.492 246.433 93.362 246.969 97.2324 246.994L97.2459 245.133H95.2655V245.138C95.2655 245.627 95.4767 246.106 95.8455 246.453C96.2143 246.8 96.7242 246.999 97.2459 246.999C97.3026 246.999 97.3419 246.996 97.3639 246.996H97.3837H97.3839L97.3776 246.478V246.996H97.3839L97.3776 246.478V246.996V246.475L97.371 246.996H97.3776V246.475L97.371 246.996L97.3715 246.964L97.3707 246.996H97.371L97.3715 246.964L97.3707 246.996C97.376 246.996 97.4222 246.996 97.5091 246.999C98.0318 246.999 98.5414 246.8 98.9083 246.453C99.278 246.106 99.4892 245.627 99.4892 245.138V245.133H97.5091L97.5223 246.994C101.393 246.969 105.263 246.433 109.112 245.386L108.561 243.6L106.581 243.561C106.549 245.094 106.53 246.634 106.53 248.185C106.53 253.287 106.721 258.499 107.146 263.85L107.148 263.875C107.827 271.017 108.928 277.787 110.472 284.162C110.866 285.795 111.795 287.223 113.067 288.283C114.34 289.342 115.969 290.037 117.751 290.193H117.748C122.736 290.639 127.699 290.86 132.636 290.86C137.312 290.86 141.964 290.662 146.592 290.26C148.638 290.084 150.491 289.24 151.875 287.96C153.258 286.68 154.19 284.946 154.383 283.011V283.009C154.483 281.992 154.536 280.972 154.536 279.947C154.536 278.211 154.386 276.47 154.058 274.726C153.652 272.543 152.376 270.593 150.52 269.248H150.518C148.53 267.809 146.531 266.792 144.643 266.083L143.907 267.812L145.821 268.291C148.575 258.576 150.344 247.798 151.429 237.101C152.514 226.404 152.918 215.789 152.918 206.414C152.918 205.288 152.91 204.177 152.899 203.088L150.919 203.108L149.111 203.864C150.626 207.057 151.846 210.55 152.667 214.397C152.836 215.181 153.517 215.777 154.359 215.878C155.201 215.978 156.02 215.563 156.389 214.846C157.422 212.854 158.826 211.078 160.645 209.491L160.748 209.394C161.91 208.218 163.164 207.228 164.521 206.41C165.878 205.591 167.338 204.941 168.917 204.46C169.028 204.425 169.123 204.388 169.226 204.336C172.032 202.954 174.989 202.272 178.208 202.269C178.474 202.269 178.744 202.274 179.013 202.284H179.081C180.138 202.289 181.178 202.349 182.205 202.465C182.83 202.535 183.448 202.324 183.879 201.895C184.312 201.463 184.499 200.873 184.388 200.292C183.356 194.812 181.487 189.29 178.638 183.634L176.848 184.431L175.058 185.224C177.767 190.607 179.517 195.797 180.489 200.942L182.44 200.617L182.672 198.769C181.5 198.637 180.306 198.568 179.095 198.563L179.087 200.424L179.163 198.566C178.844 198.553 178.524 198.548 178.208 198.548C174.382 198.546 170.739 199.384 167.383 201.041L168.304 202.688L167.692 200.92C165.802 201.498 164.025 202.287 162.38 203.279C160.735 204.271 159.22 205.469 157.847 206.861L159.296 208.126L157.95 206.764C155.793 208.645 154.074 210.808 152.828 213.219L154.61 214.033L156.551 213.666C155.671 209.548 154.359 205.784 152.728 202.349C152.347 201.542 151.415 201.101 150.499 201.289C149.581 201.475 148.931 202.242 148.939 203.125C148.95 204.202 148.957 205.298 148.957 206.414C148.957 215.687 148.559 226.196 147.487 236.749C146.418 247.299 144.67 257.897 141.993 267.333C141.737 268.244 142.241 269.189 143.173 269.538C144.744 270.129 146.415 270.977 148.105 272.198C149.187 272.982 149.926 274.118 150.156 275.368H150.159C150.444 276.894 150.576 278.417 150.576 279.947C150.576 280.85 150.531 281.756 150.439 282.664L150.441 282.661C150.336 283.696 149.845 284.611 149.095 285.308C148.345 286 147.344 286.459 146.23 286.556C141.723 286.946 137.19 287.139 132.636 287.139C127.826 287.139 122.989 286.923 118.123 286.489C117.197 286.407 116.36 286.05 115.692 285.497C115.026 284.941 114.541 284.197 114.335 283.336H114.332C112.832 277.144 111.758 270.538 111.093 263.545L109.12 263.711L111.095 263.57C110.675 258.321 110.491 253.201 110.491 248.185C110.491 246.661 110.509 245.146 110.541 243.637C110.554 243.047 110.266 242.484 109.767 242.124C109.268 241.765 108.616 241.648 108.012 241.812C104.495 242.767 100.994 243.25 97.4959 243.273C96.4084 243.278 95.5292 244.111 95.5292 245.133V245.138H97.5091V243.278V243.796L97.5144 243.278H97.5091V243.796L97.5144 243.278V243.308L97.517 243.278H97.5144V243.308L97.517 243.278C97.5117 243.278 97.4645 243.275 97.3776 243.275C97.3206 243.275 97.2812 243.275 97.2593 243.275L97.2395 243.278H97.2393L97.2459 243.804V243.278H97.2393L97.2459 243.804V243.278V245.138H99.2252V245.133C99.2252 244.111 98.346 243.278 97.2591 243.273C93.7596 243.25 90.2598 242.767 86.7439 241.812C86.1398 241.648 85.4862 241.765 84.9877 242.124C84.489 242.484 84.2012 243.047 84.2139 243.637C84.2469 245.146 84.264 246.661 84.264 248.185C84.264 253.201 84.0784 258.321 83.6594 263.57L85.6337 263.711L83.6615 263.545C82.9981 270.538 81.9228 277.144 80.4216 283.336H80.4213C80.2135 284.197 79.7285 284.941 79.0621 285.497C78.3947 286.05 77.557 286.407 76.6319 286.489H76.6311C71.7669 286.923 66.9291 287.139 62.118 287.139C57.5632 287.139 53.0322 286.946 48.5258 286.556C47.4095 286.459 46.41 286 45.6591 285.308C44.9091 284.611 44.4196 283.696 44.3148 282.661L44.315 282.664C44.2245 281.756 44.1777 280.85 44.1777 279.95C44.1777 278.417 44.3124 276.894 44.5972 275.368H44.5975C44.8291 274.118 45.5672 272.982 46.6515 272.198H46.65C48.3407 270.977 50.0114 270.129 51.5828 269.538C52.5148 269.189 53.019 268.244 52.7608 267.333C50.0848 257.897 48.3386 247.296 47.268 236.746C46.1966 226.193 45.7983 215.687 45.7983 206.412C45.7983 205.298 45.8041 204.202 45.8151 203.125C45.8241 202.242 45.1736 201.475 44.2567 201.289C43.3395 201.101 42.4088 201.542 42.0265 202.349C40.1425 206.318 38.6894 210.728 37.8351 215.615L39.7888 215.916L41.578 215.119C40.8609 213.695 39.8542 212.42 38.5975 211.324C38.5371 211.272 38.526 211.262 38.4608 211.215C37.579 210.575 36.6974 209.935 35.8161 209.295L34.6054 210.768L36.0612 209.505C35.5408 208.975 34.9911 208.478 34.4134 208.024C32.362 206.414 30.1435 204.824 27.7283 203.51C26.4165 202.795 25.0758 202.177 23.7887 201.59H23.7885C22.103 200.818 20.4809 200.143 18.7524 199.645C17.0257 199.146 15.1961 198.833 13.1651 198.786H13.1648C13.0172 198.784 12.8725 198.781 12.7305 198.781C12.5753 198.781 12.4229 198.784 12.2738 198.786L12.3118 200.647L14.2618 200.969C15.2307 195.817 16.984 190.617 19.6965 185.224C23.0426 178.574 27.5464 172.481 32.8626 167.028H32.8624C40.8034 158.894 47.818 154.089 54.1562 151.033C60.4978 147.982 66.1886 146.664 71.6135 145.598L71.208 143.777V145.637H123.546V143.777L123.142 145.598C128.565 146.664 134.257 147.982 140.599 151.033C146.938 154.089 153.953 158.894 161.892 167.028C167.209 172.481 171.713 178.574 175.058 185.224L176.848 184.431Z" fill="#1A1D63"/>
<path d="M68.7545 235C87.9246 248.185 107.095 248.185 126.265 235" stroke="#1A1D63" stroke-width="5" stroke-miterlimit="10" stroke-linecap="round" stroke-linejoin="round"/>
<path d="M47.3419 252.079C59.6262 254.793 72.5999 255.666 86.1625 253.965" stroke="#1A1D63" stroke-width="5" stroke-miterlimit="10" stroke-linecap="round" stroke-linejoin="round"/>
<path d="M108.592 253.967C122.155 255.666 135.131 254.793 147.413 252.079" stroke="#1A1D63" stroke-width="5" stroke-miterlimit="10" stroke-linecap="round" stroke-linejoin="round"/>
<path d="M72.9136 217.979C64.4892 217.533 56.066 216.856 47.6453 215.95C47.7227 214.998 47.8103 214.062 47.9088 213.135C56.0932 214.01 64.2806 214.665 72.469 215.107C72.5519 215.789 72.6562 216.471 72.7742 217.153C72.8185 217.429 72.865 217.704 72.9136 217.979Z" fill="#BABBD0"/>
<path d="M47.6453 215.95C47.073 215.888 46.5051 215.826 45.9327 215.762C45.9052 214.804 45.882 213.854 45.8633 212.911C46.5447 212.988 47.2274 213.063 47.9088 213.135C47.8104 214.062 47.7227 214.998 47.6453 215.95Z" fill="#8A8BAF"/>
<path d="M45.9327 215.762C45.2819 215.69 44.629 215.615 43.9782 215.541C43.965 215.161 43.9526 214.784 43.9407 214.41C44.2977 213.901 44.6163 213.363 44.893 212.805C45.2172 212.839 45.5391 212.877 45.8633 212.911C45.882 213.854 45.9052 214.804 45.9327 215.762Z" fill="#1A1D63"/>
<path d="M122.173 217.972C122.329 217.015 122.458 216.057 122.567 215.102C130.746 214.66 138.928 214.003 147.109 213.132C147.21 214.058 147.297 214.995 147.373 215.945C138.973 216.848 130.572 217.526 122.173 217.972Z" fill="#BABBD0"/>
<path d="M147.373 215.945C147.297 214.995 147.21 214.057 147.109 213.132C147.703 213.068 148.297 213.003 148.891 212.939C148.873 213.889 148.849 214.839 148.82 215.789C148.34 215.841 147.857 215.893 147.373 215.945Z" fill="#8A8BAF"/>
<path d="M148.82 215.789C148.849 214.839 148.873 213.889 148.891 212.939C148.873 213.881 148.849 214.829 148.823 215.789C148.82 215.789 148.823 215.789 148.82 215.789Z" fill="#1A1D63"/>
<path d="M148.823 215.789C148.849 214.829 148.873 213.881 148.892 212.939C149.288 212.894 149.686 212.849 150.085 212.805C150.37 213.388 150.703 213.943 151.078 214.467C151.067 214.824 151.054 215.181 151.041 215.539C150.301 215.623 149.559 215.707 148.823 215.789Z" fill="#1A1D63"/>
<path d="M97.6015 227.605C91.1535 227.605 84.6915 227.153 78.2129 226.248C76.6552 226.029 74.3556 224.911 74.06 223.459C73.8131 222.239 73.5422 221.018 73.2872 219.8C73.5678 220.728 74.1064 221.549 74.8208 222.192C75.6509 222.941 76.7275 223.455 77.9204 223.621C84.494 224.541 91.0561 225 97.6042 225C104.146 225 110.676 224.541 117.186 223.631C118.403 223.459 119.496 222.926 120.328 222.157C120.927 221.604 121.394 220.927 121.69 220.17C121.476 221.242 121.255 222.316 121.057 223.393C120.785 224.876 118.477 226.034 116.893 226.255C110.478 227.153 104.046 227.605 97.6015 227.605Z" fill="#BABBD0"/>
<path d="M72.774 217.154C72.656 216.471 72.5517 215.789 72.4688 215.107C72.4741 215.107 72.4796 215.107 72.4852 215.107C72.5681 215.789 72.6644 216.471 72.774 217.154Z" fill="#8A8BAF"/>
<path d="M151.196 202.621L149.48 202.619C149.478 205.4 149.425 208.201 149.327 211.019L151.041 211.073L150.832 209.471C133.032 211.525 115.24 212.554 97.4573 212.554C79.6937 212.554 61.9377 211.527 44.1878 209.473L43.9782 211.076L45.6935 211.021C45.5937 208.2 45.5411 205.4 45.5385 202.619L43.8227 202.621L43.612 204.221C61.5554 206.305 79.5076 207.345 97.4663 207.345C115.441 207.345 133.42 206.303 151.408 204.221L151.196 202.621L149.48 202.619L151.196 202.621L150.988 201.019C133.138 203.085 115.298 204.12 97.4663 204.12C79.6485 204.12 61.8379 203.088 44.0331 201.019C43.5462 200.964 43.0525 201.108 42.6853 201.413C42.318 201.718 42.106 202.16 42.1063 202.621C42.1089 205.437 42.1623 208.272 42.2631 211.128C42.2911 211.922 42.9305 212.579 43.7685 212.676C61.6563 214.745 79.5532 215.779 97.4573 215.779C115.383 215.779 133.315 214.742 151.252 212.673C152.089 212.576 152.728 211.919 152.757 211.125C152.857 208.272 152.91 205.437 152.912 202.621C152.912 202.16 152.701 201.718 152.334 201.413C151.967 201.108 151.474 200.964 150.988 201.019L151.196 202.621Z" fill="#1A1D63"/>
<path d="M116.896 221.79C104.059 223.586 91.1647 223.593 78.2119 221.782C76.656 221.564 75.4109 220.443 75.1166 218.992C73.7751 212.376 73.7339 205.759 74.9922 199.141C75.3212 197.412 76.9639 196.174 78.8315 196.266C91.3096 196.869 103.787 196.871 116.265 196.268C118.142 196.177 119.805 197.422 120.106 199.163C121.252 205.75 121.218 212.338 120.001 218.925C119.729 220.408 118.48 221.567 116.896 221.79Z" fill="white"/>
<path d="M116.896 221.79L116.603 219.949C110.282 220.835 103.951 221.279 97.6041 221.279C91.2527 221.279 84.8868 220.832 78.5032 219.942C78.1402 219.89 77.8165 219.736 77.5612 219.508C77.307 219.277 77.1301 218.982 77.0617 218.644C76.3911 215.335 76.0587 212.033 76.0585 208.732C76.0585 205.646 76.3536 202.56 76.9413 199.469C77.0171 199.074 77.2323 198.742 77.5375 198.501C77.8443 198.261 78.2247 198.122 78.6389 198.122C78.6693 198.122 78.6989 198.122 78.7279 198.124H78.7295C85.0115 198.427 91.2937 198.581 97.5751 198.581C103.84 198.581 110.103 198.429 116.368 198.127C116.397 198.124 116.428 198.124 116.457 198.124C116.877 198.124 117.265 198.265 117.572 198.506C117.878 198.749 118.084 199.077 118.152 199.464C118.691 202.562 118.96 205.658 118.96 208.751C118.96 212.036 118.657 215.32 118.049 218.607C117.986 218.959 117.806 219.267 117.55 219.503C117.294 219.741 116.97 219.897 116.603 219.949L116.896 221.79L117.186 223.631C118.403 223.459 119.496 222.926 120.328 222.157C121.159 221.388 121.743 220.376 121.951 219.245C122.598 215.749 122.92 212.252 122.92 208.751C122.92 205.455 122.635 202.158 122.062 198.863C121.838 197.568 121.117 196.445 120.122 195.658C119.124 194.872 117.836 194.403 116.457 194.403C116.36 194.403 116.262 194.405 116.164 194.41C109.968 194.708 103.771 194.859 97.5751 194.859C91.3615 194.859 85.1474 194.708 78.9333 194.408H78.9349C78.8351 194.403 78.7364 194.401 78.6389 194.401C77.2663 194.401 75.9822 194.867 74.9916 195.651C73.9997 196.43 73.2847 197.539 73.0429 198.814C72.4151 202.116 72.0983 205.422 72.0983 208.732C72.0983 212.269 72.4552 215.807 73.1712 219.339C73.3972 220.455 73.9902 221.445 74.8208 222.192C75.6508 222.941 76.7275 223.455 77.9203 223.621C84.494 224.541 91.0561 225 97.6041 225C104.146 225 110.675 224.541 117.186 223.631L116.896 221.79Z" fill="#1A1D63"/>
<path d="M95.2656 209.619C95.2656 213.249 92.1333 216.193 88.2692 216.193C84.4054 216.193 81.2731 213.249 81.2731 209.619C81.2731 205.988 84.4054 203.046 88.2692 203.046C92.1333 203.046 95.2656 205.988 95.2656 209.619Z" fill="#6CCEF8"/>
<path d="M88.2685 216.193C85.4248 216.193 82.9751 214.598 81.8823 212.306C82.9756 214.596 85.4241 216.193 88.2691 216.193C90.5177 216.193 92.5186 215.196 93.7986 213.646C92.5189 215.196 90.5179 216.193 88.2685 216.193ZM81.8821 212.306C81.8799 212.301 81.8778 212.296 81.8757 212.291C81.8778 212.296 81.8799 212.301 81.8821 212.306ZM81.8725 212.286C81.872 212.284 81.8715 212.284 81.871 212.281C81.8715 212.284 81.872 212.284 81.8725 212.286Z" fill="#A3A5C1"/>
<path d="M88.2692 216.193C85.4241 216.193 82.9757 214.596 81.8824 212.306H81.8821C81.88 212.301 81.8779 212.296 81.8758 212.291C81.8747 212.289 81.8737 212.289 81.8726 212.286C81.8721 212.284 81.8716 212.284 81.8711 212.281C81.6334 211.778 81.4613 211.242 81.3647 210.681C82.6266 211.847 84.3559 212.564 86.2674 212.564C90.1326 212.564 93.2638 209.622 93.2638 205.99C93.2638 205.631 93.2321 205.278 93.174 204.933C94.465 206.124 95.265 207.784 95.265 209.619C95.265 211.138 94.7177 212.534 93.7987 213.646C92.5187 215.196 90.5178 216.193 88.2692 216.193Z" fill="#4B87BC"/>
<path d="M95.2658 209.619C95.2658 213.249 92.1333 216.193 88.2695 216.193C84.4054 216.193 81.2731 213.249 81.2731 209.619C81.2731 205.988 84.4054 203.046 88.2695 203.046C92.1333 203.046 95.2658 205.988 95.2658 209.619Z" stroke="#1A1D63" stroke-width="5" stroke-miterlimit="10" stroke-linecap="round" stroke-linejoin="round"/>
<path d="M113.228 204.814C112.956 204.571 112.597 204.445 112.225 204.46C109.091 204.594 105.915 204.676 102.784 204.703C102.042 204.71 101.435 205.283 101.435 205.983V207.156C101.435 207.501 101.58 207.826 101.841 208.069C102.098 208.307 102.438 208.436 102.797 208.436H102.818C105.952 208.394 110.517 208.245 112.336 208.181C113.073 208.156 113.648 207.595 113.648 206.901V205.737C113.648 205.385 113.5 205.058 113.228 204.814Z" fill="#1A1D63"/>
<path d="M112.225 211.406C109.091 211.54 105.915 211.622 102.784 211.649C102.042 211.656 101.435 212.229 101.435 212.929V214.102C101.435 214.447 101.58 214.772 101.841 215.015C102.098 215.253 102.438 215.382 102.797 215.382H102.818C105.952 215.34 110.517 215.191 112.336 215.127C113.073 215.102 113.648 214.541 113.648 213.847V212.683C113.648 212.331 113.5 212.004 113.228 211.76C112.956 211.517 112.597 211.391 112.225 211.406Z" fill="#1A1D63"/>
<path d="M97.509 1.86072C51.6529 1.86072 14.5751 36.7915 14.4771 79.8788C14.3454 138.175 43.915 156.781 97.509 156.657C151.104 156.781 180.673 138.175 180.541 79.8788C180.444 36.7915 143.366 1.86072 97.509 1.86072Z" fill="white"/>
<path d="M118.451 4.36601L118.95 2.56503C112.101 0.890556 104.915 -2.47955e-05 97.5091 -2.47955e-05C90.104 -2.47955e-05 82.9178 0.890556 76.0696 2.56503C75.2886 2.75605 74.7104 3.36878 74.6051 4.12044L71.5214 26.0796C71.4337 26.6998 71.6861 27.3225 72.1928 27.7318C72.6997 28.1411 73.3906 28.2825 74.0332 28.1088C81.8797 25.9829 89.7038 24.8938 97.5275 24.8293L97.5091 22.9688L97.4932 24.8293C105.316 24.8938 113.139 25.9829 120.985 28.1088C121.629 28.2825 122.318 28.1411 122.825 27.7318C123.332 27.3225 123.586 26.6998 123.499 26.0796L120.415 4.12044C120.309 3.36878 119.731 2.75605 118.95 2.56503L118.451 4.36601L116.489 4.60912L119.573 26.5658L121.534 26.3227L122.083 24.5341C113.91 22.3189 105.72 21.1753 97.5275 21.1108H97.4932C89.3006 21.1753 81.1096 22.3189 72.9357 24.5341L73.4843 26.3227L75.4475 26.5658L78.5312 4.60912L76.568 4.36601L77.0665 6.16452C83.5932 4.56943 90.4422 3.72103 97.5091 3.72103C104.577 3.72103 111.425 4.56943 117.952 6.16452L118.451 4.36601L116.489 4.60912L118.451 4.36601Z" fill="#1A1D63"/>
<path d="M97.509 22.9689L97.4932 21.1109C89.3005 21.1754 81.1095 22.319 72.9356 24.5343C72.4129 24.6757 71.9788 25.0106 71.7278 25.4621C71.4767 25.916 71.435 26.4419 71.6113 26.9257L74.0957 33.7278C74.4313 34.6456 75.4657 35.169 76.466 34.9234C83.497 33.2093 90.5105 32.3286 97.5248 32.2765L97.509 30.416L97.4932 32.2765C104.508 32.3286 111.523 33.2093 118.554 34.9234C119.554 35.169 120.589 34.6456 120.924 33.7278L123.409 26.9257C123.583 26.4419 123.543 25.916 123.293 25.4621C123.039 25.0106 122.606 24.6757 122.083 24.5343C113.91 22.319 105.72 21.1754 97.5275 21.1109H97.4932L97.509 22.9689L97.4932 24.8295C105.316 24.894 113.139 25.983 120.985 28.109L121.534 26.3229L119.662 25.7176L117.178 32.5197L119.05 33.1249L119.549 31.324C112.217 29.5354 104.872 28.6101 97.5248 28.5555H97.4932C90.1464 28.6101 82.8026 29.5354 75.4712 31.324L75.9686 33.1249L77.8415 32.5197L75.3574 25.7176L73.4843 26.3229L74.0331 28.109C81.8796 25.983 89.7037 24.894 97.5275 24.8295L97.509 22.9689L97.4932 24.8295L97.509 22.9689Z" fill="#1A1D63"/>
<path d="M97.5091 1.86069V0.000152588C74.0409 -0.00231934 52.7986 8.9431 37.4333 23.3957C22.0645 37.8458 12.5463 57.8253 12.4974 79.8738C12.4969 80.0053 12.4969 80.1343 12.4969 80.2658C12.4977 94.8623 14.3471 107.062 18.0209 117.186C20.7756 124.777 24.565 131.202 29.3558 136.538C32.9474 140.542 37.099 143.931 41.7689 146.746C48.7753 150.973 56.9365 153.915 66.1567 155.798C75.3789 157.684 85.6663 158.517 96.9793 158.517C97.1577 158.517 97.3359 158.517 97.5144 158.517H97.5038C97.6834 158.517 97.8629 158.517 98.0398 158.517C111.449 158.515 123.417 157.346 133.874 154.642C141.718 152.613 148.715 149.713 154.787 145.786C159.341 142.844 163.373 139.321 166.839 135.181C172.043 128.972 175.971 121.383 178.588 112.287C181.204 103.19 182.522 92.5825 182.522 80.2658C182.522 80.1343 182.522 80.0053 182.522 79.8738C182.474 57.8253 172.954 37.8458 157.585 23.3957C142.22 8.9431 120.977 -0.00231934 97.5091 0.000152588V1.86069V3.72121C119.897 3.72121 140.124 12.24 154.784 26.0252C169.445 39.813 178.514 58.8425 178.561 79.8813C178.561 80.0103 178.561 80.1368 178.561 80.2658C178.564 94.5695 176.742 106.368 173.249 115.985C170.63 123.199 167.079 129.188 162.636 134.139C159.302 137.855 155.465 140.988 151.112 143.616C144.583 147.555 136.882 150.351 128.021 152.164C119.161 153.975 109.147 154.796 98.0398 154.796C97.8655 154.796 97.6887 154.796 97.5144 154.796H97.5065C97.3293 154.796 97.154 154.796 96.9793 154.796C83.8163 154.796 72.187 153.64 62.1954 151.055C54.6995 149.115 48.1277 146.374 42.4765 142.722C38.2372 139.981 34.512 136.724 31.291 132.882C26.4616 127.114 22.7594 120.014 20.2552 111.317C17.7521 102.622 16.4563 92.3344 16.4571 80.2658C16.4571 80.1368 16.4571 80.0103 16.4576 79.8813C16.5062 58.8425 25.5756 39.813 40.2347 26.0252C54.897 12.24 75.1221 3.72121 97.5091 3.72121V1.86069Z" fill="#1A1D63"/>
<path d="M180.542 79.8788C180.563 89.5337 179.771 98.102 178.189 105.676C176.273 114.847 169.163 122.289 159.724 125.241C118.25 138.21 76.7722 138.21 35.2969 125.241C25.7513 122.257 18.6802 114.668 16.7719 105.388C15.2293 97.8837 14.4562 89.4121 14.4773 79.8788C14.4773 79.8366 14.4776 79.7969 14.4776 79.7547C14.504 72.4392 17.9613 65.5006 23.8451 60.7054C72.8717 20.7686 121.899 20.3171 170.921 59.3435C176.843 64.0593 180.344 70.9309 180.52 78.2241C180.534 78.7724 180.542 79.3256 180.542 79.8788Z" fill="#080A28"/>
<path d="M26.1725 97.9878C25.216 97.9878 24.2613 97.4991 23.5083 96.0752C21.9588 93.1504 21.9932 89.7171 22.0019 86.3731V86.2342C22.0048 85.4478 22.0452 84.6639 22.1215 83.885C23.0035 74.9098 26.5437 68.0234 36.723 60.8492C44.0835 55.662 49.0358 52.008 56.965 49.6538C57.9928 49.3487 58.9274 49.2097 59.7508 49.2097C64.087 49.2097 65.3535 53.0399 61.077 56.4906C42.2037 72.7045 38.0412 75.3886 31.8419 89.3103C31.1708 90.8161 30.7241 92.3913 30.5094 93.9939C30.3098 95.4823 29.3478 96.8417 27.8411 97.5611C27.3128 97.8141 26.7422 97.9878 26.1725 97.9878Z" fill="#C1C2C9"/>
<path d="M180.541 79.8789C180.563 89.5363 179.77 98.1021 178.186 105.676C176.27 114.849 169.162 122.289 159.724 125.241C118.247 138.213 76.7712 138.213 35.2973 125.241C29.9275 123.562 25.3413 120.428 22.0176 116.358C69.6851 123.487 115.684 126.151 150.138 112.922C162.636 108.119 171.443 97.2562 172.79 84.6294C173.74 75.7163 172.798 66.6915 169.284 58.0586C169.828 58.4828 170.374 58.912 170.921 59.3461C176.843 64.0594 180.341 70.9335 180.52 78.2242C180.533 78.775 180.541 79.3257 180.541 79.8789Z" fill="black"/>
<path d="M180.542 79.8789L178.561 79.8814C178.561 80.0079 178.561 80.1344 178.561 80.2634C178.561 89.6653 177.777 97.988 176.246 105.316C175.356 109.568 173.265 113.418 170.298 116.554C167.33 119.689 163.486 122.103 159.098 123.475C138.97 129.771 118.878 133.102 98.8081 133.105C77.8425 133.102 56.8927 130.034 35.9223 123.475C27.0559 120.701 20.4896 113.659 18.716 105.033C17.2225 97.7722 16.4568 89.5437 16.4571 80.2609C16.4571 80.1344 16.4571 80.0079 16.4576 79.8814V79.8789C16.4576 79.8417 16.4576 79.802 16.4576 79.7623C16.4811 72.9949 19.6823 66.56 25.1421 62.1121C37.4227 52.1074 49.6611 44.6455 61.8427 39.6865C74.0267 34.7301 86.1494 32.2717 98.2668 32.2717C110.095 32.2717 121.928 34.6234 133.822 39.3616C145.71 44.0972 157.654 51.2218 169.64 60.7651C175.132 65.1361 178.377 71.509 178.54 78.2664C178.553 78.8023 178.561 79.3406 178.561 79.8814L180.542 79.8789L182.522 79.8739C182.522 79.3083 182.514 78.7452 182.501 78.1796C182.31 70.3555 178.553 62.9828 172.201 57.9247C159.967 48.1879 147.696 40.845 135.366 35.9357C123.039 31.0239 110.657 28.5482 98.2668 28.5507C85.5754 28.5482 72.8917 31.1331 60.2686 36.2731C47.6435 41.4106 35.0748 49.0958 22.5479 59.3015C16.2401 64.439 12.5267 71.8836 12.4977 79.7499C12.4974 79.7896 12.4974 79.8342 12.4974 79.8789V79.8739C12.4969 80.0029 12.4969 80.1319 12.4969 80.2609C12.4972 89.7347 13.2768 98.1964 14.8276 105.74C16.8708 115.68 24.4462 123.81 34.6717 127.007C56.0405 133.69 77.4309 136.826 98.8081 136.826C119.348 136.826 139.87 133.41 160.35 127.005C165.403 125.425 169.833 122.644 173.257 119.027C176.682 115.41 179.103 110.955 180.132 106.033C181.722 98.4172 182.522 89.8588 182.522 80.2634C182.522 80.1319 182.522 80.0029 182.522 79.8739L180.542 79.8789Z" fill="#1A1D63"/>
<path d="M18.3649 63.5037C18.6458 62.303 18.9573 61.1147 19.2971 59.9364C19.2998 59.929 19.3024 59.9191 19.3048 59.9116C19.3064 59.9066 19.3082 59.8992 19.3101 59.8942C19.6903 58.5819 20.1063 57.2845 20.5581 56.002C37.5664 41.5345 54.5797 31.8176 71.5872 26.8562C71.5972 26.886 71.6081 26.9182 71.6197 26.948L73.4108 31.8524C69.0239 33.0183 64.6434 34.4918 60.2687 36.273C47.6435 41.4105 35.0749 49.0957 22.5479 59.3013C20.99 60.569 19.5899 61.9805 18.3649 63.5037Z" fill="#D1D2E0"/>
<path d="M71.6204 26.948C71.6085 26.9182 71.5975 26.886 71.5872 26.8562H71.5875C71.5953 26.8786 71.6034 26.9034 71.612 26.9257L71.6204 26.948Z" fill="#1A1D63"/>
<path d="M176.251 61.8689C175.055 60.44 173.698 59.1178 172.201 57.9246C159.967 48.1878 147.695 40.845 135.366 35.9356C130.83 34.1272 126.287 32.6487 121.735 31.5026L123.398 26.948C123.433 26.8587 123.459 26.767 123.48 26.6727C123.48 26.6702 123.48 26.6677 123.48 26.6652C123.483 26.6628 123.483 26.6603 123.483 26.6553C123.496 26.5933 123.504 26.5313 123.509 26.4668C140.282 31.1107 157.052 40.3761 173.825 54.2631C173.894 54.4466 173.962 54.6277 174.031 54.8113C174.036 54.8287 174.044 54.846 174.049 54.8609C174.67 56.5329 175.229 58.2272 175.726 59.9488C175.908 60.5839 176.085 61.2264 176.251 61.8689Z" fill="#D1D2E0"/>
<path d="M123.398 26.948L123.409 26.9257C123.438 26.8413 123.462 26.757 123.48 26.6726C123.459 26.7669 123.433 26.8587 123.398 26.948ZM123.48 26.6726C123.48 26.6702 123.48 26.6677 123.48 26.6652C123.48 26.6677 123.48 26.6702 123.48 26.6726Z" fill="#1A1D63"/>
<path d="M77.2521 30.9048L76.0405 27.5881C83.2087 25.807 90.3596 24.8891 97.5091 24.832C104.659 24.8891 111.811 25.807 118.979 27.5881L117.875 30.6121C111.346 29.2378 104.806 28.5481 98.2668 28.5506C98.2641 28.5506 98.2589 28.5506 98.2562 28.5506C96.8934 28.5506 95.5297 28.5804 94.1659 28.6399C88.5236 28.883 82.8845 29.6396 77.2521 30.9048Z" fill="#D1D2E0"/>
<path d="M73.4107 31.8523L71.6197 26.9479L71.6115 26.9256C71.603 26.9033 71.5951 26.8785 71.5874 26.8562C80.2257 24.3358 88.8716 23.0408 97.5091 22.9714L97.4933 24.8294L97.5091 22.9714C97.7494 22.9689 97.987 22.9689 98.2272 22.9689C106.655 22.9689 115.082 24.1348 123.509 26.4667C123.504 26.5312 123.496 26.5932 123.483 26.6552C123.483 26.6602 123.483 26.6627 123.48 26.6652C123.48 26.6676 123.48 26.6701 123.48 26.6726C123.462 26.7569 123.438 26.8413 123.409 26.9256L123.398 26.9479L121.735 31.5025C120.449 31.18 119.161 30.8823 117.875 30.6119L118.979 27.588C111.811 25.8068 104.659 24.889 97.5091 24.8319C90.3596 24.889 83.2088 25.8068 76.0406 27.588L77.2521 30.9047C82.8846 29.6395 88.5237 28.8829 94.1659 28.6398C87.2411 28.9424 80.3194 30.0141 73.4107 31.8523Z" fill="#1A1D63"/>
<path d="M18.3645 63.5037C18.6456 62.303 18.9567 61.1147 19.297 59.9364C18.9572 61.1147 18.6456 62.303 18.3647 63.5037C18.3645 63.5037 18.3647 63.5037 18.3645 63.5037ZM176.251 61.8689C176.085 61.2264 175.908 60.5839 175.726 59.9488C175.908 60.5839 176.085 61.2264 176.251 61.8689ZM19.3046 59.9116C19.3062 59.9066 19.3081 59.8992 19.3099 59.8942C19.3081 59.8992 19.3062 59.9066 19.3046 59.9116ZM174.031 54.8113C173.962 54.6277 173.894 54.4466 173.825 54.263C173.864 54.2953 173.904 54.3275 173.944 54.3598C173.952 54.5111 173.981 54.6624 174.031 54.8113Z" fill="#1A1D63"/>
<path d="M17.3812 68.4775C17.6518 66.8006 17.98 65.1435 18.3647 63.5037C18.3649 63.5037 18.3647 63.5037 18.3649 63.5037C19.59 61.9806 20.99 60.569 22.548 59.3014C35.0749 49.0958 47.6436 41.4106 60.2687 36.273C64.6434 34.4919 69.024 33.0184 73.4108 31.8524C80.3195 30.0142 87.2412 28.9426 94.166 28.6399C95.5299 28.5804 96.8935 28.5506 98.2564 28.5506C98.259 28.5506 98.2643 28.5506 98.2669 28.5506C104.807 28.5481 111.346 29.2378 117.875 30.6121C119.161 30.8825 120.449 31.1802 121.735 31.5027C126.287 32.6487 130.83 34.1272 135.366 35.9357C147.696 40.845 159.967 48.1879 172.201 57.9246C173.698 59.1178 175.055 60.4401 176.251 61.8689C176.676 63.5087 177.046 65.1708 177.358 66.8527C175.755 64.0197 173.585 61.4646 170.921 59.3461C146.692 40.0586 122.456 30.4111 98.2273 30.4111C73.4314 30.4111 48.6426 40.5076 23.8446 60.708C21.1484 62.9034 18.9616 65.5503 17.3812 68.4775Z" fill="#1A1D63"/>
<path d="M17.6667 58.5076C70.7147 11.7041 123.76 11.1336 176.803 56.7785" stroke="#1A1D63" stroke-width="5" stroke-miterlimit="10" stroke-linecap="round" stroke-linejoin="round"/>
<path d="M191.657 107.35C191.477 108.682 190.714 109.888 189.537 110.652C185.265 113.418 180.394 115.534 174.952 117.047C178.68 107.003 180.576 94.7282 180.542 79.8787C180.52 70.9011 178.897 62.2782 175.919 54.2506C180.99 55.6299 185.582 57.7806 189.679 60.7352C190.764 61.5166 191.459 62.685 191.617 63.9601C193.505 79.2114 193.507 93.669 191.657 107.35Z" fill="white"/>
<path d="M20.0666 117.047C14.6253 115.534 9.75423 113.418 5.48222 110.652C4.30472 109.888 3.54198 108.682 3.36218 107.35C1.51145 93.669 1.51409 79.2114 3.40179 63.9601C3.56019 62.685 4.25456 61.5166 5.33966 60.7352C9.43716 57.7806 14.0286 55.6299 19.1001 54.2506C16.122 62.2782 14.4983 70.9011 14.4772 79.8787C14.4431 94.7282 16.3385 107.003 20.0666 117.047Z" fill="white"/>
<path d="M178.031 114.127C178.862 111.481 179.581 108.702 180.183 105.787C184.634 103.857 188.026 101.27 190.595 98.5883C190.373 101.466 190.073 104.306 189.692 107.114C189.581 107.936 189.114 108.665 188.412 109.119H188.414C185.299 111.136 181.838 112.8 178.031 114.127Z" fill="#BABBD0"/>
<path d="M16.9883 114.127C13.182 112.8 9.7213 111.136 6.60593 109.119H6.60752C5.90471 108.665 5.43767 107.936 5.32678 107.114H5.32652C4.94661 104.306 4.64589 101.466 4.42412 98.5883C6.99324 101.27 10.3866 103.857 14.8374 105.787C15.439 108.702 16.1561 111.481 16.9883 114.127Z" fill="#BABBD0"/>
<path d="M191.656 107.35L189.692 107.114C189.581 107.936 189.114 108.665 188.412 109.119H188.414C184.333 111.761 179.66 113.8 174.392 115.261L174.952 117.047L176.821 117.657C180.613 107.444 182.521 95.0954 182.521 80.2757C182.521 80.1417 182.521 80.0078 182.521 79.8738C182.5 70.6878 180.84 61.8565 177.788 53.6379L175.918 54.2506L175.369 56.0367C180.219 57.3565 184.575 59.4006 188.475 62.2112C189.127 62.6776 189.552 63.392 189.65 64.1734C190.592 71.7743 191.06 79.1718 191.06 86.3658C191.06 93.4805 190.603 100.394 189.692 107.114L191.656 107.35L193.621 107.583C194.553 100.702 195.02 93.6293 195.02 86.3658C195.02 79.0204 194.542 71.4791 193.584 63.7443C193.364 61.978 192.403 60.3532 190.883 59.2567L190.885 59.2592C186.59 56.1583 181.764 53.9008 176.47 52.462C175.76 52.2685 174.989 52.4645 174.482 52.9706C173.973 53.4742 173.806 54.206 174.049 54.8609C176.956 62.6974 178.54 71.112 178.561 79.8813C178.561 80.0127 178.561 80.1442 178.561 80.2757C178.564 94.7977 176.681 106.737 173.083 116.434C172.837 117.094 173.006 117.824 173.519 118.33C174.033 118.836 174.799 119.029 175.515 118.831C181.13 117.27 186.199 115.073 190.661 112.182C192.314 111.108 193.372 109.426 193.621 107.583L191.656 107.35Z" fill="#1A1D63"/>
<path d="M20.0666 117.047L20.6274 115.261C15.3601 113.8 10.687 111.761 6.60589 109.119H6.60748C5.90467 108.665 5.43762 107.936 5.32674 107.114H5.32648C4.41748 100.394 3.96021 93.4805 3.96021 86.3658C3.96021 79.1718 4.42777 71.7743 5.36871 64.1734C5.46587 63.392 5.89332 62.6776 6.54437 62.2112H6.54516C10.4444 59.4006 14.8004 57.3565 19.6506 56.0367L19.1001 54.2506L17.2303 53.6379C14.1807 61.8565 12.5187 70.6878 12.4974 79.8738C12.4968 80.0078 12.4968 80.1392 12.4968 80.2732C12.4979 95.0954 14.4072 107.444 18.1966 117.657L20.0666 117.047L20.6274 115.261L20.0666 117.047L21.9361 116.434C18.3363 106.737 16.456 94.7952 16.457 80.2732C16.457 80.1417 16.457 80.0127 16.4576 79.8813C16.4782 71.112 18.0636 62.6974 20.9698 54.8609C21.213 54.206 21.0459 53.4742 20.5374 52.9706C20.0289 52.4645 19.2595 52.2685 18.5496 52.462C13.2567 53.9008 8.42996 56.1583 4.13419 59.2592L4.13498 59.2567C2.6161 60.3532 1.65484 61.978 1.43518 63.7443H1.43491C0.477591 71.4791 0 79.0204 0 86.3658C0 93.6293 0.466769 100.702 1.39795 107.583C1.64612 109.426 2.70482 111.108 4.35702 112.182H4.3586C8.82123 115.073 13.8903 117.27 19.5053 118.831C20.22 119.029 20.9859 118.836 21.5 118.33C22.0143 117.824 22.1814 117.094 21.9361 116.434L20.0666 117.047Z" fill="#1A1D63"/>
<path d="M97.6412 141.417C76.4406 141.417 55.2437 138.064 34.0434 131.356C31.9711 130.698 30.0129 129.828 28.1952 128.771C26.571 126.37 25.1084 123.77 23.8115 120.962C26.8786 123.638 30.5605 125.72 34.6717 127.007C56.0405 133.69 77.4309 136.826 98.8081 136.826C119.348 136.826 139.87 133.41 160.35 127.005C164.437 125.727 168.117 123.663 171.188 121.004C169.852 123.896 168.339 126.563 166.654 129.021C164.957 129.964 163.146 130.75 161.24 131.353C140.042 138.064 118.839 141.417 97.6412 141.417Z" fill="#D1D2E0"/>
<path d="M166.654 129.021C168.339 126.563 169.851 123.896 171.187 121.004C171.913 120.376 172.602 119.716 173.257 119.027C173.418 118.858 173.577 118.684 173.732 118.511C173.899 118.635 174.084 118.729 174.276 118.796C173.194 121.485 171.971 124.006 170.612 126.37C169.382 127.354 168.056 128.243 166.654 129.021ZM28.195 128.771C26.7546 127.932 25.4018 126.977 24.1506 125.921C22.8934 123.688 21.7568 121.314 20.7416 118.796C20.9449 118.727 21.1369 118.625 21.3093 118.493C22.0886 119.364 22.9242 120.188 23.8113 120.962C25.1082 123.77 26.5708 126.37 28.195 128.771Z" fill="#1A1D63"/>
<path d="M98.8079 136.826C77.4307 136.826 56.0403 133.69 34.6716 127.007C30.5603 125.72 26.8784 123.639 23.8114 120.962C22.9243 120.188 22.0887 119.364 21.3093 118.494C21.3758 118.444 21.4397 118.389 21.4999 118.33C22.0142 117.824 22.1813 117.094 21.9361 116.435L20.0882 117.04L21.9361 116.435C21.8954 116.323 21.855 116.214 21.8149 116.105C25.1549 120.299 29.8177 123.527 35.2973 125.241C56.0343 131.726 76.772 134.968 97.509 134.968C118.247 134.968 138.986 131.726 159.724 125.241C165.163 123.539 169.828 120.349 173.17 116.194C173.141 116.273 173.112 116.355 173.083 116.435C172.837 117.094 173.006 117.824 173.519 118.33C173.587 118.397 173.659 118.456 173.732 118.511C173.577 118.685 173.418 118.858 173.257 119.027C172.603 119.717 171.913 120.376 171.187 121.004C168.117 123.663 164.437 125.727 160.35 127.005C139.87 133.41 119.348 136.826 98.8079 136.826Z" fill="#1A1D63"/>
<path d="M174.276 118.796C174.084 118.729 173.899 118.635 173.732 118.511C173.658 118.456 173.587 118.397 173.519 118.33C173.006 117.824 172.837 117.094 173.083 116.435C173.112 116.355 173.141 116.273 173.17 116.194C175.541 113.252 177.246 109.826 178.094 106.105C177.114 110.697 175.839 114.919 174.276 118.796Z" fill="#1A1D63"/>
<path d="M20.7417 118.796C19.1474 114.839 17.8529 110.523 16.8642 105.822C17.714 109.61 19.4262 113.103 21.815 116.105C21.8551 116.214 21.8955 116.323 21.9361 116.435L20.0883 117.04L20.0667 117.047L20.6274 115.261L20.0667 117.047L20.0883 117.04L21.9361 116.435C22.1814 117.094 22.0143 117.824 21.5 118.33C21.4398 118.389 21.3759 118.444 21.3094 118.494C21.137 118.625 20.945 118.727 20.7417 118.796Z" fill="#1A1D63"/>
<path d="M24.1508 125.921C26.981 128.315 30.3289 130.18 34.0434 131.356C76.444 144.774 118.841 144.774 161.239 131.353C164.719 130.252 167.89 128.545 170.612 126.37" stroke="#1A1D63" stroke-width="5" stroke-miterlimit="10" stroke-linecap="round" stroke-linejoin="round"/>
<path d="M43.7547 201.478L47.9628 201.823C47.9755 201.684 47.9786 201.592 47.9805 201.552L47.9815 201.53V201.528L45.7414 201.436L47.9781 201.585C47.9808 201.55 47.9815 201.53 47.9815 201.528L45.7414 201.436L47.9781 201.585V201.582C47.9913 201.409 48.0058 201.203 48.0132 200.96C48.0169 200.84 48.0169 200.746 48.0169 200.677C48.0169 200.64 48.0169 200.607 48.0169 200.585V200.58V200.513C48.0169 200.357 48.0151 200.186 48.0082 200.002L48.0074 199.985L44.7025 200.109H48.0103C48.0101 200.099 48.0106 200.059 48.0074 199.985L44.7025 200.109H48.0103V200.106V200.089C48.0101 200.054 48.0103 199.98 48.0048 199.866C47.9055 197.866 46.2261 196.244 44.1034 196.092C41.9805 195.941 40.0606 197.31 39.6432 199.273L39.6406 199.285L43.7827 200.062L48.0032 199.898C47.8445 196.323 46.3462 192.877 43.7 190.221C42.4528 188.968 41.1021 187.916 39.7055 187.038C38.3083 186.16 36.8681 185.45 35.4264 184.855L33.7232 188.487L36.5611 191.426C39.9785 188.514 43.0622 185.224 45.7633 181.546C46.3586 180.732 46.8555 179.787 47.1399 178.698L47.1452 178.678L47.1615 178.611L47.1644 178.601C47.3239 177.966 47.4018 177.321 47.4015 176.691C47.402 175.53 47.1407 174.411 46.6789 173.404C45.9843 171.891 44.8517 170.618 43.4138 169.7C42.6944 169.244 41.8963 168.874 41.0385 168.624C40.1815 168.371 39.2649 168.232 38.3258 168.232H38.3081C38.2954 168.232 38.2756 168.234 38.2484 168.234H38.2851C38.1695 168.234 38.0501 168.234 37.9268 168.239H37.9284C36.4531 168.274 35.0206 168.522 33.6704 168.941C32.32 169.358 31.0501 169.946 29.8837 170.665H29.8839C27.4246 172.186 25.0749 173.781 22.8498 175.455L25.4915 178.554L28.4123 175.686C26.2289 173.721 23.9008 171.858 21.4495 170.065L21.4452 170.06C20.3435 169.256 19.1277 168.579 17.8182 168.06C16.5092 167.544 15.1049 167.19 13.6407 167.043L13.599 167.038L13.3279 167.014L13.2653 167.009C13.0166 166.991 12.7682 166.981 12.5208 166.981C11.2826 166.981 10.0871 167.219 9.00859 167.646C7.3886 168.289 6.02128 169.341 5.03439 170.675C4.54148 171.345 4.14467 172.089 3.87062 172.888C3.59631 173.687 3.44661 174.545 3.44687 175.423C3.44687 175.837 3.48014 176.259 3.54773 176.676L3.54509 176.661C3.55908 176.75 3.57201 176.812 3.57386 176.822L3.79643 176.785L3.5736 176.822H3.57386L3.79643 176.785L3.5736 176.822L6.79589 176.282L3.55776 176.731C3.56515 176.778 3.57202 176.815 3.5736 176.822L6.79589 176.282L3.55776 176.731L3.56568 176.78C3.75497 177.887 4.17265 178.874 4.69804 179.727L4.69645 179.725C7.02109 183.505 9.74809 186.949 12.8291 190.049L15.9168 187.34L12.6483 184.825C10.8635 186.874 9.24594 189.032 7.82502 191.307L7.82476 191.31C7.01978 192.6 6.3806 193.989 5.94656 195.452L10.0155 196.517L14.2189 196.122L14.2186 196.12C14.0169 194.224 12.3962 192.724 10.3762 192.56C8.35596 192.396 6.48699 193.617 5.94497 195.452C5.53575 196.837 5.30791 198.293 5.30791 199.781C5.30791 199.856 5.30843 199.933 5.30975 200.009C5.31794 200.523 5.34883 201.009 5.38949 201.463C5.58169 203.644 6.14114 205.76 7.04776 207.749C7.9528 209.739 9.19947 211.599 10.7308 213.311C11.7026 214.398 12.813 215.318 13.9971 216.087H13.9956C15.082 216.794 16.2436 217.379 17.4557 217.846C21.4867 219.396 25.637 220.222 29.8116 220.22C31.7215 220.22 33.6334 220.049 35.5333 219.704C36.1637 219.592 36.7567 219.436 37.3112 219.255H37.3096C40.6884 218.156 43.4471 215.797 44.9369 212.713C45.5373 211.468 46.0542 210.193 46.487 208.89C47.2407 206.625 47.7405 204.261 47.9633 201.818L47.9628 201.823L43.7547 201.478L39.5458 201.138C39.3744 203.014 38.9956 204.8 38.4226 206.524C38.0921 207.519 37.699 208.488 37.242 209.436C36.7179 210.528 35.7194 211.376 34.5496 211.753H34.548C34.3278 211.825 34.1258 211.875 33.94 211.909C32.5563 212.16 31.185 212.281 29.8116 212.281C26.8142 212.279 23.7931 211.701 20.6529 210.498C19.9953 210.245 19.3714 209.927 18.8027 209.558H18.8011C18.1812 209.156 17.6437 208.702 17.1986 208.203H17.1983C16.1489 207.03 15.3695 205.844 14.8156 204.629C14.263 203.41 13.9301 202.158 13.8086 200.806C13.7796 200.478 13.7616 200.176 13.7571 199.89V199.893C13.7566 199.856 13.7564 199.818 13.7564 199.781C13.7564 199.054 13.8675 198.315 14.0856 197.576L10.0153 196.514L5.81191 196.909L5.81218 196.911C6.01389 198.809 7.63229 200.307 9.65253 200.471C11.6722 200.635 13.5404 199.419 14.0845 197.583C14.3132 196.812 14.6603 196.048 15.1129 195.323H15.1126C16.297 193.426 17.6577 191.607 19.185 189.853C20.5257 188.315 20.4486 186.085 19.0042 184.632C16.355 181.965 14.0175 179.015 12.0118 175.753L12.0099 175.751C11.9291 175.619 11.9098 175.537 11.9077 175.522L7.73684 176.15L11.9156 175.572C11.9017 175.483 11.889 175.418 11.8871 175.408L11.6511 175.448L11.8871 175.408L11.6511 175.448L11.8871 175.408L8.66459 175.949L11.903 175.5C11.8956 175.453 11.889 175.418 11.8871 175.408L8.66459 175.949L11.903 175.5L11.9006 175.485C11.8966 175.46 11.8953 175.441 11.8953 175.423C11.8958 175.376 11.9035 175.336 11.9283 175.282C11.9632 175.202 12.0532 175.093 12.1678 175.024C12.2245 174.987 12.2839 174.962 12.3418 174.944C12.4001 174.927 12.4561 174.92 12.5208 174.92L12.5752 174.922L12.9202 170.965L12.5126 174.915L12.7837 174.939L12.7423 174.937C13.3463 174.997 13.953 175.145 14.5479 175.381C15.1422 175.614 15.7227 175.937 16.2597 176.329L16.2558 176.326C18.5181 177.981 20.6271 179.673 22.5705 181.419C24.0991 182.796 26.4818 182.893 28.133 181.65C30.1324 180.144 32.2682 178.695 34.5287 177.296H34.529C35.0977 176.944 35.7038 176.669 36.3148 176.48C36.926 176.291 37.5401 176.187 38.1412 176.175H38.1428C38.2014 176.172 38.2645 176.172 38.3324 176.17H38.3691L38.3186 172.858L38.3263 176.17H38.3691L38.3186 172.858L38.3263 176.17L38.3258 175.924V176.17H38.3263L38.3258 175.924V176.17C38.4205 176.172 38.4905 176.187 38.566 176.217C38.6766 176.259 38.7931 176.348 38.8628 176.448C38.8979 176.495 38.9211 176.542 38.9346 176.582C38.9483 176.624 38.9531 176.656 38.9533 176.691C38.9531 176.716 38.9507 176.743 38.9412 176.78L38.9443 176.768L38.9277 176.832L38.9327 176.812C38.9311 176.825 38.8984 176.917 38.8089 177.038C36.4763 180.213 33.8322 183.034 30.8853 185.547C29.8287 186.447 29.3253 187.799 29.5536 189.122C29.782 190.444 30.7148 191.578 32.0201 192.118C33.1057 192.567 34.0955 193.061 35.0045 193.634C35.9143 194.207 36.7462 194.857 37.5313 195.643C38.7685 196.884 39.4869 198.521 39.5621 200.228C39.6511 202.237 41.3189 203.862 43.454 204.021C45.5891 204.177 47.505 202.815 47.9248 200.84L47.9274 200.828L43.7853 200.052L39.5656 200.235L42.9175 200.089H39.5619C39.5619 200.099 39.5613 200.146 39.5656 200.235L42.9175 200.089H39.5619V200.091L39.5616 200.109C39.5619 200.141 39.5616 200.203 39.5656 200.3L39.565 200.282C39.5674 200.347 39.5685 200.424 39.5685 200.513V200.553V200.555V200.585C39.5685 200.625 39.5685 200.654 39.5685 200.677V200.724L39.5682 200.731H39.5759H39.5682H39.5759H39.5682C39.5666 200.793 39.5608 200.893 39.5508 201.024V201.022C39.5421 201.143 39.5402 201.21 39.5392 201.23L39.5389 201.232L40.2346 201.262L39.5392 201.23L39.5389 201.232L40.2346 201.262L39.5392 201.23L42.2065 201.351L39.5466 201.131C39.5415 201.185 39.5397 201.22 39.5392 201.23L42.2065 201.351L39.5466 201.131L39.5458 201.138L43.7547 201.478Z" fill="#1A1D63"/>
<path d="M18.8527 173.196L16.8237 175.641C19.1088 177.313 21.2431 179.023 23.2137 180.796L25.4958 178.556L23.4354 176.135C19.6777 178.956 16.2862 182.019 13.3636 185.383L15.9205 187.343L18.3326 185.227C15.6346 182.513 13.2532 179.506 11.2116 176.187L11.2103 176.185C11.0806 175.974 11.0181 175.795 10.9953 175.661L7.73689 176.15L11.0014 175.699C10.9901 175.624 10.9792 175.572 10.9777 175.562H10.9774L8.62345 175.957L10.9895 175.632C10.984 175.597 10.9787 175.567 10.9774 175.562L8.62345 175.957L10.9895 175.632L10.9869 175.614C10.9761 175.547 10.9713 175.485 10.9713 175.423C10.9716 175.252 11.008 175.093 11.0814 174.934C11.1899 174.696 11.3959 174.463 11.6549 174.302C11.9157 174.138 12.2059 174.051 12.5208 174.051C12.5631 174.051 12.6061 174.051 12.6499 174.056L12.9203 170.965L12.6019 174.051L12.873 174.076L12.8405 174.074C13.5389 174.143 14.2327 174.314 14.9057 174.58C15.5781 174.845 16.2281 175.205 16.8269 175.641H16.8237L18.8527 173.196L20.8782 170.747C19.838 169.988 18.6919 169.348 17.4605 168.862C16.2297 168.375 14.9128 168.046 13.5426 167.907L13.5101 167.904L13.2387 167.879L13.1906 167.874C12.9665 167.857 12.7429 167.85 12.5208 167.85C11.4088 167.85 10.3361 168.063 9.36665 168.447C7.9114 169.023 6.68031 169.971 5.79402 171.171C5.35126 171.772 4.99564 172.436 4.7501 173.153C4.50483 173.87 4.37071 174.637 4.37071 175.423C4.37071 175.795 4.40081 176.17 4.46153 176.547L4.45863 176.53C4.47025 176.604 4.48107 176.659 4.48345 176.671L4.48398 176.673L6.24178 176.373L4.4808 176.656L4.48398 176.673L6.24178 176.373L4.4808 176.656L6.96148 176.259L4.47209 176.604L4.4808 176.656L6.96148 176.259L4.47209 176.604L4.47816 176.641C4.64687 177.629 5.02124 178.517 5.49779 179.291H5.49647C7.78732 183.014 10.4729 186.405 13.5085 189.461C14.1603 190.116 15.076 190.474 16.0306 190.444C16.9853 190.414 17.8734 190 18.4772 189.305C21.0575 186.333 24.1039 183.572 27.5564 180.98C28.3023 180.419 28.75 179.591 28.7928 178.695C28.8356 177.8 28.4681 176.936 27.7782 176.316C25.6196 174.374 23.3137 172.531 20.8814 170.75L20.8782 170.747L18.8527 173.196Z" fill="#1A1D63"/>
<path d="M18.8527 173.195C21.2111 174.922 23.4312 176.698 25.4958 178.556C21.8907 181.263 18.6719 184.175 15.9206 187.343C13.0539 184.46 10.5202 181.26 8.35392 177.737C8.0511 177.246 7.83249 176.71 7.73692 176.15C7.73296 176.125 7.72821 176.105 7.72425 176.08C7.26407 173.235 9.85986 170.729 12.9203 170.965L13.1914 170.99C15.2597 171.198 17.2137 171.997 18.8527 173.195Z" fill="white"/>
<path d="M12.4096 186.5C11.2754 184.996 10.1983 183.644 9.98468 183.624C9.86825 183.612 10.574 183.198 11.7108 182.573C12.3542 183.396 13.0203 184.197 13.7091 184.981C13.2653 185.48 12.8321 185.986 12.4096 186.5Z" fill="#1A1D63"/>
<path d="M13.7092 184.981C13.0204 184.197 12.3543 183.396 11.7109 182.572C14.7695 180.888 20.949 177.681 22.6363 176.735C21.0195 177.983 19.474 179.278 18.0074 180.625C16.4864 182.019 15.0502 183.47 13.7092 184.981Z" fill="#BABBD0"/>
<path d="M11.4688 193.316L14.3157 194.884C16.5176 191.357 19.3077 188.099 22.6192 185.061C25.9297 182.024 29.7615 179.206 34.0209 176.572H34.0212C34.6551 176.18 35.3338 175.87 36.0255 175.654C36.7178 175.44 37.4214 175.321 38.1181 175.306H38.1194C38.1849 175.304 38.2541 175.304 38.3275 175.301H38.3278H38.3314L38.3259 174.064V175.301H38.3314L38.3259 174.064V175.301C38.5474 175.304 38.742 175.344 38.9279 175.418C39.2051 175.527 39.458 175.723 39.6264 175.959C39.7959 176.195 39.8772 176.443 39.8775 176.691C39.8772 176.78 39.8667 176.874 39.8408 176.978L39.8432 176.968L39.8266 177.035L39.8305 177.018C39.798 177.15 39.7144 177.333 39.5697 177.529C37.197 180.762 34.5048 183.634 31.5064 186.189C30.6809 186.894 30.2875 187.948 30.4657 188.983C30.6444 190.017 31.3731 190.903 32.3927 191.324C33.5174 191.788 34.5563 192.307 35.5189 192.912C36.4818 193.52 37.3704 194.212 38.2063 195.05C39.6808 196.529 40.4974 198.501 40.4969 200.525C40.4969 200.753 40.4863 200.984 40.4655 201.212C40.1859 204.269 39.3804 207.104 38.0838 209.796C37.7137 210.562 37.1542 211.229 36.4691 211.741C35.7837 212.252 34.9795 212.606 34.1149 212.763C32.6752 213.021 31.2453 213.15 29.8138 213.15C26.6869 213.147 23.5414 212.542 20.3038 211.301C19.5461 211.011 18.8332 210.647 18.1911 210.22C17.5485 209.793 16.9772 209.304 16.4914 208.761H16.4912C15.2661 207.392 14.3759 205.99 13.7752 204.534C13.1762 203.078 12.8607 201.557 12.8335 199.905C12.833 199.863 12.8327 199.823 12.8327 199.781C12.8327 198.948 12.9629 198.109 13.214 197.285C13.4648 196.462 13.8373 195.651 14.3157 194.884L11.4688 193.316L8.62222 191.746C7.87479 192.944 7.27891 194.229 6.86811 195.579C6.45757 196.928 6.23236 198.34 6.23236 199.781C6.23236 199.853 6.23289 199.925 6.23395 199.994C6.26906 202.349 6.73584 204.631 7.62002 206.774C8.50288 208.917 9.79682 210.917 11.4382 212.75C12.3108 213.728 13.3074 214.571 14.3819 215.285C15.4567 215.997 16.61 216.583 17.807 217.042H17.8067C21.7403 218.555 25.7673 219.351 29.8138 219.351C31.664 219.351 33.5161 219.185 35.3587 218.853C37.2978 218.503 39.0807 217.712 40.5761 216.595C42.072 215.476 43.287 214.03 44.0954 212.356C45.6932 209.046 46.7012 205.494 47.0421 201.741C47.0788 201.336 47.0972 200.93 47.0972 200.525C47.0964 196.943 45.6613 193.46 43.0256 190.813C41.8286 189.61 40.5346 188.603 39.1913 187.76C37.8478 186.914 36.4569 186.229 35.0542 185.648L33.7233 188.486L35.9405 190.784C39.3064 187.916 42.3421 184.676 45.0028 181.052C45.5427 180.315 45.9889 179.462 46.2424 178.492L46.2466 178.474L46.2629 178.41L46.2653 178.4C46.4082 177.832 46.4779 177.256 46.4779 176.691C46.4781 175.651 46.2442 174.652 45.83 173.746C45.2074 172.389 44.1883 171.243 42.8957 170.419C42.2492 170.008 41.5321 169.678 40.762 169.449C39.9926 169.224 39.17 169.1 38.3259 169.1H38.29H38.2903C38.1799 169.102 38.0669 169.102 37.9507 169.105H37.9518C36.5721 169.139 35.229 169.373 33.9599 169.765C32.6903 170.159 31.493 170.71 30.392 171.392C25.8473 174.203 21.6798 177.256 18.0074 180.625C14.336 183.994 11.1594 187.683 8.62222 191.746L11.4688 193.316Z" fill="#1A1D63"/>
<path d="M11.4688 193.316C16.2081 185.723 23.4022 179.427 32.2066 173.982C33.9417 172.908 35.9585 172.255 38.0349 172.206C38.1258 172.203 38.2171 172.203 38.309 172.201C41.38 172.191 43.7574 174.882 43.0531 177.69L43.0367 177.755C42.8933 178.306 42.6285 178.824 42.2864 179.291C39.7695 182.719 36.9055 185.775 33.7233 188.487C36.2507 189.533 38.5833 190.89 40.6159 192.932C42.9026 195.229 44.0391 198.345 43.7537 201.478C43.4435 204.881 42.5369 208.074 41.0898 211.076C39.911 213.519 37.5407 215.3 34.7366 215.806C29.5083 216.749 24.2811 216.179 19.0552 214.172C17.1005 213.42 15.3234 212.276 13.9648 210.756C11.0984 207.553 9.59588 203.956 9.53384 199.95C9.49767 197.618 10.2126 195.328 11.4688 193.316Z" fill="white"/>
<path d="M29.8116 216.25C26.2255 216.25 22.6399 215.548 19.054 214.172C18.2636 213.869 17.5016 213.499 16.7846 213.068C17.5016 213.499 18.2638 213.867 19.0551 214.172C22.6409 215.548 26.2268 216.25 29.8137 216.25C31.4545 216.25 33.0956 216.102 34.7365 215.806C33.0948 216.104 31.4532 216.25 29.8116 216.25ZM42.3673 207.972C43.0806 205.896 43.5479 203.733 43.7536 201.478C43.7919 201.056 43.8046 200.637 43.7924 200.218C43.8064 200.637 43.7937 201.056 43.7546 201.478C43.5487 203.733 43.0809 205.896 42.3673 207.972ZM9.60419 201.235C9.56379 200.811 9.54029 200.384 9.53343 199.95C9.51521 198.784 9.68576 197.63 10.0153 196.514C10.0153 196.516 10.0153 196.516 10.0155 196.516C9.68498 197.63 9.51574 198.786 9.5337 199.95C9.5403 200.384 9.56406 200.811 9.60419 201.235Z" fill="#1A1D63"/>
<path d="M29.8138 216.25C26.2269 216.25 22.6411 215.548 19.0552 214.172C18.264 213.867 17.5018 213.499 16.7847 213.068C15.7305 212.433 14.7734 211.661 13.9656 210.756C11.4094 207.898 9.93724 204.73 9.60432 201.235C9.56419 200.811 9.54043 200.384 9.53383 199.95C9.51587 198.786 9.68511 197.63 10.0157 196.516C10.2686 200.176 11.755 203.48 14.4107 206.449C15.768 207.97 17.5466 209.116 19.4998 209.865C23.0851 211.242 26.6712 211.944 30.2571 211.944C31.899 211.944 33.5401 211.798 35.182 211.5C37.9858 210.994 40.3567 209.213 41.5347 206.769C42.5667 204.628 43.3242 202.393 43.7854 200.051C43.7883 200.106 43.7907 200.161 43.7925 200.218C43.8047 200.637 43.792 201.056 43.7537 201.478C43.5481 203.733 43.0808 205.896 42.3674 207.972C42.0044 209.029 41.5777 210.064 41.0896 211.076C39.9115 213.517 37.5404 215.3 34.7366 215.806C33.0958 216.102 31.4546 216.25 29.8138 216.25Z" fill="#BABBD0"/>
<path d="M34.9075 187.502L28.003 193.048C28.003 193.048 36.425 186.953 42.9586 194.413L34.9075 187.502Z" fill="#1A1D63"/>
<path d="M151.22 201.478L155.428 201.131L152.664 201.359L155.436 201.215C155.434 201.2 155.434 201.173 155.428 201.131L152.664 201.359L155.436 201.215L153.617 201.309L155.436 201.227V201.215L153.617 201.309L155.436 201.227L154.85 201.255L155.436 201.23V201.227L154.85 201.255L155.436 201.23C155.436 201.225 155.434 201.158 155.426 201.022V201.027C155.415 200.89 155.41 200.793 155.407 200.731V200.741V200.726C155.407 200.716 155.407 200.699 155.407 200.677C155.407 200.654 155.407 200.63 155.407 200.605V200.573V200.553V200.515C155.407 200.426 155.407 200.347 155.41 200.28V200.295C155.415 200.2 155.413 200.138 155.415 200.109L155.413 200.079L152.685 200.089H155.413V200.079L152.685 200.089H155.413H151.978L155.41 200.255C155.415 200.153 155.413 200.099 155.413 200.089H151.978L155.41 200.255L151.191 200.052L147.049 200.828L147.051 200.84C147.471 202.815 149.388 204.177 151.521 204.021C153.657 203.862 155.325 202.237 155.413 200.228C155.489 198.521 156.207 196.884 157.446 195.643C158.23 194.857 159.061 194.207 159.972 193.634C160.88 193.061 161.87 192.567 162.955 192.118C164.26 191.578 165.194 190.444 165.421 189.122C165.651 187.799 165.147 186.447 164.091 185.547C161.144 183.034 158.499 180.213 156.168 177.038C156.078 176.917 156.046 176.825 156.044 176.815V176.82L156.028 176.755L156.036 176.78C156.025 176.743 156.022 176.716 156.022 176.691C156.022 176.646 156.03 176.602 156.057 176.539C156.096 176.453 156.189 176.341 156.3 176.274C156.352 176.239 156.411 176.212 156.466 176.197C156.521 176.18 156.58 176.172 156.651 176.17V175.929L156.648 176.17H156.651V175.929L156.648 176.17L156.656 172.871L156.609 176.17H156.648L156.656 172.871L156.609 176.17H156.643C156.712 176.172 156.775 176.172 156.833 176.175H156.836C157.435 176.187 158.05 176.291 158.66 176.48C159.272 176.669 159.877 176.944 160.447 177.296C162.707 178.695 164.843 180.144 166.842 181.65C168.494 182.893 170.876 182.796 172.405 181.419C174.348 179.673 176.457 177.981 178.72 176.326L178.717 176.329C179.253 175.937 179.834 175.614 180.428 175.381C181.022 175.145 181.629 174.997 182.234 174.937L182.192 174.939L182.463 174.915L182.054 170.965L182.4 174.922L182.456 174.92C182.54 174.92 182.614 174.934 182.693 174.964C182.809 175.009 182.928 175.101 182.994 175.195C183.028 175.24 183.05 175.284 183.063 175.319C183.076 175.356 183.081 175.386 183.081 175.423C183.081 175.441 183.079 175.46 183.076 175.485L183.071 175.52L186.503 175.979L183.084 175.436C183.081 175.455 183.076 175.485 183.071 175.52L186.503 175.979L183.084 175.436L185.914 175.887L183.089 175.408L183.084 175.436L185.914 175.887L183.089 175.408L183.382 175.458L183.089 175.408L183.382 175.458L183.089 175.408C183.087 175.413 183.076 175.47 183.063 175.552L183.068 175.522C183.065 175.537 183.047 175.619 182.965 175.751V175.753C180.959 179.015 178.619 181.965 175.971 184.632C174.527 186.085 174.451 188.315 175.792 189.853C177.318 191.607 178.677 193.426 179.863 195.323C180.314 196.048 180.663 196.812 180.89 197.583C181.46 199.498 183.435 200.719 185.534 200.449C187.63 200.181 189.185 198.506 189.185 196.517V196.514H184.961L180.89 197.576C181.109 198.315 181.22 199.054 181.22 199.781C181.22 199.818 181.22 199.856 181.217 199.895L181.22 199.89C181.215 200.176 181.196 200.478 181.167 200.803C181.046 202.158 180.713 203.41 180.161 204.629C179.607 205.844 178.828 207.03 177.777 208.203C177.331 208.702 176.795 209.156 176.175 209.558H176.172C175.604 209.93 174.981 210.245 174.324 210.498C171.182 211.701 168.162 212.279 165.165 212.281C163.79 212.281 162.42 212.16 161.036 211.909C160.851 211.875 160.648 211.825 160.426 211.753C159.257 211.376 158.259 210.528 157.733 209.436C157.277 208.488 156.883 207.519 156.553 206.524C155.98 204.8 155.603 203.014 155.431 201.138L155.428 201.131L151.22 201.478L147.012 201.818C147.236 204.261 147.735 206.625 148.49 208.89C148.92 210.193 149.438 211.468 150.04 212.713C151.529 215.797 154.288 218.156 157.665 219.255C158.219 219.436 158.813 219.592 159.441 219.704C161.342 220.049 163.254 220.22 165.165 220.22C169.339 220.222 173.49 219.396 177.521 217.846C178.733 217.379 179.895 216.791 180.98 216.087H180.977C182.162 215.318 183.274 214.398 184.246 213.311C185.777 211.599 187.023 209.739 187.929 207.749C188.834 205.76 189.394 203.644 189.587 201.463V201.466C189.626 201.007 189.658 200.523 189.666 200.012V200.007C189.668 199.933 189.668 199.858 189.668 199.781C189.668 198.293 189.441 196.839 189.029 195.452C188.464 193.537 186.487 192.314 184.391 192.582C182.294 192.85 180.737 194.527 180.737 196.514V196.517H184.961L189.029 195.452C188.597 193.989 187.955 192.6 187.15 191.307C185.729 189.032 184.114 186.874 182.329 184.825L179.06 187.34L182.147 190.049C185.228 186.949 187.955 183.505 190.278 179.725C190.804 178.874 191.221 177.887 191.411 176.78L191.416 176.748L188.134 176.279L191.403 176.815C191.406 176.802 191.411 176.778 191.416 176.748L188.134 176.279L191.403 176.815L188.787 176.386L191.4 176.827L191.403 176.815L188.787 176.386L191.4 176.827L190.357 176.651L191.4 176.827L190.357 176.651L191.4 176.827C191.4 176.825 191.416 176.75 191.435 176.641L191.427 176.676C191.495 176.257 191.53 175.837 191.53 175.423C191.53 174.25 191.263 173.121 190.79 172.106C190.083 170.586 188.934 169.323 187.498 168.42C186.065 167.52 184.314 166.979 182.456 166.981C182.207 166.981 181.959 166.991 181.711 167.009L181.648 167.014L181.376 167.038L181.336 167.043C179.871 167.19 178.466 167.544 177.157 168.06C175.847 168.579 174.633 169.256 173.529 170.06L173.527 170.065C171.074 171.858 168.748 173.721 166.565 175.686L169.485 178.554L172.125 175.455C169.902 173.781 167.552 172.186 165.091 170.665C163.924 169.946 162.655 169.358 161.305 168.941C159.956 168.522 158.523 168.274 157.047 168.239H157.049C156.925 168.234 156.807 168.234 156.69 168.234H156.727C156.701 168.234 156.68 168.232 156.667 168.232H156.651C155.397 168.232 154.188 168.477 153.1 168.911C151.468 169.569 150.106 170.638 149.132 171.975C148.646 172.645 148.258 173.387 147.989 174.18C147.722 174.972 147.574 175.82 147.574 176.691C147.574 177.323 147.651 177.966 147.812 178.601L147.817 178.626L147.835 178.69V178.695C148.121 179.784 148.617 180.732 149.214 181.546C151.914 185.224 154.998 188.514 158.414 191.426L161.253 188.487L159.55 184.855C158.108 185.45 156.667 186.16 155.27 187.038C153.873 187.916 152.524 188.968 151.275 190.221C148.63 192.877 147.13 196.323 146.972 199.898L151.194 200.062L155.336 199.285L155.333 199.273C154.916 197.31 153.005 195.946 150.882 196.092C148.759 196.239 147.08 197.849 146.972 199.846C146.964 199.975 146.967 200.054 146.964 200.089L146.967 200.116L149.689 200.109H146.967V200.116L149.689 200.109H146.967H150.248L146.967 199.99C146.964 200.062 146.967 200.101 146.967 200.109H150.248L146.967 199.99V200.004C146.961 200.186 146.959 200.357 146.959 200.515C146.959 200.54 146.959 200.563 146.959 200.58V200.563V200.605C146.959 200.627 146.959 200.649 146.959 200.677C146.959 200.744 146.959 200.835 146.962 200.95V200.96C146.969 201.203 146.985 201.411 146.998 201.58V201.585L149.269 201.433L146.993 201.533C146.993 201.538 146.996 201.555 146.998 201.585L149.269 201.433L146.993 201.533H147.014H146.993H147.014H146.993C146.996 201.545 146.996 201.642 147.014 201.823L147.012 201.818L151.22 201.478Z" fill="#1A1D63"/>
<path d="M176.125 173.196L174.094 170.75C171.663 172.531 169.355 174.374 167.198 176.316C166.506 176.936 166.139 177.8 166.184 178.695C166.227 179.591 166.673 180.419 167.42 180.98C170.871 183.572 173.917 186.333 176.499 189.305C177.101 190 177.991 190.414 178.944 190.444C179.9 190.474 180.816 190.116 181.468 189.461C184.502 186.405 187.189 183.014 189.478 179.291C189.954 178.517 190.328 177.629 190.497 176.641L190.503 176.619L188.111 176.277L190.492 176.668L190.503 176.619L188.111 176.277L190.492 176.668L188.763 176.383L190.492 176.676V176.668L188.763 176.383L190.492 176.676L190.405 176.661L190.492 176.676L190.405 176.661L190.492 176.676C190.492 176.668 190.505 176.604 190.519 176.515L187.253 176.081L190.513 176.547C190.574 176.17 190.606 175.795 190.606 175.423C190.606 174.374 190.365 173.362 189.943 172.454C189.309 171.092 188.277 169.953 186.986 169.142C185.695 168.333 184.127 167.85 182.456 167.85C182.234 167.85 182.009 167.857 181.785 167.874L181.737 167.879L181.465 167.904L181.434 167.907C180.064 168.046 178.746 168.375 177.516 168.862C176.283 169.348 175.137 169.988 174.097 170.747L174.094 170.75L176.125 173.196L178.149 175.641C178.749 175.205 179.398 174.845 180.072 174.58C180.742 174.314 181.436 174.143 182.136 174.074L182.104 174.076L182.374 174.051L182.054 170.965L182.326 174.056C182.368 174.051 182.413 174.051 182.456 174.051C182.667 174.051 182.862 174.091 183.05 174.163C183.332 174.275 183.588 174.471 183.755 174.701C183.839 174.815 183.902 174.934 183.942 175.054C183.984 175.175 184.005 175.294 184.005 175.423C184.005 175.485 184 175.547 183.989 175.614L183.984 175.646L186.527 175.984L183.995 175.582C183.992 175.597 183.987 175.619 183.984 175.646L186.527 175.984L183.995 175.582L185.996 175.899L183.997 175.562L183.995 175.582L185.996 175.899L183.997 175.562V175.567C183.995 175.582 183.987 175.624 183.976 175.684L183.982 175.661C183.958 175.795 183.894 175.974 183.765 176.185V176.187C181.722 179.506 179.34 182.513 176.642 185.227L179.055 187.343L181.613 185.383C178.691 182.019 175.298 178.956 171.541 176.135L169.479 178.556L171.763 180.796C173.733 179.023 175.868 177.313 178.152 175.641H178.149L176.125 173.196Z" fill="#1A1D63"/>
<path d="M176.125 173.195C173.764 174.922 171.544 176.698 169.479 178.556C173.086 181.263 176.304 184.175 179.055 187.343C181.922 184.46 184.457 181.26 186.622 177.737C186.925 177.246 187.145 176.71 187.24 176.15C187.242 176.125 187.248 176.105 187.253 176.08C187.712 173.235 185.117 170.729 182.054 170.965L181.785 170.99C179.715 171.198 177.761 171.997 176.125 173.195Z" fill="white"/>
<path d="M182.566 186.5C182.144 185.986 181.711 185.48 181.268 184.981C181.957 184.197 182.622 183.396 183.266 182.573C184.401 183.198 185.106 183.612 184.99 183.624C184.776 183.644 183.702 184.996 182.566 186.5Z" fill="#1A1D63"/>
<path d="M181.267 184.981C179.926 183.47 178.49 182.019 176.969 180.625C175.501 179.278 173.957 177.983 172.338 176.735C174.025 177.681 180.206 180.888 183.266 182.572C182.622 183.396 181.956 184.197 181.267 184.981Z" fill="#BABBD0"/>
<path d="M183.506 193.316L186.353 191.746C183.815 187.683 180.639 183.994 176.969 180.625C173.297 177.256 169.128 174.203 164.585 171.392C163.484 170.71 162.285 170.156 161.015 169.765C159.748 169.373 158.404 169.139 157.023 169.105H157.026C156.91 169.102 156.796 169.102 156.685 169.1H156.651C155.524 169.1 154.439 169.32 153.462 169.71C151.996 170.3 150.771 171.26 149.897 172.464C149.024 173.664 148.498 175.13 148.498 176.691C148.498 177.256 148.567 177.832 148.709 178.402L148.715 178.42L148.733 178.487V178.489C148.987 179.462 149.433 180.315 149.974 181.052C152.635 184.676 155.669 187.916 159.035 190.784L161.253 188.486L159.922 185.648C158.52 186.229 157.129 186.914 155.785 187.76C154.441 188.603 153.148 189.61 151.952 190.813C149.314 193.46 147.88 196.941 147.878 200.525C147.878 200.93 147.896 201.336 147.933 201.741C148.274 205.494 149.282 209.046 150.88 212.356C151.69 214.03 152.905 215.476 154.399 216.595C155.896 217.712 157.678 218.503 159.618 218.853C161.461 219.185 163.312 219.351 165.163 219.351C169.207 219.351 173.236 218.555 177.17 217.042C178.366 216.583 179.52 215.997 180.594 215.285C181.669 214.571 182.664 213.728 183.538 212.75C185.18 210.917 186.474 208.917 187.356 206.774C188.24 204.631 188.708 202.349 188.742 199.994C188.745 199.922 188.745 199.853 188.745 199.781C188.745 198.34 188.517 196.928 188.108 195.579C187.696 194.229 187.102 192.944 186.355 191.749L183.506 193.316L180.66 194.884C181.138 195.651 181.511 196.462 181.761 197.285C182.012 198.109 182.144 198.948 182.144 199.781C182.144 199.823 182.144 199.865 182.142 199.905C182.115 201.557 181.801 203.078 181.202 204.534C180.6 205.99 179.71 207.392 178.485 208.761C177.999 209.304 177.426 209.793 176.785 210.22C176.143 210.647 175.43 211.011 174.673 211.301C171.436 212.542 168.289 213.147 165.163 213.15C163.732 213.15 162.301 213.021 160.862 212.763C159.996 212.606 159.193 212.252 158.507 211.741C157.823 211.229 157.263 210.562 156.891 209.796C155.595 207.104 154.79 204.269 154.51 201.212C154.489 200.984 154.478 200.753 154.478 200.525C154.478 198.501 155.297 196.529 156.77 195.05C157.607 194.212 158.494 193.52 159.457 192.912C160.421 192.307 161.459 191.788 162.583 191.324C163.602 190.903 164.331 190.017 164.511 188.983C164.688 187.948 164.294 186.894 163.47 186.189C160.471 183.634 157.778 180.761 155.407 177.532C155.262 177.333 155.178 177.15 155.146 177.021V177.023L155.13 176.959L155.136 176.978C155.109 176.877 155.099 176.782 155.099 176.691C155.099 176.522 155.136 176.361 155.209 176.197C155.32 175.954 155.526 175.716 155.782 175.554C155.909 175.473 156.046 175.411 156.189 175.368C156.334 175.326 156.485 175.304 156.651 175.301V174.064L156.646 175.301H156.651V174.064L156.646 175.301H156.648C156.722 175.304 156.791 175.304 156.857 175.306C157.554 175.321 158.259 175.44 158.951 175.654C159.642 175.87 160.321 176.18 160.954 176.572C165.216 179.206 169.046 182.024 172.357 185.061C175.668 188.099 178.459 191.357 180.66 194.884L183.506 193.316Z" fill="#1A1D63"/>
<path d="M183.506 193.316C178.767 185.723 171.573 179.427 162.771 173.982C161.033 172.908 159.016 172.255 156.941 172.206C156.849 172.203 156.759 172.203 156.667 172.201C153.596 172.191 151.217 174.882 151.922 177.69L151.938 177.755C152.083 178.306 152.347 178.824 152.691 179.291C155.207 182.719 158.071 185.775 161.253 188.487C158.726 189.533 156.392 190.89 154.359 192.932C152.073 195.229 150.938 198.345 151.223 201.478C151.532 204.881 152.44 208.074 153.887 211.076C155.064 213.519 157.435 215.3 160.239 215.806C165.469 216.749 170.694 216.179 175.921 214.172C177.875 213.42 179.652 212.276 181.011 210.756C183.879 207.553 185.381 203.956 185.442 199.95C185.478 197.618 184.763 195.328 183.506 193.316Z" fill="white"/>
<path d="M165.165 216.25C163.523 216.25 161.881 216.104 160.239 215.806C161.881 216.102 163.52 216.25 165.163 216.25C168.748 216.25 172.336 215.548 175.921 214.172C176.645 213.894 177.347 213.561 178.01 213.174C177.347 213.561 176.647 213.894 175.921 214.172C172.336 215.548 168.751 216.25 165.165 216.25ZM152.266 206.908C151.743 205.159 151.392 203.351 151.22 201.478C151.18 201.054 151.17 200.627 151.183 200.205C151.17 200.627 151.183 201.051 151.223 201.478C151.392 203.351 151.743 205.159 152.266 206.908ZM185.442 199.982C185.442 199.972 185.442 199.96 185.442 199.95C185.447 199.642 185.439 199.337 185.418 199.029C185.439 199.337 185.447 199.642 185.442 199.95C185.442 199.962 185.442 199.972 185.442 199.982ZM185.159 197.271C185.101 197.018 185.035 196.767 184.961 196.516V196.514C185.035 196.765 185.101 197.018 185.159 197.271Z" fill="#1A1D63"/>
<path d="M165.163 216.25C163.52 216.25 161.881 216.102 160.239 215.806C157.435 215.3 155.064 213.517 153.887 211.076C153.235 209.726 152.693 208.337 152.266 206.908C151.743 205.159 151.392 203.351 151.223 201.478C151.183 201.051 151.17 200.627 151.183 200.205C151.186 200.153 151.188 200.101 151.191 200.051C151.653 202.393 152.408 204.628 153.44 206.769C154.618 209.213 156.991 210.994 159.793 211.5C161.435 211.798 163.077 211.944 164.719 211.944C168.304 211.944 171.89 211.242 175.475 209.865C177.429 209.116 179.208 207.97 180.565 206.449C183.221 203.48 184.708 200.173 184.961 196.516C185.035 196.767 185.101 197.018 185.159 197.271C185.288 197.851 185.378 198.439 185.418 199.029C185.439 199.337 185.447 199.642 185.442 199.95C185.442 199.96 185.442 199.972 185.442 199.982C185.37 203.976 183.868 207.561 181.011 210.756C180.156 211.711 179.137 212.52 178.01 213.174C177.347 213.561 176.645 213.894 175.921 214.172C172.336 215.548 168.748 216.25 165.163 216.25Z" fill="#BABBD0"/>
<path d="M160.07 187.502L166.974 193.048C166.974 193.048 158.552 186.953 152.018 194.413L160.07 187.502Z" fill="#1A1D63"/>
<path d="M26.5385 151.784C26.3156 152.794 25.9214 153.764 25.3887 154.667C23.8178 157.326 21.881 159.048 19.6099 160.588C18.9525 161.035 18.1069 161.156 17.3381 160.913C14.6834 160.072 12.2909 158.968 9.95125 156.862C9.15842 156.15 8.4762 155.332 7.945 154.431C6.53754 152.04 6.58005 149.854 8.1351 147.872C9.95574 145.55 13.4547 145.506 16.0048 147.088C16.1727 147.193 16.3985 147.16 16.526 147.014C18.4628 144.794 21.8192 143.863 24.2901 145.575C26.4001 147.034 27.1288 149.108 26.5385 151.784Z" fill="#FF3E3E"/>
<path d="M168.436 151.784C168.661 152.794 169.054 153.764 169.588 154.667C171.158 157.326 173.096 159.048 175.367 160.588C176.024 161.035 176.869 161.156 177.637 160.913C180.293 160.072 182.685 158.968 185.024 156.862C185.817 156.15 186.5 155.332 187.031 154.431C188.438 152.04 188.396 149.854 186.841 147.872C185.019 145.55 181.521 145.506 178.971 147.088C178.804 147.193 178.577 147.16 178.451 147.014C176.513 144.794 173.157 143.863 170.686 145.575C168.576 147.034 167.848 149.108 168.436 151.784Z" fill="#FF3E3E"/>
</svg>
